<?xml version="1.0" encoding="utf-8"?>
<!-- Generator: Adobe Illustrator 26.5.0, SVG Export Plug-In . SVG Version: 6.00 Build 0)  -->
<svg version="1.1" id="Layer_1" xmlns="http://www.w3.org/2000/svg" xmlns:xlink="http://www.w3.org/1999/xlink" x="0px" y="0px"
	 viewBox="0 0 30 30" style="enable-background:new 0 0 30 30;" xml:space="preserve">
<style type="text/css">
	.st0{fill:#11ACDF;}
	.st1{fill:#0120C6;}
</style>
<path class="st0" d="M14.3,10.4c1.7,0,3.1-1.4,3.1-3.1c-0.2-4.1-6-4.1-6.2,0C11.2,9,12.6,10.4,14.3,10.4z M14.3,5.5
	c1,0,1.8,0.8,1.8,1.8c-0.1,2.4-3.5,2.4-3.6,0C12.5,6.3,13.3,5.5,14.3,5.5z"/>
<path class="st0" d="M17.8,22.6H17c0-0.1,0-9.6,0-9.6c0-0.2-0.2-0.4-0.4-0.5l0,0c-0.1,0-0.2,0-0.2,0H11c-0.9,0-0.9,1.3,0,1.3h0.7
	v8.9h-0.9c-0.4,0-0.6,0.3-0.6,0.6c0,0.4,0.3,0.6,0.6,0.6h6.9C18.6,23.8,18.6,22.6,17.8,22.6z M13,13.6h2.7v8.9H13V13.6z"/>
<path class="st0" d="M25.6,30c-0.2,0-0.4-0.1-0.5-0.3c0,0-3.6-5.8-3.6-5.8c-1.7-3,0.5-6.9,4-6.8c3.5,0,5.7,3.8,4,6.8
	c0,0-3.3,5.8-3.3,5.8C26,29.9,25.8,30,25.6,30z M25.6,28.1c0,0,2.7-4.8,2.7-4.8c0.3-0.5,0.4-1.1,0.4-1.6c0-1.8-1.5-3.3-3.3-3.3
	c-1.8,0-3.3,1.5-3.3,3.3c0,0.6,0.2,1.1,0.4,1.6C22.6,23.3,25.6,28.1,25.6,28.1z"/>
<path class="st0" d="M25.4,23.4c-1,0-1.8-0.8-1.8-1.8c0.1-2.3,3.4-2.3,3.5,0C27.2,22.6,26.4,23.4,25.4,23.4z M25.4,21.1
	c-0.3,0-0.5,0.2-0.5,0.5c0,0.6,0.9,0.6,0.9,0C25.9,21.4,25.7,21.1,25.4,21.1z"/>
<path class="st1" d="M14.2,27.1C-2.9,26.4-2.9,2,14.2,1.3c8.2-0.1,14.5,8,12.5,15.9c0.4,0.1,0.8,0.3,1.2,0.5
	C30.2,8.9,23.3-0.1,14.2,0C6.6-0.2-0.2,6.6,0,14.2c0,11.6,13.3,18.3,22.5,11.4l-0.7-1.1C19.6,26.2,17,27.1,14.2,27.1z"/>
</svg>
