<svg width="24" height="25" viewBox="0 0 24 25" fill="none" xmlns="http://www.w3.org/2000/svg">
<g clip-path="url(#clip0_222_14010)">
<path d="M16.8718 24.6563C8.5312 24.5594 -1.91437 13.8468 0.329758 5.41237C0.784357 2.93967 5.1682 -1.32621 8.01863 1.70232C9.15194 2.90298 10.6115 3.838 10.5739 5.69464C10.5821 6.86591 10.0227 7.7715 9.17556 8.53003C8.21631 9.48933 8.12755 11.0151 8.96912 12.0792C10.0053 13.3905 11.2448 14.6299 12.5563 15.6665C13.6204 16.508 15.1462 16.4193 16.1055 15.46L16.4938 15.0718C17.1451 14.4204 18.0142 14.0616 18.941 14.0616C20.7954 14.0229 21.7361 15.4864 22.9334 16.6169C25.9573 19.493 21.7066 23.8346 19.2233 24.3058C18.4989 24.5398 17.7104 24.6563 16.8718 24.6563ZM5.65523 1.68681C3.92644 1.61894 1.62077 4.12801 1.34187 5.61183C-0.474649 12.5264 6.75662 20.4825 12.9777 22.8367C16.0063 23.9197 18.7839 24.0731 21.0707 22.1498C22.5952 20.8447 23.7718 18.9098 22.2043 17.346C22.2043 17.346 20.6591 15.8009 20.6591 15.8009C19.76 14.8628 18.1218 14.8631 17.2228 15.801C17.2228 15.8009 16.8345 16.1891 16.8345 16.1891C15.5054 17.5184 13.3911 17.6413 11.9167 16.4753C11.2299 15.932 10.5616 15.3365 9.93039 14.7052C9.29882 14.0737 8.70329 13.4054 8.16035 12.7188C6.99428 11.2445 7.1173 9.13033 8.44647 7.80103L8.83471 7.41279C9.77282 6.51442 9.77254 4.875 8.83471 3.97654C8.83475 3.97654 7.28949 2.43132 7.28949 2.43132C6.79196 1.93374 6.2523 1.68681 5.65523 1.68681Z" fill="#0120C6"/>
<path d="M19.3152 10.208C19.0773 10.208 18.8635 10.0425 18.8116 9.80049C18.6019 8.82272 18.1173 7.93218 17.4102 7.22516C16.6925 6.50741 15.7876 6.01977 14.7935 5.81496C14.5146 5.7575 14.3351 5.48489 14.3925 5.20603C14.45 4.92718 14.7227 4.74768 15.0015 4.80514C16.1936 5.05067 17.2787 5.63542 18.1393 6.49607C18.9871 7.34392 19.5683 8.41176 19.8197 9.5843C19.8795 9.86263 19.7022 10.1368 19.4238 10.1965C19.3874 10.2042 19.351 10.208 19.3152 10.208Z" fill="#11acdf"/>
<path d="M22.2276 13.1044C22.194 13.1044 22.1599 13.1012 22.1256 13.0943C21.8465 13.0382 21.6656 12.7665 21.7217 12.4874C22.2586 9.81309 21.4277 7.06511 19.499 5.13634C17.5668 3.2041 14.8142 2.37406 12.1359 2.91616C11.8568 2.97291 11.5849 2.7922 11.5284 2.51311C11.4719 2.23407 11.6524 1.96206 11.9314 1.90559C14.9494 1.29474 18.0509 2.23 20.2281 4.40725C22.4014 6.58056 23.3376 9.67699 22.7326 12.6902C22.6833 12.9352 22.4681 13.1044 22.2276 13.1044Z" fill="#11acdf"/>
</g>
<defs>
<clipPath id="clip0_222_14010">
<rect width="24" height="24" fill="white" transform="translate(0 0.65625)"/>
</clipPath>
</defs>
</svg>
