<svg width="20" height="21" viewBox="0 0 20 21" fill="none" xmlns="http://www.w3.org/2000/svg">
<path d="M14.0599 20.5C7.10942 20.4193 -1.59523 11.4921 0.274879 4.46343C0.653712 2.40285 4.30691 -1.15205 6.68227 1.37172C7.6267 2.37227 8.84299 3.15146 8.81171 4.69866C8.81854 5.67472 8.35234 6.42938 7.64638 7.06148C6.84701 7.8609 6.77304 9.13241 7.47435 10.0191C8.33785 11.1119 9.37078 12.1447 10.4637 13.0085C11.3504 13.7098 12.6219 13.6358 13.4213 12.8364L13.7449 12.5129C14.2877 11.9701 15.0119 11.6711 15.7842 11.6711C17.3296 11.6388 18.1135 12.8585 19.1112 13.8006C21.6312 16.1973 18.0889 19.8153 16.0195 20.208C15.4158 20.403 14.7587 20.5 14.0599 20.5ZM4.71277 1.3588C3.27211 1.30225 1.35073 3.39313 1.11831 4.62965C-0.39546 10.3918 5.6306 17.0219 10.8148 18.9837C13.3387 19.8862 15.6533 20.014 17.559 18.4113C18.8294 17.3237 19.8099 15.7113 18.5037 14.4081C18.5037 14.4081 17.216 13.1205 17.216 13.1205C16.4667 12.3388 15.1016 12.339 14.3524 13.1206C14.3524 13.1205 14.0289 13.4441 14.0289 13.4441C12.9212 14.5518 11.1593 14.6542 9.93067 13.6825C9.35836 13.2298 8.80143 12.7336 8.2754 12.2075C7.7491 11.6812 7.25283 11.1243 6.80038 10.5521C5.82865 9.32355 5.93117 7.56174 7.03881 6.45398L7.36234 6.13045C8.1441 5.38181 8.14387 4.01563 7.36234 3.2669C7.36238 3.2669 6.07466 1.97922 6.07466 1.97922C5.66005 1.56458 5.21033 1.3588 4.71277 1.3588Z" fill="#333333"/>
<path d="M14.0599 20.5C7.10942 20.4193 -1.59523 11.4921 0.274879 4.46343C0.653712 2.40285 4.30691 -1.15205 6.68227 1.37172C7.6267 2.37227 8.84299 3.15146 8.81171 4.69866C8.81854 5.67472 8.35234 6.42938 7.64638 7.06148C6.84701 7.8609 6.77304 9.13241 7.47435 10.0191C8.33785 11.1119 9.37078 12.1447 10.4637 13.0085C11.3504 13.7098 12.6219 13.6358 13.4213 12.8364L13.7449 12.5129C14.2877 11.9701 15.0119 11.6711 15.7842 11.6711C17.3296 11.6388 18.1135 12.8585 19.1112 13.8006C21.6312 16.1973 18.0889 19.8153 16.0195 20.208C15.4158 20.403 14.7587 20.5 14.0599 20.5ZM4.71277 1.3588C3.27211 1.30225 1.35073 3.39313 1.11831 4.62965C-0.39546 10.3918 5.6306 17.0219 10.8148 18.9837C13.3387 19.8862 15.6533 20.014 17.559 18.4113C18.8294 17.3237 19.8099 15.7113 18.5037 14.4081C18.5037 14.4081 17.216 13.1205 17.216 13.1205C16.4667 12.3388 15.1016 12.339 14.3524 13.1206C14.3524 13.1205 14.0289 13.4441 14.0289 13.4441C12.9212 14.5518 11.1593 14.6542 9.93067 13.6825C9.35836 13.2298 8.80143 12.7336 8.2754 12.2075C7.7491 11.6812 7.25283 11.1243 6.80038 10.5521C5.82865 9.32355 5.93117 7.56174 7.03881 6.45398L7.36234 6.13045C8.1441 5.38181 8.14387 4.01563 7.36234 3.2669C7.36238 3.2669 6.07466 1.97922 6.07466 1.97922C5.66005 1.56458 5.21033 1.3588 4.71277 1.3588Z" fill="black" fill-opacity="0.2"/>
<path d="M16.0965 8.46003C15.8983 8.46003 15.7201 8.32208 15.6768 8.12044C15.5021 7.30564 15.0982 6.56352 14.509 5.97433C13.9109 5.37621 13.1568 4.96984 12.3284 4.79917C12.096 4.75129 11.9464 4.52411 11.9943 4.29173C12.0422 4.05935 12.2694 3.90977 12.5017 3.95765C13.4952 4.16226 14.3994 4.64955 15.1165 5.36676C15.8231 6.0733 16.3074 6.96317 16.5169 7.94028C16.5667 8.17223 16.419 8.40066 16.187 8.45042C16.1567 8.4569 16.1263 8.46003 16.0965 8.46003Z" fill="#6A6D73"/>
<path d="M18.5233 10.8734C18.4952 10.8734 18.4668 10.8707 18.4382 10.8649C18.2056 10.8182 18.0549 10.5918 18.1016 10.3592C18.5491 8.13062 17.8567 5.84063 16.2494 4.23333C14.6392 2.62313 12.3454 1.93143 10.1135 2.38318C9.88091 2.43047 9.65431 2.27988 9.60725 2.0473C9.56019 1.81477 9.71055 1.5881 9.94309 1.54103C12.4581 1.03199 15.0426 1.81137 16.857 3.62575C18.668 5.43684 19.4482 8.0172 18.944 10.5282C18.903 10.7324 18.7237 10.8734 18.5233 10.8734Z" fill="#6A6D73"/>
</svg>
