<svg width="24" height="25" viewBox="0 0 24 25" fill="none" xmlns="http://www.w3.org/2000/svg">
<path d="M12 3.97729C7.037 3.97729 3 8.0153 3 12.9773C3 17.9393 7.037 21.9773 12 21.9773C16.963 21.9773 21 17.9393 21 12.9773C21 8.0153 16.963 3.97729 12 3.97729ZM12 19.9773C8.141 19.9773 5 16.8373 5 12.9773C5 9.1173 8.141 5.97729 12 5.97729C15.859 5.97729 19 9.1173 19 12.9773C19 16.8373 15.859 19.9773 12 19.9773ZM12.707 12.9773L15.353 10.3313C15.4462 10.2373 15.4986 10.1102 15.4986 9.97779C15.4986 9.84537 15.4462 9.71832 15.353 9.6243C15.259 9.53105 15.1319 9.47872 14.9995 9.47872C14.8671 9.47872 14.74 9.53105 14.646 9.6243L12 12.2703L9.354 9.62329C9.2597 9.53222 9.1334 9.48182 9.0023 9.48296C8.8712 9.4841 8.74579 9.53668 8.65309 9.62939C8.56039 9.72209 8.5078 9.8475 8.50666 9.97859C8.50552 10.1097 8.55592 10.236 8.647 10.3303L11.293 12.9773L8.647 15.6233C8.55311 15.717 8.50032 15.8443 8.50022 15.9769C8.50013 16.1096 8.55275 16.2369 8.6465 16.3308C8.74025 16.4247 8.86747 16.4775 9.00015 16.4776C9.13283 16.4777 9.26011 16.425 9.354 16.3313L12 13.6843L14.646 16.3303C14.6921 16.3781 14.7472 16.4163 14.8081 16.4426C14.8691 16.4689 14.9347 16.4827 15.0011 16.4834C15.0675 16.4841 15.1333 16.4715 15.1948 16.4465C15.2563 16.4214 15.3122 16.3844 15.3592 16.3375C15.4062 16.2906 15.4434 16.2348 15.4686 16.1734C15.4938 16.112 15.5066 16.0462 15.5061 15.9798C15.5056 15.9134 15.4919 15.8478 15.4658 15.7868C15.4397 15.7257 15.4017 15.6705 15.354 15.6243L12.707 12.9773Z" fill="#11acdf"/>
</svg>
