<?xml version="1.0" encoding="utf-8"?>
<!-- Generator: Adobe Illustrator 26.5.0, SVG Export Plug-In . SVG Version: 6.00 Build 0)  -->
<svg version="1.1" id="Layer_1" xmlns="http://www.w3.org/2000/svg" xmlns:xlink="http://www.w3.org/1999/xlink" x="0px" y="0px"
	 viewBox="0 0 512 512" style="enable-background:new 0 0 512 512;" xml:space="preserve">
<style type="text/css">
	.st0{fill:#0120C6;}
	.st1{fill:#11ACDF;}
</style>
<g>
	<g>
		<path class="st0" d="M388,220.1V132C388,59.2,328.8,0,256,0S124,59.2,124,132v88.2c-28.3,32.1-43.8,73.2-43.8,116.1
			C80.2,433.1,159.1,512,256,512s175.8-78.9,175.8-175.8C431.8,293.3,416.2,252.3,388,220.1z M144.4,132
			c0-61.5,50-111.6,111.6-111.6c61.5,0,111.6,50,111.6,111.6v68.5c-7.5-6.2-15.5-11.7-24-16.6V132c0-48.3-39.3-87.6-87.6-87.6
			c-48.3,0-87.6,39.3-87.6,87.6v51.9c-8.5,4.9-16.5,10.4-24,16.6L144.4,132L144.4,132z M323.2,132v41.8
			c-21.2-8.8-44.1-13.3-67.2-13.3c-23.1,0-46,4.6-67.2,13.3V132c0-37,30.1-67.2,67.2-67.2S323.2,94.9,323.2,132z M256,491.6
			c-85.7,0-155.4-69.7-155.4-155.4c0-39.1,14.6-76.5,41.1-105.3c12-13,26-23.8,41.7-32.1c22.2-11.8,47.3-18,72.6-18
			s50.4,6.2,72.6,18c15.6,8.3,29.6,19.1,41.7,32.1h0c26.5,28.8,41.1,66.1,41.1,105.3C411.4,421.9,341.7,491.6,256,491.6z"/>
	</g>
</g>
<g>
	<g>
		<path class="st1" d="M330.4,267.7c-7.8-8.5-16.9-15.5-27.1-20.9c-14.5-7.7-30.8-11.7-47.3-11.7s-32.8,4.1-47.3,11.7
			c-10.2,5.4-19.3,12.4-27.1,20.9c-17.3,18.7-26.8,43.1-26.8,68.5c0,55.8,45.4,101.2,101.2,101.2c55.8,0,101.2-45.4,101.2-101.2
			C357.2,310.8,347.7,286.4,330.4,267.7z M329.1,349.3c-5.4-1.7-11.1,1.2-12.9,6.5c-1.7,5.4,1.2,11.1,6.5,12.9l6.2,2
			c-4.4,9.2-10.4,17.4-17.7,24.3l-3.8-5.2c-3.3-4.6-9.7-5.6-14.2-2.3c-4.6,3.3-5.6,9.7-2.3,14.2l3.8,5.3c-8.7,4.8-18.4,8-28.6,9.3
			v-6.5c0-5.6-4.6-10.2-10.2-10.2c-5.6,0-10.2,4.6-10.2,10.2v6.5c-10.3-1.3-19.9-4.5-28.6-9.3l3.8-5.3c3.3-4.6,2.3-10.9-2.3-14.2
			c-4.6-3.3-10.9-2.3-14.2,2.3l-3.8,5.2c-7.3-6.9-13.4-15.1-17.7-24.3l6.2-2c5.4-1.7,8.3-7.5,6.5-12.9s-7.5-8.3-12.9-6.5l-6.2,2
			c-0.9-4.9-1.4-9.9-1.4-15.1c0-5.1,0.5-10.1,1.4-15.1l6.2,2c1,0.3,2.1,0.5,3.2,0.5c4.3,0,8.3-2.7,9.7-7.1
			c1.7-5.4-1.2-11.1-6.5-12.9l-6.2-2c3.5-7.3,8-14.2,13.6-20.3c1.3-1.4,2.7-2.8,4.1-4.1l3.8,5.3c2,2.7,5.1,4.2,8.3,4.2
			c2.1,0,4.2-0.6,6-1.9c4.6-3.3,5.6-9.7,2.3-14.2l-3.8-5.3c0.4-0.2,0.7-0.4,1.1-0.6c8.5-4.5,17.9-7.5,27.5-8.7v6.5
			c0,5.6,4.6,10.2,10.2,10.2c5.6,0,10.2-4.6,10.2-10.2v-6.5c9.6,1.2,19,4.2,27.5,8.7c0.4,0.2,0.7,0.4,1.1,0.6l-3.8,5.3
			c-3.3,4.6-2.3,10.9,2.3,14.2c1.8,1.3,3.9,1.9,6,1.9c3.2,0,6.3-1.5,8.3-4.2l3.8-5.3c1.4,1.3,2.8,2.7,4.1,4.1h0
			c5.6,6.1,10.2,12.9,13.6,20.3l-6.2,2c-5.4,1.7-8.3,7.5-6.5,12.9c1.4,4.3,5.4,7.1,9.7,7.1c1,0,2.1-0.2,3.2-0.5l6.2-2
			c0.9,4.9,1.4,10,1.4,15.1c0,5.1-0.5,10.2-1.4,15.1L329.1,349.3z"/>
	</g>
</g>
<g>
	<g>
		<path class="st0" d="M290.6,304.4c-3.8-4.1-10.3-4.4-14.4-0.6c-4.1,3.8-4.4,10.3-0.6,14.4c4.5,4.9,7,11.3,7,18
			c0,14.7-11.9,26.6-26.6,26.6c-14.7,0-26.6-11.9-26.6-26.6c0-5.6-4.6-10.2-10.2-10.2s-10.2,4.6-10.2,10.2c0,25.9,21.1,47,47,47
			s47-21.1,47-47C303,324.4,298.6,313.1,290.6,304.4z"/>
	</g>
</g>
<g>
	<g>
		<path class="st0" d="M264.1,298.9c-0.3-5.6-5.1-9.9-10.7-9.6c-5.6,0.3-11.1,1.6-16.2,3.8c-5.2,2.3-7.5,8.3-5.3,13.4
			c1.7,3.8,5.4,6.1,9.4,6.1c1.4,0,2.8-0.3,4.1-0.9c2.9-1.3,6-2,9.1-2.2C260.1,309.4,264.4,304.6,264.1,298.9z"/>
	</g>
</g>
</svg>
