<svg width="32" height="32" viewBox="0 0 32 32" fill="none" xmlns="http://www.w3.org/2000/svg">
<path d="M32 14.3566V2.04713C32 1.44194 31.7358 0.8975 31.317 0.522375C31.3037 0.51 31.2901 0.498062 31.276 0.486875C30.9189 0.183562 30.457 0 29.9529 0H10.3344C9.82354 0 9.35616 0.188563 8.9971 0.499125C8.97241 0.51875 8.94866 0.539813 8.92648 0.563125C8.53323 0.936375 8.28729 1.46337 8.28729 2.04706V6.32137H1.82429C0.818914 6.32137 0.000976562 7.13931 0.000976562 8.14469V30.3628C0.000976562 30.7081 0.108664 31.0285 0.291852 31.2928C0.297414 31.3014 0.303852 31.3097 0.309852 31.3181C0.317352 31.3286 0.324852 31.3391 0.332602 31.3493C0.333539 31.3504 0.334227 31.3517 0.335164 31.3528C0.335664 31.3534 0.336289 31.354 0.336789 31.3546C0.636164 31.7465 1.10804 31.9999 1.6381 31.9999H20.4412C20.985 31.9999 21.4735 31.7604 21.8079 31.3816C21.8186 31.3697 21.8297 31.3584 21.8398 31.3456C21.841 31.3441 21.842 31.3424 21.8432 31.3408C22.1061 31.0247 22.2645 30.6189 22.2645 30.1766L22.2599 16.4036H29.9529C30.6722 16.4036 31.3056 16.0303 31.6709 15.4677C31.6779 15.4572 31.6847 15.4468 31.6911 15.4361C31.8866 15.1225 32 14.7526 32 14.3566ZM23.3195 7.99481L30.625 2.09225V13.8211L23.3195 7.99481ZM1.37598 19.0015L8.02929 24.2341L1.37598 29.6248V19.0015ZM10.2455 24.2081C10.6605 23.872 11.2432 23.868 11.6627 24.1986L19.815 30.625H2.32566L10.2455 24.2081ZM13.8887 24.2025L20.8895 19.0496V29.7211L13.8887 24.2025ZM17.2615 6.32144L10.9667 1.375H29.3249L22.0021 7.2915C21.6949 6.71531 21.0877 6.32144 20.3921 6.32144H17.2615ZM9.66229 2.09875L15.036 6.32137H9.66229V2.09875ZM1.82429 7.69644H20.3922C20.638 7.69644 20.8391 7.89644 20.8405 8.14231L20.8895 17.2589V17.3424L12.7687 23.3196L12.514 23.1188C11.5865 22.3878 10.2978 22.3962 9.37998 23.1397L9.12491 23.3464L1.37598 17.2523V8.14475C1.37598 7.8975 1.5771 7.69644 1.82429 7.69644ZM22.2195 8.88356L22.224 8.87994L29.9339 15.0287H22.2525L22.2195 8.88356Z" fill="#0120C6"/>
<path d="M17.6534 11.9229H4.49707C4.11738 11.9229 3.80957 11.615 3.80957 11.2354C3.80957 10.8557 4.11738 10.5479 4.49707 10.5479H17.6534C18.0331 10.5479 18.3409 10.8557 18.3409 11.2354C18.3409 11.615 18.0331 11.9229 17.6534 11.9229Z" fill="#11acdf"/>
<path d="M17.6534 15.8711H4.49707C4.11738 15.8711 3.80957 15.5633 3.80957 15.1836C3.80957 14.8039 4.11738 14.4961 4.49707 14.4961H17.6534C18.0331 14.4961 18.3409 14.8039 18.3409 15.1836C18.3409 15.5633 18.0331 15.8711 17.6534 15.8711Z" fill="#11acdf"/>
</svg>
