<?xml version="1.0" encoding="utf-8"?>
<!-- Generator: Adobe Illustrator 26.5.0, SVG Export Plug-In . SVG Version: 6.00 Build 0)  -->
<svg version="1.1" id="Layer_1" xmlns="http://www.w3.org/2000/svg" xmlns:xlink="http://www.w3.org/1999/xlink" x="0px" y="0px"
	 viewBox="0 0 458 458" style="enable-background:new 0 0 458 458;" xml:space="preserve">
<style type="text/css">
	.st0{fill:#11ACDF;}
</style>
<g>
	<g>
		<g>
			<path class="st0" d="M428,41.5H30c-16.6,0-30,13.4-30,30v252c0,16.6,13.4,30,30,30h132.1l43.9,52.2c5.7,6.8,14.1,10.7,23,10.7
				s17.3-3.9,23-10.7l43.9-52.2H428c16.6,0,30-13.4,30-30v-252C458,55,444.6,41.5,428,41.5z M428,323.5H281.9L229,386.5l-52.9-62.9
				H30v-252h398V323.5z"/>
			<path class="st0" d="M83.4,144.9h292.2c8.3,0,15-6.7,15-15s-6.7-15-15-15H83.4c-8.3,0-15,6.7-15,15S75.1,144.9,83.4,144.9z"/>
			<path class="st0" d="M83.4,212.7h182.9c8.3,0,15-6.7,15-15s-6.7-15-15-15H83.4c-8.3,0-15,6.7-15,15S75.1,212.7,83.4,212.7z"/>
			<path class="st0" d="M83.4,280.5H328c8.3,0,15-6.7,15-15s-6.7-15-15-15H83.4c-8.3,0-15,6.7-15,15S75.1,280.5,83.4,280.5z"/>
		</g>
	</g>
</g>
</svg>
