<svg width="32" height="22" viewBox="0 0 32 22" fill="none" xmlns="http://www.w3.org/2000/svg">
<path d="M4.57617 10.9792C4.19648 10.9792 3.88867 10.6713 3.88867 10.2917V5.07422C3.88867 4.69453 4.19648 4.38672 4.57617 4.38672C4.95586 4.38672 5.26367 4.69453 5.26367 5.07422V10.2917C5.26367 10.6713 4.95586 10.9792 4.57617 10.9792Z" fill="#11acdf"/>
<path d="M8.94727 10.9606C8.56758 10.9606 8.25977 10.6528 8.25977 10.2731V5.05566C8.25977 4.67598 8.56758 4.36816 8.94727 4.36816C9.32695 4.36816 9.63477 4.67598 9.63477 5.05566V10.2731C9.63477 10.6528 9.32695 10.9606 8.94727 10.9606Z" fill="#11acdf"/>
<path d="M13.3193 10.8512C12.9396 10.8512 12.6318 10.5434 12.6318 10.1637V4.94629C12.6318 4.5666 12.9396 4.25879 13.3193 4.25879C13.699 4.25879 14.0068 4.5666 14.0068 4.94629V10.1637C14.0068 10.5434 13.699 10.8512 13.3193 10.8512Z" fill="#11acdf"/>
<path d="M17.6914 10.9245C17.3117 10.9245 17.0039 10.6167 17.0039 10.237V5.01953C17.0039 4.63984 17.3117 4.33203 17.6914 4.33203C18.0711 4.33203 18.3789 4.63984 18.3789 5.01953V10.237C18.3789 10.6167 18.0711 10.9245 17.6914 10.9245Z" fill="#11acdf"/>
<path d="M31.9996 11.1462C31.9986 11.0497 31.9757 10.9545 31.9367 10.8664L28.7659 3.99549C28.5052 3.43055 27.9347 3.06555 27.3126 3.06555H22.3659V1.98012C22.3659 1.21299 21.7419 0.588867 20.9747 0.588867H1.39131C0.624125 0.588867 0 1.21299 0 1.98018V13.2955C0 14.0626 0.624125 14.6868 1.39131 14.6868H2.581V17.6169C2.581 18.5299 3.32381 19.2726 4.23675 19.2726H6.61844C6.84144 20.4877 7.90756 21.4116 9.18612 21.4116C10.4642 21.4116 11.5299 20.4884 11.7535 19.2741H23.9617C24.1853 20.4884 25.2511 21.4116 26.5291 21.4116C27.8071 21.4116 28.8728 20.4884 29.0964 19.2741H30.4406C31.2958 19.2741 31.9922 18.5784 31.9931 17.7234L32 11.1552C32 11.1522 31.9996 11.1492 31.9996 11.1462ZM30.2381 10.467H25.9509V8.28112H29.2293L30.2381 10.467ZM1.375 13.2955V1.98018C1.375 1.97118 1.38231 1.96393 1.39131 1.96393H20.9748C20.9838 1.96393 20.991 1.97124 20.991 1.98018V13.3118H1.39131C1.38231 13.3117 1.375 13.3044 1.375 13.2955ZM3.956 17.6169V14.6868H20.991V17.8991H11.6369C11.2691 16.9021 10.3094 16.1891 9.18606 16.1891C8.06338 16.1891 7.104 16.9014 6.73581 17.8976H4.23675C4.082 17.8976 3.956 17.7717 3.956 17.6169ZM9.18612 20.0366C8.50444 20.0366 7.94987 19.482 7.94987 18.8004C7.94987 18.1187 8.50444 17.5641 9.18612 17.5641C9.86781 17.5641 10.4224 18.1187 10.4224 18.8004C10.4224 19.4821 9.86781 20.0366 9.18612 20.0366ZM26.5291 20.0366C25.8474 20.0366 25.2928 19.482 25.2928 18.8004C25.2928 18.1187 25.8474 17.5641 26.5291 17.5641C27.2107 17.5641 27.7652 18.1187 27.7652 18.8004C27.7652 19.4821 27.2107 20.0366 26.5291 20.0366ZM30.6181 17.7219C30.6179 17.8196 30.5384 17.8991 30.4406 17.8991H28.9799C28.6121 16.902 27.6523 16.1891 26.5291 16.1891C25.4058 16.1891 24.446 16.902 24.0782 17.8991H22.3659V13.9992V4.44055H27.3126C27.4002 4.44055 27.4806 4.49199 27.5174 4.57162L28.5947 6.90612H25.7081C25.0839 6.90612 24.5759 7.41399 24.5759 8.0383V10.6111C24.5759 11.2898 25.1281 11.842 25.8068 11.842H30.6243L30.6181 17.7219Z" fill="#0120C6"/>
</svg>
