<svg width="24" height="25" viewBox="0 0 24 25" fill="none" xmlns="http://www.w3.org/2000/svg">
<g clip-path="url(#clip0_222_14023)">
<path d="M14.8774 19.4296C14.7679 19.4296 14.6588 19.3947 14.5675 19.326L11.8444 17.2776L9.12066 19.326C8.95317 19.452 8.72607 19.4641 8.54625 19.3565C8.36635 19.2491 8.26946 19.0434 8.30101 18.8362L8.83538 15.3307L5.98623 13.0596C5.81486 12.923 5.74858 12.693 5.82095 12.4861C5.89328 12.2793 6.08851 12.1408 6.30765 12.1408H10.0432L11.3552 8.2046C11.4254 7.99403 11.6225 7.85205 11.8444 7.85205C12.0664 7.85205 12.2634 7.99408 12.3336 8.2046L13.6457 12.1408H17.3809C17.6001 12.1408 17.7953 12.2793 17.8676 12.4861C17.94 12.693 17.8737 12.923 17.7024 13.0596L14.8534 15.3307L15.3873 18.8363C15.4188 19.0435 15.3218 19.2491 15.142 19.3566C15.0601 19.4054 14.9686 19.4296 14.8774 19.4296ZM7.78173 13.172L9.71151 14.7103C9.85584 14.8253 9.92766 15.0088 9.89986 15.1912L9.51098 17.7422L11.5345 16.2203C11.7181 16.0823 11.9708 16.0823 12.1544 16.2204L14.1774 17.7422L13.789 15.1911C13.7612 15.0087 13.833 14.8253 13.9774 14.7103L15.907 13.172H13.274C13.0521 13.172 12.855 13.03 12.7849 12.8195L11.8445 9.99817L10.9041 12.8195C10.8339 13.03 10.6368 13.172 10.4149 13.172H7.78173Z" fill="#11acdf"/>
<path d="M11.9999 24.6562C11.8679 24.6562 11.736 24.6059 11.6353 24.5052L11.4121 24.2816C9.9012 22.7669 9.66898 22.5341 7.0168 21.7758C5.53045 21.3508 4.13077 20.3617 3.07548 18.9908C1.99956 17.5929 1.43326 15.984 1.48093 14.4603C1.53451 12.749 2.15865 11.5352 2.69645 10.6689C3.63718 9.15341 3.71939 7.20768 2.91099 5.59092L1.53161 2.8321C1.40425 2.57739 1.50747 2.26768 1.76223 2.14032L4.62141 0.710737C4.85395 0.59444 5.13675 0.669581 5.28098 0.885908C5.89996 1.8144 6.89184 2.40995 8.00235 2.51992C9.11253 2.62989 10.2022 2.24045 10.9913 1.45136L11.6353 0.807346C11.8367 0.605972 12.1631 0.605972 12.3645 0.807346L13.0085 1.45136C13.7976 2.24045 14.8875 2.62993 15.9975 2.51992C17.1079 2.40995 18.0998 1.8144 18.7188 0.885908C18.8631 0.669487 19.1459 0.594487 19.3784 0.710737L22.2376 2.14032C22.4923 2.26768 22.5956 2.57739 22.4682 2.8321L21.0888 5.59092C20.2804 7.20763 20.3626 9.15341 21.3033 10.6689C21.8411 11.5352 22.4652 12.749 22.5188 14.4603C22.5665 15.984 22.0002 17.5929 20.9243 18.9908C19.869 20.3618 18.4693 21.3508 16.983 21.7758C14.3308 22.5341 14.0986 22.7669 12.5877 24.2816L12.3645 24.5052C12.2638 24.6059 12.1318 24.6562 11.9999 24.6562ZM2.68454 2.8321L3.83339 5.12977C4.80075 7.06443 4.70081 9.39528 3.57263 11.2128C3.0736 12.0167 2.55737 13.035 2.51176 14.4926C2.42888 17.1373 4.62183 20.0185 7.3003 20.7844C10.0366 21.5667 10.4905 21.903 11.9999 23.4109C13.5092 21.903 13.9631 21.5667 16.6995 20.7844C19.378 20.0186 21.5709 17.1373 21.488 14.4927C21.4424 13.035 20.9262 12.0167 20.4271 11.2129C19.2989 9.39538 19.199 7.06448 20.1664 5.12981L21.3152 2.83215L19.3046 1.82687C18.5106 2.80154 17.3651 3.42085 16.099 3.54619C14.6801 3.68677 13.2876 3.18896 12.2793 2.18059L11.9999 1.90117L11.7205 2.18059C10.7121 3.18896 9.31976 3.68654 7.90072 3.54619C6.63463 3.42085 5.48925 2.80154 4.69514 1.82687L2.68454 2.8321Z" fill="#0120C6"/>
<path d="M11.8443 20.32C8.4069 20.32 5.61035 17.5234 5.61035 14.086C5.61035 10.6486 8.4069 7.85205 11.8443 7.85205C15.2818 7.85205 18.0783 10.6486 18.0783 14.086C18.0783 17.5235 15.2818 20.32 11.8443 20.32ZM11.8443 8.88334C8.97554 8.88334 6.6416 11.2173 6.6416 14.0861C6.6416 16.9549 8.97554 19.2888 11.8443 19.2888C14.7131 19.2888 17.047 16.9549 17.047 14.0861C17.0471 11.2172 14.7132 8.88334 11.8443 8.88334Z" fill="#0120C6"/>
<path d="M16.3052 5.9804C16.2714 5.9804 16.2377 5.97712 16.2044 5.97051C16.1716 5.96395 16.1388 5.95363 16.1078 5.94098C16.0769 5.92785 16.0469 5.91191 16.0188 5.89363C15.9906 5.87488 15.9644 5.85332 15.9405 5.82941C15.9166 5.80551 15.895 5.77926 15.8763 5.75113C15.858 5.72301 15.8416 5.69301 15.8289 5.66207C15.8158 5.63113 15.806 5.59832 15.7994 5.56551C15.7928 5.53223 15.7896 5.49848 15.7896 5.46473C15.7896 5.32926 15.8444 5.19613 15.9405 5.10004C15.9644 5.0766 15.9906 5.05504 16.0188 5.03629C16.0469 5.01754 16.0769 5.0016 16.1078 4.98848C16.1388 4.97582 16.1712 4.96598 16.2044 4.95941C16.2705 4.94582 16.3389 4.94582 16.406 4.95941C16.4388 4.96598 16.4712 4.97582 16.5021 4.98848C16.5335 5.0016 16.5635 5.01754 16.5912 5.03629C16.6197 5.05504 16.646 5.0766 16.6699 5.10004C16.7655 5.19613 16.8208 5.32926 16.8208 5.46473C16.8208 5.49848 16.8176 5.53223 16.8105 5.56551C16.804 5.59832 16.7941 5.63113 16.7815 5.66207C16.7683 5.69301 16.7524 5.72301 16.7337 5.75113C16.7149 5.77926 16.6933 5.80551 16.6699 5.82941C16.5738 5.92551 16.4407 5.9804 16.3052 5.9804Z" fill="#0120C6"/>
<path d="M11.9937 5.98051C11.9599 5.98051 11.9262 5.97722 11.8929 5.97062C11.8601 5.96405 11.8272 5.95374 11.7963 5.94108C11.7654 5.92796 11.7353 5.91202 11.7072 5.89374C11.6791 5.87499 11.6529 5.85343 11.629 5.82952C11.6051 5.80562 11.5835 5.77937 11.5647 5.75124C11.5465 5.72312 11.5301 5.69312 11.5174 5.66218C11.5047 5.63124 11.4944 5.59843 11.4879 5.56562C11.4813 5.53233 11.478 5.49858 11.478 5.46483C11.478 5.3289 11.5329 5.19624 11.629 5.10015C11.6529 5.07671 11.6791 5.05515 11.7072 5.0364C11.7354 5.01765 11.7654 5.00171 11.7963 4.98905C11.8272 4.97593 11.86 4.96608 11.8929 4.95952C12.0602 4.92577 12.2383 4.98062 12.3579 5.10015C12.454 5.19624 12.5093 5.32937 12.5093 5.46483C12.5093 5.49858 12.5055 5.53233 12.4989 5.56562C12.4924 5.59843 12.4825 5.63124 12.4694 5.66218C12.4567 5.69312 12.4408 5.72312 12.422 5.75124C12.4033 5.77937 12.3817 5.80562 12.3578 5.82952C12.3344 5.85343 12.3081 5.87499 12.2795 5.89374C12.2519 5.91202 12.2219 5.92796 12.1905 5.94108C12.1596 5.95374 12.1272 5.96405 12.0944 5.97062C12.0611 5.97718 12.0269 5.98051 11.9937 5.98051Z" fill="#0120C6"/>
<path d="M7.73779 5.9804C7.704 5.9804 7.67025 5.97712 7.63701 5.97051C7.6042 5.96395 7.57186 5.95363 7.54045 5.94098C7.50951 5.92785 7.47946 5.91191 7.45139 5.89363C7.42326 5.87488 7.39701 5.85332 7.37311 5.82941C7.27748 5.73332 7.22217 5.60066 7.22217 5.46473C7.22217 5.43098 7.2254 5.39718 7.23248 5.36395C7.23904 5.33113 7.24889 5.29879 7.26154 5.26738C7.27467 5.23645 7.29061 5.20645 7.30936 5.17879C7.32811 5.1502 7.34967 5.12395 7.37311 5.10004C7.39701 5.0766 7.42326 5.05504 7.45139 5.03629C7.47951 5.01754 7.50951 5.0016 7.54045 4.98895C7.57186 4.97582 7.60415 4.96598 7.63701 4.95941C7.70357 4.94582 7.77201 4.94582 7.83857 4.95941C7.87139 4.96598 7.90378 4.97582 7.93518 4.98895C7.96612 5.0016 7.99612 5.01754 8.0242 5.03629C8.05237 5.05504 8.07857 5.0766 8.10248 5.10004C8.12643 5.12395 8.148 5.1502 8.1667 5.17879C8.18503 5.20645 8.20092 5.23645 8.21409 5.26738C8.22675 5.29879 8.23659 5.33113 8.24362 5.36395C8.25018 5.39723 8.25347 5.43098 8.25347 5.46473C8.25347 5.60066 8.19862 5.73332 8.10248 5.82941C8.07857 5.85332 8.05237 5.87488 8.0242 5.89363C7.99607 5.91191 7.96612 5.92785 7.93518 5.94098C7.90378 5.95363 7.87143 5.96395 7.83857 5.97051C7.80525 5.97707 7.77154 5.9804 7.73779 5.9804Z" fill="#0120C6"/>
</g>
<defs>
<clipPath id="clip0_222_14023">
<rect width="24" height="24" fill="white" transform="translate(0 0.65625)"/>
</clipPath>
</defs>
</svg>
