<svg width="112" height="92" viewBox="0 0 112 92" fill="none" xmlns="http://www.w3.org/2000/svg">
<path d="M31.6136 2.68164H24.5205V14.5441" stroke="#333333" stroke-linecap="round" stroke-linejoin="round"/>
<path d="M87.4569 14.5441L87.4919 2.68164H34.3101" stroke="#333333" stroke-linecap="round" stroke-linejoin="round"/>
<path d="M64.5218 2.67045V1H47.4946V2.66477" stroke="#333333" stroke-linecap="round" stroke-linejoin="round"/>
<path d="M105.75 80.2511V48.9761H6.24902V53.8272" stroke="#333333" stroke-linecap="round" stroke-linejoin="round"/>
<path d="M6.24805 56.4546V89.6182C6.2482 89.7998 6.28506 89.9796 6.35653 90.1474C6.428 90.3151 6.53268 90.4675 6.66458 90.5958C6.79648 90.7241 6.95303 90.8258 7.12529 90.8952C7.29755 90.9646 7.48214 91.0002 7.66853 91H104.329C104.705 90.9997 105.066 90.8541 105.331 90.595C105.597 90.3359 105.747 89.9846 105.747 89.6182V82.275" stroke="#333333" stroke-linecap="round" stroke-linejoin="round"/>
<path d="M44.2744 66.7694C44.2744 64.325 50.2421 58.8148 55.7677 57.0171C61.5383 58.7432 67.7124 64.3125 67.7369 66.7114" stroke="#333333" stroke-miterlimit="10"/>
<path d="M50.269 69.5036C50.269 67.6445 50.269 67.3536 50.269 66.6309" stroke="#333333" stroke-miterlimit="10"/>
<path d="M50.2705 66.6502C50.2705 65.5899 53.2946 62.9627 55.9956 62.1831C58.8167 62.932 61.7172 65.5854 61.7288 66.6252V69.5036" stroke="#333333" stroke-miterlimit="10"/>
<path d="M67.7374 90.9645V51.9111H44.2656V90.9645" stroke="#333333" stroke-linecap="round" stroke-linejoin="round"/>
<path d="M44.2627 54.5591H67.7357" stroke="#333333" stroke-linecap="round" stroke-linejoin="round"/>
<path d="M67.7374 69.5034H44.2715" stroke="#333333" stroke-miterlimit="10"/>
<path d="M60.3838 64.7035L63.7496 61.4888" stroke="#333333" stroke-linecap="round" stroke-linejoin="round"/>
<path d="M51.6428 64.7203L48.2012 61.4316" stroke="#333333" stroke-linecap="round" stroke-linejoin="round"/>
<path d="M61.7275 69.5034V91" stroke="#333333" stroke-miterlimit="10"/>
<path d="M50.2681 69.5034V91" stroke="#333333" stroke-miterlimit="10"/>
<path d="M56.001 69.5034V91" stroke="#333333" stroke-miterlimit="10"/>
<path d="M57.1719 79.5513V80.7956" stroke="#333333" stroke-linecap="round" stroke-linejoin="round"/>
<path d="M54.7534 79.5513V80.7956" stroke="#333333" stroke-linecap="round" stroke-linejoin="round"/>
<path d="M47.9763 56.9487L46.5698 58.2749" stroke="#333333" stroke-linecap="round" stroke-linejoin="round"/>
<path d="M47.9763 58.2749L46.5698 56.9487" stroke="#333333" stroke-linecap="round" stroke-linejoin="round"/>
<path d="M65.4211 56.9487L64.0146 58.2749" stroke="#333333" stroke-linecap="round" stroke-linejoin="round"/>
<path d="M65.4211 58.2749L64.0146 56.9487" stroke="#333333" stroke-linecap="round" stroke-linejoin="round"/>
<path d="M52.466 48.9759C52.466 42.11 52.4546 36.3179 52.466 33.085" stroke="#333333" stroke-miterlimit="10"/>
<path d="M45.3965 33.1286C45.3965 31.532 50.7939 27.932 55.7912 26.7593C61.0101 27.8866 66.6163 31.5184 66.6163 33.0911" stroke="#333333" stroke-miterlimit="10"/>
<path d="M66.6163 39.1558V24.3467H45.3872V40.8751" stroke="#333333" stroke-linecap="round" stroke-linejoin="round"/>
<path d="M66.6165 33.085H45.4131" stroke="#333333" stroke-miterlimit="10"/>
<path d="M59.541 33.085V48.9531" stroke="#333333" stroke-miterlimit="10"/>
<path d="M45.3872 33.085V48.9759" stroke="#333333" stroke-miterlimit="10"/>
<path d="M66.6162 33.085V48.9531" stroke="#333333" stroke-miterlimit="10"/>
<path d="M48.7436 26.4658L47.4712 27.6658" stroke="#333333" stroke-linecap="round" stroke-linejoin="round"/>
<path d="M48.7436 27.6658L47.4712 26.4658" stroke="#333333" stroke-linecap="round" stroke-linejoin="round"/>
<path d="M64.5214 26.4658L63.249 27.6658" stroke="#333333" stroke-linecap="round" stroke-linejoin="round"/>
<path d="M64.5214 27.6658L63.249 26.4658" stroke="#333333" stroke-linecap="round" stroke-linejoin="round"/>
<path d="M75.6748 77.6582C75.8218 75.4889 81.443 73.5854 81.443 73.5854C81.443 73.5854 87.069 75.4889 87.1973 77.6582" stroke="#333333" stroke-linecap="round" stroke-linejoin="round"/>
<path d="M101.043 51.9111H94.7588V67.8839H101.043V51.9111Z" stroke="#333333" stroke-linecap="round" stroke-linejoin="round"/>
<path d="M94.7588 57.6112C94.7588 56.2794 96.4195 55.1407 97.9566 54.5601C99.4319 55.1521 101.043 56.2976 101.043 57.6112" stroke="#333333" stroke-linecap="round" stroke-linejoin="round"/>
<path d="M94.7588 86.2784V71.125H101.043V86.2784" stroke="#333333" stroke-linecap="round" stroke-linejoin="round"/>
<path d="M94.7588 76.6366C95.1646 75.3139 96.4195 74.165 97.9566 73.5854C99.4319 74.1775 100.625 75.3116 101.043 76.5991" stroke="#333333" stroke-linecap="round" stroke-linejoin="round"/>
<path d="M105.273 86.4751H90.4805" stroke="#333333" stroke-linecap="round" stroke-linejoin="round"/>
<path d="M72.3799 84.5498V51.9111H90.48V90.9645" stroke="#333333" stroke-linecap="round" stroke-linejoin="round"/>
<path d="M72.3799 90.9649V86.4751" stroke="#333333" stroke-linecap="round" stroke-linejoin="round"/>
<path d="M87.1973 90.9648V71.125H75.6748V90.9648" stroke="#333333" stroke-linecap="round" stroke-linejoin="round"/>
<path d="M90.48 62.1828C90.48 58.0998 81.4171 54.5601 81.4171 54.5601C81.4171 54.5601 72.3799 57.9021 72.3799 61.9703" stroke="#333333" stroke-linecap="round" stroke-linejoin="round"/>
<path d="M76.2319 67.8841V61.9898C76.3626 60.0295 81.4287 58.3125 81.4287 58.3125C81.4287 58.3125 86.5089 60.0295 86.6255 61.9898V67.8841H76.2319Z" stroke="#333333" stroke-linecap="round" stroke-linejoin="round"/>
<path d="M81.4287 58.3125V67.8841" stroke="#333333" stroke-linecap="round" stroke-linejoin="round"/>
<path d="M81.4424 73.5854V90.965" stroke="#333333" stroke-linecap="round" stroke-linejoin="round"/>
<path d="M108.352 48.9761H55.7646" stroke="#333333" stroke-linecap="round" stroke-linejoin="round"/>
<path d="M74.4258 53.8286L75.3599 54.7093" stroke="#333333" stroke-linecap="round" stroke-linejoin="round"/>
<path d="M88.4275 53.8286L87.4922 54.7093" stroke="#333333" stroke-linecap="round" stroke-linejoin="round"/>
<path d="M78.112 72.8979L77.2944 73.4025" stroke="#333333" stroke-linecap="round" stroke-linejoin="round"/>
<path d="M84.75 72.8979L85.5675 73.4025" stroke="#333333" stroke-linecap="round" stroke-linejoin="round"/>
<path d="M24.6162 77.6582C24.748 75.4889 30.3705 73.5854 30.3705 73.5854C30.3705 73.5854 35.9917 75.4889 36.1375 77.6582" stroke="#333333" stroke-linecap="round" stroke-linejoin="round"/>
<path d="M17.0542 51.9111H10.7705V67.8839H17.0542V51.9111Z" stroke="#333333" stroke-linecap="round" stroke-linejoin="round"/>
<path d="M10.7705 57.6112C10.7705 56.3271 12.3811 55.1521 13.8564 54.5601C15.3935 55.1407 17.0542 56.2032 17.0542 57.6112" stroke="#333333" stroke-linecap="round" stroke-linejoin="round"/>
<path d="M10.7705 86.2784V71.125H17.0542V86.2784" stroke="#333333" stroke-linecap="round" stroke-linejoin="round"/>
<path d="M10.7705 76.5991C11.188 75.3116 12.3811 74.1775 13.8564 73.5854C15.3935 74.165 16.6484 75.3139 17.0542 76.6366" stroke="#333333" stroke-linecap="round" stroke-linejoin="round"/>
<path d="M21.3336 86.4751H6.54102" stroke="#333333" stroke-linecap="round" stroke-linejoin="round"/>
<path d="M39.4336 82.1929V90.9645" stroke="#333333" stroke-linecap="round" stroke-linejoin="round"/>
<path d="M21.334 90.9645V51.9111H39.4341V79.5509" stroke="#333333" stroke-linecap="round" stroke-linejoin="round"/>
<path d="M36.1387 90.9648V71.125H24.6162V90.9648" stroke="#333333" stroke-linecap="round" stroke-linejoin="round"/>
<path d="M39.4341 61.9703C39.4341 57.9021 30.3969 54.5601 30.3969 54.5601C30.3969 54.5601 21.334 58.0998 21.334 62.1828" stroke="#333333" stroke-linecap="round" stroke-linejoin="round"/>
<path d="M25.1875 67.8841V61.9898C25.3041 60.0295 30.3843 58.3125 30.3843 58.3125C30.3843 58.3125 35.4493 60.0295 35.5811 61.9898V67.8841H25.1875Z" stroke="#333333" stroke-linecap="round" stroke-linejoin="round"/>
<path d="M62.447 14.5433V10.8864C62.2943 8.66939 56.014 6.71484 56.014 6.71484C56.014 6.71484 49.7338 8.66939 49.5811 10.8864V14.5433" stroke="#333333" stroke-linecap="round" stroke-linejoin="round"/>
<path d="M62.447 10.8863V5.05225H49.5811V10.8863" stroke="#333333" stroke-linecap="round" stroke-linejoin="round"/>
<path d="M73.5503 14.5433V10.8864C73.4465 8.66939 69.1571 6.71484 69.1571 6.71484C69.1571 6.71484 64.8677 8.66939 64.7627 10.8864V14.5433" stroke="#333333" stroke-linecap="round" stroke-linejoin="round"/>
<path d="M73.5503 10.8863V5.05225H64.7627V10.8863" stroke="#333333" stroke-linecap="round" stroke-linejoin="round"/>
<path d="M84.7809 14.5433V10.8864C84.6771 8.66939 80.3876 6.71484 80.3876 6.71484C80.3876 6.71484 76.0982 8.66939 75.9897 10.8864V14.5433" stroke="#333333" stroke-linecap="round" stroke-linejoin="round"/>
<path d="M84.7808 10.8863V5.05225H75.9932V10.8863" stroke="#333333" stroke-linecap="round" stroke-linejoin="round"/>
<path d="M47.2369 14.5433V10.8864C47.1331 8.66939 42.8436 6.71484 42.8436 6.71484C42.8436 6.71484 38.553 8.66939 38.4492 10.8864V14.5433" stroke="#333333" stroke-linecap="round" stroke-linejoin="round"/>
<path d="M47.2369 10.8863V5.05225H38.4492V10.8863" stroke="#333333" stroke-linecap="round" stroke-linejoin="round"/>
<path d="M36.0069 14.5433V10.8864C35.9019 8.66939 31.6125 6.71484 31.6125 6.71484C31.6125 6.71484 27.3242 8.66939 27.2192 10.8864V14.5433" stroke="#333333" stroke-linecap="round" stroke-linejoin="round"/>
<path d="M36.0069 10.8863V5.05225H27.2192V10.8863" stroke="#333333" stroke-linecap="round" stroke-linejoin="round"/>
<path d="M30.3848 58.3125V67.8841" stroke="#333333" stroke-linecap="round" stroke-linejoin="round"/>
<path d="M30.3711 73.5854V90.965" stroke="#333333" stroke-linecap="round" stroke-linejoin="round"/>
<path d="M3.46191 48.9761H56.049" stroke="#333333" stroke-linecap="round" stroke-linejoin="round"/>
<path d="M37.388 53.8286L36.4526 54.7093" stroke="#333333" stroke-linecap="round" stroke-linejoin="round"/>
<path d="M23.3857 53.8286L24.3211 54.7093" stroke="#333333" stroke-linecap="round" stroke-linejoin="round"/>
<path d="M33.7012 72.8979L34.5187 73.4025" stroke="#333333" stroke-linecap="round" stroke-linejoin="round"/>
<path d="M27.0636 72.8979L26.2461 73.4025" stroke="#333333" stroke-linecap="round" stroke-linejoin="round"/>
<path d="M89.5294 33.7036H72.3984" stroke="#333333" stroke-linecap="round" stroke-linejoin="round"/>
<path d="M101.484 17.8237L101.718 20.5794C101.719 20.6385 101.745 20.6946 101.788 20.7357C101.832 20.7769 101.89 20.7999 101.951 20.7999H102.098C102.158 20.7998 102.217 20.8228 102.26 20.864C102.304 20.9052 102.329 20.9612 102.331 21.0203V21.843C102.333 21.9021 102.358 21.9582 102.402 21.9994C102.445 22.0405 102.504 22.0635 102.564 22.0635C102.625 22.0635 102.683 22.0865 102.727 22.1276C102.77 22.1688 102.796 22.2249 102.798 22.284V48.976" stroke="#333333" stroke-linecap="round" stroke-linejoin="round"/>
<path d="M105 48.976V22.284C105.001 22.2249 105.027 22.1688 105.07 22.1276C105.114 22.0865 105.172 22.0635 105.233 22.0635C105.293 22.0635 105.352 22.0405 105.395 21.9994C105.439 21.9582 105.464 21.9021 105.466 21.843V21.0203C105.468 20.9612 105.493 20.9052 105.537 20.864C105.58 20.8228 105.639 20.7998 105.699 20.7999H105.845C105.906 20.7999 105.964 20.7769 106.008 20.7357C106.051 20.6946 106.076 20.6385 106.078 20.5794L106.312 17.8237" stroke="#333333" stroke-linecap="round" stroke-linejoin="round"/>
<path d="M88.2139 17.8237L88.4471 20.5794C88.4489 20.6385 88.4743 20.6946 88.5179 20.7357C88.5614 20.7769 88.6197 20.7999 88.6804 20.7999H88.8285C88.8891 20.7998 88.9474 20.8228 88.991 20.864C89.0345 20.9052 89.0599 20.9612 89.0617 21.0203V21.843C89.0635 21.9021 89.0889 21.9582 89.1325 21.9994C89.176 22.0405 89.2343 22.0635 89.295 22.0635C89.3556 22.0635 89.4139 22.0865 89.4575 22.1276C89.501 22.1688 89.5264 22.2249 89.5282 22.284V48.976" stroke="#333333" stroke-linecap="round" stroke-linejoin="round"/>
<path d="M91.7339 48.976V22.284C91.7357 22.2249 91.7611 22.1688 91.8046 22.1276C91.8482 22.0865 91.9065 22.0635 91.9671 22.0635C92.0278 22.0635 92.0861 22.0405 92.1296 21.9994C92.1732 21.9582 92.1986 21.9021 92.2004 21.843V21.0203C92.2022 20.9612 92.2276 20.9052 92.2711 20.864C92.3147 20.8228 92.373 20.7998 92.4336 20.7999H92.5806C92.6412 20.7999 92.6995 20.7769 92.7431 20.7357C92.7866 20.6946 92.812 20.6385 92.8138 20.5794L93.0471 17.8237" stroke="#333333" stroke-linecap="round" stroke-linejoin="round"/>
<path d="M68.8838 17.8237L69.117 20.5794C69.1189 20.6385 69.1442 20.6946 69.1878 20.7357C69.2313 20.7769 69.2896 20.7999 69.3503 20.7999H69.4984C69.5591 20.7998 69.6174 20.8228 69.6609 20.864C69.7044 20.9052 69.7298 20.9612 69.7316 21.0203V21.843C69.7335 21.9021 69.7588 21.9582 69.8024 21.9994C69.8459 22.0405 69.9042 22.0635 69.9649 22.0635C70.0256 22.0635 70.0839 22.0865 70.1274 22.1276C70.1709 22.1688 70.1963 22.2249 70.1981 22.284V48.976" stroke="#333333" stroke-linecap="round" stroke-linejoin="round"/>
<path d="M72.3984 48.976V22.284C72.4003 22.2249 72.4256 22.1688 72.4692 22.1276C72.5127 22.0865 72.571 22.0635 72.6317 22.0635C72.6924 22.0635 72.7506 22.0405 72.7942 21.9994C72.8377 21.9582 72.8631 21.9021 72.8649 21.843V21.0203C72.8668 20.9612 72.8921 20.9052 72.9357 20.864C72.9792 20.8228 73.0375 20.7998 73.0982 20.7999H73.2463C73.307 20.7999 73.3653 20.7769 73.4088 20.7357C73.4523 20.6946 73.4777 20.6385 73.4795 20.5794L73.7128 17.8237" stroke="#333333" stroke-linecap="round" stroke-linejoin="round"/>
<path d="M79.7478 33.7035V25.8478C79.6989 25.0126 77.8667 24.2705 77.8667 24.2705C77.8667 24.2705 76.0345 25.0126 75.9844 25.8478V33.7035" stroke="#333333" stroke-linecap="round" stroke-linejoin="round"/>
<path d="M85.8834 33.7035V25.8478C85.8344 25.0126 84.0022 24.2705 84.0022 24.2705C84.0022 24.2705 82.1701 25.0126 82.1211 25.8478V33.7035" stroke="#333333" stroke-linecap="round" stroke-linejoin="round"/>
<path d="M85.8838 28.9922H82.146" stroke="#333333" stroke-linecap="round" stroke-linejoin="round"/>
<path d="M79.7478 28.9922H75.9844" stroke="#333333" stroke-linecap="round" stroke-linejoin="round"/>
<path d="M85.8842 48.9762V42.7046C85.8842 40.399 80.9346 38.5342 80.9346 38.5342C80.9346 38.5342 75.9897 40.4671 75.9897 42.7046V48.9751" stroke="#333333" stroke-linecap="round" stroke-linejoin="round"/>
<path d="M85.8834 42.7057V36.8716H75.9844V42.7057" stroke="#333333" stroke-linecap="round" stroke-linejoin="round"/>
<path d="M102.8 33.7036H91.729" stroke="#333333" stroke-linecap="round" stroke-linejoin="round"/>
<path d="M99.1463 33.7035V25.8478C99.0973 25.0126 97.264 24.2705 97.264 24.2705C97.264 24.2705 95.4318 25.0126 95.3828 25.8478V33.7035" stroke="#333333" stroke-linecap="round" stroke-linejoin="round"/>
<path d="M99.1463 28.9922H95.3828" stroke="#333333" stroke-linecap="round" stroke-linejoin="round"/>
<path d="M99.1463 48.9761V38.45C99.0973 37.6148 97.264 36.8716 97.264 36.8716C97.264 36.8716 95.4318 37.6148 95.3828 38.45V48.9761" stroke="#333333" stroke-linecap="round" stroke-linejoin="round"/>
<path d="M94.0345 14.543H55.7969" stroke="#333333" stroke-linecap="round" stroke-linejoin="round"/>
<path d="M111 14.543H96.8501" stroke="#333333" stroke-linecap="round" stroke-linejoin="round"/>
<path d="M109.369 14.5444L106.829 17.824H55.7969" stroke="#333333" stroke-linecap="round" stroke-linejoin="round"/>
<path d="M39.6016 33.7036H22.4707" stroke="#333333" stroke-linecap="round" stroke-linejoin="round"/>
<path d="M9.2002 48.976V22.284C9.20202 22.2249 9.22739 22.1688 9.27094 22.1276C9.31448 22.0865 9.37278 22.0635 9.43344 22.0635C9.49411 22.0635 9.5524 22.0405 9.59595 21.9994C9.6395 21.9582 9.66487 21.9021 9.66669 21.843V21.0203C9.66851 20.9612 9.69389 20.9052 9.73743 20.864C9.78098 20.8228 9.83927 20.7998 9.89994 20.7999H10.0481C10.1087 20.7999 10.167 20.7769 10.2106 20.7357C10.2541 20.6946 10.2795 20.6385 10.2813 20.5794L10.5146 17.8237" stroke="#333333" stroke-linecap="round" stroke-linejoin="round"/>
<path d="M5.68457 17.8237L5.91782 20.5794C5.91964 20.6385 5.94501 20.6946 5.98856 20.7357C6.03211 20.7769 6.0904 20.7999 6.15107 20.7999H6.29801C6.35868 20.7998 6.41697 20.8228 6.46052 20.864C6.50407 20.9052 6.52944 20.9612 6.53126 21.0203V21.843C6.53308 21.9021 6.55846 21.9582 6.602 21.9994C6.64555 22.0405 6.70384 22.0635 6.76451 22.0635C6.82518 22.0635 6.88347 22.0865 6.92702 22.1276C6.97056 22.1688 6.99594 22.2249 6.99776 22.284V48.976" stroke="#333333" stroke-linecap="round" stroke-linejoin="round"/>
<path d="M22.4707 48.976V22.284C22.4725 22.2249 22.4979 22.1688 22.5414 22.1276C22.585 22.0865 22.6433 22.0635 22.704 22.0635C22.7646 22.0635 22.8229 22.0405 22.8665 21.9994C22.91 21.9582 22.9354 21.9021 22.9372 21.843V21.0203C22.939 20.9612 22.9644 20.9052 23.0079 20.864C23.0515 20.8228 23.1098 20.7998 23.1704 20.7999H23.3186C23.3792 20.7999 23.4375 20.7769 23.4811 20.7357C23.5246 20.6946 23.55 20.6385 23.5518 20.5794L23.7851 17.8237" stroke="#333333" stroke-linecap="round" stroke-linejoin="round"/>
<path d="M18.96 17.8237L19.1932 20.5794C19.195 20.6385 19.2204 20.6946 19.264 20.7357C19.3075 20.7769 19.3658 20.7999 19.4265 20.7999H19.5746C19.6352 20.7998 19.6935 20.8228 19.7371 20.864C19.7806 20.9052 19.806 20.9612 19.8078 21.0203V21.843C19.8096 21.9021 19.835 21.9582 19.8786 21.9994C19.9221 22.0405 19.9804 22.0635 20.0411 22.0635C20.1017 22.0635 20.16 22.0865 20.2036 22.1276C20.2471 22.1688 20.2725 22.2249 20.2743 22.284V48.976" stroke="#333333" stroke-linecap="round" stroke-linejoin="round"/>
<path d="M41.8008 48.976V22.284C41.8026 22.2249 41.828 22.1688 41.8715 22.1276C41.9151 22.0865 41.9734 22.0635 42.034 22.0635C42.0947 22.0635 42.153 22.0405 42.1965 21.9994C42.2401 21.9582 42.2655 21.9021 42.2673 21.843V21.0203C42.2691 20.9612 42.2945 20.9052 42.338 20.864C42.3816 20.8228 42.4399 20.7998 42.5005 20.7999H42.6475C42.7081 20.7999 42.7664 20.7769 42.81 20.7357C42.8535 20.6946 42.8789 20.6385 42.8807 20.5794L43.114 17.8237" stroke="#333333" stroke-linecap="round" stroke-linejoin="round"/>
<path d="M38.2861 17.8237L38.5194 20.5794C38.5212 20.6385 38.5466 20.6946 38.5901 20.7357C38.6337 20.7769 38.692 20.7999 38.7526 20.7999H38.9031C38.9637 20.7998 39.022 20.8228 39.0656 20.864C39.1091 20.9052 39.1345 20.9612 39.1363 21.0203V21.843C39.1381 21.9021 39.1635 21.9582 39.2071 21.9994C39.2506 22.0405 39.3089 22.0635 39.3696 22.0635C39.4302 22.0635 39.4885 22.0865 39.5321 22.1276C39.5756 22.1688 39.601 22.2249 39.6028 22.284V48.976" stroke="#333333" stroke-linecap="round" stroke-linejoin="round"/>
<path d="M36.0153 33.7035V25.8478C35.9664 25.0126 34.1342 24.2705 34.1342 24.2705C34.1342 24.2705 32.302 25.0126 32.2554 25.8478V33.7035" stroke="#333333" stroke-linecap="round" stroke-linejoin="round"/>
<path d="M29.8797 33.7035V25.8478C29.8295 25.0126 27.9974 24.2705 27.9974 24.2705C27.9974 24.2705 26.1652 25.0126 26.1162 25.8478V33.7035" stroke="#333333" stroke-linecap="round" stroke-linejoin="round"/>
<path d="M29.8552 28.9922H26.1162" stroke="#333333" stroke-linecap="round" stroke-linejoin="round"/>
<path d="M36.0152 28.9922H32.2529" stroke="#333333" stroke-linecap="round" stroke-linejoin="round"/>
<path d="M36.0153 48.9762V42.7046C35.8987 40.4876 31.0657 38.5342 31.0657 38.5342C31.0657 38.5342 26.234 40.4887 26.1162 42.7046V48.9751" stroke="#333333" stroke-linecap="round" stroke-linejoin="round"/>
<path d="M36.0153 42.7057V36.8716H26.1162V42.7057" stroke="#333333" stroke-linecap="round" stroke-linejoin="round"/>
<path d="M20.2725 33.7036H9.2002" stroke="#333333" stroke-linecap="round" stroke-linejoin="round"/>
<path d="M16.6173 33.7035V25.8478C16.5683 25.0126 14.7361 24.2705 14.7361 24.2705C14.7361 24.2705 12.904 25.0126 12.855 25.8478V33.7035" stroke="#333333" stroke-linecap="round" stroke-linejoin="round"/>
<path d="M16.6173 28.9922H12.855" stroke="#333333" stroke-linecap="round" stroke-linejoin="round"/>
<path d="M16.6173 48.9761V38.45C16.5683 37.6148 14.7361 36.8716 14.7361 36.8716C14.7361 36.8716 12.904 37.6148 12.855 38.45V48.9761" stroke="#333333" stroke-linecap="round" stroke-linejoin="round"/>
<path d="M1 14.543H56.2041" stroke="#333333" stroke-linecap="round" stroke-linejoin="round"/>
<path d="M48.0244 17.8237H56.2044" stroke="#333333" stroke-linecap="round" stroke-linejoin="round"/>
<path d="M2.62988 14.5444L5.16996 17.824H45.326" stroke="#333333" stroke-linecap="round" stroke-linejoin="round"/>
</svg>
