<svg width="118" height="75" viewBox="0 0 118 75" fill="none" xmlns="http://www.w3.org/2000/svg">
<path d="M59.1244 53.5513L59.0508 68.541" stroke="#333333" stroke-linecap="round" stroke-linejoin="round"/>
<path d="M60.6548 61.8936H60.0952" stroke="#333333" stroke-linecap="round" stroke-linejoin="round"/>
<path d="M58.1089 61.8936H57.5493" stroke="#333333" stroke-linecap="round" stroke-linejoin="round"/>
<path d="M57.3564 23.2544H59.605" stroke="#333333" stroke-linecap="round" stroke-linejoin="round"/>
<path d="M58.481 22.2583V24.25" stroke="#333333" stroke-linecap="round" stroke-linejoin="round"/>
<path d="M64.186 23.2544H66.4346" stroke="#333333" stroke-linecap="round" stroke-linejoin="round"/>
<path d="M65.3105 22.2583V24.25" stroke="#333333" stroke-linecap="round" stroke-linejoin="round"/>
<path d="M50.5269 23.2544H52.7744" stroke="#333333" stroke-linecap="round" stroke-linejoin="round"/>
<path d="M51.6504 22.2583V24.25" stroke="#333333" stroke-linecap="round" stroke-linejoin="round"/>
<path d="M43.6963 23.2544H45.9448" stroke="#333333" stroke-linecap="round" stroke-linejoin="round"/>
<path d="M44.8203 22.2583V24.25" stroke="#333333" stroke-linecap="round" stroke-linejoin="round"/>
<path d="M71.0156 23.2544H73.2642" stroke="#333333" stroke-linecap="round" stroke-linejoin="round"/>
<path d="M72.1401 22.2583V24.25" stroke="#333333" stroke-linecap="round" stroke-linejoin="round"/>
<path d="M42.9067 21.103H75.265" stroke="#333333" stroke-linecap="round" stroke-linejoin="round"/>
<path d="M37.0723 25.4058H81.1427" stroke="#333333" stroke-linecap="round" stroke-linejoin="round"/>
<path d="M37.0308 32.73H81.1426" stroke="#333333" stroke-linecap="round" stroke-linejoin="round"/>
<path d="M95.676 41.8696H57.1772" stroke="#333333" stroke-linecap="round" stroke-linejoin="round"/>
<path d="M75.2651 21.1001L80.6223 24.619C80.7825 24.7252 80.9126 24.8628 81.0026 25.0211C81.0925 25.1795 81.1396 25.3541 81.1404 25.5313V26.1674C81.1377 26.3844 81.1834 26.5998 81.2748 26.8012C81.3662 27.0027 81.5015 27.1862 81.673 27.3412L82.5879 28.1976C82.7604 28.3597 82.875 28.5633 82.9176 28.7829C82.9602 29.0024 82.9288 29.2282 82.8273 29.432L81.1632 32.7215V36.4616L117.204 41.8703H97.9247" stroke="#333333" stroke-linecap="round" stroke-linejoin="round"/>
<path d="M60.9957 41.8693H1L37.0409 36.4607V32.7206L35.3768 29.4311C35.2694 29.2284 35.2347 29.0013 35.2775 28.7806C35.3203 28.5598 35.4385 28.356 35.6162 28.1966L36.5311 27.3412C36.8685 27.0243 37.0574 26.6057 37.0596 26.1701V25.5341C37.0581 25.3565 37.1043 25.1812 37.1944 25.0225C37.2845 24.8639 37.4159 24.7265 37.5777 24.6218L42.9068 21.1001" stroke="#333333" stroke-linecap="round" stroke-linejoin="round"/>
<path d="M62.2742 32.7205L63.1581 37.9879C63.1728 38.0755 63.1661 38.1648 63.1384 38.2499C63.1108 38.335 63.0628 38.4139 62.9978 38.4811C62.9327 38.5484 62.8521 38.6025 62.7615 38.6398C62.6708 38.6771 62.5721 38.6967 62.4722 38.6973H55.7006C55.6003 38.6975 55.5012 38.6784 55.4101 38.6413C55.3189 38.6043 55.2379 38.5502 55.1727 38.4828C55.1074 38.4153 55.0593 38.3362 55.0319 38.2508C55.0044 38.1653 54.9982 38.0756 55.0136 37.9879L55.8985 32.7178" stroke="#333333" stroke-linecap="round" stroke-linejoin="round"/>
<path d="M61.0475 38.7004H57.0064V36.9125C57.0057 36.6774 57.0575 36.4445 57.1588 36.2273C57.2602 36.01 57.409 35.8127 57.5968 35.6466C57.7846 35.4805 58.0077 35.3489 58.2531 35.2595C58.4986 35.1701 58.7615 35.1245 59.0269 35.1255V35.1255C59.2921 35.1249 59.5548 35.1707 59.8 35.2603C60.0451 35.3499 60.2678 35.4814 60.4554 35.6475C60.6429 35.8135 60.7916 36.0108 60.8929 36.2279C60.9941 36.4449 61.046 36.6776 61.0454 36.9125V38.7004H61.0475Z" stroke="#333333" stroke-linecap="round" stroke-linejoin="round"/>
<path d="M75.6401 36.4609V35.3467C75.6401 35.0412 75.7771 34.7482 76.021 34.5322C76.2649 34.3162 76.5957 34.1948 76.9406 34.1948V34.1948C77.2853 34.1951 77.6158 34.3165 77.8594 34.5325C78.1031 34.7485 78.2399 35.0413 78.2399 35.3467V36.4609" stroke="#333333" stroke-linecap="round" stroke-linejoin="round"/>
<path d="M70.71 36.4609V35.3467C70.71 35.0412 70.847 34.7482 71.0908 34.5322C71.3347 34.3162 71.6655 34.1948 72.0104 34.1948V34.1948C72.3551 34.1951 72.6856 34.3165 72.9293 34.5325C73.1729 34.7485 73.3098 35.0413 73.3098 35.3467V36.4609" stroke="#333333" stroke-linecap="round" stroke-linejoin="round"/>
<path d="M65.7798 36.4609V35.3467C65.7798 35.0412 65.9168 34.7482 66.1607 34.5322C66.4046 34.3162 66.7353 34.1948 67.0802 34.1948V34.1948C67.4249 34.1951 67.7554 34.3165 67.9991 34.5325C68.2427 34.7485 68.3796 35.0413 68.3796 35.3467V36.4609" stroke="#333333" stroke-linecap="round" stroke-linejoin="round"/>
<path d="M62.8979 36.4793L81.163 36.4609" stroke="#333333" stroke-linecap="round" stroke-linejoin="round"/>
<path d="M42.4915 36.4609V35.3467C42.4915 35.1954 42.4578 35.0456 42.3925 34.9059C42.3271 34.7661 42.2313 34.6392 42.1106 34.5322C41.9898 34.4252 41.8465 34.3404 41.6887 34.2825C41.5309 34.2246 41.3618 34.1948 41.191 34.1948V34.1948C40.8462 34.1948 40.5154 34.3162 40.2715 34.5322C40.0276 34.7482 39.8906 35.0412 39.8906 35.3467V36.4609" stroke="#333333" stroke-linecap="round" stroke-linejoin="round"/>
<path d="M47.4212 36.4609V35.3467C47.4212 35.0412 47.2842 34.7482 47.0403 34.5322C46.7964 34.3162 46.4656 34.1948 46.1207 34.1948V34.1948C45.7758 34.1948 45.4451 34.3162 45.2012 34.5322C44.9573 34.7482 44.8203 35.0412 44.8203 35.3467V36.4609" stroke="#333333" stroke-linecap="round" stroke-linejoin="round"/>
<path d="M52.3621 36.4609V35.3467C52.3621 35.0412 52.2251 34.7482 51.9812 34.5322C51.7373 34.3162 51.4066 34.1948 51.0617 34.1948V34.1948C50.7168 34.1948 50.386 34.3162 50.1421 34.5322C49.8982 34.7482 49.7612 35.0412 49.7612 35.3467V36.4609" stroke="#333333" stroke-linecap="round" stroke-linejoin="round"/>
<path d="M55.2739 36.4793L37.041 36.4609" stroke="#333333" stroke-linecap="round" stroke-linejoin="round"/>
<path d="M1 41.8784L2.32115 44.0619C2.36242 44.1272 2.41872 44.184 2.48641 44.2287C2.5541 44.2735 2.63165 44.3051 2.71403 44.3215C2.79641 44.338 2.88178 44.3389 2.96458 44.3242C3.04739 44.3095 3.12578 44.2796 3.19466 44.2363L4.01636 43.7205C4.11885 43.6578 4.24047 43.6242 4.36504 43.6242C4.48961 43.6242 4.61123 43.6578 4.71372 43.7205L5.7323 44.3565C5.83479 44.4192 5.95641 44.4528 6.08098 44.4528C6.20555 44.4528 6.32717 44.4192 6.42966 44.3565L7.44928 43.7205C7.55155 43.6577 7.67302 43.6241 7.79744 43.6241C7.92186 43.6241 8.04333 43.6577 8.1456 43.7205L9.16522 44.3565C9.26749 44.4193 9.38896 44.4529 9.51338 44.4529C9.6378 44.4529 9.75926 44.4193 9.86154 44.3565L10.8812 43.7205C10.9836 43.6578 11.1053 43.6242 11.2298 43.6242C11.3544 43.6242 11.476 43.6578 11.5785 43.7205L12.5971 44.3565C12.6996 44.4192 12.8212 44.4528 12.9458 44.4528C13.0703 44.4528 13.192 44.4192 13.2945 44.3565L14.3141 43.7205C14.4163 43.6577 14.5378 43.6241 14.6622 43.6241C14.7867 43.6241 14.9081 43.6577 15.0104 43.7205L16.03 44.3565C16.1323 44.4193 16.2537 44.4529 16.3782 44.4529C16.5026 44.4529 16.6241 44.4193 16.7263 44.3565L17.746 43.7205C17.8484 43.6578 17.9701 43.6242 18.0946 43.6242C18.2192 43.6242 18.3408 43.6578 18.4433 43.7205L19.4619 44.3565C19.5663 44.4193 19.6896 44.4529 19.8158 44.4529C19.9419 44.4529 20.0652 44.4193 20.1696 44.3565L21.1892 43.7205C21.2915 43.6577 21.413 43.6241 21.5374 43.6241C21.6618 43.6241 21.7833 43.6577 21.8855 43.7205L22.9052 44.3565C23.0077 44.4192 23.1293 44.4528 23.2538 44.4528C23.3784 44.4528 23.5 44.4192 23.6025 44.3565L24.6211 43.7205C24.7236 43.6578 24.8452 43.6242 24.9698 43.6242C25.0944 43.6242 25.216 43.6578 25.3185 43.7205L26.3381 44.3565C26.4404 44.4193 26.5618 44.4529 26.6862 44.4529C26.8107 44.4529 26.9321 44.4193 27.0344 44.3565L28.054 43.7205C28.1563 43.6577 28.2778 43.6241 28.4022 43.6241C28.5266 43.6241 28.6481 43.6577 28.7503 43.7205L29.77 44.3565C29.8724 44.4192 29.9941 44.4528 30.1186 44.4528C30.2432 44.4528 30.3648 44.4192 30.4673 44.3565L31.4859 43.7205C31.5884 43.6578 31.71 43.6242 31.8346 43.6242C31.9591 43.6242 32.0808 43.6578 32.1833 43.7205L33.2029 44.3565C33.3051 44.4193 33.4266 44.4529 33.551 44.4529C33.6755 44.4529 33.7969 44.4193 33.8992 44.3565L34.9188 43.7205C35.0213 43.6578 35.1429 43.6242 35.2675 43.6242C35.3921 43.6242 35.5137 43.6578 35.6162 43.7205L36.6348 44.3565C36.7392 44.4193 36.8624 44.4529 36.9886 44.4529C37.1148 44.4529 37.2381 44.4193 37.3425 44.3565L38.3621 43.7205C38.4644 43.6577 38.5858 43.6241 38.7102 43.6241C38.8347 43.6241 38.9561 43.6577 39.0584 43.7205L40.078 44.3565C40.1803 44.4193 40.3018 44.4529 40.4262 44.4529C40.5506 44.4529 40.6721 44.4193 40.7744 44.3565L41.794 43.7205C41.8965 43.6578 42.0181 43.6242 42.1426 43.6242C42.2672 43.6242 42.3888 43.6578 42.4913 43.7205L43.5099 44.3565C43.6124 44.4192 43.734 44.4528 43.8586 44.4528C43.9832 44.4528 44.1048 44.4192 44.2073 44.3565L45.2269 43.7205C45.3292 43.6577 45.4506 43.6241 45.575 43.6241C45.6995 43.6241 45.8209 43.6577 45.9232 43.7205L46.9428 44.3565C47.0451 44.4193 47.1666 44.4529 47.291 44.4529C47.4154 44.4529 47.5369 44.4193 47.6391 44.3565L48.6588 43.7205C48.7613 43.6578 48.8829 43.6242 49.0074 43.6242C49.132 43.6242 49.2536 43.6578 49.3561 43.7205L50.3747 44.3565C50.4772 44.4192 50.5988 44.4528 50.7234 44.4528C50.8479 44.4528 50.9696 44.4192 51.0721 44.3565L52.0917 43.7205C52.194 43.6577 52.3154 43.6241 52.4398 43.6241C52.5643 43.6241 52.6857 43.6577 52.788 43.7205L53.8076 44.3565C53.912 44.4193 54.0353 44.4529 54.1615 44.4529C54.2877 44.4529 54.4109 44.4193 54.5153 44.3565L55.5339 43.7205C55.6364 43.6578 55.758 43.6242 55.8826 43.6242C56.0072 43.6242 56.1288 43.6578 56.2313 43.7205L57.2509 44.3565C57.3532 44.4193 57.4746 44.4529 57.599 44.4529C57.7235 44.4529 57.8449 44.4193 57.9472 44.3565L58.9668 43.7205C59.0691 43.6577 59.1906 43.6241 59.315 43.6241C59.4394 43.6241 59.5609 43.6577 59.6632 43.7205L60.6828 44.3565C60.7853 44.4192 60.9069 44.4528 61.0314 44.4528C61.156 44.4528 61.2776 44.4192 61.3801 44.3565L62.3987 43.7205C62.5012 43.6578 62.6228 43.6242 62.7474 43.6242C62.872 43.6242 62.9936 43.6578 63.0961 43.7205L64.0846 44.3473C64.1945 44.4146 64.325 44.4507 64.4587 44.4507C64.5923 44.4507 64.7228 44.4146 64.8327 44.3473L65.8109 43.7205C65.9132 43.6577 66.0346 43.6241 66.1591 43.6241C66.2835 43.6241 66.4049 43.6577 66.5072 43.7205L67.5268 44.3565C67.6293 44.4192 67.7509 44.4528 67.8755 44.4528C68.0001 44.4528 68.1217 44.4192 68.2242 44.3565L69.2428 43.7205C69.3453 43.6578 69.4669 43.6242 69.5915 43.6242C69.716 43.6242 69.8376 43.6578 69.9401 43.7205L70.9597 44.3565C71.062 44.4193 71.1835 44.4529 71.3079 44.4529C71.4323 44.4529 71.5538 44.4193 71.6561 44.3565L72.6757 43.7205C72.7782 43.6578 72.8998 43.6242 73.0244 43.6242C73.1489 43.6242 73.2706 43.6578 73.3731 43.7205L74.3916 44.3565C74.4941 44.4192 74.6157 44.4528 74.7403 44.4528C74.8649 44.4528 74.9865 44.4192 75.089 44.3565L76.1086 43.7205C76.2109 43.6577 76.3323 43.6241 76.4568 43.6241C76.5812 43.6241 76.7027 43.6577 76.8049 43.7205L77.8245 44.3565C77.9268 44.4193 78.0483 44.4529 78.1727 44.4529C78.2971 44.4529 78.4186 44.4193 78.5209 44.3565L79.5405 43.7205C79.643 43.6578 79.7646 43.6242 79.8892 43.6242C80.0137 43.6242 80.1354 43.6578 80.2378 43.7205L81.2564 44.3565C81.3608 44.4193 81.4841 44.4529 81.6103 44.4529C81.7365 44.4529 81.8597 44.4193 81.9641 44.3565L82.9838 43.7205C83.086 43.6577 83.2075 43.6241 83.3319 43.6241C83.4563 43.6241 83.5778 43.6577 83.6801 43.7205L84.6997 44.3565C84.8022 44.4192 84.9238 44.4528 85.0484 44.4528C85.173 44.4528 85.2946 44.4192 85.3971 44.3565L86.4156 43.7205C86.5181 43.6578 86.6397 43.6242 86.7643 43.6242C86.8889 43.6242 87.0105 43.6578 87.113 43.7205L88.1326 44.3565C88.2349 44.4193 88.3564 44.4529 88.4808 44.4529C88.6052 44.4529 88.7267 44.4193 88.8289 44.3565L89.8486 43.7205C89.9508 43.6577 90.0723 43.6241 90.1967 43.6241C90.3211 43.6241 90.4426 43.6577 90.5449 43.7205L91.5645 44.3565C91.667 44.4192 91.7886 44.4528 91.9132 44.4528C92.0377 44.4528 92.1594 44.4192 92.2619 44.3565L93.2804 43.7205C93.3829 43.6578 93.5045 43.6242 93.6291 43.6242C93.7537 43.6242 93.8753 43.6578 93.9778 43.7205L94.9974 44.3565C95.0997 44.4193 95.2211 44.4529 95.3456 44.4529C95.47 44.4529 95.5915 44.4193 95.6937 44.3565L96.7133 43.7205C96.8156 43.6577 96.9371 43.6241 97.0615 43.6241C97.1859 43.6241 97.3074 43.6577 97.4097 43.7205L98.4293 44.3565C98.5337 44.4193 98.657 44.4529 98.7831 44.4529C98.9093 44.4529 99.0326 44.4193 99.137 44.3565L100.156 43.7205C100.258 43.6578 100.38 43.6242 100.504 43.6242C100.629 43.6242 100.75 43.6578 100.853 43.7205L101.873 44.3565C101.975 44.4193 102.096 44.4529 102.221 44.4529C102.345 44.4529 102.467 44.4193 102.569 44.3565L103.589 43.7205C103.691 43.6578 103.813 43.6242 103.937 43.6242C104.062 43.6242 104.183 43.6578 104.286 43.7205L105.304 44.3565C105.407 44.4192 105.529 44.4528 105.653 44.4528C105.778 44.4528 105.899 44.4192 106.002 44.3565L107.021 43.7205C107.124 43.6577 107.245 43.6241 107.37 43.6241C107.494 43.6241 107.615 43.6577 107.718 43.7205L108.737 44.3565C108.84 44.4193 108.961 44.4529 109.086 44.4529C109.21 44.4529 109.331 44.4193 109.434 44.3565L110.453 43.7205C110.556 43.6578 110.677 43.6242 110.802 43.6242C110.927 43.6242 111.048 43.6578 111.151 43.7205L112.169 44.3565C112.272 44.4192 112.393 44.4528 112.518 44.4528C112.642 44.4528 112.764 44.4192 112.867 44.3565L113.886 43.7205C113.988 43.6577 114.11 43.6241 114.234 43.6241C114.359 43.6241 114.48 43.6577 114.583 43.7205L115.404 44.2363C115.473 44.2796 115.552 44.3095 115.634 44.3242C115.717 44.3389 115.802 44.338 115.885 44.3215C115.967 44.3051 116.045 44.2735 116.112 44.2287C116.18 44.184 116.236 44.1272 116.278 44.0619L117.204 41.8968" stroke="#333333" stroke-linecap="round" stroke-linejoin="round"/>
<path d="M2.34717 44.099L2.92951 44.9837C3.12457 45.2783 3.40242 45.523 3.736 45.6941C4.06958 45.8653 4.44752 45.957 4.833 45.9603H113.842C114.228 45.961 114.608 45.8711 114.942 45.6995C115.276 45.528 115.553 45.281 115.744 44.9837L116.275 44.0659" stroke="#333333" stroke-linecap="round" stroke-linejoin="round"/>
<path d="M30.8208 39.9805H32.859" stroke="#333333" stroke-linecap="round" stroke-linejoin="round"/>
<path d="M34.3159 39.9805H36.3748" stroke="#333333" stroke-linecap="round" stroke-linejoin="round"/>
<path d="M32.8589 38.6626H34.9085" stroke="#333333" stroke-linecap="round" stroke-linejoin="round"/>
<path d="M23.207 39.9712H25.2463" stroke="#333333" stroke-linecap="round" stroke-linejoin="round"/>
<path d="M80.8721 38.8838H82.9206" stroke="#333333" stroke-linecap="round" stroke-linejoin="round"/>
<path d="M77.8452 40.0083H79.8938" stroke="#333333" stroke-linecap="round" stroke-linejoin="round"/>
<path d="M88.0278 39.7134H90.0774" stroke="#333333" stroke-linecap="round" stroke-linejoin="round"/>
<path d="M42.9067 21.1004L47.5976 18.6773L47.608 17.3603C47.6077 17.1708 47.6561 16.9838 47.7495 16.8134C47.8428 16.6429 47.9787 16.4935 48.1468 16.3764L51.5901 14.3866V13.6404C51.5857 13.2237 51.7155 12.8146 51.9641 12.461L57.5596 4.16943" stroke="#333333" stroke-linecap="round" stroke-linejoin="round"/>
<path d="M60.5996 4.16943L66.1536 12.5647C66.3398 12.8457 66.4567 13.1585 66.4966 13.4825L66.6116 14.3847L70.0311 16.4214C70.2047 16.525 70.3468 16.665 70.4447 16.829C70.5427 16.9929 70.5935 17.1757 70.5927 17.3612V18.6966L75.2649 21.1004" stroke="#333333" stroke-linecap="round" stroke-linejoin="round"/>
<path d="M66.4968 18.6947L70.595 18.6983L63.7613 14.6719H54.4106L47.5977 18.68L64.1239 18.6937" stroke="#333333" stroke-linecap="round" stroke-linejoin="round"/>
<path d="M58.8945 4.16943L55.9507 11.8442H59.0085H59.165H62.2228L59.2789 4.16943" stroke="#333333" stroke-linecap="round" stroke-linejoin="round"/>
<path d="M51.5815 14.3866L55.9501 11.8442L54.4104 14.672" stroke="#333333" stroke-linecap="round" stroke-linejoin="round"/>
<path d="M66.5908 14.3866L62.2222 11.8442L63.7609 14.672" stroke="#333333" stroke-linecap="round" stroke-linejoin="round"/>
<path d="M59.0913 8.08447V10.0743" stroke="#333333" stroke-linecap="round" stroke-linejoin="round"/>
<path d="M60.6001 4.16924H57.563V2.33361C57.5626 2.15822 57.6013 1.98449 57.677 1.82241C57.7526 1.66033 57.8637 1.51309 58.0038 1.38916C58.1439 1.26523 58.3103 1.16705 58.4934 1.10026C58.6765 1.03348 58.8726 0.999415 59.0707 1.00002V1.00002C59.4734 0.998064 59.8605 1.13764 60.1472 1.38815C60.4339 1.63866 60.5968 1.97966 60.6001 2.33636V4.17199V4.16924Z" stroke="#333333" stroke-linecap="round" stroke-linejoin="round"/>
<path d="M40.0044 28.8418H35.2617" stroke="#333333" stroke-linecap="round" stroke-linejoin="round"/>
<path d="M82.9207 28.8418H42.3774" stroke="#333333" stroke-linecap="round" stroke-linejoin="round"/>
<path d="M102.465 62.3218H101.644V68.5409H107.552V62.3218H106.72" stroke="#333333" stroke-linecap="round" stroke-linejoin="round"/>
<path d="M107.177 45.96L107.187 50.2526H106.73" stroke="#333333" stroke-linecap="round" stroke-linejoin="round"/>
<path d="M102.465 50.2526H102.018L102.007 45.96" stroke="#333333" stroke-linecap="round" stroke-linejoin="round"/>
<path d="M102.736 49.9033L102.465 49.9584V62.5527L102.944 62.6536C104.031 62.884 105.164 62.884 106.252 62.6536L106.73 62.5527V49.9584L106.46 49.9033C105.234 49.6546 103.961 49.6546 102.736 49.9033V49.9033Z" stroke="#333333" stroke-linecap="round" stroke-linejoin="round"/>
<path d="M35.816 73.6817H10.881C10.6766 73.6824 10.4741 73.6473 10.2852 73.5784C10.0962 73.5095 9.92457 73.4081 9.78008 73.2801C9.63559 73.1521 9.52113 73 9.44331 72.8327C9.36549 72.6653 9.32585 72.486 9.32667 72.305V68.541H108.837V72.3142C108.838 72.4952 108.798 72.6746 108.72 72.842C108.643 73.0094 108.528 73.1615 108.384 73.2895C108.239 73.4176 108.067 73.5189 107.878 73.5878C107.689 73.6567 107.487 73.6917 107.282 73.6909L38.1764 73.6845" stroke="#333333" stroke-linecap="round" stroke-linejoin="round"/>
<path d="M41.1005 60.8573H36.6656C36.5527 60.8566 36.4447 60.8165 36.365 60.7457C36.2853 60.675 36.2403 60.5792 36.2397 60.4792V52.4547C36.2408 51.8346 36.5195 51.2401 37.0146 50.8015C37.5097 50.363 38.1808 50.1162 38.881 50.1152C39.5814 50.116 40.2528 50.3627 40.7481 50.8012C41.2434 51.2398 41.5222 51.8344 41.5233 52.4547V60.4792C41.525 60.529 41.5153 60.5785 41.4947 60.6248C41.4741 60.6711 41.4431 60.7133 41.4035 60.7486C41.364 60.784 41.3167 60.8119 41.2646 60.8306C41.2126 60.8493 41.1567 60.8584 41.1005 60.8573V60.8573Z" stroke="#333333" stroke-linecap="round" stroke-linejoin="round"/>
<path d="M81.7556 60.8573H77.3249C77.2118 60.8569 77.1035 60.8169 77.0236 60.7461C76.9437 60.6752 76.8985 60.5793 76.8979 60.4792V52.4547C76.899 51.8339 77.1782 51.2389 77.6742 50.8002C78.1702 50.3616 78.8425 50.1152 79.5434 50.1152C80.2437 50.116 80.9152 50.3627 81.4105 50.8012C81.9058 51.2398 82.1846 51.8344 82.1857 52.4547V60.4792C82.1874 60.5295 82.1775 60.5796 82.1564 60.6264C82.1354 60.6731 82.1037 60.7156 82.0634 60.751C82.0231 60.7865 81.9749 60.8142 81.922 60.8325C81.869 60.8508 81.8124 60.8593 81.7556 60.8573Z" stroke="#333333" stroke-linecap="round" stroke-linejoin="round"/>
<path d="M66.8927 71.1016H51.27V73.6815H66.8927V71.1016Z" stroke="#333333" stroke-linecap="round" stroke-linejoin="round"/>
<path d="M65.5716 68.541H52.6016V71.1026H65.5716V68.541Z" stroke="#333333" stroke-linecap="round" stroke-linejoin="round"/>
<path d="M53.2876 68.5414V55.8085C53.2876 53.0909 59.0903 50.6128 59.0903 50.6128C59.0903 50.6128 64.893 53.0909 64.893 55.8085V68.5414" stroke="#333333" stroke-linecap="round" stroke-linejoin="round"/>
<path d="M55.4811 68.5409V56.3982C55.4251 53.9128 59.0912 52.9922 59.0912 52.9922C59.0912 52.9922 62.7573 53.91 62.7013 56.3982V68.5409" stroke="#333333" stroke-linecap="round" stroke-linejoin="round"/>
<path d="M102.008 45.9785L91.8975 50.2528" stroke="#333333" stroke-linecap="round" stroke-linejoin="round"/>
<path d="M101.643 66.3391L92.3032 65.4727" stroke="#333333" stroke-linecap="round" stroke-linejoin="round"/>
<path d="M16.54 66.3762L26.3797 65.4639" stroke="#333333" stroke-linecap="round" stroke-linejoin="round"/>
<path d="M16.1543 45.9692L26.7535 50.2619" stroke="#333333" stroke-linecap="round" stroke-linejoin="round"/>
<path d="M16.623 70.8901H18.6623" stroke="#333333" stroke-linecap="round" stroke-linejoin="round"/>
<path d="M12.7432 70.5767H14.7814" stroke="#333333" stroke-linecap="round" stroke-linejoin="round"/>
<path d="M13.5957 72.0234H15.6339" stroke="#333333" stroke-linecap="round" stroke-linejoin="round"/>
<path d="M22.9053 70.8901H24.9445" stroke="#333333" stroke-linecap="round" stroke-linejoin="round"/>
<path d="M23.9248 72.2168H25.9734" stroke="#333333" stroke-linecap="round" stroke-linejoin="round"/>
<path d="M27.0239 70.8901H30.0817" stroke="#333333" stroke-linecap="round" stroke-linejoin="round"/>
<path d="M101.644 70.4482H103.692" stroke="#333333" stroke-linecap="round" stroke-linejoin="round"/>
<path d="M102.673 71.7744H104.712" stroke="#333333" stroke-linecap="round" stroke-linejoin="round"/>
<path d="M97.4727 71.48H100.53" stroke="#333333" stroke-linecap="round" stroke-linejoin="round"/>
<path d="M87.2063 62.3218H86.4053V68.5409H92.3033V62.3218H91.4712" stroke="#333333" stroke-linecap="round" stroke-linejoin="round"/>
<path d="M91.9281 45.96V50.2526H91.5229" stroke="#333333" stroke-linecap="round" stroke-linejoin="round"/>
<path d="M87.2064 50.2526H86.7588V45.96" stroke="#333333" stroke-linecap="round" stroke-linejoin="round"/>
<path d="M87.4872 49.9033L87.2168 49.9584V62.5527L87.6955 62.6536C88.7827 62.884 89.9159 62.884 91.0031 62.6536L91.4818 62.5527V49.9584L91.2113 49.9033C89.9858 49.6546 88.7127 49.6546 87.4872 49.9033V49.9033Z" stroke="#333333" stroke-linecap="round" stroke-linejoin="round"/>
<path d="M67.6524 62.3218H66.8203V68.5409H72.738V62.3218H71.9163" stroke="#333333" stroke-linecap="round" stroke-linejoin="round"/>
<path d="M72.3533 45.96L72.3637 50.2526H71.916" stroke="#333333" stroke-linecap="round" stroke-linejoin="round"/>
<path d="M67.6524 50.2526H67.1944L67.1841 45.96" stroke="#333333" stroke-linecap="round" stroke-linejoin="round"/>
<path d="M67.9124 49.9034L67.6523 49.9584V62.5527L68.13 62.6536C69.2172 62.884 70.3504 62.884 71.4376 62.6536L71.9163 62.5527V49.9584L71.6458 49.9034C70.4172 49.6546 69.1411 49.6546 67.9124 49.9034Z" stroke="#333333" stroke-linecap="round" stroke-linejoin="round"/>
<path d="M46.2454 62.3218H45.4341V68.5409H51.3528V62.3218H50.5208" stroke="#333333" stroke-linecap="round" stroke-linejoin="round"/>
<path d="M50.979 45.96V50.2526H50.521" stroke="#333333" stroke-linecap="round" stroke-linejoin="round"/>
<path d="M46.2557 50.2526H45.8091V45.96" stroke="#333333" stroke-linecap="round" stroke-linejoin="round"/>
<path d="M46.5263 49.9033L46.2559 49.9584V62.5527L46.7346 62.6536C47.8218 62.884 48.9549 62.884 50.0421 62.6536L50.5208 62.5527V49.9584L50.2504 49.9033C49.0249 49.6546 47.7518 49.6546 46.5263 49.9033V49.9033Z" stroke="#333333" stroke-linecap="round" stroke-linejoin="round"/>
<path d="M27.1804 62.3218H26.3794V68.5409H32.2867V62.3218H31.4547" stroke="#333333" stroke-linecap="round" stroke-linejoin="round"/>
<path d="M31.9126 45.96V50.2526H31.4546" stroke="#333333" stroke-linecap="round" stroke-linejoin="round"/>
<path d="M27.1907 50.2526H26.7534V45.96" stroke="#333333" stroke-linecap="round" stroke-linejoin="round"/>
<path d="M27.4614 49.9033L27.1909 49.9584V62.5527L27.6686 62.6536C28.7561 62.884 29.8896 62.884 30.9772 62.6536L31.4549 62.5527V49.9584L31.1844 49.9033C29.9593 49.6546 28.6865 49.6546 27.4614 49.9033V49.9033Z" stroke="#333333" stroke-linecap="round" stroke-linejoin="round"/>
<path d="M11.4428 62.3218H10.6211V68.5409H16.5295V62.3218H15.7078" stroke="#333333" stroke-linecap="round" stroke-linejoin="round"/>
<path d="M16.1547 45.96V50.2526H15.7495" stroke="#333333" stroke-linecap="round" stroke-linejoin="round"/>
<path d="M11.4014 50.2526H10.9849V45.96" stroke="#333333" stroke-linecap="round" stroke-linejoin="round"/>
<path d="M11.7133 49.9033L11.4429 49.9584V62.5527L11.9216 62.6536C13.0088 62.884 14.142 62.884 15.2291 62.6536L15.7079 62.5527V49.9584L15.4374 49.9033C14.2119 49.6546 12.9388 49.6546 11.7133 49.9033V49.9033Z" stroke="#333333" stroke-linecap="round" stroke-linejoin="round"/>
</svg>
