<svg width="133" height="66" viewBox="0 0 133 66" fill="none" xmlns="http://www.w3.org/2000/svg">
<path d="M25.1969 35.8387L23.5781 34.0542" stroke="#333333" stroke-linecap="round" stroke-linejoin="round"/>
<path d="M23.5781 35.8387L25.1969 34.0542" stroke="#333333" stroke-linecap="round" stroke-linejoin="round"/>
<path d="M39.8878 35.8387L38.2607 34.0542" stroke="#333333" stroke-linecap="round" stroke-linejoin="round"/>
<path d="M38.2607 35.8387L39.8878 34.0542" stroke="#333333" stroke-linecap="round" stroke-linejoin="round"/>
<path d="M95.043 35.8387L93.416 34.0542" stroke="#333333" stroke-linecap="round" stroke-linejoin="round"/>
<path d="M93.416 35.8387L95.043 34.0542" stroke="#333333" stroke-linecap="round" stroke-linejoin="round"/>
<path d="M109.726 35.8387L108.098 34.0542" stroke="#333333" stroke-linecap="round" stroke-linejoin="round"/>
<path d="M108.098 35.8387L109.726 34.0542" stroke="#333333" stroke-linecap="round" stroke-linejoin="round"/>
<path d="M43.0654 46.5363V32.7914C43.0654 31.8823 42.428 31.1396 41.6446 31.1396H21.7954C21.012 31.1396 20.3745 31.8796 20.3745 32.7914V46.5363" stroke="#333333" stroke-linecap="round" stroke-linejoin="round"/>
<path d="M36.3663 65.1609V49.5252C36.3703 49.3238 36.3019 49.1289 36.176 48.9829C36.05 48.837 35.8769 48.7518 35.6942 48.7461H35.4188L33.6104 46.6489H44.8997L43.0913 48.7461H42.8159C42.6332 48.7518 42.46 48.837 42.3341 48.9829C42.2082 49.1289 42.1398 49.3238 42.1438 49.5252V49.5252V65.1609" stroke="#333333" stroke-linecap="round" stroke-linejoin="round"/>
<path d="M50.6862 65.1615V49.5258C50.6904 49.3245 50.6222 49.1296 50.4964 48.9836C50.3706 48.8376 50.1975 48.7525 50.015 48.7467H49.7305L47.9229 46.6514H61.5295L59.721 48.7486H59.4456C59.263 48.7543 59.0899 48.8394 58.9642 48.9854C58.8384 49.1314 58.7701 49.3263 58.7743 49.5276V49.5276V65.1634" stroke="#333333" stroke-linecap="round" stroke-linejoin="round"/>
<path d="M74.5657 65.1609V49.5252C74.5699 49.3239 74.5017 49.1289 74.3759 48.983C74.2501 48.837 74.077 48.7518 73.8944 48.7461H73.6182L71.8105 46.6489H85.4172L83.6087 48.7461H83.3242C83.1417 48.7518 82.9686 48.837 82.8428 48.983C82.717 49.1289 82.6488 49.3239 82.653 49.5252V49.5252V65.1609" stroke="#333333" stroke-linecap="round" stroke-linejoin="round"/>
<path d="M21.2623 55.011V49.4322C21.2625 49.3423 21.2466 49.2533 21.2155 49.1703C21.1844 49.0872 21.1387 49.0118 21.0811 48.9482C21.0235 48.8847 20.955 48.8344 20.8797 48.8001C20.8044 48.7658 20.7236 48.7483 20.6421 48.7486H20.3057L18.498 46.6514H29.7874L27.9732 48.7486H27.6368C27.5552 48.7482 27.4744 48.7656 27.3991 48.7999C27.3237 48.8341 27.2552 48.8844 27.1975 48.948C27.1399 49.0115 27.0942 49.087 27.0632 49.1701C27.0321 49.2532 27.0163 49.3423 27.0166 49.4322V65.1588" stroke="#333333" stroke-linecap="round" stroke-linejoin="round"/>
<path d="M21.2617 65.161V57.1768" stroke="#333333" stroke-linecap="round" stroke-linejoin="round"/>
<path d="M66.6603 32.7812C59.8314 32.7812 54.2856 40.0719 54.2856 46.5934" stroke="#333333" stroke-linecap="round" stroke-linejoin="round"/>
<path d="M66.6602 32.7812C73.489 32.7812 79.0348 40.0719 79.0348 46.5934" stroke="#333333" stroke-linecap="round" stroke-linejoin="round"/>
<path d="M66.6604 36.6831C61.7604 36.6831 57.7905 41.9138 57.7905 46.5845" stroke="#333333" stroke-linecap="round" stroke-linejoin="round"/>
<path d="M66.6602 36.6831C71.5602 36.6831 75.53 41.9138 75.53 46.5845" stroke="#333333" stroke-linecap="round" stroke-linejoin="round"/>
<path d="M66.6606 39.2275C63.0182 39.2275 60.0635 43.1192 60.0635 46.5845" stroke="#333333" stroke-linecap="round" stroke-linejoin="round"/>
<path d="M66.6602 39.2275C70.3026 39.2275 73.2573 43.1192 73.2573 46.5845" stroke="#333333" stroke-linecap="round" stroke-linejoin="round"/>
<path d="M115.461 19.4922H119.489" stroke="#333333" stroke-linecap="round" stroke-linejoin="round"/>
<path d="M13.8037 19.492H45.1666C45.5326 19.4909 45.8945 19.4078 46.2305 19.2477C46.5664 19.0877 46.8694 18.8541 47.121 18.5611V18.5611C47.3707 18.2674 47.672 18.0326 48.0066 17.8712C48.3411 17.7098 48.7019 17.625 49.0671 17.6221H84.2275C84.5939 17.6249 84.956 17.7096 85.2919 17.871C85.6278 18.0324 85.9306 18.2672 86.1819 18.5611V18.5611C86.4323 18.8557 86.7351 19.0904 87.0713 19.2506C87.4075 19.4107 87.77 19.4929 88.1363 19.492H113.497" stroke="#333333" stroke-linecap="round" stroke-linejoin="round"/>
<path d="M14.9414 24.6084H20.7964" stroke="#333333" stroke-linecap="round" stroke-linejoin="round"/>
<path d="M90.2271 46.7253V32.9813C90.2271 32.0723 90.8645 31.3296 91.6479 31.3296H111.488C112.272 31.3296 112.909 32.0696 112.909 32.9813V46.7253" stroke="#333333" stroke-linecap="round" stroke-linejoin="round"/>
<path d="M96.9064 65.1612V49.6219C96.9022 49.4207 96.9705 49.2258 97.0963 49.08C97.2221 48.9341 97.3952 48.8492 97.5777 48.8437H97.8531L99.6615 46.7456H88.3779L90.1864 48.8437H90.4618C90.6443 48.8492 90.8174 48.9341 90.9432 49.08C91.069 49.2258 91.1373 49.4207 91.1331 49.6219V49.6219V65.1612" stroke="#333333" stroke-linecap="round" stroke-linejoin="round"/>
<path d="M112.008 54.378V49.6219C112.003 49.4207 112.072 49.2258 112.197 49.08C112.323 48.9341 112.496 48.8492 112.679 48.8437V48.8437C112.768 48.8434 112.856 48.823 112.937 48.7837C113.019 48.7445 113.092 48.6872 113.153 48.6155L114.772 46.7456H103.482L105.291 48.8437H105.575C105.757 48.8492 105.93 48.9341 106.056 49.0799C106.182 49.2257 106.251 49.4206 106.247 49.6219V49.6219V65.1612" stroke="#333333" stroke-linecap="round" stroke-linejoin="round"/>
<path d="M112.008 65.1611V56.5796" stroke="#333333" stroke-linecap="round" stroke-linejoin="round"/>
<path d="M82.723 46.6345V30.1615C82.723 29.2525 82.0856 28.5098 81.3022 28.5098H52.0273C51.2439 28.5198 50.6064 29.2506 50.6064 30.1615V46.6345" stroke="#333333" stroke-linecap="round" stroke-linejoin="round"/>
<path d="M63.1464 17.6222V9.99975C63.1464 8.99434 62.4405 8.18164 61.5713 8.18164H71.7408C70.8708 8.18164 70.1649 8.99979 70.1649 9.99975V17.6231" stroke="#333333" stroke-linecap="round" stroke-linejoin="round"/>
<path d="M66.6603 6.10693C66.4271 6.11002 66.1984 6.17775 65.9952 6.30389C65.792 6.43003 65.6208 6.61052 65.4975 6.82872L64.7314 8.17594H68.5809L67.814 6.82872C67.6947 6.6087 67.5257 6.42653 67.3235 6.30002C67.1213 6.17351 66.8928 6.10698 66.6603 6.10693Z" stroke="#333333" stroke-linecap="round" stroke-linejoin="round"/>
<path d="M84.0638 6.69541C83.9689 5.50909 84.7185 4.4464 85.7427 4.33186C86.7669 4.21732 87.6806 5.09183 87.7755 6.27815C87.7837 6.41405 87.7837 6.55041 87.7755 6.68631" stroke="#333333" stroke-linecap="round" stroke-linejoin="round"/>
<path d="M66.626 50.0869V65.18" stroke="#333333" stroke-linecap="round" stroke-linejoin="round"/>
<path d="M67.7192 56.8359V58.365" stroke="#333333" stroke-linecap="round" stroke-linejoin="round"/>
<path d="M65.5322 56.8359V58.365" stroke="#333333" stroke-linecap="round" stroke-linejoin="round"/>
<path d="M63.336 50.089H69.9151C70.4667 50.079 70.9145 50.5917 70.9228 51.2371V65.1793H62.3374V51.2453C62.3374 50.609 62.7761 50.089 63.336 50.089Z" stroke="#333333" stroke-linecap="round" stroke-linejoin="round"/>
<path d="M93.0107 22.7485V21.6758" stroke="#333333" stroke-linecap="round" stroke-linejoin="round"/>
<path d="M99.8306 22.7485V21.6758" stroke="#333333" stroke-linecap="round" stroke-linejoin="round"/>
<path d="M106.659 22.7485V21.6758" stroke="#333333" stroke-linecap="round" stroke-linejoin="round"/>
<path d="M113.497 22.7485V21.6758" stroke="#333333" stroke-linecap="round" stroke-linejoin="round"/>
<path d="M21.4775 22.7485V21.6758" stroke="#333333" stroke-linecap="round" stroke-linejoin="round"/>
<path d="M28.2969 22.7485V21.6758" stroke="#333333" stroke-linecap="round" stroke-linejoin="round"/>
<path d="M35.126 22.7485V21.6758" stroke="#333333" stroke-linecap="round" stroke-linejoin="round"/>
<path d="M41.9629 22.7485V21.6758" stroke="#333333" stroke-linecap="round" stroke-linejoin="round"/>
<path d="M53.02 20.6398V19.5771" stroke="#333333" stroke-linecap="round" stroke-linejoin="round"/>
<path d="M59.8232 20.6398V19.5771" stroke="#333333" stroke-linecap="round" stroke-linejoin="round"/>
<path d="M66.626 20.6398V19.5771" stroke="#333333" stroke-linecap="round" stroke-linejoin="round"/>
<path d="M73.4287 20.6398V19.5771" stroke="#333333" stroke-linecap="round" stroke-linejoin="round"/>
<path d="M80.2314 20.6398V19.5771" stroke="#333333" stroke-linecap="round" stroke-linejoin="round"/>
<path d="M108.933 46.7457C108.933 42.0377 103.551 37.1016 101.579 37.1016C99.8223 37.1016 94.2246 42.0377 94.2246 46.7457" stroke="#333333" stroke-linecap="round" stroke-linejoin="round"/>
<path d="M105.825 46.7456C105.825 44.0312 102.716 41.1831 101.579 41.1831C100.563 41.1831 97.334 44.0312 97.334 46.7456" stroke="#333333" stroke-linecap="round" stroke-linejoin="round"/>
<path d="M39.0698 46.6509C39.0698 41.942 33.6882 37.0059 31.7165 37.0059C29.9592 37.0059 24.3623 41.942 24.3623 46.6509" stroke="#333333" stroke-linecap="round" stroke-linejoin="round"/>
<path d="M35.9651 46.6508C35.9651 43.9355 32.8562 41.0874 31.7199 41.0874C30.7031 41.0874 27.4746 43.9355 27.4746 46.6508" stroke="#333333" stroke-linecap="round" stroke-linejoin="round"/>
<path d="M66.6603 14.5368C67.3976 14.5368 67.9954 13.8441 67.9954 12.9896C67.9954 12.1351 67.3976 11.4424 66.6603 11.4424C65.9229 11.4424 65.3252 12.1351 65.3252 12.9896C65.3252 13.8441 65.9229 14.5368 66.6603 14.5368Z" stroke="#333333" stroke-linecap="round" stroke-linejoin="round"/>
<path d="M82.4965 17.622L76.2185 11.4986C74.8405 10.1504 72.6016 10.1504 71.2236 11.4895C71.2214 11.4895 71.2193 11.4904 71.2178 11.4921C71.2162 11.4938 71.2154 11.4962 71.2154 11.4986C70.8955 11.8013 70.6374 12.1752 70.4579 12.5957C70.2784 13.0162 70.1816 13.4738 70.1738 13.9385" stroke="#333333" stroke-linecap="round" stroke-linejoin="round"/>
<path d="M60.0466 15.4195C60.6505 15.4195 61.1401 14.8501 61.1401 14.1477C61.1401 13.4454 60.6505 12.876 60.0466 12.876C59.4427 12.876 58.9531 13.4454 58.9531 14.1477C58.9531 14.8501 59.4427 15.4195 60.0466 15.4195Z" stroke="#333333" stroke-linecap="round" stroke-linejoin="round"/>
<path d="M73.489 15.4195C74.0929 15.4195 74.5825 14.8501 74.5825 14.1477C74.5825 13.4454 74.0929 12.876 73.489 12.876C72.8851 12.876 72.3955 13.4454 72.3955 14.1477C72.3955 14.8501 72.8851 15.4195 73.489 15.4195Z" stroke="#333333" stroke-linecap="round" stroke-linejoin="round"/>
<path d="M51.3491 17.6218L57.36 11.4984C58.686 10.1503 60.8301 10.1503 62.1569 11.4984C62.466 11.8075 62.7135 12.184 62.8838 12.6039C63.0542 13.0239 63.1436 13.4783 63.1465 13.9383" stroke="#333333" stroke-linecap="round" stroke-linejoin="round"/>
<path d="M55.6378 31.7471H53.2266V34.4051" stroke="#333333" stroke-linecap="round" stroke-linejoin="round"/>
<path d="M77.8291 31.7471H80.2404V34.4051" stroke="#333333" stroke-linecap="round" stroke-linejoin="round"/>
<path d="M54.725 53.647C55.1106 53.6479 55.4802 53.8172 55.753 54.1177C56.0257 54.4181 56.1794 54.8255 56.1805 55.2505V55.2505V65.1792H53.2695V55.2505C53.2693 55.0398 53.3068 54.8311 53.3799 54.6364C53.453 54.4417 53.5602 54.2648 53.6954 54.1158C53.8306 53.9668 53.9912 53.8487 54.1678 53.7683C54.3445 53.6878 54.5339 53.6466 54.725 53.647V53.647Z" stroke="#333333" stroke-linecap="round" stroke-linejoin="round"/>
<path d="M78.6127 53.647C78.9983 53.6479 79.3679 53.8172 79.6407 54.1177C79.9134 54.4181 80.0671 54.8255 80.0682 55.2505V55.2505V65.1792H77.1572V55.2505C77.1583 54.8255 77.312 54.4181 77.5848 54.1177C77.8575 53.8172 78.2271 53.6479 78.6127 53.647Z" stroke="#333333" stroke-linecap="round" stroke-linejoin="round"/>
<path d="M125.846 5.56618V1.95905C125.85 1.71135 125.766 1.47171 125.611 1.29215C125.456 1.11259 125.243 1.00761 125.019 1V1C124.794 1.00808 124.582 1.11329 124.428 1.29283C124.273 1.47236 124.189 1.71174 124.194 1.95905V1.95905V5.55618" stroke="#333333" stroke-linecap="round" stroke-linejoin="round"/>
<path d="M120.153 10.1888C120.648 7.07532 123.219 5.00722 125.906 5.57538C127.947 6.00263 129.54 7.86347 129.893 10.227" stroke="#333333" stroke-linecap="round" stroke-linejoin="round"/>
<path d="M121.281 65.1712L119.757 60.2542C119.64 59.8876 119.631 59.49 119.73 59.1171C119.828 58.7442 120.031 58.4148 120.308 58.1751C120.591 57.939 120.936 57.8113 121.29 57.8115L128.773 57.8206H128.756C129.11 57.8204 129.455 57.9481 129.738 58.1842C130.015 58.4239 130.217 58.7533 130.316 59.1262C130.415 59.4991 130.405 59.8967 130.289 60.2632L128.765 65.1794H4.52051" stroke="#333333" stroke-linecap="round" stroke-linejoin="round"/>
<path d="M125.122 10.2271H124.924C124.7 10.2278 124.486 10.326 124.328 10.5002C124.17 10.6745 124.081 10.9106 124.08 11.157V12.8942H125.966V11.157C125.966 10.9105 125.877 10.6743 125.718 10.5C125.56 10.3257 125.346 10.2275 125.122 10.2271Z" stroke="#333333" stroke-linecap="round" stroke-linejoin="round"/>
<path d="M123.228 10.2271H123.03C122.806 10.2276 122.592 10.3257 122.434 10.5C122.275 10.6743 122.186 10.9106 122.186 11.1571V12.8943H124.072V11.1571C124.073 11.0345 124.052 10.9129 124.01 10.7994C123.968 10.6859 123.906 10.5828 123.827 10.4962C123.749 10.4095 123.655 10.3411 123.552 10.2949C123.449 10.2487 123.339 10.2257 123.228 10.2271Z" stroke="#333333" stroke-linecap="round" stroke-linejoin="round"/>
<path d="M121.341 10.2266H121.143C120.92 10.227 120.705 10.3252 120.547 10.4995C120.389 10.6738 120.3 10.91 120.3 11.1565V12.8937H122.186V11.1565C122.185 10.9099 122.096 10.6737 121.938 10.4994C121.779 10.3251 121.565 10.227 121.341 10.2266V10.2266Z" stroke="#333333" stroke-linecap="round" stroke-linejoin="round"/>
<path d="M119.457 10.2266H119.255C119.031 10.227 118.817 10.3252 118.659 10.4995C118.501 10.6738 118.412 10.91 118.411 11.1565V12.8937H120.297V11.1565C120.296 10.9107 120.208 10.6752 120.05 10.501C119.893 10.3269 119.68 10.2282 119.457 10.2266V10.2266Z" stroke="#333333" stroke-linecap="round" stroke-linejoin="round"/>
<path d="M127.006 10.2266H126.807C126.584 10.227 126.37 10.3252 126.211 10.4995C126.053 10.6738 125.964 10.91 125.964 11.1565V12.8937H127.85V11.1565C127.849 10.9101 127.76 10.674 127.602 10.4997C127.444 10.3255 127.23 10.2273 127.006 10.2266V10.2266Z" stroke="#333333" stroke-linecap="round" stroke-linejoin="round"/>
<path d="M128.894 10.2271H128.696C128.472 10.2276 128.258 10.3257 128.1 10.5C127.942 10.6743 127.852 10.9106 127.852 11.1571V12.8943H129.738V11.1571C129.739 11.0345 129.718 10.9129 129.676 10.7994C129.634 10.6859 129.572 10.5828 129.493 10.4962C129.415 10.4095 129.321 10.3411 129.218 10.2949C129.115 10.2487 129.005 10.2257 128.894 10.2271Z" stroke="#333333" stroke-linecap="round" stroke-linejoin="round"/>
<path d="M130.788 10.2266H130.591C130.367 10.227 130.152 10.3251 129.994 10.4994C129.836 10.6737 129.747 10.9099 129.746 11.1565V12.8937H131.632V11.1565C131.632 10.91 131.543 10.6738 131.384 10.4995C131.226 10.3252 131.012 10.227 130.788 10.2266Z" stroke="#333333" stroke-linecap="round" stroke-linejoin="round"/>
<path d="M130.556 24.6081V15.8085C130.559 15.507 130.666 15.218 130.857 15.0021L132.183 13.5395C132.231 13.4865 132.263 13.4194 132.276 13.3464C132.289 13.2734 132.282 13.1977 132.257 13.1289C132.231 13.0601 132.188 13.0011 132.132 12.9594C132.076 12.9176 132.01 12.8949 131.943 12.8941H118.104C118.036 12.8936 117.97 12.9155 117.913 12.9571C117.856 12.9986 117.812 13.0579 117.786 13.1272C117.761 13.1966 117.754 13.2729 117.768 13.3463C117.781 13.4198 117.815 13.4871 117.863 13.5395L119.189 14.9994C119.286 15.105 119.362 15.2307 119.414 15.3691C119.465 15.5076 119.491 15.656 119.49 15.8058V24.6054" stroke="#333333" stroke-linecap="round" stroke-linejoin="round"/>
<path d="M130.556 36.3225V27.5228C130.559 27.2213 130.666 26.9324 130.857 26.7165L132.183 25.2538C132.231 25.2009 132.263 25.1337 132.276 25.0607C132.289 24.9877 132.282 24.9121 132.257 24.8433C132.231 24.7745 132.188 24.7155 132.132 24.6737C132.076 24.632 132.01 24.6092 131.943 24.6084H118.104C118.036 24.6079 117.97 24.6299 117.913 24.6714C117.856 24.713 117.812 24.7722 117.786 24.8416C117.761 24.911 117.754 24.9873 117.768 25.0607C117.781 25.1342 117.815 25.2014 117.863 25.2538L119.189 26.7165C119.286 26.8221 119.362 26.9478 119.414 27.0862C119.465 27.2247 119.491 27.3731 119.49 27.5228V36.3225" stroke="#333333" stroke-linecap="round" stroke-linejoin="round"/>
<path d="M130.556 48.0364V39.2367C130.559 38.9349 130.666 38.6458 130.857 38.4295L132.183 36.9677C132.231 36.9148 132.263 36.8476 132.276 36.7746C132.289 36.7016 132.282 36.626 132.257 36.5571C132.231 36.4883 132.188 36.4294 132.132 36.3876C132.076 36.3458 132.01 36.3231 131.943 36.3223H118.104C118.036 36.3218 117.97 36.3438 117.913 36.3853C117.856 36.4269 117.812 36.4861 117.786 36.5555C117.761 36.6248 117.754 36.7011 117.768 36.7746C117.781 36.848 117.815 36.9153 117.863 36.9677L119.189 38.4295C119.286 38.5353 119.362 38.6611 119.414 38.7997C119.465 38.9383 119.491 39.0869 119.49 39.2367V48.0364" stroke="#333333" stroke-linecap="round" stroke-linejoin="round"/>
<path d="M128.955 57.8424L130.255 56.4088C130.351 56.3033 130.427 56.1776 130.479 56.0392C130.531 55.9007 130.557 55.7523 130.556 55.6025V50.9418C130.558 50.64 130.666 50.3507 130.857 50.1345L132.183 48.6728C132.231 48.6198 132.263 48.5527 132.276 48.4797C132.289 48.4067 132.282 48.331 132.257 48.2622C132.231 48.1934 132.188 48.1344 132.132 48.0927C132.076 48.0509 132.01 48.0282 131.943 48.0274H118.104C118.036 48.0269 117.97 48.0488 117.913 48.0904C117.856 48.1319 117.812 48.1912 117.786 48.2605C117.761 48.3299 117.754 48.4062 117.768 48.4796C117.781 48.5531 117.815 48.6203 117.863 48.6728L119.189 50.1345C119.286 50.2403 119.362 50.3661 119.414 50.5047C119.465 50.6433 119.492 50.7919 119.49 50.9418V55.6025C119.493 55.9042 119.601 56.1933 119.792 56.4088L121.049 57.7952" stroke="#333333" stroke-linecap="round" stroke-linejoin="round"/>
<path d="M125.01 21.9693C124.844 21.9684 124.684 21.8951 124.567 21.7654C124.449 21.6357 124.383 21.46 124.382 21.2766V18.514C124.383 18.3306 124.449 18.1549 124.567 18.0252C124.684 17.8955 124.844 17.8222 125.01 17.8213V17.8213C125.177 17.8222 125.336 17.8955 125.454 18.0252C125.571 18.1549 125.638 18.3306 125.639 18.514V21.2766C125.638 21.46 125.571 21.6357 125.454 21.7654C125.336 21.8951 125.177 21.9684 125.01 21.9693V21.9693Z" stroke="#333333" stroke-linecap="round" stroke-linejoin="round"/>
<path d="M127.542 21.9693C127.376 21.9684 127.217 21.8951 127.099 21.7654C126.981 21.6357 126.915 21.46 126.914 21.2766V18.514C126.915 18.3306 126.981 18.1549 127.099 18.0252C127.217 17.8955 127.376 17.8222 127.542 17.8213V17.8213C127.709 17.8222 127.868 17.8955 127.986 18.0252C128.103 18.1549 128.17 18.3306 128.171 18.514V21.2766C128.17 21.46 128.103 21.6357 127.986 21.7654C127.868 21.8951 127.709 21.9684 127.542 21.9693V21.9693Z" stroke="#333333" stroke-linecap="round" stroke-linejoin="round"/>
<path d="M122.504 21.9693C122.338 21.9684 122.179 21.8951 122.061 21.7654C121.943 21.6357 121.877 21.46 121.876 21.2766V18.514C121.877 18.3306 121.943 18.1549 122.061 18.0252C122.179 17.8955 122.338 17.8222 122.504 17.8213V17.8213C122.671 17.8222 122.83 17.8955 122.948 18.0252C123.065 18.1549 123.132 18.3306 123.133 18.514V21.2766C123.132 21.46 123.065 21.6357 122.948 21.7654C122.83 21.8951 122.671 21.9684 122.504 21.9693V21.9693Z" stroke="#333333" stroke-linecap="round" stroke-linejoin="round"/>
<path d="M125.01 33.6832C124.844 33.6822 124.684 33.6089 124.567 33.4792C124.449 33.3495 124.383 33.1739 124.382 32.9905V30.2279C124.383 30.0444 124.449 29.8688 124.567 29.7391C124.684 29.6094 124.844 29.5361 125.01 29.5352V29.5352C125.177 29.5361 125.336 29.6094 125.454 29.7391C125.571 29.8688 125.638 30.0444 125.639 30.2279V32.9905C125.639 33.0815 125.623 33.1718 125.591 33.256C125.56 33.3402 125.514 33.4167 125.455 33.4811C125.397 33.5455 125.327 33.5965 125.251 33.6312C125.175 33.6659 125.093 33.6835 125.01 33.6832V33.6832Z" stroke="#333333" stroke-linecap="round" stroke-linejoin="round"/>
<path d="M127.542 33.6832C127.376 33.6822 127.217 33.6089 127.099 33.4792C126.981 33.3495 126.915 33.1739 126.914 32.9905V30.2279C126.915 30.0444 126.981 29.8688 127.099 29.7391C127.217 29.6094 127.376 29.5361 127.542 29.5352V29.5352C127.709 29.5361 127.868 29.6094 127.986 29.7391C128.103 29.8688 128.17 30.0444 128.171 30.2279V32.9905C128.171 33.0815 128.155 33.1718 128.124 33.256C128.092 33.3402 128.046 33.4167 127.987 33.4811C127.929 33.5455 127.86 33.5965 127.783 33.6312C127.707 33.6659 127.625 33.6835 127.542 33.6832V33.6832Z" stroke="#333333" stroke-linecap="round" stroke-linejoin="round"/>
<path d="M122.504 33.6832C122.338 33.6822 122.179 33.6089 122.061 33.4792C121.943 33.3495 121.877 33.1739 121.876 32.9905V30.2279C121.877 30.0444 121.943 29.8688 122.061 29.7391C122.179 29.6094 122.338 29.5361 122.504 29.5352V29.5352C122.671 29.5361 122.83 29.6094 122.948 29.7391C123.065 29.8688 123.132 30.0444 123.133 30.2279V32.9905C123.133 33.0815 123.117 33.1718 123.086 33.256C123.054 33.3402 123.008 33.4167 122.949 33.4811C122.891 33.5455 122.822 33.5965 122.745 33.6312C122.669 33.6659 122.587 33.6835 122.504 33.6832V33.6832Z" stroke="#333333" stroke-linecap="round" stroke-linejoin="round"/>
<path d="M125.01 45.397C124.844 45.3961 124.684 45.3228 124.567 45.1931C124.449 45.0634 124.383 44.8878 124.382 44.7043V41.9417C124.383 41.7583 124.449 41.5827 124.567 41.453C124.684 41.3233 124.844 41.25 125.01 41.249V41.249C125.177 41.25 125.336 41.3233 125.454 41.453C125.571 41.5827 125.638 41.7583 125.639 41.9417V44.7043C125.639 44.7954 125.623 44.8856 125.591 44.9699C125.56 45.0541 125.514 45.1306 125.455 45.195C125.397 45.2594 125.327 45.3104 125.251 45.345C125.175 45.3797 125.093 45.3974 125.01 45.397V45.397Z" stroke="#333333" stroke-linecap="round" stroke-linejoin="round"/>
<path d="M127.542 45.397C127.376 45.3961 127.217 45.3228 127.099 45.1931C126.981 45.0634 126.915 44.8878 126.914 44.7043V41.9417C126.915 41.7583 126.981 41.5827 127.099 41.453C127.217 41.3233 127.376 41.25 127.542 41.249V41.249C127.709 41.25 127.868 41.3233 127.986 41.453C128.103 41.5827 128.17 41.7583 128.171 41.9417V44.7043C128.171 44.7954 128.155 44.8856 128.124 44.9699C128.092 45.0541 128.046 45.1306 127.987 45.195C127.929 45.2594 127.86 45.3104 127.783 45.345C127.707 45.3797 127.625 45.3974 127.542 45.397V45.397Z" stroke="#333333" stroke-linecap="round" stroke-linejoin="round"/>
<path d="M122.504 45.397C122.338 45.3961 122.179 45.3228 122.061 45.1931C121.943 45.0634 121.877 44.8878 121.876 44.7043V41.9417C121.877 41.7583 121.943 41.5827 122.061 41.453C122.179 41.3233 122.338 41.25 122.504 41.249V41.249C122.671 41.25 122.83 41.3233 122.948 41.453C123.065 41.5827 123.132 41.7583 123.133 41.9417V44.7043C123.133 44.7954 123.117 44.8856 123.086 44.9699C123.054 45.0541 123.008 45.1306 122.949 45.195C122.891 45.2594 122.822 45.3104 122.745 45.345C122.669 45.3797 122.587 45.3974 122.504 45.397V45.397Z" stroke="#333333" stroke-linecap="round" stroke-linejoin="round"/>
<path d="M9.09349 5.56618V1.95905C9.09816 1.71143 9.01398 1.47179 8.85926 1.2922C8.70453 1.11262 8.49176 1.00761 8.2672 1C8.04299 1.00831 7.83077 1.1136 7.67644 1.29308C7.52211 1.47256 7.43809 1.71181 7.44255 1.95905V1.95905V5.55618" stroke="#333333" stroke-linecap="round" stroke-linejoin="round"/>
<path d="M3.3916 10.1888C3.88639 7.07532 6.45763 5.00722 9.14432 5.57538C11.1853 6.00263 12.7785 7.86347 13.1315 10.227" stroke="#333333" stroke-linecap="round" stroke-linejoin="round"/>
<path d="M4.52087 65.1711L2.99693 60.254C2.88113 59.8881 2.87198 59.4914 2.97075 59.1194C3.06952 58.7475 3.27127 58.4189 3.54779 58.1795C3.8304 57.9434 4.17533 57.8157 4.52994 57.8159L12.0128 57.825H11.9954C12.3501 57.8247 12.695 57.9524 12.9776 58.1886C13.2551 58.4282 13.4574 58.7576 13.5562 59.1305C13.655 59.5034 13.6453 59.9011 13.5285 60.2676L12.0045 65.1793" stroke="#333333" stroke-linecap="round" stroke-linejoin="round"/>
<path d="M8.36217 10.2271H8.16426C7.94058 10.2275 7.72617 10.3256 7.56793 10.4999C7.40968 10.6742 7.32048 10.9104 7.31982 11.157V12.8942H9.20579V11.157C9.20535 10.9105 9.11633 10.6743 8.95822 10.5C8.8001 10.3257 8.58578 10.2275 8.36217 10.2271V10.2271Z" stroke="#333333" stroke-linecap="round" stroke-linejoin="round"/>
<path d="M6.47594 10.2266H6.27803C6.05435 10.227 5.83994 10.3251 5.6817 10.4994C5.52345 10.6737 5.43425 10.9099 5.43359 11.1565V12.8937H7.31955V11.1565C7.31912 10.91 7.2301 10.6738 7.07199 10.4995C6.91387 10.3252 6.69955 10.227 6.47594 10.2266V10.2266Z" stroke="#333333" stroke-linecap="round" stroke-linejoin="round"/>
<path d="M4.5902 10.2271H4.39229C4.16861 10.2275 3.9542 10.3256 3.79595 10.4999C3.63771 10.6742 3.54851 10.9104 3.54785 11.157V12.8942H5.43381V11.157C5.43338 10.9105 5.34436 10.6743 5.18624 10.5C5.02813 10.3257 4.81381 10.2275 4.5902 10.2271V10.2271Z" stroke="#333333" stroke-linecap="round" stroke-linejoin="round"/>
<path d="M2.69567 10.2266H2.49693C2.27339 10.2273 2.0592 10.3255 1.90113 10.4998C1.74306 10.674 1.65397 10.9102 1.65332 11.1566V12.8938H3.53928V11.1566C3.5405 11.0341 3.5195 10.9126 3.47754 10.7991C3.43557 10.6857 3.37348 10.5826 3.2949 10.496C3.21632 10.4094 3.12284 10.3409 3.01994 10.2947C2.91704 10.2484 2.80679 10.2253 2.69567 10.2266V10.2266Z" stroke="#333333" stroke-linecap="round" stroke-linejoin="round"/>
<path d="M10.2479 10.2271H10.0492C9.82564 10.2278 9.61144 10.326 9.45338 10.5003C9.29531 10.6745 9.20622 10.9106 9.20557 11.1571V12.8943H11.0915V11.1571C11.0927 11.0346 11.0718 10.913 11.0298 10.7996C10.9878 10.6862 10.9257 10.5831 10.8471 10.4965C10.7686 10.4099 10.6751 10.3414 10.5722 10.2952C10.4693 10.2489 10.359 10.2258 10.2479 10.2271V10.2271Z" stroke="#333333" stroke-linecap="round" stroke-linejoin="round"/>
<path d="M12.142 10.2266H11.944C11.7204 10.227 11.506 10.3251 11.3477 10.4994C11.1895 10.6737 11.1003 10.9099 11.0996 11.1565V12.8937H12.9856V11.1565C12.9851 10.91 12.8961 10.6738 12.738 10.4995C12.5799 10.3252 12.3656 10.227 12.142 10.2266Z" stroke="#333333" stroke-linecap="round" stroke-linejoin="round"/>
<path d="M14.0297 10.2266H13.8317C13.6081 10.227 13.3937 10.3251 13.2354 10.4994C13.0772 10.6737 12.988 10.9099 12.9873 11.1565V12.8937H14.8733V11.1565C14.8728 10.91 14.7838 10.6738 14.6257 10.4995C14.4676 10.3252 14.2533 10.227 14.0297 10.2266V10.2266Z" stroke="#333333" stroke-linecap="round" stroke-linejoin="round"/>
<path d="M13.8039 24.6081V15.8085C13.806 15.5068 13.9142 15.2177 14.1057 15.0021L15.4317 13.5395C15.4792 13.4865 15.5114 13.4194 15.5245 13.3464C15.5375 13.2734 15.5308 13.1977 15.5051 13.1289C15.4794 13.0601 15.4359 13.0011 15.3801 12.9594C15.3242 12.9176 15.2584 12.8949 15.1909 12.8941H1.34351C1.27549 12.8936 1.20888 12.9155 1.15225 12.9571C1.09562 12.9986 1.05154 13.0579 1.02566 13.1272C0.999785 13.1966 0.993296 13.2729 1.00703 13.3463C1.02076 13.4198 1.05408 13.4871 1.10272 13.5395L2.42875 14.9994C2.5258 15.1051 2.60265 15.2311 2.65477 15.3701C2.7069 15.509 2.73323 15.6581 2.73221 15.8085V24.6081" stroke="#333333" stroke-linecap="round" stroke-linejoin="round"/>
<path d="M13.8039 36.3225V27.5228C13.806 27.2211 13.9142 26.9321 14.1057 26.7165L15.4317 25.2538C15.4792 25.2009 15.5114 25.1337 15.5245 25.0607C15.5375 24.9877 15.5308 24.9121 15.5051 24.8433C15.4794 24.7745 15.4359 24.7155 15.3801 24.6737C15.3242 24.632 15.2584 24.6092 15.1909 24.6084H1.34351C1.27549 24.6079 1.20888 24.6299 1.15225 24.6714C1.09562 24.713 1.05154 24.7722 1.02566 24.8416C0.999785 24.911 0.993296 24.9873 1.00703 25.0607C1.02076 25.1342 1.05408 25.2014 1.10272 25.2538L2.42875 26.7165C2.5255 26.8219 2.60218 26.9474 2.65429 27.0859C2.70641 27.2244 2.7329 27.3729 2.73221 27.5228V36.3225" stroke="#333333" stroke-linecap="round" stroke-linejoin="round"/>
<path d="M13.8039 48.0364V39.2367C13.8061 38.9348 13.9143 38.6455 14.1057 38.4295L15.4317 36.9677C15.4792 36.9148 15.5114 36.8476 15.5245 36.7746C15.5375 36.7016 15.5308 36.626 15.5051 36.5571C15.4794 36.4883 15.4359 36.4294 15.3801 36.3876C15.3242 36.3458 15.2584 36.3231 15.1909 36.3223H1.34351C1.27549 36.3218 1.20888 36.3438 1.15225 36.3853C1.09562 36.4269 1.05154 36.4861 1.02566 36.5555C0.999785 36.6248 0.993296 36.7011 1.00703 36.7746C1.02076 36.848 1.05408 36.9153 1.10272 36.9677L2.42875 38.4295C2.52545 38.535 2.60209 38.6608 2.65419 38.7994C2.7063 38.938 2.73282 39.0867 2.73221 39.2367V48.0364" stroke="#333333" stroke-linecap="round" stroke-linejoin="round"/>
<path d="M12.2024 57.8424L13.5029 56.4088C13.5992 56.3033 13.6754 56.1776 13.7271 56.0391C13.7788 55.9007 13.8049 55.7522 13.8039 55.6025V50.9418C13.8058 50.6398 13.914 50.3503 14.1057 50.1345L15.4317 48.6728C15.4792 48.6198 15.5114 48.5527 15.5245 48.4797C15.5375 48.4067 15.5308 48.331 15.5051 48.2622C15.4794 48.1934 15.4359 48.1344 15.3801 48.0927C15.3242 48.0509 15.2584 48.0282 15.1909 48.0274H1.34351C1.27549 48.0269 1.20888 48.0488 1.15225 48.0904C1.09562 48.1319 1.05154 48.1912 1.02566 48.2605C0.999785 48.3299 0.993296 48.4062 1.00703 48.4796C1.02076 48.5531 1.05408 48.6203 1.10272 48.6728L2.42875 50.1345C2.52556 50.24 2.60227 50.3658 2.65439 50.5044C2.7065 50.643 2.73296 50.7917 2.73221 50.9418V55.6025C2.73434 55.9042 2.84253 56.1933 3.03403 56.4088L4.29162 57.7952" stroke="#333333" stroke-linecap="round" stroke-linejoin="round"/>
<path d="M8.24996 21.969C8.08357 21.9681 7.92424 21.8948 7.80659 21.7651C7.68893 21.6354 7.62245 21.4598 7.62158 21.2763V18.5137C7.62158 18.3297 7.68768 18.1531 7.80543 18.0226C7.92318 17.8921 8.083 17.8183 8.24996 17.8174V17.8174C8.41635 17.8183 8.57568 17.8916 8.69333 18.0213C8.81099 18.151 8.87747 18.3267 8.87834 18.5101V21.2727C8.87834 21.4568 8.81224 21.6333 8.69449 21.7638C8.57674 21.8943 8.41692 21.9681 8.24996 21.969V21.969Z" stroke="#333333" stroke-linecap="round" stroke-linejoin="round"/>
<path d="M10.7817 21.9693C10.6153 21.9684 10.456 21.8951 10.3383 21.7654C10.2207 21.6357 10.1542 21.46 10.1533 21.2766V18.514C10.1542 18.3306 10.2207 18.1549 10.3383 18.0252C10.456 17.8955 10.6153 17.8222 10.7817 17.8213V17.8213C10.9481 17.8222 11.1074 17.8955 11.2251 18.0252C11.3427 18.1549 11.4092 18.3306 11.4101 18.514V21.2766C11.4112 21.3679 11.3957 21.4585 11.3645 21.5431C11.3333 21.6277 11.2871 21.7046 11.2285 21.7691C11.1699 21.8337 11.1002 21.8847 11.0235 21.9191C10.9467 21.9534 10.8645 21.9705 10.7817 21.9693V21.9693Z" stroke="#333333" stroke-linecap="round" stroke-linejoin="round"/>
<path d="M5.74361 21.969C5.57722 21.9681 5.4179 21.8948 5.30024 21.7651C5.18258 21.6354 5.1161 21.4598 5.11523 21.2763V18.5137C5.11545 18.3297 5.18162 18.1533 5.29932 18.0229C5.41702 17.8924 5.57672 17.8186 5.74361 17.8174V17.8174C5.91008 17.8183 6.06949 17.8916 6.18728 18.0213C6.30507 18.1509 6.37173 18.3266 6.37282 18.5101V21.2727C6.37415 21.3643 6.3588 21.4553 6.32768 21.5403C6.29656 21.6252 6.2503 21.7025 6.19164 21.7674C6.13298 21.8323 6.06311 21.8836 5.98616 21.9182C5.9092 21.9529 5.82673 21.9701 5.74361 21.969V21.969Z" stroke="#333333" stroke-linecap="round" stroke-linejoin="round"/>
<path d="M8.24996 33.6832C8.08357 33.6822 7.92424 33.6089 7.80659 33.4792C7.68893 33.3495 7.62245 33.1739 7.62158 32.9905V30.2279C7.62245 30.0444 7.68893 29.8688 7.80659 29.7391C7.92424 29.6094 8.08357 29.5361 8.24996 29.5352V29.5352C8.41635 29.5361 8.57568 29.6094 8.69333 29.7391C8.81099 29.8688 8.87747 30.0444 8.87834 30.2279V32.9905C8.87867 33.0815 8.86264 33.1718 8.83117 33.256C8.79971 33.3402 8.75344 33.4167 8.69502 33.4811C8.63661 33.5455 8.5672 33.5965 8.49082 33.6312C8.41443 33.6659 8.33257 33.6835 8.24996 33.6832V33.6832Z" stroke="#333333" stroke-linecap="round" stroke-linejoin="round"/>
<path d="M10.7817 33.6832C10.6153 33.6822 10.456 33.6089 10.3383 33.4792C10.2207 33.3495 10.1542 33.1739 10.1533 32.9905V30.2279C10.1542 30.0444 10.2207 29.8688 10.3383 29.7391C10.456 29.6094 10.6153 29.5361 10.7817 29.5352V29.5352C10.9481 29.5361 11.1074 29.6094 11.2251 29.7391C11.3427 29.8688 11.4092 30.0444 11.4101 30.2279V32.9905C11.4119 33.082 11.3969 33.173 11.3659 33.2579C11.335 33.3428 11.2888 33.42 11.23 33.4847C11.1713 33.5494 11.1013 33.6004 11.0243 33.6345C10.9472 33.6686 10.8647 33.6852 10.7817 33.6832V33.6832Z" stroke="#333333" stroke-linecap="round" stroke-linejoin="round"/>
<path d="M5.74361 33.6832C5.57722 33.6822 5.4179 33.6089 5.30024 33.4792C5.18258 33.3495 5.1161 33.1739 5.11523 32.9905V30.2279C5.11632 30.0445 5.18287 29.869 5.30048 29.7394C5.41809 29.6097 5.57729 29.5363 5.74361 29.5352C5.91008 29.5361 6.06949 29.6094 6.18728 29.739C6.30507 29.8687 6.37173 30.0444 6.37282 30.2279V32.9905C6.37439 33.082 6.35918 33.1729 6.32811 33.2578C6.29703 33.3427 6.25073 33.4198 6.19197 33.4845C6.13322 33.5492 6.06322 33.6001 5.98618 33.6342C5.90914 33.6684 5.82663 33.685 5.74361 33.6832V33.6832Z" stroke="#333333" stroke-linecap="round" stroke-linejoin="round"/>
<path d="M8.24996 45.397C8.08357 45.3961 7.92424 45.3228 7.80659 45.1931C7.68893 45.0634 7.62245 44.8878 7.62158 44.7043V41.9417C7.62245 41.7583 7.68893 41.5827 7.80659 41.453C7.92424 41.3233 8.08357 41.25 8.24996 41.249V41.249C8.41635 41.25 8.57568 41.3233 8.69333 41.453C8.81099 41.5827 8.87747 41.7583 8.87834 41.9417V44.7043C8.87867 44.7954 8.86264 44.8856 8.83117 44.9699C8.79971 45.0541 8.75344 45.1306 8.69502 45.195C8.63661 45.2594 8.5672 45.3104 8.49082 45.345C8.41443 45.3797 8.33257 45.3974 8.24996 45.397V45.397Z" stroke="#333333" stroke-linecap="round" stroke-linejoin="round"/>
<path d="M10.7817 45.397C10.6153 45.3961 10.456 45.3228 10.3383 45.1931C10.2207 45.0634 10.1542 44.8878 10.1533 44.7043V41.9417C10.1542 41.7583 10.2207 41.5827 10.3383 41.453C10.456 41.3233 10.6153 41.25 10.7817 41.249V41.249C10.9481 41.25 11.1074 41.3233 11.2251 41.453C11.3427 41.5827 11.4092 41.7583 11.4101 41.9417V44.7043C11.4119 44.7959 11.3969 44.8868 11.3659 44.9718C11.335 45.0567 11.2888 45.1339 11.23 45.1986C11.1713 45.2633 11.1013 45.3142 11.0243 45.3484C10.9472 45.3825 10.8647 45.399 10.7817 45.397V45.397Z" stroke="#333333" stroke-linecap="round" stroke-linejoin="round"/>
<path d="M5.74361 45.397C5.57722 45.3961 5.4179 45.3228 5.30024 45.1931C5.18258 45.0634 5.1161 44.8878 5.11523 44.7043V41.9417C5.1161 41.7583 5.18258 41.5827 5.30024 41.453C5.4179 41.3233 5.57722 41.25 5.74361 41.249V41.249C5.91008 41.25 6.06949 41.3232 6.18728 41.4529C6.30507 41.5826 6.37173 41.7582 6.37282 41.9417V44.7043C6.37439 44.7959 6.35918 44.8868 6.32811 44.9717C6.29703 45.0566 6.25073 45.1337 6.19197 45.1983C6.13322 45.263 6.06322 45.314 5.98618 45.3481C5.90914 45.3822 5.82663 45.3989 5.74361 45.397V45.397Z" stroke="#333333" stroke-linecap="round" stroke-linejoin="round"/>
<path d="M22.7603 24.5892H45.1576C45.5236 24.5882 45.8857 24.5052 46.2218 24.3454C46.5579 24.1855 46.861 23.9521 47.1128 23.6592V23.6592C47.3641 23.3651 47.6668 23.1302 48.0027 22.9687C48.3386 22.8071 48.7008 22.7223 49.0672 22.7192H84.2185C84.5837 22.7224 84.9446 22.8073 85.2792 22.9689C85.6137 23.1304 85.915 23.3653 86.1647 23.6592V23.6592C86.4167 23.9566 86.7222 24.1929 87.0617 24.353C87.4012 24.5131 87.7672 24.5935 88.1364 24.5892L119.482 24.6083" stroke="#333333" stroke-linecap="round" stroke-linejoin="round"/>
<path d="M88.248 19.492V13.1986C88.2499 12.8966 88.3581 12.6072 88.5498 12.3914L89.8758 10.9296C89.9233 10.8766 89.9556 10.8094 89.9686 10.7363C89.9816 10.6632 89.9748 10.5875 89.949 10.5186C89.9232 10.4498 89.8796 10.3908 89.8236 10.3491C89.7677 10.3074 89.7018 10.2848 89.6342 10.2842H82.1951C82.127 10.2837 82.0604 10.3057 82.0038 10.3472C81.9472 10.3888 81.9031 10.448 81.8772 10.5174C81.8513 10.5867 81.8449 10.663 81.8586 10.7365C81.8723 10.8099 81.9056 10.8772 81.9543 10.9296L83.2803 12.3914C83.3767 12.4971 83.4529 12.6229 83.5046 12.7616C83.5563 12.9002 83.5824 13.0488 83.5813 13.1986V17.6221" stroke="#333333" stroke-linecap="round" stroke-linejoin="round"/>
<path d="M88.2476 10.2843V9.60974C88.2497 9.30803 88.3579 9.01899 88.5494 8.80341L89.8755 7.34165C89.9232 7.2887 89.9557 7.22138 89.9689 7.14813C89.9821 7.07489 89.9753 6.99899 89.9495 6.92995C89.9237 6.86091 89.88 6.80181 89.8238 6.76007C89.7677 6.71833 89.7016 6.6958 89.6338 6.69531H82.1947C82.1267 6.69511 82.0602 6.71726 82.0036 6.75892C81.9471 6.80059 81.9031 6.85989 81.8772 6.92925C81.8514 6.99861 81.8449 7.07489 81.8585 7.14834C81.8722 7.2218 81.9054 7.2891 81.9539 7.34165L83.28 8.80341C83.3763 8.90899 83.4525 9.03468 83.5042 9.17314C83.5558 9.3116 83.5819 9.46003 83.5809 9.60974V10.2843" stroke="#333333" stroke-linecap="round" stroke-linejoin="round"/>
<path d="M49.2651 6.69541C49.3599 5.5091 48.6111 4.44641 47.5861 4.33187C46.5611 4.21733 45.6482 5.09093 45.5542 6.27816C45.5451 6.41403 45.5451 6.55045 45.5542 6.68632" stroke="#333333" stroke-linecap="round" stroke-linejoin="round"/>
<path d="M45.0718 19.492V13.1986C45.0699 12.8966 44.9617 12.6072 44.77 12.3914L43.4439 10.9296C43.3965 10.8766 43.3642 10.8094 43.3512 10.7363C43.3382 10.6632 43.345 10.5875 43.3707 10.5186C43.3965 10.4498 43.4401 10.3908 43.4961 10.3491C43.5521 10.3074 43.618 10.2848 43.6856 10.2842H51.1255C51.1935 10.2837 51.2601 10.3057 51.3168 10.3472C51.3734 10.3888 51.4175 10.448 51.4433 10.5174C51.4692 10.5867 51.4757 10.663 51.462 10.7365C51.4482 10.8099 51.4149 10.8772 51.3663 10.9296L50.0403 12.3914C49.9439 12.4971 49.8676 12.6229 49.8159 12.7616C49.7643 12.9002 49.7382 13.0488 49.7393 13.1986V17.6221" stroke="#333333" stroke-linecap="round" stroke-linejoin="round"/>
<path d="M45.0721 10.2843V9.60974C45.07 9.30803 44.9618 9.01899 44.7703 8.80341L43.4443 7.34165C43.3965 7.2887 43.364 7.22138 43.3508 7.14813C43.3376 7.07489 43.3444 6.99899 43.3702 6.92995C43.396 6.86091 43.4397 6.80181 43.4959 6.76007C43.552 6.71833 43.6181 6.6958 43.6859 6.69531H51.1258C51.1938 6.69511 51.2604 6.71726 51.3169 6.75892C51.3735 6.80059 51.4175 6.85989 51.4433 6.92925C51.4692 6.99861 51.4757 7.07489 51.462 7.14834C51.4483 7.2218 51.4151 7.2891 51.3666 7.34165L50.0406 8.80341C49.9438 8.90876 49.8672 9.03435 49.815 9.17282C49.7629 9.31129 49.7364 9.45984 49.7371 9.60974V10.2843" stroke="#333333" stroke-linecap="round" stroke-linejoin="round"/>
</svg>
