<?xml version="1.0" encoding="utf-8"?>
<!-- Generator: Adobe Illustrator 26.5.0, SVG Export Plug-In . SVG Version: 6.00 Build 0)  -->
<svg version="1.1" id="Layer_1" xmlns="http://www.w3.org/2000/svg" xmlns:xlink="http://www.w3.org/1999/xlink" x="0px" y="0px"
	 viewBox="0 0 490 490" style="enable-background:new 0 0 490 490;" xml:space="preserve">
<style type="text/css">
	.st0{fill:#11ACDF;}
	.st1{fill:#0120C6;}
</style>
<g>
	<g>
		<path class="st0" d="M63.2,284.6l75-75l14.6,14.6l-75,75L63.2,284.6L63.2,284.6z M95.1,316.5l75-75l14.6,14.6l-75,75L95.1,316.5z
			 M127,348.5l75-75l14.6,14.6l-75,75L127,348.5z M159.1,380.4l75-75l14.6,14.6l-75,75L159.1,380.4L159.1,380.4z M205.6,427
			L191,412.4l75-75l14.6,14.6L205.6,427z"/>
		<path class="st1" d="M468.9,20.7c-15.5-15.5-60.8-45.3-126.8,20.6c-13.4,13.4-26,32.2-35.9,55.5l-115.5-3L0,283.5l206.1,206.1
			L395.7,300l-3-116.8c20.7-9.1,40.7-20.8,55.6-35.7C515.3,81.5,485.4,37.2,468.9,20.7L468.9,20.7z M206.1,460.7L28.9,283.5l169-169
			l172.1,5.2l1.5,51.1c-11.9,4.6-23.9,8.4-34.9,11.4c-2.1-6.7-5.8-13-10.9-18.2c-9.3-8.2-20.6-13.4-33-13.4s-24.7,5.2-33,13.4
			c-8.2,9.3-13.4,20.6-13.4,33s5.2,24.7,13.4,33c9.3,8.2,20.6,13.4,33,13.4c11.3,0,23.7-4.1,33-14.4c7.5-7.5,11.7-17.2,12.8-27.2
			c10.5-2.7,22-6.1,33.6-10.3l3,100.2L206.1,460.7L206.1,460.7z M276.2,204.1c1.6,7.4,8.5,8.3,12.4,7.2c1.6,0,12.4-1.3,28.1-4.6
			c-1.3,2.7-3.1,5.3-5.4,7.7c-9.3,9.3-26.8,9.3-36.1,0c-4.1-4.1-7.2-10.3-7.2-17.5c0-6.2,3.1-13.4,7.2-17.5s10.3-7.2,17.5-7.2
			c6.2,0,12.4,2.1,18.6,6.2c2.6,2.6,4.5,5.5,5.8,8.6c-18.4,4.1-31.2,5.8-31.6,5.8C279.3,193.8,275.1,199,276.2,204.1z M392.2,161.7
			L390.6,99l-62.3-1.6c8.1-16.8,17.3-30.7,27.2-40.6c38.1-38.1,73.2-45.3,97.9-20.6s17.5,59.8-20.6,97.9
			C421.8,145.1,407.5,154.2,392.2,161.7L392.2,161.7z"/>
	</g>
</g>
</svg>
