<svg width="25" height="24" viewBox="0 0 25 24" fill="none" xmlns="http://www.w3.org/2000/svg">
<path d="M12.502 24C9.29664 24 6.28319 22.7518 4.01669 20.4853C1.75014 18.2188 0.501953 15.2053 0.501953 12C0.501953 8.79469 1.75014 5.78123 4.01669 3.51469C6.28319 1.24823 9.29664 0 12.502 0C15.7073 0 18.7207 1.24823 20.9872 3.51469C23.2538 5.78123 24.502 8.79469 24.502 12C24.502 15.2053 23.2538 18.2188 20.9872 20.4853C18.7207 22.7518 15.7073 24 12.502 24ZM12.502 1.03125C6.45377 1.03125 1.5332 5.95181 1.5332 12C1.5332 18.0482 6.45377 22.9688 12.502 22.9688C18.5501 22.9688 23.4707 18.0482 23.4707 12C23.4707 5.95181 18.5501 1.03125 12.502 1.03125Z" fill="#0120C6"/>
<path d="M10.7797 15.5249C10.6484 15.5249 10.517 15.4751 10.4165 15.3753L6.69146 11.678C6.48933 11.4774 6.48811 11.1509 6.68874 10.9488C6.88932 10.7467 7.21575 10.7454 7.41793 10.946L10.7783 14.2814L17.1412 7.91857C17.3425 7.71725 17.669 7.71725 17.8704 7.91857C18.0717 8.11995 18.0717 8.44643 17.8704 8.64781L11.1443 15.3739C11.0437 15.4745 10.9117 15.5249 10.7797 15.5249Z" fill="#11acdf"/>
</svg>
