                    <svg class="male" width="70" height="70" viewBox="0 0 70 70" fill="none" xmlns="http://www.w3.org/2000/svg">
                        <path d="M15.176 68.9064C15.176 68.9064 13.7675 56.5592 25.9002 55.1817H31.0919V52.79C31.0919 52.79 34.7439 54.3587 38.4419 52.965L38.5585 55.1817H44.6252C44.6252 55.1817 55.1899 56.2364 54.551 68.9064H15.176Z" fill="#EBEFFB"/>
                        <path d="M54.45 69.1232H15.5513H14.7969L14.9852 65.9062C15.3529 59.6251 20.3017 54.8315 25.9651 54.8315H31.0918V55.4732H26.3089C20.8506 55.4732 16.0809 60.0872 15.7265 66.1332L15.5957 68.3649H54.3472L54.2747 66.1332C53.9204 60.0872 49.1507 55.4732 43.6924 55.4732H38.8501V54.8315H44.0016C49.6649 54.8315 54.6138 59.6251 54.9815 65.9062L55.1698 69.1232H54.45Z" fill="#0120C6"/>
                        <path d="M31.5001 52.52V56.1177C31.5001 57.9847 33.0148 59.4982 34.8834 59.4982C36.752 59.4982 38.2667 57.9847 38.2667 56.1177V52.5942C38.4631 52.5344 38.6576 52.4695 38.8501 52.3994V56.1422C38.8501 58.35 37.0611 60.1398 34.8542 60.1398C32.6474 60.1398 30.8584 58.35 30.8584 56.1422V52.2886C31.0697 52.3721 31.2838 52.449 31.5001 52.52Z" fill="#0120C6"/>
                        <path d="M45.3522 62.5472L43.6999 65.9935C43.6163 66.1678 43.4072 66.2414 43.2329 66.1578C43.0586 66.0742 42.9851 65.8652 43.0687 65.6909L44.6644 62.3625L43.4175 60.2028C43.3209 60.0354 43.3782 59.8213 43.5457 59.7247C43.7131 59.628 43.9271 59.6854 44.0238 59.8528L45.3654 62.1766C45.4346 62.2964 45.4245 62.4398 45.3522 62.5472Z" fill="#0120C6"/>
                        <path d="M24.3856 62.5507L26.0467 66.0076C26.1308 66.1824 26.3409 66.2562 26.5162 66.1724C26.6914 66.0885 26.7653 65.8788 26.6813 65.704L25.077 62.3654L26.3306 60.199C26.4277 60.0311 26.3701 59.8164 26.2018 59.7195C26.0335 59.6225 25.8183 59.68 25.7211 59.848L24.3722 62.179C24.3027 62.2991 24.3128 62.4429 24.3856 62.5507Z" fill="#0120C6"/>
                        <path d="M30.8584 54.7148H31.5001V68.8898H30.8584V54.7148Z" fill="#0120C6"/>
                        <path d="M38.2666 54.8315H38.9083V69.0065H38.2666V54.8315Z" fill="#0120C6"/>
                        <path d="M33.2227 61.6602L34.8633 59.8828L36.6406 61.6602L35.6836 62.6172L37.1875 68.7695H32.5391L34.1797 62.6172L33.2227 61.6602Z" fill="#0120C6"/>
                        <path fillRule="evenodd" clip-rule="evenodd" d="M36.873 68.8638L35.2196 62.693L35.5634 62.5899L35.7913 62.3477L37.5401 68.8743L36.873 68.8638ZM32.209 68.791L33.9352 62.3776L34.0467 62.4732L34.3967 62.7065L34.5121 62.7181L32.8747 68.8014L32.209 68.791Z" fill="#0120C6"/>
                        <path fillRule="evenodd" clip-rule="evenodd" d="M38.8477 63.4086L38.394 63.8623L36.6285 62.0968C36.2878 62.6379 35.6864 62.9983 34.9997 62.9983C34.2853 62.9983 33.6632 62.6083 33.3311 62.0303L31.4881 63.8733L31.0332 63.4183L34.6616 59.79L34.9453 59.5269L35.2291 59.79L38.8477 63.4086ZM33.688 61.6734C33.9206 62.1471 34.4072 62.4733 34.9706 62.4733C35.5212 62.4733 35.9979 62.1611 36.2364 61.7047L34.9466 60.4149L33.688 61.6734Z" fill="#0120C6"/>
                        <path d="M35.0292 15.9233C42.286 15.9233 48.0137 22.7048 47.8275 30.8528L47.6295 39.5127C47.4541 47.189 41.8147 53.2567 35.0292 53.2567C28.2438 53.2567 22.6044 47.189 22.4289 39.5127L22.231 30.8528C22.0447 22.7048 27.7725 15.9233 35.0292 15.9233Z" fill="#EBEFFB"/>
                        <path fillRule="evenodd" clip-rule="evenodd" d="M48.4105 30.5843L48.2031 39.596C48.0193 47.5841 42.1101 53.8983 35.0001 53.8983C27.89 53.8983 21.9809 47.5841 21.797 39.596L21.5896 30.5843C21.3944 22.1053 27.3962 15.0483 35.0001 15.0483C42.6039 15.0483 48.6057 22.1053 48.4105 30.5843ZM34.9709 15.9817C27.8134 15.9817 22.1639 22.7101 22.3476 30.7945L22.5429 39.3868C22.7159 47.003 28.2782 53.0233 34.9709 53.0233C41.6636 53.0233 47.2259 47.003 47.399 39.3868L47.5942 30.7945C47.7779 22.7101 42.1285 15.9817 34.9709 15.9817Z" fill="#0120C6"/>
                        <path d="M41.2997 44.7515C40.2394 45.6721 37.8445 46.5481 35.058 46.5481C32.2715 46.5481 29.8767 45.6721 28.8164 44.7515C28.8164 44.7515 28.7079 44.453 28.8671 44.2938C29.0292 44.1317 29.283 44.167 29.283 44.167C30.3422 45.0883 32.2705 45.8481 35.058 45.8481C37.8456 45.8481 39.7739 45.0883 40.833 44.167C40.833 44.167 41.0921 44.0708 41.218 44.1966C41.4604 44.439 41.2997 44.7515 41.2997 44.7515Z" fill="#0120C6"/>
                        <path d="M33.1338 47.9482H36.8671V48.5316H33.1338V47.9482Z" fill="#0120C6"/>
                        <path d="M21.5756 31.8986C21.574 31.8986 21.4324 31.7856 21.165 31.7014C21.0313 31.6593 20.8652 31.6248 20.6759 31.6163C20.6286 31.6141 20.5799 31.6136 20.5301 31.6151C20.4803 31.6165 20.4294 31.6198 20.3776 31.6253C20.2741 31.6364 20.1672 31.6563 20.0596 31.6872C19.6287 31.811 19.1893 32.112 18.9311 32.7334C18.8016 33.044 18.7161 33.4348 18.6935 33.9237C18.6879 34.046 18.6861 34.1743 18.6886 34.3091C18.6911 34.4439 18.6978 34.5851 18.709 34.733C18.7313 35.0288 18.7716 35.3514 18.8318 35.703C18.8304 35.7026 18.7757 36.7653 19.1556 37.9863C19.5127 39.1801 20.3703 40.6467 21.9538 41.0657C21.7717 38.0334 21.766 34.9442 21.5756 31.8986Z" fill="#EBEFFB"/>
                        <path d="M21.7557 32.0207C21.7557 32.0207 18.9972 31.166 19.0942 34.0019C19.0942 34.0019 19.5049 38.114 19.6833 38.493C19.6833 38.493 20.7666 40.8872 22.5545 40.9933C24.3019 41.097 22.5545 40.9933 22.5545 40.9933L22.5762 41.765C22.5762 41.765 19.4338 41.3621 18.8268 37.7408L18.3478 34.451C18.3478 34.451 17.9758 30.0972 21.5838 31.2042C25.0988 32.2826 21.5838 31.2042 21.5838 31.2042L21.7557 32.0207Z" fill="#0120C6"/>
                        <path d="M20.8451 37.7336C20.8451 37.7336 20.6907 37.8503 20.5581 37.8503C20.4255 37.8503 20.273 37.7336 20.273 37.7336L19.9883 34.8649C19.9883 34.8649 20.3811 33.4521 22.0478 34.1987L22.0872 35.019C22.0872 35.019 20.6249 34.5004 20.6551 35.1462C20.6842 35.7678 20.8451 37.7336 20.8451 37.7336Z" fill="#0120C6"/>
                        <path d="M48.373 31.9052C48.3746 31.9053 48.5169 31.7923 48.7854 31.7081C48.9197 31.6662 49.0865 31.6316 49.2767 31.6231C49.3242 31.621 49.3731 31.6205 49.4231 31.6219C49.4731 31.6233 49.5242 31.6266 49.5762 31.6322C49.6802 31.6432 49.7876 31.6631 49.8957 31.694C50.3284 31.8177 50.7698 32.1185 51.0291 32.7394C51.1592 33.0499 51.245 33.4404 51.2677 33.929C51.2734 34.0512 51.2751 34.1794 51.2727 34.3141C51.2702 34.4488 51.2634 34.5899 51.2522 34.7377C51.2298 35.0333 51.1893 35.3557 51.1289 35.707C51.1302 35.7067 51.1852 36.7686 50.8036 37.9888C50.4449 39.1818 49.5836 40.6474 47.9932 41.0661C48.1761 38.0359 48.1818 34.9488 48.373 31.9052Z" fill="#EBEFFB"/>
                        <path d="M48.1908 32.0274C48.1908 32.0274 50.9613 31.1732 50.8638 34.0072C50.8638 34.0072 50.4513 38.1165 50.2722 38.4952C50.2722 38.4952 49.1841 40.8878 47.3884 40.9939C45.6334 41.0975 47.3884 40.9939 47.3884 40.9939L47.3666 41.7651C47.3666 41.7651 50.5228 41.3624 51.1324 37.7435L51.6136 34.4559C51.6136 34.4559 51.9872 30.1051 48.3633 31.2114C44.833 32.2891 48.3633 31.2114 48.3633 31.2114L48.1908 32.0274Z" fill="#0120C6"/>
                        <path d="M49.105 37.7365C49.105 37.7365 49.26 37.853 49.3932 37.853C49.5264 37.853 49.6796 37.7365 49.6796 37.7365L49.9655 34.8697C49.9655 34.8697 49.571 33.4578 47.897 34.2039L47.8574 35.0237C47.8574 35.0237 49.3261 34.5054 49.2958 35.1508C49.2665 35.7719 49.105 37.7365 49.105 37.7365Z" fill="#0120C6"/>
                        <path d="M38.7366 30.9584C38.7366 30.9584 42.229 28.9617 44.7239 31.1616L45.3838 31.2639C45.3838 31.2639 44.5385 28.1881 38.3838 30.1881L38.5551 30.7614M38.6919 30.7614C38.6919 30.7614 42.2448 28.7207 44.5871 31.2983L45.7939 31.2639C45.7939 31.2639 44.2889 27.9783 38.1104 30.0514L38.6919 30.8982" fill="#0120C6"/>
                        <path d="M31.2321 30.9702C31.2321 30.9702 27.7513 28.9911 25.2648 31.1716L24.607 31.273C24.607 31.273 25.4495 28.2244 31.5837 30.2067L31.4129 30.775M31.2766 30.775C31.2766 30.775 27.7355 28.7523 25.401 31.3071L24.1982 31.273C24.1982 31.273 25.6983 28.0164 31.8562 30.0712L31.2766 30.9105" fill="#0120C6"/>
                        <path d="M47.932 31.9649C47.932 31.9649 53.317 17.8359 36.735 14.6171C36.735 14.6171 33.2641 14.4292 30.5533 11.1982C30.5533 11.1982 28.6166 13.8531 29.7368 15.8834C29.7368 15.8834 28.3114 17.1269 24.4882 16.1367C24.4882 16.1367 23.9096 17.3726 24.3716 18.7958C24.3716 18.7958 19.5627 20.8751 21.8544 30.1762C21.8764 30.2652 21.899 30.355 21.9222 30.4454C21.9222 30.4454 23.9797 22.2203 25.4213 22.0881C25.4213 22.0881 33.1888 26.5474 39.7675 21.7082C39.7675 21.7082 43.0157 26.0418 46.9989 26.2667C46.9989 26.2667 47.7194 29.0614 47.932 31.9649Z" fill="#C3C8F3"/>
                        <path fillRule="evenodd" clip-rule="evenodd" d="M48.3 32.0817C48.1381 32.5209 47.6 32.3733 47.6 32.3733C47.3874 29.4698 46.725 26.6567 46.725 26.6567C42.6894 26.1482 39.6667 22.2817 39.6667 22.2817C33.1269 26.7763 25.4333 22.4567 25.4333 22.4567C23.8886 23.7373 22.3417 30.5067 22.3417 30.5067C22.3184 30.4163 21.547 30.5958 21.525 30.5067C19.2333 21.2056 23.9167 18.6067 23.9167 18.6067C23.4547 17.1835 24.2083 15.69 24.2083 15.69C28.0315 16.6803 29.225 15.8067 29.225 15.8067C28.2143 13.275 30.45 10.6733 30.45 10.6733C33.1609 13.9043 36.8667 14.2317 36.8667 14.2317C52.1174 17.2879 49.3813 29.1479 48.3 32.0817ZM36.5167 14.99C36.5167 14.99 33.3953 14.8202 30.625 11.8983C30.625 11.8983 29.0381 14.0097 30.1583 16.04C30.1583 16.04 28.5565 17.6136 24.7333 16.6233C24.7333 16.6233 24.431 17.4155 24.7333 18.8983C24.7333 18.8983 20.4458 21.1119 21.9333 28.64C21.9511 28.73 21.9101 28.6079 21.9333 28.6983C21.9333 28.6983 23.7268 21.752 25.375 21.6983C25.375 21.6983 33.4226 26.2544 39.9 21.1733C39.9 21.1733 43.3251 25.7318 47.3083 25.9567C47.3083 25.9567 47.6539 26.9336 48.0667 29.8067C48.0667 29.8067 51.56 17.8567 36.5167 14.99Z" fill="#0120C6"/>
                        <path opacity="0.2" fillRule="evenodd" clip-rule="evenodd" d="M31.5942 14.3481C31.7011 14.3502 31.7009 14.423 31.7321 14.4988C31.7787 14.6118 31.8204 14.7269 31.8744 14.8344C31.9562 14.9973 32.0401 15.159 32.1374 15.3078C32.2192 15.433 32.308 15.5526 32.3961 15.6715C32.447 15.7401 32.5084 15.801 32.5599 15.8694C32.5804 15.8967 32.6079 15.9192 32.6289 15.9469C32.6361 15.9534 32.6433 15.9598 32.6504 15.9663C32.6768 16.0011 32.7104 16.0283 32.7367 16.0631C32.7654 16.0911 32.7942 16.119 32.8229 16.147C32.8678 16.1918 32.9099 16.242 32.9609 16.2804C32.9716 16.2919 32.9824 16.3034 32.9932 16.3148C33.0337 16.3454 33.0668 16.3832 33.1075 16.4138C33.1139 16.421 33.1204 16.4282 33.1269 16.4354C33.1856 16.4794 33.2366 16.5336 33.295 16.5774C33.3899 16.6484 33.4796 16.7238 33.5774 16.7925C33.6422 16.8381 33.7062 16.8887 33.7714 16.9346C33.8875 17.0162 34.0102 17.0892 34.1293 17.1669C34.2017 17.2143 34.2794 17.2503 34.3535 17.2961C34.5631 17.4254 34.7926 17.5359 35.0174 17.6489C35.09 17.6855 35.1623 17.7151 35.2373 17.7479C35.2851 17.7688 35.337 17.7936 35.3839 17.8168C35.4099 17.8296 35.435 17.8353 35.4615 17.8469C35.519 17.8719 35.581 17.8987 35.6383 17.9244C35.6912 17.9481 35.743 17.9637 35.7978 17.9846C35.8568 18.0072 35.9193 18.0353 35.9789 18.0578C36.0823 18.0968 36.187 18.1312 36.2893 18.1697C36.3956 18.2096 36.502 18.2362 36.6105 18.2729C36.8208 18.3441 37.0447 18.3965 37.2637 18.4623C37.3292 18.482 37.3975 18.4914 37.462 18.5096C37.4942 18.5188 37.5359 18.517 37.5633 18.5312C37.5745 18.5369 37.5872 18.549 37.5978 18.557C37.6149 18.5698 37.6282 18.5912 37.6409 18.6086C37.6613 18.6365 37.683 18.6639 37.6991 18.6968C37.7158 18.7309 37.7204 18.7783 37.7293 18.8173C37.7364 18.8487 37.7265 18.888 37.7207 18.9099C37.7158 18.9283 37.7174 18.9411 37.7121 18.9594C37.6981 19.007 37.6769 19.0532 37.6495 19.0885C37.6212 19.125 37.5515 19.1259 37.4986 19.1121C37.4061 19.088 37.3047 19.0776 37.2141 19.0519C37.1947 19.0464 37.1793 19.0488 37.1602 19.0433C37.0551 19.0129 36.9404 18.9956 36.8368 18.9658C36.8132 18.959 36.7933 18.96 36.77 18.9529C36.6883 18.9281 36.6031 18.9139 36.5199 18.8884C36.3115 18.8244 36.098 18.7713 35.8991 18.699C35.8526 18.6821 35.8094 18.6734 35.7633 18.656C35.4369 18.5329 35.113 18.4143 34.8148 18.2643C34.7363 18.2249 34.6584 18.1937 34.582 18.1524C34.3648 18.0355 34.1537 17.9143 33.9482 17.7867C33.9212 17.7699 33.8949 17.7483 33.8684 17.7307C33.7491 17.6512 33.6345 17.5703 33.5192 17.4876C33.4028 17.4041 33.2992 17.3041 33.1851 17.2186C33.161 17.2006 33.1407 17.1769 33.1161 17.1583C33.1089 17.1504 33.1017 17.1426 33.0945 17.1347C33.0679 17.1146 33.0473 17.0876 33.0212 17.068C32.9588 17.0208 32.906 16.9594 32.8509 16.9044C32.799 16.8526 32.7424 16.8019 32.6979 16.7431C32.6878 16.7337 32.6778 16.7244 32.6677 16.7151C32.6387 16.6768 32.6013 16.6453 32.5728 16.6075C32.5231 16.5415 32.4646 16.4821 32.4155 16.416C32.3544 16.3337 32.2914 16.2523 32.2322 16.1685C32.173 16.0846 32.1216 15.998 32.0663 15.9103C31.9162 15.6727 31.7941 15.4136 31.6804 15.1378C31.6391 15.0378 31.6113 14.931 31.5769 14.8258C31.5532 14.7534 31.5418 14.6755 31.5209 14.6021C31.5154 14.5829 31.5174 14.5678 31.5122 14.5483C31.5012 14.5063 31.4886 14.454 31.5036 14.4105C31.5103 14.3911 31.538 14.3635 31.5575 14.3568C31.5711 14.3521 31.5843 14.3556 31.5942 14.3481ZM30.5357 17.5758C30.6124 17.5762 30.6467 17.6326 30.6801 17.6769C30.7148 17.7228 30.7615 17.7598 30.7965 17.806C30.8253 17.8347 30.854 17.8634 30.8828 17.8921C30.9023 17.918 30.9269 17.9383 30.9496 17.9609C30.973 17.9843 30.994 18.0097 31.0207 18.0298C31.0466 18.0556 31.0725 18.0814 31.0983 18.1073C31.1249 18.1273 31.1455 18.1543 31.1716 18.174C31.2523 18.2349 31.3213 18.3114 31.4023 18.3719C31.4882 18.4361 31.569 18.5081 31.6567 18.5699C31.7715 18.6508 31.886 18.733 32.0037 18.8109C32.0639 18.8507 32.1255 18.8841 32.187 18.9228C32.2339 18.9523 32.2827 18.9862 32.3314 19.0132C32.5335 19.1249 32.7381 19.2347 32.9479 19.3402C33.1141 19.4238 33.2894 19.4915 33.461 19.5683C33.5139 19.592 33.5658 19.6078 33.6205 19.6286C33.744 19.6755 33.8739 19.7232 33.9999 19.7706C34.119 19.8153 34.2456 19.8459 34.3664 19.8868C34.3861 19.8934 34.4029 19.8927 34.4224 19.8997C34.4849 19.9221 34.5557 19.9361 34.6208 19.9556C34.6535 19.9654 34.6859 19.9653 34.7178 19.9771C34.7875 20.0031 34.8755 20.0816 34.901 20.1514C34.9452 20.2725 34.8963 20.4102 34.8406 20.4893C34.8239 20.5131 34.799 20.5523 34.7695 20.5624C34.723 20.5784 34.6741 20.5617 34.6315 20.5495C34.5765 20.5338 34.5239 20.5314 34.4699 20.5151C34.37 20.4849 34.2662 20.4684 34.1659 20.4376C33.956 20.3732 33.7468 20.3152 33.5472 20.2397C33.0852 20.0646 32.6589 19.8593 32.2667 19.6156C32.1039 19.5145 31.9496 19.4005 31.7968 19.2886C31.7424 19.2487 31.6931 19.1997 31.6394 19.1595C31.5658 19.1044 31.5032 19.038 31.4303 18.983C31.4224 18.9744 31.4145 18.9658 31.4066 18.9572C31.3917 18.944 31.3754 18.9325 31.3613 18.9185C31.3498 18.9063 31.3383 18.8941 31.3268 18.8819C31.2994 18.8612 31.2777 18.835 31.2536 18.8109C31.2301 18.7875 31.2047 18.7665 31.1846 18.7399C31.1688 18.7248 31.1529 18.7098 31.1371 18.6947C31.0843 18.6249 31.0174 18.5674 30.9647 18.4967C30.9523 18.4801 30.9341 18.466 30.9216 18.4494C30.8709 18.382 30.815 18.3181 30.7664 18.2493C30.711 18.1709 30.6535 18.092 30.6025 18.0104C30.5825 17.9783 30.5671 17.9454 30.5465 17.9136C30.5238 17.8787 30.5066 17.842 30.4861 17.8039C30.4739 17.7812 30.456 17.7561 30.4473 17.7307C30.4384 17.7049 30.4356 17.6549 30.4495 17.6317C30.4589 17.6159 30.4811 17.591 30.4991 17.5844C30.5125 17.5794 30.5258 17.5833 30.5357 17.5758ZM29.0871 19.1466C29.1736 19.1476 29.1954 19.2115 29.2315 19.2628C29.2896 19.3453 29.3564 19.4213 29.4169 19.5016C29.4651 19.5656 29.528 19.6184 29.5764 19.6823C29.5951 19.7003 29.6138 19.7182 29.6325 19.7361C29.6593 19.7716 29.7004 19.8127 29.7359 19.8394C29.7431 19.8473 29.7503 19.8552 29.7575 19.8631C29.7751 19.8807 29.7934 19.8974 29.8135 19.9126C29.8229 19.9226 29.8322 19.9327 29.8416 19.9427C29.8895 19.9789 29.9296 20.0255 29.9774 20.0611C30.0917 20.1461 30.2005 20.2389 30.318 20.3214C30.5726 20.5004 30.853 20.6498 31.1415 20.7948C31.2357 20.8422 31.336 20.8773 31.4303 20.9239C31.4705 20.9438 31.5118 20.9537 31.5532 20.9713C31.6663 21.0191 31.7875 21.0608 31.9046 21.1047C32.0666 21.1653 32.2384 21.2034 32.4047 21.2596C32.463 21.2793 32.5251 21.2881 32.5815 21.3069C32.6316 21.3237 32.683 21.3264 32.7345 21.3414C32.8367 21.371 32.9505 21.3874 33.0557 21.4145C33.1165 21.4302 33.1781 21.4338 33.2368 21.4489C33.3024 21.4658 33.3711 21.4677 33.4351 21.4834C33.4495 21.4848 33.4639 21.4862 33.4782 21.4877C33.544 21.5044 33.6205 21.5062 33.6873 21.5221C33.7159 21.5289 33.7405 21.524 33.7693 21.5307C33.8627 21.5525 33.9694 21.5481 34.0646 21.5694C34.0918 21.5755 34.1201 21.5726 34.1444 21.578C34.153 21.578 34.1616 21.578 34.1702 21.578C34.203 21.5854 34.2448 21.5837 34.278 21.591C34.2873 21.591 34.2967 21.591 34.306 21.591C34.3603 21.6029 34.4259 21.5962 34.4806 21.6082C34.4929 21.6082 34.5051 21.6082 34.5173 21.6082C34.587 21.6234 34.6708 21.6101 34.7415 21.6254C34.7688 21.6261 34.7961 21.6268 34.8234 21.6275C34.8389 21.6309 34.8634 21.6258 34.8816 21.6297C34.9297 21.6401 34.9917 21.6309 35.0411 21.6383C35.0703 21.6427 35.1056 21.6348 35.1317 21.6404C35.1546 21.6454 35.1847 21.6382 35.205 21.6426C35.261 21.6426 35.3171 21.6426 35.3731 21.6426C35.5058 21.6426 35.6353 21.6389 35.7633 21.6383C35.8239 21.638 35.8899 21.6247 35.9401 21.6426C35.9684 21.6527 35.9946 21.6776 36.0177 21.6942C36.0695 21.7318 36.1182 21.7855 36.1427 21.8492C36.1502 21.8686 36.1495 21.8857 36.1556 21.9073C36.1654 21.9418 36.1795 21.9961 36.1686 22.0428C36.1615 22.0732 36.1577 22.11 36.147 22.1397C36.1305 22.1854 36.0864 22.1988 36.0349 22.2107C36.0162 22.2114 35.9975 22.2121 35.9789 22.2128C35.8992 22.2302 35.8023 22.2149 35.7223 22.2322C35.7069 22.2355 35.6855 22.2316 35.6727 22.2343C35.6426 22.235 35.6124 22.2358 35.5822 22.2365C35.5529 22.2428 35.5161 22.2337 35.4831 22.2408C35.4554 22.2467 35.4217 22.2451 35.3904 22.2451C35.3789 22.2451 35.3674 22.2451 35.3559 22.2451C35.3292 22.2508 35.2918 22.2494 35.2632 22.2494C35.2215 22.2494 35.1798 22.2494 35.1381 22.2494C35.0993 22.2577 35.0453 22.2515 35.0023 22.2515C34.9667 22.2515 34.9219 22.2562 34.8902 22.2494C34.8658 22.2494 34.8414 22.2494 34.8169 22.2494C34.7659 22.2494 34.7156 22.2494 34.6682 22.2451C34.6438 22.2451 34.6193 22.2451 34.5949 22.2451C34.553 22.236 34.4984 22.2454 34.4569 22.2365C34.4404 22.2365 34.4239 22.2365 34.4073 22.2365C34.377 22.2299 34.336 22.2344 34.306 22.2279C34.2917 22.2279 34.2773 22.2279 34.2629 22.2279C34.2399 22.2228 34.2062 22.2243 34.1832 22.2193C34.1717 22.2193 34.1602 22.2193 34.1487 22.2193C34.0688 22.2017 33.9768 22.2109 33.8986 22.1934C33.877 22.192 33.8555 22.1906 33.8339 22.1891C33.7325 22.1661 33.6201 22.1696 33.5214 22.1461C33.4945 22.1397 33.4724 22.144 33.4459 22.1375C33.3541 22.1151 33.2529 22.1089 33.1635 22.0859C33.1488 22.0821 33.1394 22.0854 33.1247 22.0816C33.0824 22.0705 33.0328 22.0633 32.991 22.0514C32.9716 22.0459 32.9566 22.0484 32.9372 22.0428C32.7918 22.001 32.6405 21.9791 32.4974 21.9352C32.2439 21.8576 31.9877 21.7881 31.758 21.6856C31.706 21.6624 31.6541 21.649 31.6028 21.6254C31.512 21.5836 31.4184 21.5456 31.329 21.5006C31.1891 21.4302 31.0524 21.3561 30.9173 21.2811C30.8222 21.2283 30.7307 21.1639 30.6413 21.1047C30.5679 21.0561 30.4971 21.0085 30.4258 20.9583C30.3556 20.909 30.2901 20.8523 30.221 20.8013C30.1507 20.7493 30.0904 20.684 30.0205 20.6313C29.9939 20.6113 29.9715 20.5781 29.945 20.5581C29.8798 20.5089 29.8258 20.4434 29.7683 20.386C29.5228 20.141 29.3144 19.8594 29.128 19.5554C29.085 19.4852 29.0537 19.412 29.0159 19.3359C28.9987 19.3012 28.9807 19.2544 28.9987 19.2068C29.0044 19.1916 29.0352 19.1609 29.0504 19.1552C29.0629 19.1505 29.0776 19.1537 29.0871 19.1466ZM43.3535 21.2682C43.432 21.2691 43.4562 21.3212 43.4893 21.3672C43.5221 21.4126 43.5592 21.4553 43.5928 21.5006C43.6641 21.5967 43.7536 21.6787 43.8256 21.7739C43.8508 21.8071 43.8864 21.8328 43.9119 21.8664C43.9219 21.8757 43.932 21.885 43.942 21.8944C43.977 21.9406 44.0241 21.9784 44.0649 22.0192C44.1001 22.0543 44.1353 22.0895 44.1706 22.1246C44.226 22.1664 44.2708 22.2251 44.3258 22.2666C44.3572 22.2903 44.3832 22.3209 44.4141 22.3441C44.5161 22.4206 44.6087 22.5095 44.7116 22.5851C44.8667 22.6988 45.022 22.8136 45.1837 22.9207C45.4269 23.0818 45.685 23.2272 45.9469 23.3683C46.0956 23.4485 46.2515 23.5166 46.4039 23.5921C46.458 23.6189 46.5148 23.6391 46.5677 23.6652C46.5873 23.6749 46.6063 23.6771 46.6259 23.6868C46.7102 23.7284 46.8042 23.76 46.8911 23.7987C46.9134 23.8086 46.9328 23.8115 46.9557 23.8202C47.0403 23.8523 47.1298 23.8849 47.2166 23.917C47.2653 23.935 47.3232 23.942 47.3675 23.9665C47.4793 24.0283 47.5824 24.1608 47.5248 24.3366C47.5043 24.3992 47.4696 24.4479 47.4343 24.4958C47.4099 24.5289 47.3795 24.5421 47.3351 24.5561C47.3243 24.5595 47.2759 24.5424 47.2661 24.5389C47.2067 24.5173 47.147 24.5071 47.0872 24.4872C46.7784 24.3845 46.4817 24.2759 46.1969 24.1515C45.7358 23.9503 45.3226 23.6934 44.9337 23.4199C44.8205 23.3404 44.7184 23.2463 44.6082 23.1639C44.5758 23.1397 44.5481 23.1089 44.5155 23.0843C44.509 23.0771 44.5025 23.0699 44.4961 23.0628C44.4522 23.0297 44.4169 22.9881 44.3732 22.9552C44.3538 22.9351 44.3344 22.915 44.315 22.8949C44.293 22.8783 44.276 22.8582 44.2568 22.839C44.2375 22.8198 44.2174 22.8028 44.2007 22.7809C44.1871 22.768 44.1734 22.7551 44.1598 22.7421C44.1351 22.7175 44.1098 22.6904 44.0886 22.6625C44.0757 22.6496 44.0628 22.6367 44.0498 22.6238C44.0221 22.5872 43.9866 22.5568 43.9593 22.5205C43.8881 22.426 43.8105 22.3384 43.7416 22.2408C43.6796 22.1531 43.6116 22.0661 43.554 21.974C43.4803 21.856 43.4128 21.7343 43.3471 21.6082C43.3182 21.5528 43.2855 21.4834 43.2652 21.4231C43.2561 21.3963 43.2535 21.3483 43.2673 21.3241C43.2767 21.3077 43.2985 21.2837 43.3169 21.2768C43.3294 21.2721 43.3441 21.2753 43.3535 21.2682Z" fill="#0120C6"/>
                        <path fillRule="evenodd" clip-rule="evenodd" d="M36.0792 37.5063C36.1473 37.5063 36.2153 37.5063 36.2834 37.5063C36.7055 38.0796 36.8772 38.9605 37.1001 39.723C37.1691 39.9593 37.1021 40.3726 37.0417 40.5397C36.8205 41.1516 36.126 41.1406 35.5542 41.4147C35.4007 41.4883 35.2864 41.6154 35.0876 41.648C34.9579 41.5338 34.8014 41.5114 34.7376 41.3272C34.58 41.1102 34.7831 40.9748 34.9417 40.8897C35.2297 40.7352 36.1186 40.583 36.2251 40.3063C36.3567 40.1565 36.2692 39.7061 36.2251 39.548C36.112 39.143 36.0578 38.8049 35.9042 38.4397C35.8022 38.1971 35.6231 37.9413 35.7292 37.6522C35.8172 37.6144 36.0072 37.5715 36.0792 37.5063Z" fill="#0120C6"/>
                        <path d="M28.5837 32.5479C29.228 32.5479 29.7503 33.0702 29.7503 33.7145C29.7503 34.3588 29.228 34.8812 28.5837 34.8812C27.9393 34.8812 27.417 34.3588 27.417 33.7145C27.417 33.0702 27.9393 32.5479 28.5837 32.5479Z" fill="#0120C6"/>
                        <path d="M41.5329 32.5479C42.1772 32.5479 42.6995 33.0702 42.6995 33.7145C42.6995 34.3588 42.1772 34.8812 41.5329 34.8812C40.8885 34.8812 40.3662 34.3588 40.3662 33.7145C40.3662 33.0702 40.8885 32.5479 41.5329 32.5479Z" fill="#0120C6"/>
                        <path d="M42.0579 36.8647C42.8634 36.8647 43.5163 37.5177 43.5163 38.3231C43.5163 39.1285 42.8634 39.7814 42.0579 39.7814C41.2525 39.7814 40.5996 39.1285 40.5996 38.3231C40.5996 37.5177 41.2525 36.8647 42.0579 36.8647Z" fill="#DCE2F2"/>
                        <path d="M27.9417 36.8647C28.7471 36.8647 29.4001 37.5177 29.4001 38.3231C29.4001 39.1285 28.7471 39.7814 27.9417 39.7814C27.1363 39.7814 26.4834 39.1285 26.4834 38.3231C26.4834 37.5177 27.1363 36.8647 27.9417 36.8647Z" fill="#DCE2F2"/>
                    </svg>