<?xml version="1.0" encoding="utf-8"?>
<!-- Generator: Adobe Illustrator 26.5.0, SVG Export Plug-In . SVG Version: 6.00 Build 0)  -->
<svg version="1.1" id="Capa_1" xmlns="http://www.w3.org/2000/svg" xmlns:xlink="http://www.w3.org/1999/xlink" x="0px" y="0px"
	 viewBox="0 0 489.8 489.8" style="enable-background:new 0 0 489.8 489.8;" xml:space="preserve">
<style type="text/css">
	.st0{fill:#0120C6;}
	.st1{fill:#11ACDF;}
</style>
<g>
	<g>
		<path class="st0" d="M285,377.6c6.8,0,12.3-5.5,12.3-12.3s-5.5-12.3-12.3-12.3H49.8c-13.9,0-25.3-11.3-25.3-25.3V102.4
			c0-2.3,0.5-4.5,1.1-6.6L199.7,247c2.3,2,5.2,3,8,3c2.9,0,5.7-1,8-3L391.4,94.5c1,2.5,1.6,5.1,1.6,7.9v87.7
			c0,6.8,5.5,12.3,12.3,12.3s12.3-5.5,12.3-12.3v-87.7c0-25.3-20.6-45.9-45.9-45.9H45.9c-11.5,0-22,4.3-30,11.3
			c-0.2,0.2-0.4,0.4-0.7,0.6C5.9,76.8,0,88.9,0,102.4v225.5c0,27.4,22.3,49.8,49.8,49.8L285,377.6L285,377.6z M207.8,221.4
			L45.9,80.9h323.7L207.8,221.4z"/>
	</g>
	<g id="XMLID_804_">
		<path id="XMLID_805_" class="st1" d="M419.9,286.6v-31.1c0-27.7-22.5-50.3-50.3-50.3s-50.3,22.5-50.3,50.3v31.1
			c-11,12.1-17.7,28.2-17.7,45.8c0,37.5,30.5,68,68,68s68-30.5,68-68C437.6,314.7,430.9,298.6,419.9,286.6z M369.6,222.9
			c17.9,0,32.5,14.6,32.5,32.5v17.2c-9.7-5.3-20.7-8.3-32.5-8.3s-22.9,3-32.5,8.3v-17.2C337.1,237.5,351.7,222.9,369.6,222.9z
			 M369.6,382.6c-27.7,0-50.3-22.5-50.3-50.3s22.5-50.3,50.3-50.3s50.3,22.5,50.3,50.3C419.9,360,397.3,382.6,369.6,382.6z"/>
		<path id="XMLID_809_" class="st1" d="M382.2,313.5l-18.9,18.9L357,326c-3.5-3.5-9.1-3.5-12.5,0c-3.5,3.5-3.5,9.1,0,12.5l12.6,12.6
			c1.7,1.7,4,2.6,6.3,2.6c2.3,0,4.5-0.9,6.3-2.6l25.1-25.1c3.5-3.5,3.5-9.1,0-12.5C391.3,310,385.6,310,382.2,313.5z"/>
	</g>
</g>
</svg>
