<svg width="32" height="32" viewBox="0 0 32 32" fill="none" xmlns="http://www.w3.org/2000/svg">
<path d="M12.1868 9.03574H19.8113C20.7211 9.00042 20.725 7.6923 19.8113 7.65527H12.1868C11.2769 7.69066 11.2731 8.99872 12.1868 9.03574Z" fill="#11acdf"/>
<path d="M24.8543 29.051L20.864 22.1121C22.0142 18.8483 19.4553 15.2622 15.999 15.31C12.5434 15.2621 9.98328 18.8489 11.1341 22.1121L7.14385 29.051C7.0171 29.2714 7.02147 29.5441 7.15522 29.7603C7.28903 29.9765 7.5301 30.1015 7.78353 30.0849L9.61222 29.9665L10.4245 31.6157C10.5398 31.8507 10.78 32.0004 11.0408 32.0001C11.2858 32.0001 11.5131 31.8689 11.6361 31.6549L15.1475 25.5489C15.699 25.6444 16.2992 25.6444 16.8507 25.5489L20.362 31.6549C20.4851 31.8689 20.7123 32.0001 20.9573 32.0001C21.2182 32.0004 21.4583 31.8507 21.5737 31.6157L22.3859 29.9665L24.2146 30.0849C24.7547 30.1261 25.1305 29.5188 24.8543 29.051ZM11.0876 29.8478L10.6415 28.9422C10.5185 28.6924 10.2579 28.541 9.98103 28.5593L8.97691 28.6243L11.8915 23.556C12.3903 24.2225 13.0463 24.7639 13.8035 25.125L11.0876 29.8478ZM15.0449 24.1171C15.0098 24.104 14.9742 24.0938 14.9383 24.0866C13.38 23.6257 12.2389 22.1773 12.2389 20.4655C12.4455 15.4573 19.5534 15.4589 19.7592 20.4655C19.7592 22.1771 18.6183 23.6254 17.0602 24.0865C17.0241 24.0937 16.9883 24.1039 16.953 24.1171C16.3482 24.2808 15.6498 24.2808 15.0449 24.1171ZM22.017 28.5593C21.7399 28.5406 21.4795 28.6924 21.3565 28.9422L20.9105 29.8478L18.1946 25.125C18.9518 24.7639 19.6078 24.2226 20.1066 23.556L23.0212 28.6243L22.017 28.5593Z" fill="#11acdf"/>
<path d="M20.4995 12.1717C20.4995 11.7905 20.1917 11.4814 19.812 11.4814H12.1875C11.8078 11.4814 11.5 11.7905 11.5 12.1717C11.5 12.5529 11.8078 12.8619 12.1875 12.8619H19.812C20.1917 12.8619 20.4995 12.5529 20.4995 12.1717Z" fill="#0120C6"/>
<path d="M25.5829 18.5512C25.5829 17.5249 26.4146 16.6899 27.4369 16.6899C27.8165 16.6899 28.1244 16.3808 28.1244 15.9996V7.06899C28.1244 6.6878 27.8165 6.37876 27.4369 6.37876C26.4146 6.37876 25.5829 5.54376 25.5829 4.51738C25.5829 4.13619 25.275 3.82715 24.8954 3.82715H7.10498C6.72529 3.82715 6.41748 4.13619 6.41748 4.51738C6.41748 5.54376 5.58573 6.37876 4.56348 6.37876C4.18379 6.37876 3.87598 6.6878 3.87598 7.06899V15.9996C3.87598 16.3808 4.18379 16.6899 4.56348 16.6899C5.58573 16.6899 6.41748 17.5249 6.41748 18.5512C6.41748 18.9324 6.72529 19.2415 7.10498 19.2415H11.0124C11.132 18.75 11.3219 18.2863 11.5709 17.861H7.71879C7.45116 16.6263 6.48073 15.6521 5.25098 15.3834V7.68531C6.48079 7.41656 7.45116 6.44232 7.71879 5.20768H24.2815C24.5492 6.44239 25.5196 7.41662 26.7494 7.68531V15.3834C25.5195 15.6521 24.5492 16.6264 24.2815 17.861H20.4295C20.6785 18.2863 20.8684 18.75 20.988 19.2415H24.8954C25.275 19.2415 25.5829 18.9324 25.5829 18.5512Z" fill="#0120C6"/>
<path d="M31.3125 0H0.6875C0.307813 0 0 0.309037 0 0.690235V22.3789C0 22.7601 0.307813 23.0691 0.6875 23.0691H10.5845L11.135 22.1117C11.0884 21.9732 11.0478 21.832 11.0127 21.6886H1.375V1.38047H30.625V21.6886H20.9872C20.9522 21.832 20.9116 21.9732 20.865 22.1117L21.4155 23.0691H31.3125C31.6922 23.0691 32 22.7601 32 22.3789V0.690235C32 0.308974 31.6922 0 31.3125 0Z" fill="#0120C6"/>
</svg>
