<svg width="30" height="30" viewBox="0 0 30 30" fill="none" xmlns="http://www.w3.org/2000/svg">
<rect x="0.25" y="0.25" width="29.5" height="29.5" rx="1.75" fill="white"/>
<path d="M22 14L10.14 14L13.77 9.64C13.854 9.53888 13.9174 9.4222 13.9563 9.29662C13.9953 9.17103 14.0091 9.03901 13.997 8.90807C13.9726 8.64365 13.8442 8.39974 13.64 8.23C13.4358 8.06026 13.1725 7.9786 12.9081 8.00298C12.6436 8.02736 12.3997 8.15578 12.23 8.36L7.23 14.36C7.19636 14.4077 7.16628 14.4579 7.14 14.51C7.14 14.56 7.09 14.59 7.07 14.64C7.02467 14.7547 7.00094 14.8767 7 15C7.00094 15.1233 7.02467 15.2453 7.07 15.36C7.07 15.41 7.12 15.44 7.14 15.49C7.16628 15.5421 7.19636 15.5923 7.23 15.64L12.23 21.64C12.324 21.7529 12.4418 21.8437 12.5748 21.9059C12.7079 21.9681 12.8531 22.0002 13 22C13.2337 22.0005 13.4601 21.9191 13.64 21.77C13.7413 21.686 13.825 21.5829 13.8863 21.4666C13.9477 21.3503 13.9855 21.2229 13.9975 21.092C14.0096 20.961 13.9957 20.8289 13.9567 20.7033C13.9176 20.5777 13.8542 20.461 13.77 20.36L10.14 16L22 16C22.2652 16 22.5196 15.8946 22.7071 15.7071C22.8946 15.5196 23 15.2652 23 15C23 14.7348 22.8946 14.4804 22.7071 14.2929C22.5196 14.1054 22.2652 14 22 14Z" fill="#333333"/>
<rect x="0.25" y="0.25" width="29.5" height="29.5" rx="1.75" stroke="#CBCBCB" strokeWidth="0.5"/>
</svg>
