<svg width="25" height="21" viewBox="0 0 25 21" fill="none" xmlns="http://www.w3.org/2000/svg">
<path d="M24.3597 4.62652L21.4529 1.54374C21.3554 1.44043 21.2197 1.38184 21.0777 1.38184C20.9357 1.38184 20.8 1.44043 20.7026 1.54374L17.7958 4.62652C17.7055 4.72224 17.6553 4.84876 17.6553 4.98024V18.6324C17.6553 19.9366 18.7845 20.9978 20.1724 20.9978H21.983C23.371 20.9978 24.5002 19.9366 24.5002 18.6324V4.98024C24.5002 4.84871 24.4499 4.7222 24.3597 4.62652ZM18.6866 15.6777V5.98702H20.5621V15.6777H18.6866ZM21.5933 5.98702H23.4689V15.6777H21.5933V5.98702ZM21.0777 2.64905L23.2528 4.95577H18.9027L21.0777 2.64905ZM21.983 19.9666H20.1725C19.3531 19.9666 18.6866 19.3681 18.6866 18.6324V16.709H23.4689V18.6324C23.4689 19.368 22.8023 19.9666 21.983 19.9666Z" fill="#0120C6"/>
<path d="M15.3115 1.38192H12.968V0.515625C12.968 0.230859 12.7371 0 12.4524 0C12.1676 0 11.9367 0.230859 11.9367 0.515625V1.38192H10.1088V0.515625C10.1088 0.230859 9.87795 0 9.59319 0C9.30842 0 9.07756 0.230859 9.07756 0.515625V1.38192H7.24963V0.515625C7.24963 0.230859 7.01877 0 6.734 0C6.44923 0 6.21837 0.230859 6.21837 0.515625V1.38192H4.39044V0.515625C4.39044 0.230859 4.15958 0 3.87481 0C3.59005 0 3.35919 0.230859 3.35919 0.515625V1.38192H1.01562C0.730859 1.38192 0.5 1.61278 0.5 1.89755V20.4822C0.5 20.767 0.730859 20.9978 1.01562 20.9978H15.3115C15.5963 20.9978 15.8271 20.767 15.8271 20.4822V1.89755C15.8271 1.61278 15.5963 1.38192 15.3115 1.38192ZM14.7959 19.9666H1.53125V2.41317H3.35919V3.32719C3.35919 3.61195 3.59005 3.84281 3.87481 3.84281C4.15958 3.84281 4.39044 3.61195 4.39044 3.32719V2.41317H6.21837V3.32719C6.21837 3.61195 6.44923 3.84281 6.734 3.84281C7.01877 3.84281 7.24963 3.61195 7.24963 3.32719V2.41317H9.07756V3.32719C9.07756 3.61195 9.30842 3.84281 9.59319 3.84281C9.87795 3.84281 10.1088 3.61195 10.1088 3.32719V2.41317H11.9367V3.32719C11.9367 3.61195 12.1676 3.84281 12.4524 3.84281C12.7371 3.84281 12.968 3.61195 12.968 3.32719V2.41317H14.7959V19.9666Z" fill="#0120C6"/>
<path d="M12.4528 7.55957H3.875C3.59023 7.55957 3.35938 7.32871 3.35938 7.04395C3.35938 6.75918 3.59023 6.52832 3.875 6.52832H12.4528C12.7376 6.52832 12.9685 6.75918 12.9685 7.04395C12.9685 7.32871 12.7376 7.55957 12.4528 7.55957Z" fill="#11acdf"/>
<path d="M9.68867 10.4189H3.875C3.59023 10.4189 3.35938 10.1881 3.35938 9.90332C3.35938 9.61855 3.59023 9.3877 3.875 9.3877H9.68863C9.97339 9.3877 10.2043 9.61855 10.2043 9.90332C10.2043 10.1881 9.97344 10.4189 9.68867 10.4189Z" fill="#0120C6"/>
<path d="M11.4489 13.2783H3.875C3.59023 13.2783 3.35938 13.0475 3.35938 12.7627C3.35938 12.4779 3.59023 12.2471 3.875 12.2471H11.4489C11.7336 12.2471 11.9645 12.4779 11.9645 12.7627C11.9645 13.0475 11.7336 13.2783 11.4489 13.2783Z" fill="#11acdf"/>
<path d="M12.4528 16.1367H3.875C3.59023 16.1367 3.35938 15.9059 3.35938 15.6211C3.35938 15.3363 3.59023 15.1055 3.875 15.1055H12.4528C12.7376 15.1055 12.9685 15.3363 12.9685 15.6211C12.9685 15.9059 12.7376 16.1367 12.4528 16.1367Z" fill="#0120C6"/>
</svg>
