<svg width="24" height="24" viewBox="0 0 24 24" fill="none" xmlns="http://www.w3.org/2000/svg">
<path d="M12.0004 16.4091C9.56955 16.4091 7.5918 14.4314 7.5918 12.0004C7.5918 9.5695 9.5695 7.5918 12.0004 7.5918C14.4314 7.5918 16.4091 9.5695 16.4091 12.0004C16.4091 14.4314 14.4314 16.4091 12.0004 16.4091ZM12.0004 8.62305C10.1381 8.62305 8.62305 10.1381 8.62305 12.0004C8.62305 13.8627 10.1381 15.3778 12.0004 15.3778C13.8627 15.3778 15.3779 13.8627 15.3779 12.0004C15.3779 10.1381 13.8627 8.62305 12.0004 8.62305Z" fill="#11acdf"/>
<path d="M13.7519 24H10.2481C9.96338 24 9.73252 23.7691 9.73252 23.4844V20.776C8.92125 20.5655 8.14008 20.2389 7.40395 19.8027L5.48269 21.7239C5.28127 21.9253 4.95487 21.9253 4.75345 21.7239L2.27592 19.2465C2.17927 19.1498 2.12489 19.0186 2.12489 18.8819C2.12489 18.7452 2.17922 18.614 2.27592 18.5173L4.19719 16.5961C3.76097 15.8598 3.43448 15.0787 3.22388 14.2675H0.515625C0.230859 14.2675 0 14.0367 0 13.7519V10.2482C0 9.96342 0.230859 9.73256 0.515625 9.73256H3.22392C3.43453 8.92139 3.76111 8.14013 4.19728 7.404L2.27597 5.48278C2.17931 5.38608 2.12494 5.25492 2.12494 5.11819C2.12494 4.98145 2.17927 4.8503 2.27597 4.75359L4.7535 2.27606C4.85016 2.17941 4.98136 2.12503 5.11809 2.12503C5.25483 2.12503 5.38598 2.17936 5.48269 2.27606L7.40395 4.19733C8.14022 3.76111 8.92134 3.43462 9.73252 3.22411V0.515625C9.73252 0.230859 9.96338 0 10.2481 0H13.7519C14.0366 0 14.2675 0.230859 14.2675 0.515625V3.22397C15.0786 3.43453 15.8598 3.76097 16.596 4.19719L18.5173 2.27592C18.7187 2.07455 19.0451 2.07455 19.2465 2.27592L21.7241 4.75345C21.8207 4.85016 21.8751 4.98131 21.8751 5.11805C21.8751 5.25483 21.8208 5.38598 21.7241 5.48264L19.8027 7.40386C20.2389 8.14003 20.5655 8.92125 20.7761 9.73242H23.4844C23.7691 9.73242 24 9.96328 24 10.248V13.7518C24 14.0365 23.7691 14.2674 23.4844 14.2674H20.7761C20.5656 15.0785 20.239 15.8597 19.8028 16.596L21.7241 18.5172C21.8207 18.6139 21.8751 18.7451 21.8751 18.8818C21.8751 19.0185 21.8208 19.1497 21.7241 19.2464L19.2465 21.7238C19.0451 21.9252 18.7187 21.9252 18.5173 21.7238L16.596 19.8026C15.8599 20.2388 15.0787 20.5653 14.2675 20.7759V23.4844C14.2675 23.7691 14.0366 24 13.7519 24ZM10.7638 22.9688H13.2362V20.3689C13.2362 20.1284 13.4025 19.9198 13.6369 19.8662L13.7882 19.8316C14.6569 19.633 15.4904 19.2847 16.2657 18.7961L16.3973 18.7132C16.6012 18.5849 16.8666 18.6147 17.0368 18.7849L18.882 20.6302L20.6303 18.8819L18.7852 17.0367C18.6149 16.8664 18.5851 16.601 18.7135 16.3973L18.7963 16.2658C19.2848 15.4904 19.6331 14.6569 19.8317 13.7882L19.8664 13.6369C19.92 13.4025 20.1285 13.2362 20.369 13.2362H22.9688V10.7638H20.3689C20.1284 10.7638 19.9199 10.5975 19.8662 10.3631L19.8316 10.2119C19.633 9.34312 19.2846 8.50959 18.7961 7.73433L18.7132 7.60289C18.5848 7.39913 18.6146 7.13362 18.7848 6.96333L20.6302 5.11809L18.8819 3.36975L17.0366 5.21498C16.8664 5.38523 16.6009 5.41505 16.3972 5.28661L16.2657 5.20378C15.4903 4.71534 14.6567 4.36692 13.7881 4.16836L13.6368 4.13377C13.4024 4.08014 13.2361 3.87159 13.2361 3.63112V1.03125H10.7637V3.63112C10.7637 3.87159 10.5974 4.08019 10.363 4.13377L10.2117 4.16836C9.34313 4.36692 8.50955 4.7153 7.73414 5.20378L7.60266 5.28661C7.39889 5.41505 7.13344 5.38523 6.96319 5.21498L5.11795 3.36975L3.36966 5.11809L5.21498 6.96333C5.38528 7.13362 5.41505 7.39913 5.28656 7.60289L5.20383 7.73438C4.71544 8.50955 4.36702 9.34308 4.16841 10.2118L4.13377 10.3631C4.08014 10.5975 3.87159 10.7638 3.63112 10.7638H1.03125V13.2362H3.63112C3.87159 13.2362 4.08014 13.4025 4.13377 13.6368L4.16836 13.7881C4.36697 14.6568 4.71534 15.4903 5.20383 16.2657L5.2867 16.3972C5.41505 16.6009 5.38533 16.8664 5.21508 17.0367L3.36984 18.8819L5.11814 20.6302L6.96338 18.7849C7.13363 18.6147 7.39908 18.5849 7.60284 18.7132L7.73438 18.7961C8.50969 19.2847 9.34322 19.633 10.2119 19.8316L10.3632 19.8662C10.5976 19.9198 10.7639 20.1284 10.7639 20.3689V22.9688H10.7638Z" fill="#0120C6"/>
</svg>
