<?xml version="1.0" encoding="utf-8"?>
<!-- Generator: Adobe Illustrator 26.5.0, SVG Export Plug-In . SVG Version: 6.00 Build 0)  -->
<svg version="1.1" id="Layer_1" xmlns="http://www.w3.org/2000/svg" xmlns:xlink="http://www.w3.org/1999/xlink" x="0px" y="0px"
	 viewBox="0 0 32 32" style="enable-background:new 0 0 32 32;" xml:space="preserve">
<style type="text/css">
	.st0{fill:#0120C6;}
	.st1{fill:#11ACDF;}
</style>
<g id="_2._Briefcase">
	<path class="st0" d="M23.1,26.8c-0.4,0.1-0.8,0.5-0.8,1v1.8H2.9V6.2h3.9v1c0,0.5,0.4,1,1,1h9.7c0.5,0,1-0.4,1-1v-1h3.9l0,0.6
		c0,0.5,0.4,0.9,0.9,1c0.6,0.1,1.1-0.4,1.1-1l0-1.6c0-0.5-0.4-1-1-1h-4.9v-1c0-1.6-1.3-2.9-2.9-2.9H9.7c-1.6,0-2.9,1.3-2.9,2.9v1
		H1.9c-0.5,0-1,0.4-1,1v25.3c0,0.5,0.4,1,1,1h21.4c0.5,0,1-0.4,1-1v-2.8C24.3,27.2,23.8,26.7,23.1,26.8z M8.7,3.3c0-0.5,0.4-1,1-1
		h5.8c0.5,0,1,0.4,1,1v2.9H8.7V3.3z"/>
	<path class="st0" d="M12.6,24.7c0,0.5-0.4,1-1,1H7.7c-0.5,0-1-0.4-1-1c0-0.5,0.4-1,1-1h3.9C12.2,23.7,12.6,24.1,12.6,24.7z"/>
	<path class="st0" d="M12.6,18.8c0,0.5-0.4,1-1,1H7.7c-0.5,0-1-0.4-1-1c0-0.5,0.4-1,1-1h3.9C12.2,17.9,12.6,18.3,12.6,18.8z"/>
	<path class="st0" d="M16.4,14H7.7c-0.5,0-1-0.4-1-1s0.4-1,1-1h8.6c0.5,0,1,0.4,1,1S16.9,14,16.4,14z"/>
	<g id="layer1_00000066487719996196391060000001863368947572892850_" transform="translate(0,-652.36216)">
		<path id="user_00000039100443151610117460000005085669620939180458_" class="st1" d="M23.1,662c2.2,0,4,1.7,4,3.8s-1.8,3.8-4,3.8
			s-4-1.7-4-3.8S20.9,662,23.1,662L23.1,662z M23.1,671.1L23.1,671.1L23.1,671.1c3.7,0,6.8,3.1,7.2,7H16
			C16.3,674.1,19.4,671.1,23.1,671.1L23.1,671.1z"/>
	</g>
</g>
</svg>
