<svg width="328" height="78" viewBox="0 0 328 78" fill="none" xmlns="http://www.w3.org/2000/svg">
<path fillRule="evenodd" clip-rule="evenodd" d="M299.404 5.54297H304.484L296.754 16.7363C306.267 20.3969 312.91 30.0326 312.023 40.995C311.014 53.4609 300.295 62.8902 287.828 62.8902H269.251L275.517 53.8294H292.482C293.795 53.8294 295.014 53.1268 295.671 51.9819L302.059 40.877C302.716 39.7371 302.716 38.3318 302.059 37.1918L295.671 26.0869C295.014 24.9421 293.8 24.2394 292.482 24.2394H278.094L281.846 18.8246L286.26 12.4712C289.317 7.99979 293.981 5.54297 299.404 5.54297Z" fill="white"/>
<path fillRule="evenodd" clip-rule="evenodd" d="M266.033 34.9561L267.404 37.3196C268.046 38.4202 268.046 39.683 267.404 40.7591L266.033 43.1472C265.415 44.2232 264.338 44.8669 263.059 44.8669H260.335C259.076 44.8669 258.003 44.2232 257.362 43.1472L255.99 40.7591C255.373 39.683 255.373 38.4202 255.99 37.3196L257.362 34.9561C258.003 33.8554 259.076 33.2363 260.335 33.2363H263.059C264.342 33.2363 265.415 33.8554 266.033 34.9561Z" fill="white"/>
<path fillRule="evenodd" clip-rule="evenodd" d="M267.541 53.8344L263.563 59.5932L259.424 65.5928C256.426 69.9365 251.497 72.5309 246.231 72.5309H241.151L249.337 60.6939C240.729 56.704 234.895 47.6924 235.551 37.472C236.364 24.8439 247.142 15.1787 259.762 15.1787H276.648L270.358 24.2395H255.196C253.863 24.2395 252.634 24.952 251.972 26.1067L245.614 37.1673C244.947 38.322 244.947 39.747 245.614 40.9017L251.972 51.9623C252.639 53.117 253.868 53.8344 255.201 53.8344H267.541Z" fill="white"/>
<path fillRule="evenodd" clip-rule="evenodd" d="M200.808 19.4388C205.036 20.2937 208.916 22.3968 212.002 25.4629C216.044 29.5412 218.356 34.9806 218.356 40.7444C218.356 46.5032 216.044 51.9426 212.002 55.9963C207.828 60.1828 202.244 62.502 196.37 62.502H185.817C179.944 62.502 174.334 60.1828 170.185 55.9963C166.143 51.9426 163.831 46.5032 163.831 40.7444V18.9867C163.831 14.8789 167.182 11.518 171.277 11.518H175.103V40.7444C175.103 43.7024 176.245 46.5326 178.347 48.6357C180.34 50.6355 183.001 51.7804 185.817 51.7804H196.37C199.187 51.7804 201.847 50.6355 203.841 48.6357C205.942 46.5277 207.084 43.7024 207.084 40.7444C207.084 34.7694 202.376 29.7034 196.37 29.6788L188.076 29.6542H179.41L189.594 15.0165C191.432 11.7391 192.921 9.25767 194.831 7.76392C197.065 5.97535 199.245 5.46924 203.552 5.46924H210.626L200.808 19.4388Z" fill="white"/>
<path fillRule="evenodd" clip-rule="evenodd" d="M75.9342 72.5309H86.1975C88.7204 72.5309 90.9298 71.3566 92.3652 69.2486L101.722 55.3577C105.019 51.4907 107.013 46.4787 107.013 41.0098C107.013 28.8486 97.2054 18.9819 85.0805 18.9819C72.9557 18.9819 63.1187 28.8486 63.1187 41.0098C63.1187 52.2621 71.5742 61.5686 82.4449 62.851L75.9342 72.5309ZM85.0805 30.0524C91.116 30.0524 96.0051 34.9611 96.0051 41.0098C96.0051 47.0635 91.116 51.9722 85.0805 51.9722C79.0451 51.9722 74.1559 47.0635 74.1559 41.0098C74.151 34.9611 79.0451 30.0524 85.0805 30.0524Z" fill="white"/>
<path fillRule="evenodd" clip-rule="evenodd" d="M3.0874 40.7445C3.0874 46.5033 5.39969 51.9427 9.44131 55.9965C13.6152 60.1829 19.2 62.5021 25.0738 62.5021H47.0846H58.0925V18.9868H54.531C50.4355 18.9868 47.0846 22.3477 47.0846 26.4556V51.7855H25.0738C22.2569 51.7855 19.5968 50.6406 17.6029 48.6407C15.5013 46.5328 14.3598 43.7074 14.3598 40.7494V40.7248C14.3598 37.7373 15.5307 34.912 17.6029 32.804C19.5968 30.8287 22.2569 29.6838 25.0738 29.6838V28.4554C24.5937 24.5098 21.8846 22.5345 18.6954 22.161C8.9906 21.0653 3.0874 32.4011 3.0874 40.7199V40.7445Z" fill="white"/>
<path fillRule="evenodd" clip-rule="evenodd" d="M136.657 61.8091C139.474 61.8091 142.134 60.6642 144.128 58.6889C146.2 56.5809 147.371 53.7556 147.371 50.7681V36.5283C147.371 34.5285 148.037 32.5827 149.335 31.2461C150.692 29.831 152.338 29.0596 154.41 29.0596H158.638V50.7632C158.638 59.082 152.735 70.4178 143.03 69.322C139.841 68.9486 137.127 66.9733 136.652 63.0277V61.8091H136.657Z" fill="white"/>
<path fillRule="evenodd" clip-rule="evenodd" d="M120.809 18.9865C126.34 19.2272 131.577 21.5219 135.511 25.4676C139.552 29.5459 141.864 34.9853 141.864 40.7491C141.864 46.5079 139.552 51.9473 135.511 56.001C131.337 60.1875 125.752 62.5067 119.878 62.5067H102.918L108.233 54.9593C109.669 52.9054 111.824 51.7851 114.323 51.7851H119.878C122.695 51.7851 125.355 50.6402 127.349 48.6404C129.451 46.5324 130.592 43.7071 130.592 40.7491C130.592 37.7616 129.451 34.9362 127.349 32.8282C125.355 30.8529 122.695 29.6835 119.878 29.6835H114.117C114.117 29.6835 113.901 29.4427 113.642 28.8187C113.451 28.3568 113.122 27.2119 113.103 26.3668C113.083 25.4086 113.274 24.5045 113.402 24.1114C113.769 22.9764 114.411 21.9592 115.332 21.0699C116.875 19.6007 118.712 18.9079 120.809 18.9865Z" fill="white"/>
<path fillRule="evenodd" clip-rule="evenodd" d="M290.414 34.9561L291.761 37.3196C292.403 38.4202 292.403 39.683 291.761 40.7591L290.414 43.1472C289.772 44.2232 288.7 44.8669 287.441 44.8669H284.697C283.438 44.8669 282.365 44.2232 281.724 43.1472L280.371 40.7591C279.73 39.683 279.73 38.4202 280.371 37.3196L281.724 34.9561C282.365 33.8554 283.438 33.2363 284.697 33.2363H287.441C288.7 33.2363 289.772 33.8554 290.414 34.9561Z" fill="white"/>
<path fillRule="evenodd" clip-rule="evenodd" d="M40.5004 20.6722L41.5634 22.5099C42.2787 23.7924 42.2787 25.2272 41.5634 26.5096L40.5004 28.3473C39.7557 29.6249 38.5065 30.3472 37.0466 30.3472H34.9205C33.4606 30.3472 32.182 29.6249 31.4668 28.3473L30.4037 26.5096C29.6591 25.2272 29.6591 23.7924 30.4037 22.5099L31.4668 20.6722C32.1869 19.3898 33.4606 18.6724 34.9205 18.6724H37.0466C38.5065 18.6724 39.7557 19.3898 40.5004 20.6722Z" fill="white"/>
</svg>
