<?xml version="1.0" encoding="utf-8"?>
<!-- Generator: Adobe Illustrator 26.5.0, SVG Export Plug-In . SVG Version: 6.00 Build 0)  -->
<svg version="1.1" id="Layer_1" xmlns="http://www.w3.org/2000/svg" xmlns:xlink="http://www.w3.org/1999/xlink" x="0px" y="0px"
	 viewBox="0 0 30 30" style="enable-background:new 0 0 30 30;" xml:space="preserve">
<style type="text/css">
	.st0{fill:#0120C6;}
	.st1{fill:none;stroke:#11ACDF;stroke-miterlimit:10;}
</style>
<path class="st0" d="M28.4,11.4C28.2,4.6,21.7-0.1,15,0C8.3-0.1,1.8,4.6,1.6,11.4C0.6,11.9,0,12.8,0,14v6.3C0,22,1.6,23.3,3.4,23
	v6.4C3.4,29.7,3.7,30,4,30h22c0.4,0,0.6-0.3,0.6-0.6V23c1.7,0.3,3.4-1,3.3-2.8V14C30,12.8,29.4,11.9,28.4,11.4z M4.4,20.2
	c0,0.9-0.7,1.6-1.6,1.5c-0.8,0-1.5-0.7-1.5-1.5V14c0-0.9,0.7-1.6,1.6-1.5c0.8,0,1.5,0.7,1.5,1.5C4.4,14.3,4.4,20,4.4,20.2z
	 M2.9,11.1c0.2-2.6,1.4-5,3.5-6.8c6.7-5.9,20-2.9,20.7,6.8c-0.7,0-1.3,0.2-1.7,0.6c-2.5-11-18.3-11-20.7,0
	C4.2,11.4,3.5,11.1,2.9,11.1z M24.1,12.1h-3l-1.7-2.6c-0.1-0.2-0.3-0.3-0.5-0.3c-0.2,0-0.4,0.1-0.5,0.3l-1.7,2.6H5.9
	C8,2.3,22,2.3,24.1,12.1z M4.7,28.7v-6.3c0,0,0.1-0.1,0.1-0.1c0.7,2.8,2.6,5.1,5.1,6.4H4.7z M6.6,23.4h4.2v-1.3H6.1
	c-0.2-0.8-0.4-1.7-0.4-2.6c0-0.3,0-6,0-6.2h11.2c0.2,0,0.4-0.1,0.5-0.3l1.4-2l1.4,2c0.1,0.2,0.3,0.3,0.5,0.3h3.5c0,0.2,0,6.2,0,6.2
	c0,5-4.1,9.1-9.1,9.1C11.4,28.8,8.1,26.6,6.6,23.4z M25.4,28.7h-5.2c2.5-1.4,4.3-3.7,5.1-6.4c0,0,0.1,0.1,0.1,0.1V28.7L25.4,28.7z
	 M28.7,20.2c-0.1,2-3,2-3.1,0c0-0.1,0-5.9,0-6.3c0.1-2,3-2,3.1,0V20.2z"/>
<rect x="11" y="21.1" class="st1" width="4.8" height="2.9"/>
</svg>
