<?xml version="1.0" encoding="utf-8"?>
<!-- Generator: Adobe Illustrator 26.5.0, SVG Export Plug-In . SVG Version: 6.00 Build 0)  -->
<svg version="1.1" id="Layer_1" xmlns="http://www.w3.org/2000/svg" xmlns:xlink="http://www.w3.org/1999/xlink" x="0px" y="0px"
	 viewBox="0 0 457.5 457.5" style="enable-background:new 0 0 457.5 457.5;" xml:space="preserve">
<style type="text/css">
	.st0{fill:#0120C6;}
	.st1{fill:#11ACDF;}
	.st2{display:none;fill:#0120C6;}
</style>
<g>
	<path class="st0" d="M423.2,110.7L233.7,1.3c-3.1-1.8-6.9-1.8-10,0L34.3,110.7c-3.1,1.8-5,5.1-5,8.7v218.7c0,3.6,1.9,6.9,5,8.7
		l189.4,109.4c1.5,0.9,3.3,1.3,5,1.3s3.5-0.4,5-1.3l189.4-109.4c3.1-1.8,5-5.1,5-8.7V119.4C428.2,115.8,426.3,112.5,423.2,110.7z
		 M408.2,317.6l-6.5-3.7c-4.8-2.8-10.9-1.1-13.7,3.7s-1.1,10.9,3.7,13.7l9.2,5.3l-162.2,93.6V241.5c0.1,0,0.3,0,0.4,0
		c3.5,0,6.8-1.8,8.7-5c1.4-2.5,1.7-5.3,0.9-7.8l159.4-92.1v181H408.2z M69.4,317.5c-2.8-4.8-8.9-6.4-13.7-3.7l-6.5,3.7V136.7
		l159.4,92.1c-0.7,2.5-0.5,5.3,0.9,7.8c1.9,3.2,5.2,5,8.7,5c0.1,0,0.3,0,0.4,0v188.6L56.5,336.5l9.2-5.3
		C70.5,328.4,72.2,322.3,69.4,317.5L69.4,317.5z M228.7,41.6c5.5,0,10-4.5,10-10v-4.3l159.4,92l-159.6,92.2c-0.9-4.6-5-8-9.8-8
		s-8.9,3.4-9.8,8L59.3,119.4l159.4-92v4.3C218.7,37.1,223.2,41.6,228.7,41.6z"/>
	<polyline class="st1" points="238.7,234.1 238.7,430.2 408.2,332 408.1,136.6 	"/>
	<path class="st2" d="M304,280.5l17.8,10.3c1.6,0.9,3.3,1.3,5,1.3c3.5,0,6.8-1.8,8.7-5c2.8-4.8,1.1-10.9-3.7-13.7L314,263.2
		c-4.8-2.8-10.9-1.1-13.7,3.7S299.2,277.8,304,280.5z"/>
	<path class="st2" d="M260.1,255.2l17.8,10.3c1.6,0.9,3.3,1.3,5,1.3c3.5,0,6.8-1.8,8.7-5c2.8-4.8,1.1-10.9-3.7-13.7l-17.8-10.3
		c-4.8-2.8-10.9-1.1-13.7,3.7C253.7,246.3,255.4,252.5,260.1,255.2L260.1,255.2z"/>
	<path class="st2" d="M347.9,305.9l17.8,10.3c1.6,0.9,3.3,1.3,5,1.3c3.5,0,6.8-1.8,8.7-5c2.8-4.8,1.1-10.9-3.7-13.7l-17.8-10.3
		c-4.8-2.8-10.9-1.1-13.7,3.7C341.4,297,343.1,303.1,347.9,305.9z"/>
	<path class="st0" d="M174.5,266.9c1.7,0,3.4-0.4,5-1.3l17.8-10.3c4.8-2.8,6.4-8.9,3.7-13.7c-2.8-4.8-8.9-6.4-13.7-3.7l-17.8,10.3
		c-4.8,2.8-6.4,8.9-3.7,13.7C167.7,265.1,171,266.9,174.5,266.9z"/>
	<path class="st0" d="M86.8,317.5c1.7,0,3.4-0.4,5-1.3l17.8-10.3c4.8-2.8,6.4-8.9,3.7-13.7c-2.8-4.8-8.9-6.4-13.7-3.7l-17.8,10.3
		c-4.8,2.8-6.4,8.9-3.7,13.7C80,315.7,83.3,317.5,86.8,317.5z"/>
	<path class="st0" d="M130.6,292.2c1.7,0,3.4-0.4,5-1.3l17.8-10.3c4.8-2.8,6.4-8.9,3.7-13.7c-2.8-4.8-8.9-6.4-13.7-3.7l-17.8,10.3
		c-4.8,2.8-6.4,8.9-3.7,13.7C123.8,290.4,127.2,292.2,130.6,292.2z"/>
	<path class="st0" d="M218.7,82.2c0,5.5,4.5,10,10,10s10-4.5,10-10V61.6c0-5.5-4.5-10-10-10s-10,4.5-10,10V82.2z"/>
	<path class="st0" d="M228.7,102.3c-5.5,0-10,4.5-10,10v20.6c0,5.5,4.5,10,10,10s10-4.5,10-10v-20.6
		C238.7,106.7,234.3,102.3,228.7,102.3z"/>
	<path class="st0" d="M228.7,152.9c-5.5,0-10,4.5-10,10v20.6c0,5.5,4.5,10,10,10s10-4.5,10-10v-20.6
		C238.7,157.4,234.3,152.9,228.7,152.9z"/>
</g>
</svg>
