<svg width="24" height="25" viewBox="0 0 24 25" fill="none" xmlns="http://www.w3.org/2000/svg">
<g clip-path="url(#clip0_222_13998)">
<path d="M16.4688 17.4096C16.2828 17.4098 16.1103 17.3089 16.0193 17.1468C16.0193 17.1468 13.4082 12.5027 13.4022 12.4896C12.0358 10.0883 13.8402 7.01783 16.605 7.04164C19.3821 7.01764 21.1855 10.114 19.7935 12.5149C19.788 12.5256 16.9068 17.166 16.9068 17.166C16.8126 17.3177 16.6468 17.4096 16.4688 17.4096ZM16.4908 15.8812C16.4908 15.8812 18.8506 12.0833 18.8797 12.0357C19.9091 10.3101 18.6161 8.05569 16.6049 8.07294C15.1524 8.07294 13.9706 9.25471 13.9706 10.7073C13.9706 11.1671 14.0915 11.6204 14.3203 12.0182C14.3286 12.0325 16.4908 15.8812 16.4908 15.8812Z" fill="#11acdf"/>
<path d="M17.4966 10.7067C17.4966 11.199 17.0975 11.598 16.6053 11.598C15.4231 11.5511 15.4234 9.86221 16.6053 9.81543C17.0975 9.81548 17.4966 10.2145 17.4966 10.7067Z" fill="#11acdf"/>
<path d="M23.4844 0.661621H0.515647C0.230869 0.661621 0 0.89249 0 1.17727V24.1348C0 24.4196 0.230869 24.6505 0.515647 24.6505H23.4844C23.7691 24.6505 24 24.4196 24 24.1348V1.17727C24 0.892444 23.7691 0.661621 23.4844 0.661621ZM9.74911 1.69292H22.9687V4.78272H9.74911V1.69292ZM1.03129 1.69292H5.23068V4.78272H1.03129V1.69292ZM5.23068 23.6192H1.03129V9.3011H5.23068V23.6192ZM9.74911 23.6192V20.6198L12.7484 23.6192H9.74911ZM19.1385 23.6192L9.74911 14.2298V9.3011H13.2203C13.379 8.92074 13.6 8.57287 13.8704 8.26981H9.23346C8.94868 8.26981 8.71781 8.50068 8.71781 8.78545V14.4433C8.71781 14.5801 8.77214 14.7112 8.86885 14.8079L17.68 23.6191H14.207L9.59811 19.0103C9.45064 18.8628 9.22882 18.8187 9.03615 18.8985C8.84349 18.9783 8.71781 19.1663 8.71781 19.3749V23.6186H6.26197V8.78545C6.26197 8.50068 6.0311 8.26981 5.74632 8.26981H1.03129V5.81397H5.74632C6.0311 5.81397 6.26197 5.5831 6.26197 5.29832V1.69292H8.71781V5.29837C8.71781 5.58315 8.94868 5.81401 9.23346 5.81401H22.9687V8.26985H19.3398C19.6102 8.57291 19.8312 8.92079 19.9898 9.30115H22.9687V23.6192H19.1385Z" fill="#0120C6"/>
</g>
<defs>
<clipPath id="clip0_222_13998">
<rect width="24" height="24" fill="white" transform="translate(0 0.65625)"/>
</clipPath>
</defs>
</svg>
