<?xml version="1.0" encoding="utf-8"?>
<!-- Generator: Adobe Illustrator 26.5.0, SVG Export Plug-In . SVG Version: 6.00 Build 0)  -->
<svg version="1.1" id="Layer_1" xmlns="http://www.w3.org/2000/svg" xmlns:xlink="http://www.w3.org/1999/xlink" x="0px" y="0px"
	 viewBox="0 0 800 800" style="enable-background:new 0 0 800 800;" xml:space="preserve">
<style type="text/css">
	.st0{fill:#070100;}
	.st1{fill:none;}
</style>
<path class="st0" d="M138.7,672.7c-6.4,0-12.2-3.9-14.6-9.8c-62.3-157.5,11.4-336,166.7-403.7c8.3-2.8,17.3,1.7,20.1,10
	c2.5,7.5-0.9,15.7-7.9,19.2C163.5,349.2,97.4,509.5,153.3,650.8c3.3,8.1-0.5,17.3-8.6,20.6c0,0,0,0-0.1,0
	C142.8,672.3,140.8,672.7,138.7,672.7L138.7,672.7z M623.5,584.4c50.7-19,72.3-67,58-128.4c-22.9-98.1-145.4-231.1-307.2-214.9
	c-8.7,0.4-15.5,7.8-15.1,16.5c0.4,8.7,7.8,15.5,16.5,15.1c0.6,0,1.1-0.1,1.7-0.2c124.4-7.9,237.8,71.2,273.3,190.7
	c14,35.9-3,76.4-38.3,91.6c-28.4,10.7-60.5-12.9-99.7-44.8c-6.8-5.5-16.7-4.5-22.2,2.3c-5.5,6.8-4.5,16.7,2.3,22.2l0,0
	C523.1,559.3,559.6,589,598,589C606.7,589,615.3,587.4,623.5,584.4L623.5,584.4z M497.3,748.3c3.6-8,0-17.3-7.9-20.9
	C388.9,682,320.7,585,320.1,522.9c-2-18.9,8.1-37,25.1-45.3c28.9-12.5,62.4-8.1,87.1,11.4c7.5,4.5,17.2,2.2,21.7-5.3
	c4.5-7.5,2.2-17.2-5.3-21.7l0,0c-33.9-25-78.6-30-117.1-13c-28.3,13.5-45.4,42.9-43.2,74.2c0.7,71.6,72.7,181,187.9,233
	C484.3,759.8,493.7,756.3,497.3,748.3z M631.3,689.4c2.1-8.5-3-17.1-11.5-19.2c-86.8-21.9-177.9-83.8-211.9-143.9
	c-4-7.8-13.6-10.8-21.3-6.8c-7.8,4-10.8,13.6-6.8,21.3c0.2,0.3,0.4,0.7,0.6,1c43.6,77,149.5,138.2,231.7,159
	c1.3,0.3,2.6,0.5,3.9,0.5C623.2,701.4,629.5,696.4,631.3,689.4z M298.9,763.4c7.3-4.7,9.4-14.5,4.7-21.9
	c-112-173.8-75.1-291.3-9.6-339.1c64.3-46.9,177.9-41.6,261.6,60.4c5.4,6.8,15.4,8,22.2,2.5c6.8-5.4,8-15.4,2.5-22.2
	c-0.1-0.1-0.2-0.3-0.3-0.4c-96-117.1-228.6-121.3-304.7-65.9c-76.7,55.8-122.3,189.3,1.6,381.7C281.8,766,291.6,768.2,298.9,763.4
	L298.9,763.4z M161.7,146.7c44.1-41.1,279.1-152.3,455.9-11c6.7,5.6,16.6,4.8,22.3-1.9c5.6-6.7,4.8-16.6-1.9-22.3
	c-0.2-0.2-0.4-0.4-0.7-0.5C454.2-35.3,207.4,60.7,140.1,123.6c-6.4,6-6.7,16-0.8,22.3C145.3,152.3,155.3,152.7,161.7,146.7
	L161.7,146.7L161.7,146.7z M739.9,435.7c8.6-1.6,14.2-9.9,12.6-18.5c-31.7-151.6-159-264.4-313.2-277.7
	c-158.8-19-310.4,71.9-368.5,221c-3.2,8.1,0.8,17.3,8.9,20.5c7.7,3,16.5-0.4,20.1-7.9c62.4-143.3,188-219,335.9-202.2
	c140.4,11.8,256.5,114.3,285.7,252.2c1.4,7.5,7.9,12.9,15.5,12.9C737.9,436,738.9,435.9,739.9,435.7L739.9,435.7z"/>
<path class="st1" d="M0,0h800v800H0V0z"/>
</svg>
