<?xml version="1.0" encoding="utf-8"?>
<!-- Generator: Adobe Illustrator 26.5.0, SVG Export Plug-In . SVG Version: 6.00 Build 0)  -->
<svg version="1.1" id="Flat" xmlns="http://www.w3.org/2000/svg" xmlns:xlink="http://www.w3.org/1999/xlink" x="0px" y="0px"
	 viewBox="0 0 256 256" style="enable-background:new 0 0 256 256;" xml:space="preserve">
<style type="text/css">
	.st0{fill:#898989;}
</style>
<path class="st0" d="M193.6,88.4L141.3,128l52.4,39.6c4,3,6.4,7.7,6.4,12.8V216c0,8.8-7.2,16-16,16H72c-8.8,0-16-7.2-16-16v-36
	c0-5,2.4-9.8,6.4-12.8l52.3-39.2L62.4,88.8c-4-3-6.4-7.8-6.4-12.8V40c0-8.8,7.2-16,16-16h112c8.8,0,16,7.2,16,16v35.6
	C200,80.7,197.6,85.4,193.6,88.4z"/>
</svg>
