<?xml version="1.0" encoding="utf-8"?>
<!-- Generator: Adobe Illustrator 26.5.0, SVG Export Plug-In . SVG Version: 6.00 Build 0)  -->
<svg version="1.1" id="Layer_1" xmlns="http://www.w3.org/2000/svg" xmlns:xlink="http://www.w3.org/1999/xlink" x="0px" y="0px"
	 viewBox="0 0 512 512" style="enable-background:new 0 0 512 512;" xml:space="preserve">
<style type="text/css">
	.st0{fill:#363853;}
</style>
<g>
	<g>
		<path class="st0" d="M294.1,212.1c-6.4,0-11.7,5.2-11.7,11.7c0,6.4,5.2,11.7,11.7,11.7c6.4,0,11.7-5.2,11.7-11.7
			C305.8,217.4,300.5,212.1,294.1,212.1z"/>
	</g>
</g>
<g>
	<g>
		<path class="st0" d="M217.9,212.1c-6.4,0-11.7,5.2-11.7,11.7c0,6.4,5.2,11.7,11.7,11.7s11.7-5.2,11.7-11.7
			C229.6,217.4,224.3,212.1,217.9,212.1z"/>
	</g>
</g>
<g>
	<g>
		<path class="st0" d="M266.2,261.4h-20.4c-5.8,0-10.4,4.7-10.4,10.4c0,11.4,9.3,20.7,20.7,20.7c11.4,0,20.7-9.3,20.7-20.7
			C276.7,266,272,261.4,266.2,261.4z"/>
	</g>
</g>
<g>
	<g>
		<path class="st0" d="M409.6,491.1v-70.6c0-20.4-12.3-39.7-29.9-47l-67.2-28c-2.4-1-3.9-3.3-3.9-5.9v-16.3l27.3-15.7
			c0.2-0.1,0.4-0.2,0.6-0.3c13.7-9,22.7-25.1,24-43c0-0.3,0-0.5,0-0.8v-8.7c13.6-4.4,23.4-17.2,23.4-32.2s-9.8-27.8-23.4-32.2v-9.7
			c7.1-5.4,11.1-14,10.4-23.1l-1.6-33.8c0-0.3,0-0.5,0-0.8l-3.4-44c-1.7-22-17.3-39.9-38.7-44.8l-68.4-15.4
			c-1.6-0.4-3.3-0.4-4.9-0.1l-68.7,15.4C163.7,39,148.2,57,146.5,79l-3.4,44.1c0,0.1,0,0.2,0,0.3l-1.6,34.3
			c-0.6,8.9,3.2,17.4,10.1,22.8v9.9c-13.6,4.4-23.4,17.2-23.4,32.2s9.8,27.8,23.4,32.2v8.7c0,0.3,0,0.5,0,0.8
			c1.4,17.9,10.3,34,23.9,43c0.2,0.1,0.4,0.2,0.6,0.4l27.5,15.7v16.2c0,2.6-1.5,4.9-3.9,5.9l-67.2,28c-17.6,7.3-29.9,26.7-29.9,47
			v70.6 M167.3,80.6c1-12.7,10-23.2,22.5-26l66.4-14.9l66.4,14.9c12.5,2.8,21.5,13.2,22.5,26l2.7,34.5
			c-28.8-12.4-60.1-18.9-91.5-18.9c-31.5,0-62.8,6.5-91.5,18.8L167.3,80.6z M162.3,158.7l0.9-20c28.7-14.1,60.7-21.6,92.9-21.6
			s64.2,7.4,92.9,21.6l0.9,20c0,0.1,0,0.2,0,0.3c0.2,3.2-1.9,4.9-2.8,5.4c-0.9,0.6-3.3,1.7-6,0c-25.5-15.8-54.9-24.1-85-24.1
			s-59.5,8.3-85,24.1c-2.7,1.7-5.1,0.6-6.1,0c-0.9-0.6-3-2.2-2.8-5.4C162.3,158.9,162.3,158.8,162.3,158.7z M186.6,289.6
			c-8-5.4-13.3-15.3-14.2-26.6v-17c0-5.8-4.7-10.4-10.4-10.4c-7.1,0-13-5.8-13-13s5.8-13,13-13c5.8,0,10.4-4.7,10.4-10.4v-13.3
			c3.4-0.6,6.7-1.8,9.7-3.6c45-27.8,103.1-27.8,148.1,0c2.9,1.8,6.1,3,9.3,3.6v13.4c0,5.8,4.7,10.4,10.4,10.4c7.1,0,13,5.8,13,13
			s-5.8,13-13,13c-5.8,0-10.4,4.7-10.4,10.4v17c-0.9,11-6.4,21.2-14.4,26.6L269,321.8c-0.2,0.1-0.4,0.2-0.6,0.3
			c-7.8,5.2-17.2,5.2-25,0c-0.2-0.1-0.4-0.2-0.6-0.4L186.6,289.6z M287.6,335.2V377c0,17.4-14.2,31.5-31.6,31.5
			c-17.5,0-31.7-14.1-31.7-31.5v-41.8l7.9,4.5c7.3,4.8,15.5,7.1,23.7,7.1c8.2,0,16.4-2.4,23.7-7.1L287.6,335.2z M123.3,491.1v-70.6
			c0-11.8,7.3-23.7,17-27.8l4.9-2c2.2,4.6,3.3,9.7,3.3,14.9v85.6L123.3,491.1L123.3,491.1z M312.4,491.1H199.9v-24h112.6
			L312.4,491.1L312.4,491.1z M342.6,405.5v85.6h-9.3v-34.5c0-5.8-4.7-10.4-10.4-10.4H189.4c-5.8,0-10.4,4.7-10.4,10.4v34.5h-9.7
			v-85.6c0-8-1.7-15.7-4.9-22.9l39-16.2V377c0,28.9,23.6,52.4,52.6,52.4s52.5-23.5,52.5-52.4v-10.6l39,16.2
			C344.3,389.8,342.6,397.5,342.6,405.5z M388.7,491.1L388.7,491.1h-25.2v-85.6c0-5.2,1.1-10.2,3.3-14.9l4.9,2c9.7,4,17,16,17,27.8
			L388.7,491.1L388.7,491.1z"/>
	</g>
</g>
</svg>
