<svg width="24" height="25" viewBox="0 0 24 25" fill="none" xmlns="http://www.w3.org/2000/svg">
<path d="M18.75 18.6562C18.3352 18.6562 18 18.9915 18 19.4062V20.9062C18 21.3202 17.664 21.6562 17.25 21.6562H6.75C6.336 21.6562 6 21.3202 6 20.9062V4.40625C6 3.99225 6.336 3.65625 6.75 3.65625H17.25C17.664 3.65625 18 3.99225 18 4.40625V5.90625C18.0157 6.89475 19.485 6.8895 19.5 5.90625V4.40625C19.5 3.16575 18.4905 2.15625 17.25 2.15625H6.75C5.5095 2.15625 4.5 3.16575 4.5 4.40625V20.9062C4.5 22.1467 5.5095 23.1562 6.75 23.1562H17.25C18.4905 23.1562 19.5 22.1467 19.5 20.9062V19.4062C19.5 18.9915 19.1648 18.6562 18.75 18.6562Z" fill="#0120C6"/>
<path d="M22.125 12.6748C22.125 12.458 22.0305 12.2668 21.8843 12.1303L18.1575 8.37728C17.4615 7.68578 16.4048 8.73428 17.0925 9.43478L19.566 11.9248H12.375C11.9603 11.9248 11.625 12.26 11.625 12.6748C11.625 13.0895 11.9603 13.4248 12.375 13.4248H19.5593L17.094 15.8953C16.8015 16.1885 16.8015 16.6625 17.0955 16.9558C17.3888 17.2483 17.8635 17.2483 18.156 16.9543L21.882 13.2208C22.0298 13.0835 22.125 12.8923 22.125 12.6748Z" fill="#CC0041"/>
</svg>
