<svg width="78" height="20" viewBox="0 0 78 20" fill="none" xmlns="http://www.w3.org/2000/svg">
<g clip-path="url(#clip0_654_11601)">
<path fillRule="evenodd" clip-rule="evenodd" d="M74.6904 1.84961H75.945L74.0359 4.57618C76.3854 5.46789 78.0258 7.81504 77.8069 10.4854C77.5576 13.5219 74.9106 15.8188 71.8317 15.8188H67.2441L68.7915 13.6117H72.981C73.3052 13.6117 73.6065 13.4405 73.7686 13.1617L75.3461 10.4566C75.5083 10.1789 75.5083 9.83663 75.3461 9.55894L73.7686 6.85391C73.6065 6.57503 73.3064 6.40387 72.981 6.40387H69.4278L70.3545 5.08487L71.4446 3.53726C72.1995 2.44807 73.3512 1.84961 74.6904 1.84961Z" fill="#CC0041"/>
<path fillRule="evenodd" clip-rule="evenodd" d="M66.4479 9.01462L66.7867 9.59034C66.9452 9.85845 66.9452 10.1661 66.7867 10.4282L66.4479 11.0099C66.2955 11.272 66.0293 11.4288 65.7136 11.4288H65.0409C64.73 11.4288 64.4651 11.272 64.3066 11.0099L63.9678 10.4282C63.8154 10.1661 63.8154 9.85845 63.9678 9.59034L64.3066 9.01462C64.4651 8.74651 64.73 8.5957 65.0409 8.5957H65.7136C66.0305 8.5957 66.2955 8.74651 66.4479 9.01462Z" fill="#CC0041"/>
<path fillRule="evenodd" clip-rule="evenodd" d="M66.8206 13.6134L65.8382 15.0162L64.816 16.4776C64.0756 17.5357 62.8585 18.1677 61.558 18.1677H60.3034L62.325 15.2843C60.1994 14.3124 58.7585 12.1173 58.9206 9.62767C59.1214 6.5516 61.783 4.19727 64.8994 4.19727H69.0696L67.5162 6.40438H63.7719C63.4428 6.40438 63.1392 6.57793 62.9759 6.85921L61.4055 9.55346C61.241 9.83474 61.241 10.1818 61.4055 10.4631L62.9759 13.1574C63.1404 13.4387 63.444 13.6134 63.7731 13.6134H66.8206Z" fill="#CC0041"/>
<path fillRule="evenodd" clip-rule="evenodd" d="M50.3405 5.23486C51.3846 5.44313 52.3427 5.95541 53.1049 6.70228C54.103 7.69572 54.674 9.02071 54.674 10.4247C54.674 11.8275 54.103 13.1525 53.1049 14.1399C52.0742 15.1597 50.695 15.7246 49.2444 15.7246H46.6385C45.188 15.7246 43.8028 15.1597 42.7781 14.1399C41.78 13.1525 41.209 11.8275 41.209 10.4247V5.12475C41.209 4.12413 42.0365 3.30544 43.0479 3.30544H43.9927V10.4247C43.9927 11.1452 44.2746 11.8347 44.7936 12.3469C45.286 12.8341 45.9429 13.113 46.6385 13.113H49.2444C49.9401 13.113 50.597 12.8341 51.0894 12.3469C51.6084 11.8335 51.8903 11.1452 51.8903 10.4247C51.8903 8.96924 50.7277 7.73522 49.2444 7.72924L47.1963 7.72325H45.0561L47.5713 4.15764C48.025 3.3593 48.3927 2.75485 48.8646 2.39099C49.4162 1.95532 49.9546 1.83203 51.018 1.83203H52.7649L50.3405 5.23486Z" fill="#6A6D73"/>
<path fillRule="evenodd" clip-rule="evenodd" d="M19.5027 18.167H22.0372C22.6603 18.167 23.2059 17.881 23.5604 17.3675L25.8711 13.9838C26.6853 13.0418 27.1777 11.821 27.1777 10.4888C27.1777 7.52646 24.7556 5.12305 21.7614 5.12305C18.7672 5.12305 16.3379 7.52646 16.3379 10.4888C16.3379 13.2298 18.426 15.4967 21.1105 15.8091L19.5027 18.167ZM21.7614 7.8197C23.2519 7.8197 24.4592 9.01542 24.4592 10.4888C24.4592 11.9634 23.2519 13.1591 21.7614 13.1591C20.2709 13.1591 19.0636 11.9634 19.0636 10.4888C19.0624 9.01542 20.2709 7.8197 21.7614 7.8197Z" fill="#6A6D73"/>
<path fillRule="evenodd" clip-rule="evenodd" d="M1.51367 10.4249C1.51367 11.8277 2.08469 13.1527 3.08278 14.1402C4.11352 15.1599 5.49269 15.7249 6.94323 15.7249H12.3788H15.0973V5.125H14.2177C13.2063 5.125 12.3788 5.94369 12.3788 6.94431V13.1144H6.94323C6.2476 13.1144 5.59068 12.8355 5.0983 12.3484C4.57929 11.8349 4.29741 11.1467 4.29741 10.4261V10.4202C4.29741 9.69243 4.58655 9.0042 5.0983 8.49073C5.59068 8.00957 6.2476 7.73068 6.94323 7.73068V7.43146C6.82467 6.47033 6.15566 5.98917 5.36808 5.89821C2.97147 5.63129 1.51367 8.39258 1.51367 10.419V10.4249Z" fill="#6A6D73"/>
<path fillRule="evenodd" clip-rule="evenodd" d="M34.4993 15.5556C35.1949 15.5556 35.8518 15.2767 36.3442 14.7955C36.8559 14.282 37.1451 13.5938 37.1451 12.8661V9.39743C37.1451 8.91029 37.3096 8.43631 37.6302 8.11075C37.9653 7.76604 38.3718 7.57812 38.8836 7.57812H39.9276V12.8649C39.9276 14.8913 38.4698 17.6526 36.0732 17.3857C35.2856 17.2947 34.6154 16.8135 34.498 15.8524V15.5556H34.4993Z" fill="#6A6D73"/>
<path fillRule="evenodd" clip-rule="evenodd" d="M30.5842 5.12451C31.95 5.18316 33.2433 5.74212 34.2148 6.70324C35.2129 7.69668 35.7839 9.02167 35.7839 10.4257C35.7839 11.8284 35.2129 13.1534 34.2148 14.1409C33.184 15.1606 31.8049 15.7256 30.3543 15.7256H26.166L27.4786 13.8871C27.8331 13.3868 28.3654 13.1139 28.9824 13.1139H30.3543C31.05 13.1139 31.7069 12.835 32.1993 12.3479C32.7183 11.8344 33.0001 11.1462 33.0001 10.4257C33.0001 9.69793 32.7183 9.0097 32.1993 8.49622C31.7069 8.01506 31.05 7.73019 30.3543 7.73019H28.9316C28.9316 7.73019 28.8784 7.67155 28.8143 7.51954C28.7671 7.40703 28.686 7.12815 28.6812 6.92228C28.6763 6.68888 28.7235 6.46865 28.755 6.37289C28.8457 6.09641 29.0042 5.84864 29.2316 5.632C29.6127 5.27412 30.0664 5.10536 30.5842 5.12451Z" fill="#6A6D73"/>
<path fillRule="evenodd" clip-rule="evenodd" d="M72.472 9.01462L72.8047 9.59034C72.9632 9.85845 72.9632 10.1661 72.8047 10.4282L72.472 11.0099C72.3135 11.272 72.0486 11.4288 71.7376 11.4288H71.0602C70.7492 11.4288 70.4843 11.272 70.3258 11.0099L69.9919 10.4282C69.8334 10.1661 69.8334 9.85845 69.9919 9.59034L70.3258 9.01462C70.4843 8.74651 70.7492 8.5957 71.0602 8.5957H71.7376C72.0486 8.5957 72.3135 8.74651 72.472 9.01462Z" fill="#CC0041"/>
<path fillRule="evenodd" clip-rule="evenodd" d="M10.7544 5.53597L11.0169 5.98362C11.1935 6.29601 11.1935 6.64551 11.0169 6.95791L10.7544 7.40556C10.5705 7.71675 10.262 7.8927 9.90145 7.8927H9.3764C9.01588 7.8927 8.70012 7.71675 8.52349 7.40556L8.26096 6.95791C8.07707 6.64551 8.07707 6.29601 8.26096 5.98362L8.52349 5.53597C8.70133 5.22358 9.01588 5.04883 9.3764 5.04883H9.90145C10.262 5.04883 10.5705 5.22358 10.7544 5.53597Z" fill="#6A6D73"/>
</g>
<defs>
<clipPath id="clip0_654_11601">
<rect width="77" height="19" fill="white" transform="translate(0.751953 0.5)"/>
</clipPath>
</defs>
</svg>
