<svg width="24" height="24" viewBox="0 0 24 24" fill="none" xmlns="http://www.w3.org/2000/svg">
<path d="M15.8915 12.457H8.10547C7.8207 12.457 7.58984 12.6879 7.58984 12.9727V22.7052H8.62109V13.4883H15.3759V16.35H13.945C13.6602 16.35 13.4294 16.5809 13.4294 16.8657C13.4294 17.1504 13.6602 17.3813 13.945 17.3813H15.3759V22.7052H16.4071V12.9727C16.4071 12.6879 16.1763 12.457 15.8915 12.457Z" fill="#6A6D73"/>
<path d="M23.4844 22.1898H22.0535V10.4897L23.1511 11.4198C23.2479 11.5019 23.3664 11.542 23.4842 11.542C23.6304 11.542 23.7758 11.4801 23.8778 11.3598C24.0619 11.1425 24.035 10.8172 23.8178 10.6331L12.3334 0.900523C12.141 0.737586 11.859 0.737586 11.6666 0.900523L0.182261 10.6331C-0.0350045 10.8172 -0.061817 11.1426 0.122261 11.3598C0.306386 11.577 0.631745 11.6039 0.848964 11.4198L1.9465 10.4897V22.1898H0.515636C0.230871 22.1898 1.1123e-05 22.4207 1.1123e-05 22.7055C1.1123e-05 22.9902 0.230871 23.2211 0.515636 23.2211H23.4844C23.7692 23.2211 24 22.9902 24 22.7055C24 22.4207 23.7692 22.1898 23.4844 22.1898ZM2.97779 9.61576L12 1.96979L21.0223 9.61576V22.1898H2.97779V9.61576Z" fill="#6A6D73"/>
</svg>
