<?xml version="1.0" encoding="utf-8"?>
<!-- Generator: Adobe Illustrator 26.5.0, SVG Export Plug-In . SVG Version: 6.00 Build 0)  -->
<svg version="1.1" id="Layer_1" xmlns="http://www.w3.org/2000/svg" xmlns:xlink="http://www.w3.org/1999/xlink" x="0px" y="0px"
	 viewBox="0 0 24 24" style="enable-background:new 0 0 24 24;" xml:space="preserve">
<style type="text/css">
	.st0{fill:#CC0041;}
	.st1{fill:#0120C6;}
</style>
<path class="st0" d="M9,17.9l0.1-0.7l-0.9-0.1L8.3,18L9,17.9z M15,17.9l0.7,0.1l0.1-0.9l-0.9,0.1L15,17.9z M14.9,18.5l0.7,0.2l0,0
	L14.9,18.5z M14.8,18.8l-0.7-0.2l0,0L14.8,18.8z M12.7,20.9l0.2,0.7l0,0L12.7,20.9z M11.3,20.9l-0.2,0.7l0,0L11.3,20.9z M9.2,18.8
	l0.7-0.2l0,0L9.2,18.8z M9.1,18.5l-0.7,0.2l0,0L9.1,18.5z M8.9,18.6c2,0.2,4.1,0.2,6.1,0l-0.2-1.5c-1.9,0.2-3.9,0.2-5.8,0L8.9,18.6z
	 M15.6,18.7c0.1-0.2,0.1-0.5,0.1-0.7l-1.5-0.1c0,0.2,0,0.3-0.1,0.4L15.6,18.7z M15.5,19l0.1-0.3l-1.5-0.4l-0.1,0.3L15.5,19z
	 M12.9,21.6c1.3-0.3,2.3-1.3,2.7-2.7l-1.5-0.4c-0.2,0.8-0.8,1.4-1.6,1.6L12.9,21.6z M11.1,21.6c0.6,0.1,1.2,0.1,1.8,0l-0.3-1.5
	c-0.3,0.1-0.7,0.1-1.1,0L11.1,21.6z M8.5,19c0.3,1.3,1.4,2.3,2.7,2.7l0.3-1.5c-0.8-0.2-1.4-0.8-1.6-1.6L8.5,19z M8.4,18.7L8.5,19
	l1.5-0.4l-0.1-0.3L8.4,18.7z M8.3,18c0,0.2,0.1,0.5,0.1,0.7l1.5-0.4c0-0.1-0.1-0.3-0.1-0.4L8.3,18z"/>
<path class="st0" d="M12.8,3c0-0.4-0.3-0.8-0.8-0.8S11.2,2.6,11.2,3H12.8z M11.2,4c0,0.4,0.3,0.8,0.8,0.8s0.8-0.3,0.8-0.8H11.2z
	 M11.2,3v1h1.5V3H11.2z"/>
<path class="st1" d="M6,8.6l0.7,0.2l0,0L6,8.6z M10.2,4.3L9.9,3.6l0,0L10.2,4.3z M6,8.8L5.3,8.6l0,0L6,8.8z M5.8,12.9l0.7-0.1l0,0
	L5.8,12.9z M5.8,13l-0.7,0.1l0,0L5.8,13z M6.3,17.5l0.1-0.7l0,0L6.3,17.5z M6.7,17.5l-0.1,0.7l0,0L6.7,17.5z M17.3,17.5l0.1,0.7l0,0
	L17.3,17.5z M17.7,17.5l-0.1-0.7l0,0L17.7,17.5z M18.2,13l0.7,0.1l0,0L18.2,13z M18.2,12.8l-0.7-0.1l0,0L18.2,12.8z M18,8.8L17.3,9
	l0,0L18,8.8z M18,8.6l0.7-0.2l0,0L18,8.6z M14,4.3l0.2-0.7l0,0L14,4.3z M18.4,13.3L18,14L18.4,13.3z M5.7,13.3L6,13.9L5.7,13.3z
	 M6.8,8.8C7.2,7,8.6,5.6,10.4,5L9.9,3.6c-2.2,0.7-4,2.6-4.6,4.8L6.8,8.8z M6.7,9l0-0.2L5.3,8.4l0,0.2L6.7,9z M6.5,12.7
	C6.3,11.5,6.4,10.2,6.7,9L5.3,8.6C4.9,10,4.8,11.5,5.1,13L6.5,12.7z M6.6,12.9l0-0.1L5.1,13l0,0.1L6.6,12.9z M5.2,15.3
	c0-0.6,0.3-1.1,0.8-1.3l-0.7-1.3c-0.9,0.5-1.6,1.5-1.6,2.6H5.2z M6.4,16.7c-0.7-0.1-1.2-0.7-1.2-1.5H3.8c0,1.4,1,2.6,2.4,2.9
	L6.4,16.7z M6.8,16.8l-0.4-0.1l-0.3,1.5l0.4,0.1L6.8,16.8z M17.2,16.8c-3.4,0.7-7,0.7-10.4,0l-0.3,1.5c3.6,0.7,7.4,0.7,11,0
	L17.2,16.8z M17.6,16.7l-0.4,0.1l0.3,1.5l0.4-0.1L17.6,16.7z M18.8,15.3c0,0.7-0.5,1.3-1.2,1.5l0.3,1.5c1.4-0.3,2.4-1.5,2.4-2.9
	H18.8z M18,14c0.5,0.3,0.8,0.7,0.8,1.3h1.5c0-1.1-0.6-2.1-1.5-2.6L18,14z M17.5,12.7l0,0.1l1.5,0.3l0-0.1L17.5,12.7z M17.3,9
	c0.3,1.2,0.4,2.5,0.2,3.7L19,13c0.2-1.4,0.2-2.9-0.2-4.3L17.3,9z M17.3,8.8L17.3,9l1.5-0.4l-0.1-0.2L17.3,8.8z M13.7,5
	c1.7,0.6,3.1,2,3.5,3.8l1.5-0.4c-0.6-2.3-2.3-4.1-4.5-4.8L13.7,5z M10.4,5c1.1-0.4,2.3-0.4,3.3,0l0.5-1.4c-1.4-0.5-2.9-0.5-4.3,0
	L10.4,5z M18.7,12.6c0.1,0.1,0.2,0.3,0.2,0.5l-1.5-0.3c-0.1,0.5,0.2,0.9,0.5,1.1L18.7,12.6z M5.1,13.1c0-0.2,0.1-0.4,0.2-0.5L6,13.9
	c0.4-0.2,0.6-0.6,0.5-1.1L5.1,13.1z"/>
</svg>
