<svg width="23" height="24" viewBox="0 0 23 24" fill="none" xmlns="http://www.w3.org/2000/svg">
<path d="M22.7457 3.45015C22.5002 3.30583 22.1842 3.38776 22.0399 3.6332L18.9348 8.91254H4.74781L1.64276 3.63325C1.49839 3.38772 1.18235 3.30578 0.936917 3.4502C0.691479 3.59458 0.609495 3.91056 0.75387 4.15604L3.93729 9.56861V23.484C3.93729 23.7687 4.16815 23.9996 4.45292 23.9996H19.2297C19.5145 23.9996 19.7453 23.7687 19.7453 23.484V9.56856L22.9287 4.156C23.0731 3.91056 22.9912 3.59453 22.7457 3.45015ZM18.2881 9.94384L16.3817 12.926H7.15671L5.36435 9.94384H18.2881ZM4.96854 22.9683V11.287L6.42307 13.7072C6.51631 13.8624 6.68403 13.9572 6.86501 13.9572H16.664C16.8399 13.9572 17.0037 13.8676 17.0984 13.7193L18.7141 11.1921V22.9683H4.96854Z" fill="#0120C6"/>
<path d="M11.4147 20.9785H7.3916C7.10684 20.9785 6.87598 20.7477 6.87598 20.4629C6.87598 20.1781 7.10684 19.9473 7.3916 19.9473H11.4147C11.6995 19.9473 11.9303 20.1781 11.9303 20.4629C11.9303 20.7477 11.6995 20.9785 11.4147 20.9785Z" fill="#0120C6"/>
<path d="M8.93976 0.203109C8.84554 0.079875 8.69741 0 8.5303 0C8.5296 0 8.52894 9.375e-05 8.52829 9.375e-05C8.52763 9.375e-05 8.52698 0 8.52632 0C8.52613 0 8.5259 0 8.52571 0C8.38213 0.0001875 8.24512 0.0601875 8.14766 0.165656L6.43874 2.01459C6.24543 2.2237 6.25827 2.54991 6.46743 2.74322C6.56662 2.83486 6.6921 2.88019 6.81726 2.88019C6.95605 2.88019 7.09443 2.8245 7.19605 2.71453L8.01468 1.82883V5.39433C8.01468 5.67909 8.24554 5.90995 8.5303 5.90995C8.81507 5.90995 9.04593 5.67909 9.04593 5.39433V1.83295L9.86535 2.71547C10.0591 2.92411 10.3854 2.93625 10.594 2.74242C10.8027 2.54864 10.8148 2.22239 10.621 2.0137L8.93976 0.203109Z" fill="#CC0041"/>
<path d="M17.2441 2.0137L15.5628 0.203109C15.4685 0.079875 15.3205 0 15.1534 0C15.1526 0 15.152 9.375e-05 15.1513 9.375e-05C15.1507 9.375e-05 15.15 0 15.1494 0C15.1492 0 15.1489 0 15.1488 0C15.0052 0.0001875 14.8682 0.0601875 14.7707 0.165656L13.0618 2.01459C12.8685 2.2237 12.8813 2.54991 13.0905 2.74322C13.1897 2.83486 13.3151 2.88019 13.4404 2.88019C13.5791 2.88019 13.7175 2.8245 13.8191 2.71453L14.6378 1.82883V5.39433C14.6378 5.67909 14.8686 5.90995 15.1534 5.90995C15.4382 5.90995 15.669 5.67909 15.669 5.39433V1.83295L16.4884 2.71542C16.6822 2.92406 17.0085 2.9362 17.2171 2.74238C17.4258 2.54864 17.4378 2.22239 17.2441 2.0137Z" fill="#CC0041"/>
</svg>
