<svg width="141" height="60" viewBox="0 0 141 60" fill="none" xmlns="http://www.w3.org/2000/svg">
<path d="M19.1591 18.8467L1 20.193" stroke="#333333" stroke-linecap="round" stroke-linejoin="round"/>
<path d="M70.5029 16.9941H55.157L42.1816 18.4164H24.9699L21.1919 18.6967" stroke="#333333" stroke-linecap="round" stroke-linejoin="round"/>
<path d="M4.14404 40.4244L11.0469 40.2393" stroke="#333333" stroke-linecap="round" stroke-linejoin="round"/>
<path d="M22.0665 40.1519L14.1089 40.3483" stroke="#333333" stroke-linecap="round" stroke-linejoin="round"/>
<path d="M39.4055 40.0791H27.9956" stroke="#333333" stroke-linecap="round" stroke-linejoin="round"/>
<path d="M52.8905 38.9058L44.4492 39.8313" stroke="#333333" stroke-linecap="round" stroke-linejoin="round"/>
<path d="M70.5028 38.6577H59.5679" stroke="#333333" stroke-linecap="round" stroke-linejoin="round"/>
<path d="M1.95166 30.1198V20.1934" stroke="#333333" stroke-linecap="round" stroke-linejoin="round"/>
<path d="M70.5 59.0855H55.1576L42.1814 57.6632H24.9696L2.93828 55.9615C2.66991 55.9408 2.41922 55.8196 2.23631 55.6221C2.0534 55.4247 1.95174 55.1654 1.95166 54.8963V32.1577" stroke="#333333" stroke-linecap="round" stroke-linejoin="round"/>
<path d="M55.1426 31.77V59.0855" stroke="#333333" stroke-linecap="round" stroke-linejoin="round"/>
<path d="M55.1426 12.0146V29.7363" stroke="#333333" stroke-linecap="round" stroke-linejoin="round"/>
<path d="M42.186 54.376V57.6633" stroke="#333333" stroke-linecap="round" stroke-linejoin="round"/>
<path d="M42.186 18.4165V52.3772" stroke="#333333" stroke-linecap="round" stroke-linejoin="round"/>
<path d="M24.9697 18.4165V57.6631" stroke="#333333" stroke-linecap="round" stroke-linejoin="round"/>
<path d="M44.4375 38.1752V28.0741C44.4375 25.9411 48.2294 23.334 48.2294 23.334C48.2294 23.334 52.8901 25.0331 52.8901 27.6402V37.2445L44.4375 38.1752Z" stroke="#333333" stroke-linecap="round" stroke-linejoin="round"/>
<path d="M48.3066 37.7488V28.0738C48.3066 26.8575 49.5395 25.4876 50.5994 24.5342" stroke="#333333" stroke-linecap="round" stroke-linejoin="round"/>
<path d="M44.4375 57.9075V48.1557C44.4375 46.0227 48.2294 43.4155 48.2294 43.4155C48.2294 43.4155 52.8901 45.1137 52.8901 47.7209V58.8365" stroke="#333333" stroke-linecap="round" stroke-linejoin="round"/>
<path d="M48.3066 58.3346V48.1558C48.3066 46.9396 49.5395 45.5697 50.5994 44.6162" stroke="#333333" stroke-linecap="round" stroke-linejoin="round"/>
<path d="M14.1089 38.6991V28.1344C14.1089 26.1262 17.6791 23.6719 17.6791 23.6719C17.6791 23.6719 22.0665 25.2714 22.0665 27.7258V38.4939L14.1089 38.6991Z" stroke="#333333" stroke-linecap="round" stroke-linejoin="round"/>
<path d="M17.7515 38.6041V28.1345C17.7515 26.9899 18.9118 25.7003 19.9098 24.8027" stroke="#333333" stroke-linecap="round" stroke-linejoin="round"/>
<path d="M4.14355 38.9513V28.9052C4.14355 27.1301 7.29987 24.9604 7.29987 24.9604C7.29987 24.9604 11.1782 26.374 11.1782 28.5402V38.7557L4.14355 38.9513Z" stroke="#333333" stroke-linecap="round" stroke-linejoin="round"/>
<path d="M7.36426 38.858V28.9045C7.36426 27.8926 8.39017 26.7523 9.27202 25.9595" stroke="#333333" stroke-linecap="round" stroke-linejoin="round"/>
<path d="M14.1089 56.824V47.878C14.1089 45.8699 17.6791 43.4155 17.6791 43.4155C17.6791 43.4155 22.0665 45.0142 22.0665 47.4685V57.4386" stroke="#333333" stroke-linecap="round" stroke-linejoin="round"/>
<path d="M17.7515 57.1061V47.8781C17.7515 46.7326 18.9118 45.443 19.9098 44.5454" stroke="#333333" stroke-linecap="round" stroke-linejoin="round"/>
<path d="M4.14355 56.0546V47.8831C4.14355 46.1081 7.30074 43.9375 7.30074 43.9375C7.30074 43.9375 11.1791 45.3511 11.1791 47.5173V56.5977" stroke="#333333" stroke-linecap="round" stroke-linejoin="round"/>
<path d="M7.36426 56.3037V47.8834C7.36426 46.8715 8.39017 45.7312 9.27202 44.9375" stroke="#333333" stroke-linecap="round" stroke-linejoin="round"/>
<path d="M70.4876 36.998H59.4531V28.2485C59.4531 23.6829 66.9392 20.3965 70.5024 19.2842" stroke="#333333" stroke-linecap="round" stroke-linejoin="round"/>
<path d="M70.4876 28.1411H59.4531" stroke="#333333" stroke-linecap="round" stroke-linejoin="round"/>
<path d="M70.4875 28.1413C69.9593 25.288 67.6472 22.5464 65.8774 21.1782" stroke="#333333" stroke-linecap="round" stroke-linejoin="round"/>
<path d="M65.2822 28.1414C66.0619 25.3972 68.0692 23.7758 70.4877 22.6626" stroke="#333333" stroke-linecap="round" stroke-linejoin="round"/>
<path d="M65.2824 28.1409C64.7786 26.3668 63.7868 24.659 62.292 23.4619" stroke="#333333" stroke-linecap="round" stroke-linejoin="round"/>
<path d="M59.4531 59.0852V49.7735C59.4531 45.2237 66.9392 41.9477 70.5024 40.8389" stroke="#333333" stroke-linecap="round" stroke-linejoin="round"/>
<path d="M70.4876 49.667H59.4531" stroke="#333333" stroke-linecap="round" stroke-linejoin="round"/>
<path d="M70.4875 49.6669C69.9593 46.8231 67.6472 44.0903 65.8774 42.7256" stroke="#333333" stroke-linecap="round" stroke-linejoin="round"/>
<path d="M65.2822 49.667C66.0619 46.9315 68.0692 45.3119 70.4877 44.2065" stroke="#333333" stroke-linecap="round" stroke-linejoin="round"/>
<path d="M65.2824 49.6671C64.7786 47.8982 63.7868 46.1965 62.292 45.0029" stroke="#333333" stroke-linecap="round" stroke-linejoin="round"/>
<path d="M33.704 23.3433C31.8635 24.0898 27.9956 26.2935 27.9956 29.3555V38.4185H39.4055V29.3564C39.4055 26.2944 35.5376 24.0906 33.6962 23.3441" stroke="#333333" stroke-linecap="round" stroke-linejoin="round"/>
<path d="M33.6962 29.2837H27.9956" stroke="#333333" stroke-linecap="round" stroke-linejoin="round"/>
<path d="M33.6963 29.2832C33.4239 27.3702 32.2295 25.5288 31.3145 24.6138" stroke="#333333" stroke-linecap="round" stroke-linejoin="round"/>
<path d="M31.0073 29.2834C31.4098 27.4438 32.4471 26.3541 33.6965 25.6094" stroke="#333333" stroke-linecap="round" stroke-linejoin="round"/>
<path d="M31.0073 29.2835C30.7454 28.0943 30.2346 26.9488 29.4619 26.1455" stroke="#333333" stroke-linecap="round" stroke-linejoin="round"/>
<path d="M33.7041 29.2837H39.4055" stroke="#333333" stroke-linecap="round" stroke-linejoin="round"/>
<path d="M33.7041 29.2832C33.9765 27.3702 35.1709 25.5288 36.086 24.6138" stroke="#333333" stroke-linecap="round" stroke-linejoin="round"/>
<path d="M36.3933 29.2834C35.9908 27.4438 34.9535 26.3541 33.7041 25.6094" stroke="#333333" stroke-linecap="round" stroke-linejoin="round"/>
<path d="M36.3936 29.2835C36.6555 28.0943 37.1663 26.9488 37.939 26.1455" stroke="#333333" stroke-linecap="round" stroke-linejoin="round"/>
<path d="M33.6963 38.4191V29.2837" stroke="#333333" stroke-linecap="round" stroke-linejoin="round"/>
<path d="M39.4056 57.6632V49.4323C39.4056 46.3703 35.5377 44.1665 33.6963 43.4209" stroke="#333333" stroke-linecap="round" stroke-linejoin="round"/>
<path d="M33.704 43.4209C31.8635 44.1665 27.9956 46.3703 27.9956 49.4323V57.6632" stroke="#333333" stroke-linecap="round" stroke-linejoin="round"/>
<path d="M33.6962 49.3599H27.9956" stroke="#333333" stroke-linecap="round" stroke-linejoin="round"/>
<path d="M33.6963 49.3599C33.4239 47.4469 32.2295 45.6055 31.3145 44.6904" stroke="#333333" stroke-linecap="round" stroke-linejoin="round"/>
<path d="M31.0073 49.3596C31.4098 47.52 32.4471 46.4303 33.6965 45.6855" stroke="#333333" stroke-linecap="round" stroke-linejoin="round"/>
<path d="M31.0073 49.3598C30.7454 48.1706 30.2346 47.025 29.4619 46.2227" stroke="#333333" stroke-linecap="round" stroke-linejoin="round"/>
<path d="M33.7041 49.3599H39.4055" stroke="#333333" stroke-linecap="round" stroke-linejoin="round"/>
<path d="M33.7041 49.3599C33.9765 47.4469 35.1709 45.6055 36.086 44.6904" stroke="#333333" stroke-linecap="round" stroke-linejoin="round"/>
<path d="M36.3933 49.3596C35.9908 47.52 34.9535 46.4303 33.7041 45.6855" stroke="#333333" stroke-linecap="round" stroke-linejoin="round"/>
<path d="M36.3936 49.3598C36.6555 48.1706 37.1663 47.025 37.939 46.2227" stroke="#333333" stroke-linecap="round" stroke-linejoin="round"/>
<path d="M33.6963 57.6632V49.3599" stroke="#333333" stroke-linecap="round" stroke-linejoin="round"/>
<path d="M65.2822 28.1411V36.998" stroke="#333333" stroke-linecap="round" stroke-linejoin="round"/>
<path d="M70.5024 28.1411V36.998" stroke="#333333" stroke-linecap="round" stroke-linejoin="round"/>
<path d="M65.2822 49.667V59.0853" stroke="#333333" stroke-linecap="round" stroke-linejoin="round"/>
<path d="M52.8901 37.2461V49.9622" stroke="#333333" stroke-linecap="round" stroke-linejoin="round"/>
<path d="M44.4375 38.1724V49.7857" stroke="#333333" stroke-linecap="round" stroke-linejoin="round"/>
<path d="M39.4058 38.4189V53.5116" stroke="#333333" stroke-linecap="round" stroke-linejoin="round"/>
<path d="M27.9956 38.4189V49.9624" stroke="#333333" stroke-linecap="round" stroke-linejoin="round"/>
<path d="M22.0664 38.4937V47.7915" stroke="#333333" stroke-linecap="round" stroke-linejoin="round"/>
<path d="M14.1089 38.6973V48.3932" stroke="#333333" stroke-linecap="round" stroke-linejoin="round"/>
<path d="M11.1792 38.7573V49.3596" stroke="#333333" stroke-linecap="round" stroke-linejoin="round"/>
<path d="M4.14404 38.9512V48.8968" stroke="#333333" stroke-linecap="round" stroke-linejoin="round"/>
<path d="M59.4531 36.998V50.6204" stroke="#333333" stroke-linecap="round" stroke-linejoin="round"/>
<path d="M70.4976 16.9941H85.8434L98.8188 18.4164H116.031L140 20.1932" stroke="#333333" stroke-linecap="round" stroke-linejoin="round"/>
<path d="M136.856 40.4244L129.953 40.2393" stroke="#333333" stroke-linecap="round" stroke-linejoin="round"/>
<path d="M118.934 40.1519L126.891 40.3483" stroke="#333333" stroke-linecap="round" stroke-linejoin="round"/>
<path d="M101.595 40.0791H113.005" stroke="#333333" stroke-linecap="round" stroke-linejoin="round"/>
<path d="M88.1099 38.9058L96.5511 39.8313" stroke="#333333" stroke-linecap="round" stroke-linejoin="round"/>
<path d="M70.4976 38.6577H81.4325" stroke="#333333" stroke-linecap="round" stroke-linejoin="round"/>
<path d="M139.048 48.3435V20.1934" stroke="#333333" stroke-linecap="round" stroke-linejoin="round"/>
<path d="M70.5 59.0854H85.8424L98.8186 57.6631H116.03L138.062 55.9614C138.33 55.9407 138.581 55.8195 138.764 55.6221C138.947 55.4246 139.048 55.1654 139.048 54.8962V50.377" stroke="#333333" stroke-linecap="round" stroke-linejoin="round"/>
<path d="M98.8145 18.4165V57.6631" stroke="#333333" stroke-linecap="round" stroke-linejoin="round"/>
<path d="M116.031 18.4165V57.6631" stroke="#333333" stroke-linecap="round" stroke-linejoin="round"/>
<path d="M96.5625 38.1752V28.0741C96.5625 25.9411 92.7706 23.334 92.7706 23.334C92.7706 23.334 88.1099 25.0331 88.1099 27.6402V37.2445L96.5625 38.1752Z" stroke="#333333" stroke-linecap="round" stroke-linejoin="round"/>
<path d="M92.6937 37.7488V28.0738C92.6937 26.8575 91.4608 25.4876 90.4009 24.5342" stroke="#333333" stroke-linecap="round" stroke-linejoin="round"/>
<path d="M96.5625 57.9075V48.1557C96.5625 46.0227 92.7706 43.4155 92.7706 43.4155C92.7706 43.4155 88.1099 45.1137 88.1099 47.7209V58.8365" stroke="#333333" stroke-linecap="round" stroke-linejoin="round"/>
<path d="M92.6937 58.3346V48.1558C92.6937 46.9396 91.4608 45.5697 90.4009 44.6162" stroke="#333333" stroke-linecap="round" stroke-linejoin="round"/>
<path d="M126.891 38.6991V28.1344C126.891 26.1262 123.321 23.6719 123.321 23.6719C123.321 23.6719 118.934 25.2714 118.934 27.7258V38.4939L126.891 38.6991Z" stroke="#333333" stroke-linecap="round" stroke-linejoin="round"/>
<path d="M123.248 38.6041V28.1345C123.248 26.9899 122.088 25.7003 121.09 24.8027" stroke="#333333" stroke-linecap="round" stroke-linejoin="round"/>
<path d="M136.857 38.9513V28.9052C136.857 27.1301 133.701 24.9604 133.701 24.9604C133.701 24.9604 129.822 26.374 129.822 28.5402V38.7557L136.857 38.9513Z" stroke="#333333" stroke-linecap="round" stroke-linejoin="round"/>
<path d="M133.636 38.858V28.9045C133.636 27.8926 132.61 26.7523 131.728 25.9595" stroke="#333333" stroke-linecap="round" stroke-linejoin="round"/>
<path d="M126.891 56.824V47.878C126.891 45.8699 123.321 43.4155 123.321 43.4155C123.321 43.4155 118.934 45.0142 118.934 47.4685V57.4386" stroke="#333333" stroke-linecap="round" stroke-linejoin="round"/>
<path d="M123.248 57.1061V47.8781C123.248 46.7326 122.088 45.443 121.09 44.5454" stroke="#333333" stroke-linecap="round" stroke-linejoin="round"/>
<path d="M136.857 56.0547V47.8832C136.857 46.1082 133.701 43.9385 133.701 43.9385C133.701 43.9385 129.822 45.3521 129.822 47.5183V56.5978" stroke="#333333" stroke-linecap="round" stroke-linejoin="round"/>
<path d="M133.636 56.3037V47.8834C133.636 46.8715 132.61 45.7312 131.728 44.9375" stroke="#333333" stroke-linecap="round" stroke-linejoin="round"/>
<path d="M70.5124 36.998H81.5468V28.2485C81.5468 23.6829 74.0607 20.3965 70.4976 19.2842" stroke="#333333" stroke-linecap="round" stroke-linejoin="round"/>
<path d="M70.5122 28.1411H81.5466" stroke="#333333" stroke-linecap="round" stroke-linejoin="round"/>
<path d="M70.5122 28.1413C71.0404 25.288 73.3525 22.5464 75.1223 21.1782" stroke="#333333" stroke-linecap="round" stroke-linejoin="round"/>
<path d="M75.7177 28.1414C74.938 25.3972 72.9307 23.7758 70.5122 22.6626" stroke="#333333" stroke-linecap="round" stroke-linejoin="round"/>
<path d="M75.7178 28.1409C76.2216 26.3668 77.2134 24.659 78.7082 23.4619" stroke="#333333" stroke-linecap="round" stroke-linejoin="round"/>
<path d="M81.5468 59.0852V49.7735C81.5468 45.2237 74.0607 41.9477 70.4976 40.8389" stroke="#333333" stroke-linecap="round" stroke-linejoin="round"/>
<path d="M70.5122 49.667H81.5466" stroke="#333333" stroke-linecap="round" stroke-linejoin="round"/>
<path d="M70.5122 49.6669C71.0404 46.8231 73.3525 44.0903 75.1223 42.7256" stroke="#333333" stroke-linecap="round" stroke-linejoin="round"/>
<path d="M75.7177 49.667C74.938 46.9315 72.9307 45.3119 70.5122 44.2065" stroke="#333333" stroke-linecap="round" stroke-linejoin="round"/>
<path d="M75.7178 49.6671C76.2216 47.8982 77.2134 46.1965 78.7082 45.0029" stroke="#333333" stroke-linecap="round" stroke-linejoin="round"/>
<path d="M107.296 23.3433C109.137 24.0898 113.005 26.2935 113.005 29.3555V38.4185H101.595V29.3564C101.595 26.2944 105.463 24.0906 107.304 23.3441" stroke="#333333" stroke-linecap="round" stroke-linejoin="round"/>
<path d="M107.304 29.2837H113.004" stroke="#333333" stroke-linecap="round" stroke-linejoin="round"/>
<path d="M107.304 29.2832C107.576 27.3702 108.771 25.5288 109.686 24.6138" stroke="#333333" stroke-linecap="round" stroke-linejoin="round"/>
<path d="M109.993 29.2834C109.59 27.4438 108.553 26.3541 107.304 25.6094" stroke="#333333" stroke-linecap="round" stroke-linejoin="round"/>
<path d="M109.993 29.2835C110.255 28.0943 110.765 26.9488 111.538 26.1455" stroke="#333333" stroke-linecap="round" stroke-linejoin="round"/>
<path d="M107.296 29.2837H101.595" stroke="#333333" stroke-linecap="round" stroke-linejoin="round"/>
<path d="M107.296 29.2832C107.024 27.3702 105.829 25.5288 104.914 24.6138" stroke="#333333" stroke-linecap="round" stroke-linejoin="round"/>
<path d="M104.606 29.2834C105.009 27.4438 106.046 26.3541 107.296 25.6094" stroke="#333333" stroke-linecap="round" stroke-linejoin="round"/>
<path d="M104.607 29.2835C104.345 28.0943 103.834 26.9488 103.062 26.1455" stroke="#333333" stroke-linecap="round" stroke-linejoin="round"/>
<path d="M107.304 38.4191V29.2837" stroke="#333333" stroke-linecap="round" stroke-linejoin="round"/>
<path d="M101.595 57.6632V49.4323C101.595 46.3703 105.463 44.1665 107.304 43.4209" stroke="#333333" stroke-linecap="round" stroke-linejoin="round"/>
<path d="M107.296 43.4209C109.136 44.1665 113.004 46.3703 113.004 49.4323V57.6632" stroke="#333333" stroke-linecap="round" stroke-linejoin="round"/>
<path d="M107.304 49.3599H113.004" stroke="#333333" stroke-linecap="round" stroke-linejoin="round"/>
<path d="M107.304 49.3599C107.576 47.4469 108.771 45.6055 109.686 44.6904" stroke="#333333" stroke-linecap="round" stroke-linejoin="round"/>
<path d="M109.993 49.3596C109.59 47.52 108.553 46.4303 107.304 45.6855" stroke="#333333" stroke-linecap="round" stroke-linejoin="round"/>
<path d="M109.993 49.3598C110.255 48.1706 110.765 47.025 111.538 46.2227" stroke="#333333" stroke-linecap="round" stroke-linejoin="round"/>
<path d="M107.296 49.3599H101.595" stroke="#333333" stroke-linecap="round" stroke-linejoin="round"/>
<path d="M107.296 49.3599C107.024 47.4469 105.829 45.6055 104.914 44.6904" stroke="#333333" stroke-linecap="round" stroke-linejoin="round"/>
<path d="M104.606 49.3596C105.009 47.52 106.046 46.4303 107.296 45.6855" stroke="#333333" stroke-linecap="round" stroke-linejoin="round"/>
<path d="M104.607 49.3598C104.345 48.1706 103.834 47.025 103.062 46.2227" stroke="#333333" stroke-linecap="round" stroke-linejoin="round"/>
<path d="M107.304 57.6632V49.3599" stroke="#333333" stroke-linecap="round" stroke-linejoin="round"/>
<path d="M75.7178 28.1411V36.998" stroke="#333333" stroke-linecap="round" stroke-linejoin="round"/>
<path d="M70.4976 49.9473V58.8042" stroke="#333333" stroke-linecap="round" stroke-linejoin="round"/>
<path d="M75.7178 49.667V59.0853" stroke="#333333" stroke-linecap="round" stroke-linejoin="round"/>
<path d="M88.1099 37.2461V49.9622" stroke="#333333" stroke-linecap="round" stroke-linejoin="round"/>
<path d="M96.5625 38.1724V49.7857" stroke="#333333" stroke-linecap="round" stroke-linejoin="round"/>
<path d="M101.595 38.4189V53.5116" stroke="#333333" stroke-linecap="round" stroke-linejoin="round"/>
<path d="M113.004 38.4189V49.9624" stroke="#333333" stroke-linecap="round" stroke-linejoin="round"/>
<path d="M118.934 38.4937V47.7915" stroke="#333333" stroke-linecap="round" stroke-linejoin="round"/>
<path d="M126.891 38.6973V48.3932" stroke="#333333" stroke-linecap="round" stroke-linejoin="round"/>
<path d="M129.821 38.7573V49.3596" stroke="#333333" stroke-linecap="round" stroke-linejoin="round"/>
<path d="M136.856 38.9512V48.8968" stroke="#333333" stroke-linecap="round" stroke-linejoin="round"/>
<path d="M81.5469 36.998V50.6204" stroke="#333333" stroke-linecap="round" stroke-linejoin="round"/>
<path d="M70.4878 12.0146H55.1428L49.2021 12.5595" stroke="#333333" stroke-linecap="round" stroke-linejoin="round"/>
<path d="M50.332 17.5231V12.4556" stroke="#333333" stroke-linecap="round" stroke-linejoin="round"/>
<path d="M70.5001 13.4844C69.0498 13.8205 67.8161 14.1602 66.6295 14.9643C66.0035 15.3886 65.2212 16.1238 65.2212 16.9943" stroke="#333333" stroke-linecap="round" stroke-linejoin="round"/>
<path d="M56.3555 16.9941C56.3555 15.2609 58.0144 14.3206 59.6541 13.8447C61.2117 14.1992 62.9588 15.2958 62.9588 16.9941" stroke="#333333" stroke-linecap="round" stroke-linejoin="round"/>
<path d="M51.5537 17.3889C51.5537 16.1918 51.7798 14.9075 52.5962 14.1968C53.6701 14.7678 53.8692 15.9168 53.8692 17.1348" stroke="#333333" stroke-linecap="round" stroke-linejoin="round"/>
<path d="M70.5 1.24229C69.8061 1.23675 69.1275 1.44702 68.5583 1.84402C67.9891 2.24102 67.5573 2.80512 67.3228 3.45826" stroke="#333333" stroke-linecap="round" stroke-linejoin="round"/>
<path d="M70.5 3.26025C62.016 3.26025 54.5307 6.67326 50.3311 12.4559" stroke="#333333" stroke-linecap="round" stroke-linejoin="round"/>
<path d="M70.4998 3.26025C64.1261 4.22592 58.5958 7.49748 55.1426 12.015" stroke="#333333" stroke-linecap="round" stroke-linejoin="round"/>
<path d="M70.5024 12.0146H85.8475L91.7873 12.5595" stroke="#333333" stroke-linecap="round" stroke-linejoin="round"/>
<path d="M90.6587 17.5231V12.4556" stroke="#333333" stroke-linecap="round" stroke-linejoin="round"/>
<path d="M70.4878 13.4844C71.9372 13.8205 73.1718 14.1602 74.3583 14.9643C74.9843 15.3886 75.7658 16.1238 75.7658 16.9943" stroke="#333333" stroke-linecap="round" stroke-linejoin="round"/>
<path d="M84.6385 16.9941C84.6385 15.2609 82.9796 14.3206 81.3399 13.8447C79.7823 14.1992 78.0352 15.2993 78.0352 16.9941" stroke="#333333" stroke-linecap="round" stroke-linejoin="round"/>
<path d="M89.4356 17.3889C89.4356 16.1918 89.2095 14.9075 88.3879 14.1968C87.3139 14.7678 87.1157 15.9168 87.1157 17.1348" stroke="#333333" stroke-linecap="round" stroke-linejoin="round"/>
<path d="M70.4902 1.2423C71.1841 1.23668 71.8626 1.44693 72.4317 1.84395C73.0008 2.24098 73.4323 2.80512 73.6666 3.45827" stroke="#333333" stroke-linecap="round" stroke-linejoin="round"/>
<path d="M70.4902 3.26025C78.9743 3.26025 86.4595 6.67326 90.6592 12.4559" stroke="#333333" stroke-linecap="round" stroke-linejoin="round"/>
<path d="M85.8431 50.6207V12.015C82.3934 7.49749 76.8614 4.22592 70.4902 3.26025" stroke="#333333" stroke-linecap="round" stroke-linejoin="round"/>
<path d="M85.8423 59.0856L85.8432 52.6533" stroke="#333333" stroke-linecap="round" stroke-linejoin="round"/>
<path d="M85.8473 29.7363H84.1177" stroke="#333333" stroke-linecap="round" stroke-linejoin="round"/>
<path d="M84.5613 31.0005H83.2534" stroke="#333333" stroke-linecap="round" stroke-linejoin="round"/>
<path d="M82.8548 55.7446H81.5469" stroke="#333333" stroke-linecap="round" stroke-linejoin="round"/>
<path d="M56.4496 53.665H55.1426" stroke="#333333" stroke-linecap="round" stroke-linejoin="round"/>
<path d="M85.8473 32.23H84.1177" stroke="#333333" stroke-linecap="round" stroke-linejoin="round"/>
<path d="M58.1668 41.2295H56.8589" stroke="#333333" stroke-linecap="round" stroke-linejoin="round"/>
<path d="M59.4533 42.7256H57.7236" stroke="#333333" stroke-linecap="round" stroke-linejoin="round"/>
<path d="M116.03 21.1782H114.073" stroke="#333333" stroke-linecap="round" stroke-linejoin="round"/>
<path d="M114.7 22.4077H113.243" stroke="#333333" stroke-linecap="round" stroke-linejoin="round"/>
<path d="M116.03 52.0718H114.573" stroke="#333333" stroke-linecap="round" stroke-linejoin="round"/>
<path d="M100.296 33.8516H98.8145" stroke="#333333" stroke-linecap="round" stroke-linejoin="round"/>
<path d="M85.8477 18.7974L87.5363 18.9755" stroke="#333333" stroke-linecap="round" stroke-linejoin="round"/>
<path d="M87.2656 20.105L88.9542 20.2822" stroke="#333333" stroke-linecap="round" stroke-linejoin="round"/>
<path d="M117.522 25.6623L116.031 25.5566" stroke="#333333" stroke-linecap="round" stroke-linejoin="round"/>
<path d="M139.048 21.697L137.557 21.5913" stroke="#333333" stroke-linecap="round" stroke-linejoin="round"/>
<path d="M137.762 22.7897L136.271 22.6841" stroke="#333333" stroke-linecap="round" stroke-linejoin="round"/>
<path d="M24.9697 21.1782H26.9273" stroke="#333333" stroke-linecap="round" stroke-linejoin="round"/>
<path d="M26.3003 22.4077H27.7567" stroke="#333333" stroke-linecap="round" stroke-linejoin="round"/>
<path d="M24.9697 52.0718H26.427" stroke="#333333" stroke-linecap="round" stroke-linejoin="round"/>
<path d="M40.7041 33.8516H42.1858" stroke="#333333" stroke-linecap="round" stroke-linejoin="round"/>
<path d="M55.1525 18.7974L53.4639 18.9755" stroke="#333333" stroke-linecap="round" stroke-linejoin="round"/>
<path d="M53.7345 20.105L52.0459 20.2822" stroke="#333333" stroke-linecap="round" stroke-linejoin="round"/>
<path d="M23.4785 25.6623L24.9698 25.5566" stroke="#333333" stroke-linecap="round" stroke-linejoin="round"/>
<path d="M1.95166 21.697L3.44294 21.5913" stroke="#333333" stroke-linecap="round" stroke-linejoin="round"/>
<path d="M3.23779 22.7897L4.72908 22.6841" stroke="#333333" stroke-linecap="round" stroke-linejoin="round"/>
</svg>
