<svg width="24" height="24" viewBox="0 0 24 24" fill="none" xmlns="http://www.w3.org/2000/svg">
<path d="M4.27543 9.74226C4.14793 9.74226 4.02456 9.69501 3.92954 9.60899L3.04079 8.8049C2.82962 8.61383 2.81331 8.28777 3.00437 8.0766C3.19538 7.86548 3.52149 7.84912 3.73267 8.04018L4.23277 8.49266L5.6747 6.8459C5.86224 6.63163 6.18802 6.61002 6.40229 6.79762C6.61651 6.98521 6.63812 7.31099 6.45052 7.52521L4.66337 9.56629C4.57234 9.67026 4.44334 9.7333 4.30538 9.74137C4.29535 9.74198 4.28537 9.74226 4.27543 9.74226Z" fill="#0120C6"/>
<path d="M12.5757 9.71289H8.51953C8.23477 9.71289 8.00391 9.48203 8.00391 9.19727C8.00391 8.9125 8.23477 8.68164 8.51953 8.68164H12.5757C12.8605 8.68164 13.0913 8.9125 13.0913 9.19727C13.0913 9.48203 12.8605 9.71289 12.5757 9.71289Z" fill="#0120C6"/>
<path d="M12.576 12.6738H3.32813C3.04336 12.6738 2.8125 12.443 2.8125 12.1582C2.8125 11.8734 3.04336 11.6426 3.32813 11.6426H12.576C12.8608 11.6426 13.0916 11.8734 13.0916 12.1582C13.0916 12.443 12.8608 12.6738 12.576 12.6738Z" fill="#0120C6"/>
<path d="M4.27543 17.92C4.14793 17.92 4.02456 17.8728 3.92954 17.7868L3.04079 16.9827C2.82962 16.7916 2.81331 16.4656 3.00437 16.2544C3.19538 16.0432 3.52149 16.0269 3.73267 16.218L4.23277 16.6704L5.6747 15.0236C5.86224 14.8094 6.18802 14.7878 6.40229 14.9754C6.61656 15.1629 6.63817 15.4887 6.45057 15.7029L4.66337 17.7441C4.57234 17.848 4.44334 17.9111 4.30538 17.9191C4.29535 17.9198 4.28537 17.92 4.27543 17.92Z" fill="#0120C6"/>
<path d="M12.7626 17.8906H8.51953C8.23477 17.8906 8.00391 17.6598 8.00391 17.375C8.00391 17.0902 8.23477 16.8594 8.51953 16.8594H12.7626C13.0473 16.8594 13.2782 17.0902 13.2782 17.375C13.2782 17.6598 13.0474 17.8906 12.7626 17.8906Z" fill="#0120C6"/>
<path d="M12.576 20.8066H3.32813C3.04336 20.8066 2.8125 20.5758 2.8125 20.291C2.8125 20.0063 3.04336 19.7754 3.32813 19.7754H12.576C12.8608 19.7754 13.0916 20.0063 13.0916 20.291C13.0916 20.5758 12.8608 20.8066 12.576 20.8066Z" fill="#0120C6"/>
<path d="M22.4319 0H8.84742C8.79858 0.000234375 8.61844 0.00796875 8.42752 0.0945469C8.2792 0.0612187 8.12536 0.0433594 7.96777 0.0433594C6.99413 0.0433594 6.16092 0.715172 5.91633 1.61948H5.00536C4.55306 1.61948 4.18505 1.9875 4.18505 2.4398V2.56978H1.47459C0.674438 2.56978 0.0234375 3.22078 0.0234375 4.02094V22.5489C0.0234375 23.349 0.674391 24 1.47459 24H14.461C15.1823 24 15.7822 23.4709 15.8935 22.7805H22.5518C22.608 22.7805 22.6631 22.7714 22.7152 22.754C23.4402 22.6196 23.9744 21.986 23.9744 21.2381V1.54247C23.9744 0.691969 23.2825 0 22.4319 0ZM6.35972 2.65069C6.64045 2.65069 6.86958 2.42611 6.87525 2.14542C6.88711 1.55494 7.37723 1.07456 7.96786 1.07456C8.55848 1.07456 9.04856 1.55494 9.06047 2.14542C9.06609 2.42611 9.29527 2.65069 9.576 2.65069H10.7194V3.83227H5.2163V2.65069H6.35972ZM14.8809 22.5488C14.8809 22.7804 14.6925 22.9688 14.461 22.9688H1.47459C1.24308 22.9688 1.05469 22.7804 1.05469 22.5488V4.02089C1.05469 3.78938 1.24308 3.60098 1.47459 3.60098H4.18509V3.95044C4.18509 4.45388 4.59469 4.86352 5.09817 4.86352H10.8375C11.341 4.86352 11.7506 4.45392 11.7506 3.95044V3.60098H14.4611C14.6926 3.60098 14.881 3.78938 14.881 4.02089V22.5488H14.8809ZM22.9432 21.2381C22.9432 21.4978 22.7488 21.7159 22.4911 21.7454C22.4819 21.7464 22.4727 21.7477 22.4636 21.7493H15.9122V4.02089C15.9122 3.22073 15.2612 2.56973 14.461 2.56973H11.7505V2.4487C11.7505 1.99144 11.3785 1.61944 10.9213 1.61944H10.0192C9.9623 1.40883 9.87305 1.21106 9.75788 1.03125H22.4319C22.7138 1.03125 22.9432 1.26061 22.9432 1.54247V21.2381Z" fill="#0120C6"/>
</svg>
