<?xml version="1.0" encoding="utf-8"?>
	<!-- Generator: Adobe Illustrator 26.5.0, SVG Export Plug-In . SVG Version: 6.00 Build 0)  -->
	<svg version="1.1" xmlns="http://www.w3.org/2000/svg" xmlns:xlink="http://www.w3.org/1999/xlink" x="0px" y="0px"
		 viewBox="0 0 500 500" style="enable-background:new 0 0 500 500;" xml:space="preserve">
	<style type="text/css">
		.st0{fill:#FFFFFF;}
		.st1{fill:#FFC727;}
		.st2{opacity:0.1;}
		.st3{fill:#D6D6D6;}
		.st4{fill:#37474F;}
		.st5{opacity:0.2;}
		.st6{fill:#263238;}
		.st7{opacity:0.4;fill:#FFFFFF;}
		.st8{fill:#DBDBDB;}
		.st9{fill:#919191;}
		.st10{fill:#CECECE;}
		.st11{fill:#C4C4C4;}
		.st12{fill:#D1D1D1;}
		.st13{fill:#D8D8D8;}
		.st14{fill:#D3D3D3;}
	</style>
	<g id="Plant">
		<g>
			<g>
				<path class="st0" d="M88.8,303.8c-13.1,12.8-15.3,32.6-12.5,49.9c0.1,0.4,0.7,0.3,0.7-0.1c0-3.9-0.1-7.9-0.1-11.8
					c0.1-0.2,0.1-0.3,0.2-0.5c3.4-2.5,6.5-5.3,8.5-9.1c2.2-4.3,3-9.1,4.7-13.6c0.2-0.4-0.3-0.3-0.6-0.1c-7.9,5.9-10.5,12.2-12.8,20.6
					c0.1-4.4,0.4-8.8,1.4-13.1c1.7-8,5.1-15.9,10.9-21.9C89.4,304,89.1,303.6,88.8,303.8z"/>
				<g>
					<path class="st1" d="M91.3,305.3c2.2,0.1,3.7,3.7,5.4,4.7c0.9,0.6,1.8,0.5,2.5-0.4c1.7-2.4-0.6-5.4-2.9-7.1
						c1.6,0.7,2.9,1.8,4.7,2.1c1,0.2,1.9-0.2,2.1-1.3c0.8-3.3-3.4-4.8-6.2-4.8c1.4-1,5.3-3.6,3.2-4.8c-2.1-1.3-6.8,2.4-8.3,3.7
						c-2.2,1.8-4.9,4.5-5,7.3C86.7,308,89.6,306,91.3,305.3z"/>
					<path class="st2" d="M91.3,305.3c2.2,0.1,3.7,3.7,5.4,4.7c0.9,0.6,1.8,0.5,2.5-0.4c1.7-2.4-0.6-5.4-2.9-7.1
						c1.6,0.7,2.9,1.8,4.7,2.1c1,0.2,1.9-0.2,2.1-1.3c0.8-3.3-3.4-4.8-6.2-4.8c1.4-1,5.3-3.6,3.2-4.8c-2.1-1.3-6.8,2.4-8.3,3.7
						c-2.2,1.8-4.9,4.5-5,7.3C86.7,308,89.6,306,91.3,305.3z"/>
					<path class="st1" d="M90.6,305.9c2.9-1.3,8.4,0.6,8.9-0.5c1-2.2-3.5-3.7-5.8-4c2.2-0.6,6.4-1.5,6.3-3.7
						c-0.2-2.6-6.4-0.4-9.6,2.1c-4,3.1-4,6-3.3,6.6C87.9,307.2,90.2,306.1,90.6,305.9z"/>
				</g>
			</g>
			<g>
				<path class="st0" d="M59.1,302.6c13.5,12.3,16.5,32,14.4,49.4c-0.1,0.4-0.7,0.3-0.7-0.1c-0.2-3.9-0.2-7.9-0.3-11.8
					c-0.1-0.2-0.1-0.3-0.2-0.5c-3.5-2.3-6.7-5-8.8-8.8c-2.3-4.2-3.4-9-5.2-13.4c-0.2-0.4,0.3-0.3,0.6-0.1
					c8.2,5.6,10.9,11.8,13.5,20.1c-0.3-4.4-0.8-8.7-1.9-13.1c-2-7.9-5.7-15.7-11.7-21.4C58.5,302.7,58.8,302.4,59.1,302.6z"/>
				<g>
					<path class="st1" d="M56.7,304.2c-2.2,0.2-3.5,3.8-5.2,4.9c-0.9,0.6-1.8,0.6-2.5-0.3c-1.8-2.4,0.4-5.4,2.6-7.2
						c-1.6,0.7-2.9,1.9-4.6,2.3c-1,0.2-1.9-0.1-2.1-1.2c-0.9-3.3,3.2-4.9,6-5.1c-1.4-0.9-5.5-3.4-3.4-4.7c2.1-1.4,6.9,2.2,8.4,3.3
						c2.3,1.7,5,4.3,5.2,7.1C61.4,306.7,58.4,304.8,56.7,304.2z"/>
					<path class="st2" d="M56.7,304.2c-2.2,0.2-3.5,3.8-5.2,4.9c-0.9,0.6-1.8,0.6-2.5-0.3c-1.8-2.4,0.4-5.4,2.6-7.2
						c-1.6,0.7-2.9,1.9-4.6,2.3c-1,0.2-1.9-0.1-2.1-1.2c-0.9-3.3,3.2-4.9,6-5.1c-1.4-0.9-5.5-3.4-3.4-4.7c2.1-1.4,6.9,2.2,8.4,3.3
						c2.3,1.7,5,4.3,5.2,7.1C61.4,306.7,58.4,304.8,56.7,304.2z"/>
					<path class="st1" d="M57.3,304.7c-2.9-1.2-8.4,0.9-8.9-0.2c-1-2.2,3.3-3.9,5.7-4.2c-2.2-0.5-6.5-1.3-6.4-3.4
						c0.1-2.6,6.4-0.6,9.7,1.7c4.1,2.9,4.2,5.9,3.6,6.5C60.1,305.9,57.8,304.9,57.3,304.7z"/>
				</g>
			</g>
			<g>
				<path class="st0" d="M72.9,335c1,6.5,2.2,13.2,4.2,19.4c0.2,0.6,1,0.4,0.9-0.2c-0.9-6-2.5-11.9-3.4-17.9
					c-0.9-6.1-1.4-12.2-1-18.3c0.6-10.1,3.3-20.8,9.9-28.7c0.1-0.2-0.2-0.5-0.3-0.3C70,304.5,72.1,323.3,72.1,325
					c-1.9-6.4-3.8-13.7-10.8-20.1c-0.3-0.3-0.5-0.1-0.5,0.3c1.3,11.8,4.5,18,11.4,24.3C72.4,331.3,72.6,333.2,72.9,335z"/>
				<g>
					<path class="st1" d="M83.6,291.1c2.4-1.1,5.6,2,8,2.2c1.2,0.1,2.2-0.4,2.4-1.7c0.6-3.4-3.4-5.3-6.6-5.9c2-0.1,4,0.4,5.9-0.1
						c1.2-0.3,1.8-1.1,1.5-2.4c-0.9-3.8-5.9-3.3-8.9-1.9c0.9-1.7,3.7-6.4,0.9-6.7c-2.9-0.3-5.8,5.9-6.7,8c-1.4,3-2.8,7.1-1.5,10.1
						C80.2,296.3,82.2,292.7,83.6,291.1z"/>
					<path class="st2" d="M83.6,291.1c2.4-1.1,5.6,2,8,2.2c1.2,0.1,2.2-0.4,2.4-1.7c0.6-3.4-3.4-5.3-6.6-5.9c2-0.1,4,0.4,5.9-0.1
						c1.2-0.3,1.8-1.1,1.5-2.4c-0.9-3.8-5.9-3.3-8.9-1.9c0.9-1.7,3.7-6.4,0.9-6.7c-2.9-0.3-5.8,5.9-6.7,8c-1.4,3-2.8,7.1-1.5,10.1
						C80.2,296.3,82.2,292.7,83.6,291.1z"/>
					<path class="st1" d="M83.3,292c2.3-2.8,9-3.6,8.9-5c-0.1-2.8-5.5-2.1-8.1-1.2c2-1.7,5.9-4.8,4.7-6.9c-1.5-2.6-6.9,2.9-8.9,7
						c-2.6,5.2-1.1,8.3-0.1,8.6C81.1,294.8,82.9,292.5,83.3,292z"/>
				</g>
			</g>
			<path class="st1" d="M64.3,338.6L58.4,383h35.4c-0.7-3.9-7.3-44.5-7.3-44.5L64.3,338.6z"/>
		</g>
	</g>
	<g id="Floor">
		<g>
			<path class="st3" d="M43.4,383.1c132.4-0.6,280.9-0.6,413.3,0C324.2,383.8,175.8,383.8,43.4,383.1L43.4,383.1z"/>
		</g>
	</g>
	<g id="Shadow">
	</g>
	<g id="_x34_04_Error">
		<g>
			<g>
				<path class="st0" d="M157.6,227.7l-6.2-24.4l-49,12.5l-6.5-25.5l39.2-89.3l19.4-4.9l18.9,74.4l15.7-4l6.5,25.7l-15.7,4l6.2,24.4
					L157.6,227.7z M124,182.9l24.3-6.2l-8-31.6L124,182.9z"/>
				<path class="st0" d="M298,146.1c0,8.1-1.2,15.5-3.7,22.4c-2.5,6.8-5.8,12.7-10.1,17.7c-4.3,5-9.4,8.8-15.2,11.6
					c-5.8,2.8-12.2,4.1-19,4.1c-6.9,0-13.2-1.4-19.1-4.1c-5.9-2.8-11-6.6-15.3-11.6c-4.3-5-7.6-10.9-10-17.7
					c-2.4-6.8-3.6-14.3-3.6-22.4c0-8.1,1.2-15.5,3.6-22.4c2.4-6.8,5.7-12.7,10-17.7c4.3-5,9.4-8.9,15.3-11.7
					c5.9-2.8,12.3-4.2,19.1-4.2c6.9,0,13.2,1.4,19,4.2c5.8,2.8,10.9,6.7,15.2,11.7c4.3,5,7.7,10.9,10.1,17.7
					C296.8,130.6,298,138,298,146.1z M268.4,146.1c0-8.6-1.7-15.5-5.2-20.9c-3.4-5.3-7.8-8-13.2-8c-5.6,0-10.2,2.7-13.5,8
					c-3.4,5.3-5.1,12.3-5.1,20.9c0,8.6,1.7,15.5,5.1,20.8c3.4,5.3,7.9,7.9,13.5,7.9c5.4,0,9.8-2.6,13.2-7.9
					C266.7,161.6,268.4,154.7,268.4,146.1z"/>
				<path class="st0" d="M350.8,223l4-24.9l-49.9-8.1l4.2-26l71.5-66.3l19.8,3.2l-12.3,75.7l16,2.6l-4.2,26.2l-16-2.6l-4,24.9
					L350.8,223z M337.9,168.5l24.7,4l5.2-32.1L337.9,168.5z"/>
			</g>
			<g>
				<path class="st3" d="M208.7,72.5c-2.1,0-4-0.4-5.7-1.2c-1.7-0.8-3.2-1.9-4.4-3.3c-1.2-1.4-2.2-2.9-2.8-4.7c-0.7-1.8-1-3.5-1-5.4
					c0-1.9,0.4-3.7,1.1-5.5c0.7-1.8,1.7-3.3,2.9-4.6c1.3-1.3,2.7-2.4,4.5-3.2c1.7-0.8,3.6-1.2,5.6-1.2c2.1,0,4,0.4,5.7,1.3
					c1.7,0.8,3.2,2,4.4,3.3c1.2,1.4,2.2,2.9,2.8,4.7c0.7,1.8,1,3.5,1,5.3c0,1.9-0.4,3.7-1.1,5.5c-0.7,1.7-1.7,3.3-2.9,4.6
					c-1.2,1.3-2.7,2.4-4.4,3.2C212.6,72.1,210.7,72.5,208.7,72.5z M200.4,57.9c0,1.2,0.2,2.4,0.6,3.6c0.4,1.2,0.9,2.2,1.6,3.1
					c0.7,0.9,1.6,1.6,2.6,2.1c1,0.5,2.2,0.8,3.5,0.8c1.3,0,2.5-0.3,3.6-0.8c1-0.6,1.9-1.3,2.6-2.2c0.7-0.9,1.3-1.9,1.6-3.1
					c0.4-1.1,0.5-2.3,0.5-3.5c0-1.2-0.2-2.4-0.6-3.6c-0.4-1.2-0.9-2.2-1.7-3.1c-0.7-0.9-1.6-1.6-2.6-2.1c-1-0.5-2.2-0.8-3.5-0.8
					c-1.3,0-2.5,0.3-3.6,0.8c-1.1,0.6-1.9,1.3-2.6,2.2c-0.7,0.9-1.2,1.9-1.6,3.1C200.5,55.6,200.4,56.7,200.4,57.9z"/>
				<path class="st3" d="M236.2,72.7c-1.7,0-3.3-0.3-4.6-0.9c-1.4-0.6-2.5-1.4-3.5-2.4c-1-1-1.7-2.2-2.2-3.5
					c-0.5-1.3-0.8-2.7-0.8-4.2c0-1.5,0.3-2.9,0.8-4.2c0.5-1.3,1.2-2.5,2.2-3.5c1-1,2.1-1.8,3.5-2.4c1.4-0.6,2.9-0.9,4.6-0.9
					c1.7,0,3.3,0.3,4.6,0.9c1.4,0.6,2.5,1.4,3.5,2.4c1,1,1.7,2.2,2.2,3.5c0.5,1.3,0.8,2.7,0.8,4.2c0,1.5-0.3,2.8-0.8,4.2
					c-0.5,1.3-1.2,2.5-2.2,3.5c-0.9,1-2.1,1.8-3.5,2.4C239.5,72.4,237.9,72.7,236.2,72.7z M230.7,61.7c0,0.9,0.1,1.8,0.4,2.6
					c0.3,0.8,0.7,1.4,1.2,2c0.5,0.6,1.1,1,1.8,1.3c0.7,0.3,1.4,0.5,2.2,0.5c0.8,0,1.5-0.2,2.2-0.5c0.7-0.3,1.3-0.7,1.8-1.3
					c0.5-0.6,0.9-1.2,1.2-2c0.3-0.8,0.4-1.6,0.4-2.6c0-0.9-0.1-1.8-0.4-2.5c-0.3-0.8-0.7-1.5-1.2-2c-0.5-0.6-1.1-1-1.8-1.3
					c-0.7-0.3-1.4-0.5-2.2-0.5c-0.8,0-1.5,0.2-2.2,0.5c-0.7,0.3-1.3,0.8-1.8,1.3c-0.5,0.6-0.9,1.2-1.2,2
					C230.8,60,230.7,60.8,230.7,61.7z"/>
				<path class="st3" d="M263.6,72.7c-1.7,0-3.1-0.4-4.4-1.1c-1.2-0.7-2.2-1.7-2.9-3v12.3h-5.4V51.1h4.7v3.6c0.8-1.2,1.8-2.2,3-2.9
					c1.2-0.7,2.7-1.1,4.3-1.1c1.4,0,2.7,0.3,4,0.9c1.2,0.6,2.3,1.4,3.1,2.3c0.9,1,1.6,2.1,2.1,3.5c0.5,1.3,0.7,2.7,0.7,4.2
					c0,1.5-0.2,3-0.7,4.3c-0.5,1.3-1.1,2.5-1.9,3.5c-0.8,1-1.8,1.8-2.9,2.3C266.2,72.4,265,72.7,263.6,72.7z M261.8,68.1
					c0.8,0,1.6-0.2,2.2-0.5c0.7-0.3,1.3-0.8,1.8-1.4c0.5-0.6,0.9-1.3,1.1-2.1c0.3-0.8,0.4-1.6,0.4-2.4c0-0.9-0.1-1.7-0.4-2.5
					c-0.3-0.8-0.7-1.4-1.2-2c-0.5-0.6-1.1-1-1.9-1.3c-0.7-0.3-1.5-0.5-2.3-0.5c-0.5,0-1,0.1-1.6,0.3c-0.5,0.2-1,0.4-1.5,0.7
					c-0.5,0.3-0.9,0.7-1.2,1.1c-0.4,0.4-0.6,0.9-0.8,1.4v5c0.5,1.2,1.2,2.2,2.2,3C259.6,67.7,260.6,68.1,261.8,68.1z"/>
				<path class="st3" d="M284.5,72.7c-1.8,0-3.5-0.3-5.2-0.8c-1.7-0.6-3.2-1.4-4.4-2.4l2-3.4c1.3,0.9,2.6,1.6,3.8,2.1
					c1.2,0.5,2.4,0.7,3.7,0.7c1.1,0,1.9-0.2,2.5-0.6c0.6-0.4,0.9-1,0.9-1.7s-0.4-1.3-1.1-1.7c-0.7-0.4-1.9-0.8-3.6-1.2
					c-1.4-0.4-2.5-0.7-3.5-1.1c-1-0.3-1.8-0.7-2.3-1.2c-0.6-0.4-1-1-1.3-1.5c-0.3-0.6-0.4-1.3-0.4-2.1c0-1.1,0.2-2,0.6-2.9
					c0.4-0.9,1-1.6,1.8-2.2c0.8-0.6,1.6-1.1,2.6-1.4c1-0.3,2.1-0.5,3.3-0.5c1.6,0,3.1,0.2,4.5,0.7c1.4,0.5,2.7,1.2,3.8,2.2l-2.2,3.3
					c-1.1-0.8-2.1-1.4-3.1-1.8c-1-0.4-2-0.6-3-0.6c-0.9,0-1.7,0.2-2.3,0.6c-0.6,0.4-0.9,1-0.9,1.8c0,0.4,0.1,0.7,0.2,0.9
					c0.1,0.2,0.4,0.5,0.7,0.6c0.3,0.2,0.7,0.4,1.3,0.5c0.5,0.2,1.2,0.4,2,0.5c1.5,0.4,2.7,0.8,3.7,1.1c1,0.4,1.9,0.8,2.5,1.3
					c0.7,0.5,1.1,1,1.5,1.7c0.3,0.6,0.5,1.4,0.5,2.3c0,2.1-0.8,3.7-2.3,4.9C289.3,72.1,287.2,72.7,284.5,72.7z"/>
				<path class="st3" d="M297.7,61.5V43.3h5.4v18.2H297.7z M297.7,72.3v-6.1h5.4v6.1H297.7z"/>
			</g>
		</g>
	</g>
	<g id="Robot">
		<g>
			<g>
				<rect x="235.1" y="313.8" class="st4" width="35.5" height="2.9"/>
				<rect x="235.1" y="317.6" class="st4" width="35.5" height="2.9"/>
				<rect x="235.1" y="321.4" class="st4" width="35.5" height="2.9"/>
				<rect x="235.1" y="325.2" class="st4" width="35.5" height="2.9"/>
				<rect x="235.1" y="329" class="st4" width="35.5" height="2.9"/>
			</g>
			<g>
				<rect x="218.5" y="404.6" class="st4" width="67.5" height="2.9"/>
				<rect x="218.5" y="408.4" class="st4" width="67.5" height="2.9"/>
				<rect x="218.5" y="412.2" class="st4" width="67.5" height="2.9"/>
				<rect x="218.5" y="416" class="st4" width="67.5" height="2.9"/>
				<rect x="218.5" y="419.8" class="st4" width="67.5" height="2.9"/>
			</g>
			<g>
				<g>
					<path class="st1" d="M188.8,289.8c0-0.4-14.8-5.4-14.8-5.4l0.9-50.9l19.6-4.2L188.8,289.8z"/>
					<path class="st5" d="M188.8,289.8c0-0.4-14.8-5.4-14.8-5.4l0.9-50.9l19.6-4.2L188.8,289.8z"/>
				</g>
				<g>
					<path class="st1" d="M324.5,309.8c0.1-0.4,15.7,0.1,15.7,0.1l16.7-48.1l-17-10.7L324.5,309.8z"/>
					<path class="st5" d="M324.5,309.8c0.1-0.4,15.7,0.1,15.7,0.1l16.7-48.1l-17-10.7L324.5,309.8z"/>
				</g>
				<path class="st1" d="M186,308.5c0,0,5.5-82.3,10.3-109.4c0,0,99.4,7.5,153.1,28c0,0-27.7,96.1-29.1,100.9
					C320.3,328.1,250.3,314.3,186,308.5z"/>
				<g>
					<path class="st2" d="M274.7,210.2c-1.6,9.9-3.3,19.8-4.9,29.7l-5.1,29.7l-0.3-0.4l33.3,7.9l16.6,4l16.6,4.1l-16.7-3.7l-16.7-3.8
						l-33.3-7.8l-0.3-0.1l0.1-0.3l5.3-29.6C271,229.9,272.9,220,274.7,210.2z"/>
					<path class="st2" d="M271.1,215.8c0,0.9-0.7,1.8-1.7,1.9c-0.5,0-1.1-0.1-1.5-0.5c-0.4-0.4-0.7-0.9-0.7-1.5
						c0-0.6,0.2-1.1,0.7-1.5c0.4-0.4,1-0.5,1.5-0.5C270.4,214,271.1,214.9,271.1,215.8z M271.1,215.8c0-0.5-0.2-0.9-0.5-1.2
						c-0.3-0.3-0.8-0.4-1.2-0.4c-0.8,0.1-1.4,0.8-1.4,1.6c0,0.7,0.5,1.5,1.4,1.6c0.4,0,0.9-0.1,1.2-0.4
						C270.9,216.7,271.1,216.3,271.1,215.8z"/>
					<path class="st2" d="M269.3,228c0,0.9-0.7,1.8-1.7,1.9c-0.5,0-1.1-0.1-1.5-0.5c-0.4-0.4-0.7-0.9-0.7-1.5c0-0.6,0.2-1.1,0.7-1.5
						c0.4-0.4,1-0.5,1.5-0.5C268.6,226.2,269.3,227.1,269.3,228z M269.3,228c0-0.5-0.2-0.9-0.5-1.2c-0.3-0.3-0.8-0.4-1.2-0.4
						c-0.8,0.1-1.4,0.8-1.4,1.6c0,0.7,0.5,1.5,1.4,1.6c0.4,0,0.9-0.1,1.2-0.4C269.1,229,269.3,228.5,269.3,228z"/>
					<path class="st2" d="M267.2,241c0,0.9-0.7,1.8-1.7,1.9c-0.5,0-1.1-0.1-1.5-0.5c-0.4-0.4-0.7-0.9-0.7-1.5c0-0.6,0.2-1.1,0.7-1.5
						c0.4-0.4,1-0.5,1.5-0.5C266.5,239.1,267.2,240.1,267.2,241z M267.2,241c0-0.5-0.2-0.9-0.5-1.2c-0.3-0.3-0.8-0.4-1.2-0.4
						c-0.8,0.1-1.4,0.8-1.4,1.6c0,0.7,0.5,1.5,1.4,1.6c0.4,0,0.9-0.1,1.2-0.4C267,241.9,267.2,241.4,267.2,241z"/>
					<path class="st2" d="M265,253.9c0,0.9-0.7,1.8-1.7,1.9c-0.5,0-1.1-0.1-1.5-0.5c-0.4-0.4-0.7-0.9-0.7-1.5c0-0.6,0.2-1.1,0.7-1.5
						c0.4-0.4,1-0.5,1.5-0.5C264.3,252.1,265,253,265,253.9z M265,253.9c0-0.5-0.2-0.9-0.5-1.2c-0.3-0.3-0.8-0.4-1.2-0.4
						c-0.8,0.1-1.4,0.8-1.4,1.6c0,0.7,0.5,1.5,1.4,1.6c0.4,0,0.9-0.1,1.2-0.4C264.8,254.8,265,254.4,265,253.9z"/>
					<path class="st2" d="M272.3,274.6c0,0.9-0.7,1.8-1.7,1.9c-0.5,0-1.1-0.1-1.5-0.5c-0.4-0.4-0.7-0.9-0.7-1.5
						c0-0.6,0.2-1.1,0.7-1.5c0.4-0.4,1-0.5,1.5-0.5C271.6,272.7,272.4,273.7,272.3,274.6z M272.3,274.6c0-0.5-0.2-0.9-0.5-1.2
						c-0.3-0.3-0.8-0.4-1.2-0.4c-0.8,0.1-1.4,0.8-1.4,1.6c0,0.7,0.5,1.5,1.4,1.6c0.4,0,0.9-0.1,1.2-0.4
						C272.1,275.5,272.3,275,272.3,274.6z"/>
					<path class="st2" d="M284.6,277.5c0,0.9-0.7,1.8-1.7,1.9c-0.5,0-1.1-0.1-1.5-0.5c-0.4-0.4-0.7-0.9-0.7-1.5
						c0-0.6,0.2-1.1,0.7-1.5c0.4-0.4,1-0.5,1.5-0.5C283.9,275.7,284.6,276.6,284.6,277.5z M284.6,277.5c0-0.5-0.2-0.9-0.5-1.2
						c-0.3-0.3-0.8-0.4-1.2-0.4c-0.8,0.1-1.4,0.8-1.4,1.6c0,0.7,0.5,1.5,1.4,1.6c0.4,0,0.9-0.1,1.2-0.4
						C284.4,278.4,284.6,278,284.6,277.5z"/>
					<path class="st2" d="M296.8,280.5c0,0.9-0.7,1.8-1.7,1.9c-0.5,0-1.1-0.1-1.5-0.5c-0.4-0.4-0.7-0.9-0.7-1.5
						c0-0.6,0.2-1.1,0.7-1.5c0.4-0.4,1-0.5,1.5-0.5C296.1,278.7,296.8,279.6,296.8,280.5z M296.8,280.5c0-0.5-0.2-0.9-0.5-1.2
						c-0.3-0.3-0.8-0.4-1.2-0.4c-0.8,0.1-1.4,0.8-1.4,1.6c0,0.7,0.5,1.5,1.4,1.6c0.4,0,0.9-0.1,1.2-0.4
						C296.6,281.4,296.8,281,296.8,280.5z"/>
					<path class="st2" d="M309,283.5c0,0.9-0.7,1.8-1.7,1.9c-0.5,0-1.1-0.1-1.5-0.5c-0.4-0.4-0.7-0.9-0.7-1.5c0-0.6,0.2-1.1,0.7-1.5
						c0.4-0.4,1-0.5,1.5-0.5C308.3,281.7,309,282.6,309,283.5z M309,283.5c0-0.5-0.2-0.9-0.5-1.2c-0.3-0.3-0.8-0.4-1.2-0.4
						c-0.8,0.1-1.4,0.8-1.4,1.6c0,0.7,0.5,1.5,1.4,1.6c0.4,0,0.9-0.1,1.2-0.4C308.8,284.4,309,284,309,283.5z"/>
					<path class="st2" d="M321.2,286.6c-0.1,0.9-0.8,1.8-1.9,1.8c-0.5,0-1-0.2-1.4-0.6c-0.4-0.4-0.6-1-0.5-1.5c0-0.6,0.3-1.1,0.8-1.4
						c0.4-0.3,1-0.4,1.5-0.4C320.6,284.7,321.3,285.7,321.2,286.6z M321.2,286.6c0-0.5-0.1-0.9-0.5-1.2c-0.3-0.3-0.8-0.5-1.2-0.5
						c-0.8,0-1.4,0.7-1.5,1.4c-0.1,0.7,0.4,1.5,1.2,1.7c0.4,0.1,0.9,0,1.2-0.3C320.9,287.5,321.2,287.1,321.2,286.6z"/>
					<path class="st2" d="M262.9,266.9c0,0.9-0.7,1.8-1.7,1.9c-0.5,0-1.1-0.1-1.5-0.5c-0.4-0.4-0.7-0.9-0.7-1.5
						c0-0.6,0.2-1.1,0.7-1.5c0.4-0.4,1-0.5,1.5-0.5C262.2,265,262.9,266,262.9,266.9z M262.9,266.9c0-0.5-0.2-0.9-0.5-1.2
						c-0.3-0.3-0.8-0.4-1.2-0.4c-0.8,0.1-1.4,0.8-1.4,1.6c0,0.7,0.5,1.5,1.4,1.6c0.4,0,0.9-0.1,1.2-0.4
						C262.7,267.8,262.9,267.3,262.9,266.9z"/>
				</g>
				<g>
					<g>
						
							<ellipse transform="matrix(0.7436 -0.6686 0.6686 0.7436 -121.4405 217.9284)" class="st5" cx="223.4" cy="267.3" rx="28.2" ry="28.2"/>
						
							<ellipse transform="matrix(0.354 -0.9352 0.9352 0.354 -105.6636 381.6404)" class="st6" cx="223.4" cy="267.3" rx="22.6" ry="22.6"/>
						<g>
							
								<rect x="216.3" y="258.5" transform="matrix(0.9871 0.1599 -0.1599 0.9871 44.5928 -31.659)" class="st1" width="5.4" height="5.4"/>
							
								<rect x="211.9" y="252.4" transform="matrix(0.9871 0.1599 -0.1599 0.9871 43.5521 -31.0288)" class="st1" width="5.4" height="5.4"/>
							
								<rect x="233" y="255.8" transform="matrix(0.9871 0.1599 -0.1599 0.9871 44.3731 -34.3706)" class="st1" width="5.4" height="5.4"/>
							
								<rect x="208.5" y="273.4" transform="matrix(0.9871 0.1599 -0.1599 0.9871 46.875 -30.2125)" class="st1" width="5.4" height="5.4"/>
							
								<rect x="229.6" y="276.9" transform="matrix(0.9871 0.1599 -0.1599 0.9871 47.696 -33.5542)" class="st1" width="5.4" height="5.4"/>
							
								<rect x="214.6" y="269" transform="matrix(0.9871 0.1599 -0.1599 0.9871 46.2448 -31.2531)" class="st1" width="5.4" height="5.4"/>
							
								<rect x="220.8" y="264.6" transform="matrix(0.9871 0.1599 -0.1599 0.9871 45.6241 -32.2915)" class="st1" width="5.4" height="5.4"/>
							
								<rect x="226.9" y="260.3" transform="matrix(0.9871 0.1599 -0.1599 0.9871 45.0033 -33.3299)" class="st1" width="5.4" height="5.4"/>
							
								<rect x="225.2" y="270.7" transform="matrix(0.9871 0.1599 -0.1599 0.9871 46.661 -32.9273)" class="st1" width="5.4" height="5.4"/>
						</g>
					</g>
					<g>
						<g>
							
								<ellipse transform="matrix(0.6338 -0.7735 0.7735 0.6338 -106.3514 333.634)" class="st1" cx="299.2" cy="279.1" rx="28.2" ry="28.2"/>
							
								<ellipse transform="matrix(0.6338 -0.7735 0.7735 0.6338 -106.3514 333.634)" class="st5" cx="299.2" cy="279.1" rx="28.2" ry="28.2"/>
							<path class="st5" d="M326.7,285.7c-0.1,0.6-0.3,1.1-0.4,1.6l-55-11.7c0.1-1,0.3-2,0.5-3c3.6-15.2,18.8-24.5,34-20.9
								C320.9,255.3,330.3,270.5,326.7,285.7z"/>
						</g>
						
							<ellipse transform="matrix(0.9227 -0.3855 0.3855 0.9227 -84.4858 136.9205)" class="st6" cx="299.2" cy="279.1" rx="22.6" ry="22.6"/>
						<g>
							
								<rect x="296.5" y="265.8" transform="matrix(0.9729 0.2312 -0.2312 0.9729 72.6502 -61.6147)" class="st1" width="5.4" height="26.7"/>
						</g>
						<g>
							<path class="st1" d="M328.3,285.1l-57.8-13.7c3.8-16,19.8-25.8,35.8-22C322.2,253.2,332.1,269.2,328.3,285.1z"/>
							<path class="st5" d="M328.3,285.1l-57.8-13.7c3.8-16,19.8-25.8,35.8-22C322.2,253.2,332.1,269.2,328.3,285.1z"/>
						</g>
					</g>
					<path class="st2" d="M250.1,295.9c0.1-2.3,1-4.5,2.6-6.4c0.8-0.9,1.9-1.6,3.1-2.1c1.2-0.4,2.5-0.5,3.7-0.4
						c1.2,0.1,2.5,0.6,3.5,1.4c1,0.8,1.8,1.8,2.3,3c0.9,2.2,1,4.6,0.6,6.8c-0.4-2.2-0.9-4.4-2-6.1c-1-1.8-2.7-2.9-4.6-3.1
						c-2-0.2-3.9,0.3-5.5,1.6C252.2,292,251,293.9,250.1,295.9z"/>
				</g>
				<g>
					<path class="st0" d="M193.7,238.3c0.2-3,0.6-6,0.9-9c0.3-3,0.7-6,1-9c0.3-3,0.7-6,1.1-9c0.4-3,0.8-6,1.2-9l0.1-0.8l0.8,0.1
						c6.5,0.4,13,0.9,19.5,1.6c3.2,0.3,6.5,0.7,9.7,1.1c3.2,0.5,6.5,0.9,9.7,1.5l-19.5-1.2l-19.5-1.3l0.9-0.7c-0.4,3-0.9,6-1.3,9
						c-0.5,3-0.9,6-1.4,8.9c-0.5,3-1,6-1.5,8.9C194.8,232.4,194.3,235.4,193.7,238.3z"/>
					<path class="st0" d="M198.4,261.2c0.7-3.6,2.3-7.1,4.5-10.1c0.6-0.8,1.2-1.5,1.8-2.2c0.7-0.7,1.3-1.3,2-2
						c0.7-0.6,1.5-1.2,2.2-1.8c0.8-0.5,1.6-1,2.4-1.5c0.9-0.4,1.7-0.8,2.6-1.2l2.7-0.9l2.8-0.6c0.9-0.1,1.9-0.2,2.8-0.2
						c3.8-0.1,7.5,0.7,10.9,2.1c-3.6-0.7-7.2-1.1-10.8-0.7c-3.5,0.3-7,1.4-10.1,3.1c-3.1,1.7-5.9,4-8.2,6.7
						C201.7,254.6,199.8,257.7,198.4,261.2z"/>
					<path class="st0" d="M276.3,268.8c1.1-3.5,3.3-6.7,5.9-9.4c0.6-0.7,1.4-1.3,2.1-1.9c0.7-0.6,1.5-1.1,2.3-1.7
						c0.8-0.5,1.6-1,2.4-1.4c0.9-0.4,1.7-0.8,2.6-1.2c0.9-0.3,1.8-0.6,2.7-0.9l2.8-0.5l2.8-0.2c0.9,0,1.9,0.1,2.8,0.2
						c3.7,0.4,7.3,1.7,10.5,3.6c-3.5-1.2-7-2-10.6-2.2c-3.6-0.2-7.1,0.4-10.4,1.7c-3.3,1.2-6.4,3.2-9,5.6
						C280.4,262.8,278.1,265.6,276.3,268.8z"/>
				</g>
			</g>
			<g>
				<g>
					<g>
						<path class="st1" d="M189.1,359.3c-7.2,0-23.1-1.6-33.3-14.7c-13-16.8-8.3-48.9-8.1-50.3l5.7,0.9c0,0.3-4.5,31.1,7,45.9
							c11.3,14.5,31.7,12.4,31.9,12.4l0.6,5.7C192.7,359.1,191.3,359.3,189.1,359.3z"/>
						<path class="st7" d="M189.1,359.3c-7.2,0-23.1-1.6-33.3-14.7c-13-16.8-8.3-48.9-8.1-50.3l5.7,0.9c0,0.3-4.5,31.1,7,45.9
							c11.3,14.5,31.7,12.4,31.9,12.4l0.6,5.7C192.7,359.1,191.3,359.3,189.1,359.3z"/>
					</g>
					<path class="st1" d="M155.1,299c-1,0-2.1-0.1-3.2-0.3c-9.5-1.5-13.8-7.3-15.6-11.8c-1.9-4.5-2.3-10-1.3-16.3l12.1,2
						c-0.6,3.9-0.4,7.3,0.5,9.6c0.7,1.7,2,3.7,6.3,4.3c1.9,0.3,4,0.1,6.2-3.2c1.7-2.6,2.7-6,3.1-8.2l12.1,2c-0.3,1.7-1.5,7.8-5,13
						C166.6,296,161.2,299,155.1,299z"/>
					<g>
						<path class="st1" d="M201.1,375.6c0-0.3-10.3-1.9-10.3-1.9l-5-33.4l12.4-4.9L201.1,375.6z"/>
						<path class="st5" d="M201.1,375.6c0-0.3-10.3-1.9-10.3-1.9l-5-33.4l12.4-4.9L201.1,375.6z"/>
					</g>
				</g>
				<g>
					<path class="st1" d="M302.3,375.7c0-0.3,10.3-1.7,10.3-1.7l5.7-33.3l-12.3-5.2L302.3,375.7z"/>
					<path class="st5" d="M302.3,375.7c0-0.3,10.3-1.7,10.3-1.7l5.7-33.3l-12.3-5.2L302.3,375.7z"/>
				</g>
				<path class="st1" d="M196.8,328c0,0,82.8-3.5,110.8,1.1c0,0-8.2,80.1-8.7,81.7c0,0-82.4-0.2-95.2,0
					C203.7,410.7,196.7,357.5,196.8,328z"/>
				<g>
					<path class="st5" d="M222,349.9c0,0,45.2-1.8,60.5,0.6c0,0-4.5,40.4-4.7,41.2c0,0-45-0.1-52,0C225.7,391.6,222.6,364,222,349.9z
						"/>
					<path class="st5" d="M228.2,391.6c-1,0-1.9,0-2.4,0c0,0-3.1-27.7-3.8-41.7c0,0,1,0,2.8-0.1L228.2,391.6z"/>
					<g>
						<g>
							<g>
								<g>
									<path class="st1" d="M241.5,359.9c-2.5-0.8-5.2,0.6-6,3.1c-0.8,2.5,0.6,5.2,3.1,6c2.5,0.8,5.2-0.6,6-3.1
										C245.4,363.4,244,360.7,241.5,359.9z M244.1,365.7c-0.7,2.2-3.1,3.5-5.3,2.8c-2.2-0.7-3.5-3.1-2.8-5.3
										c0.7-2.2,3.1-3.5,5.3-2.8C243.5,361.1,244.8,363.5,244.1,365.7z M241.5,359.9c-2.5-0.8-5.2,0.6-6,3.1
										c-0.8,2.5,0.6,5.2,3.1,6c2.5,0.8,5.2-0.6,6-3.1C245.4,363.4,244,360.7,241.5,359.9z M244.1,365.7c-0.7,2.2-3.1,3.5-5.3,2.8
										c-2.2-0.7-3.5-3.1-2.8-5.3c0.7-2.2,3.1-3.5,5.3-2.8C243.5,361.1,244.8,363.5,244.1,365.7z M241.5,359.9
										c-2.5-0.8-5.2,0.6-6,3.1c-0.8,2.5,0.6,5.2,3.1,6c2.5,0.8,5.2-0.6,6-3.1C245.4,363.4,244,360.7,241.5,359.9z M244.1,365.7
										c-0.7,2.2-3.1,3.5-5.3,2.8c-2.2-0.7-3.5-3.1-2.8-5.3c0.7-2.2,3.1-3.5,5.3-2.8C243.5,361.1,244.8,363.5,244.1,365.7z
										 M243.1,354.8c-5.3-1.7-11,1.3-12.7,6.6c-1.7,5.3,1.3,11,6.6,12.7c5.3,1.7,11-1.3,12.7-6.6
										C251.4,362.2,248.4,356.5,243.1,354.8z M245.3,366.1c-0.9,2.9-4,4.6-7,3.6c-2.9-0.9-4.5-4-3.6-7c0.9-2.9,4-4.5,7-3.6
										C244.6,360.1,246.3,363.2,245.3,366.1z M244.6,365.9c0.8-2.5-0.6-5.2-3.1-6c-2.5-0.8-5.2,0.6-6,3.1c-0.8,2.5,0.6,5.2,3.1,6
										C241.1,369.8,243.8,368.4,244.6,365.9z M244.1,365.7c-0.7,2.2-3.1,3.5-5.3,2.8c-2.2-0.7-3.5-3.1-2.8-5.3
										c0.7-2.2,3.1-3.5,5.3-2.8C243.5,361.1,244.8,363.5,244.1,365.7z M241.5,359.9c-2.5-0.8-5.2,0.6-6,3.1
										c-0.8,2.5,0.6,5.2,3.1,6c2.5,0.8,5.2-0.6,6-3.1C245.4,363.4,244,360.7,241.5,359.9z M244.1,365.7c-0.7,2.2-3.1,3.5-5.3,2.8
										c-2.2-0.7-3.5-3.1-2.8-5.3c0.7-2.2,3.1-3.5,5.3-2.8C243.5,361.1,244.8,363.5,244.1,365.7z M241.5,359.9
										c-2.5-0.8-5.2,0.6-6,3.1c-0.8,2.5,0.6,5.2,3.1,6c2.5,0.8,5.2-0.6,6-3.1C245.4,363.4,244,360.7,241.5,359.9z M244.1,365.7
										c-0.7,2.2-3.1,3.5-5.3,2.8c-2.2-0.7-3.5-3.1-2.8-5.3c0.7-2.2,3.1-3.5,5.3-2.8C243.5,361.1,244.8,363.5,244.1,365.7z"/>
									<g>
										<polygon class="st1" points="239,374.3 235.3,373.1 234.6,375.8 238,376.9 									"/>
										<polygon class="st1" points="232.3,370.8 230.5,367.4 228.2,368.8 229.8,371.9 									"/>
										<polygon class="st1" points="230,363.6 231.2,359.9 228.5,359.3 227.5,362.6 									"/>
										<polygon class="st1" points="233.5,357 237,355.2 235.5,352.8 232.4,354.4 									"/>
										<polygon class="st1" points="240.7,354.7 244.4,355.9 245.1,353.2 241.7,352.1 									"/>
										<polygon class="st1" points="247.4,358.2 249.2,361.6 251.5,360.2 249.9,357.1 									"/>
										<polygon class="st1" points="249.7,365.4 248.5,369.1 251.2,369.7 252.2,366.4 									"/>
										<polygon class="st1" points="246.2,372 242.7,373.8 244.2,376.2 247.3,374.6 									"/>
									</g>
								</g>
							</g>
						</g>
					</g>
					<g>
						<g>
							<g>
								<g>
									<path class="st8" d="M257.8,374c-1.5-1-3.5-0.6-4.5,0.9c-1,1.5-0.6,3.5,0.9,4.5c1.5,1,3.5,0.6,4.5-0.9
										C259.8,377,259.3,375,257.8,374z M258.4,378.3c-0.9,1.3-2.6,1.7-3.9,0.8c-1.3-0.9-1.7-2.6-0.8-3.9c0.9-1.3,2.6-1.7,3.9-0.8
										C258.9,375.2,259.3,377,258.4,378.3z M257.8,374c-1.5-1-3.5-0.6-4.5,0.9c-1,1.5-0.6,3.5,0.9,4.5c1.5,1,3.5,0.6,4.5-0.9
										C259.8,377,259.3,375,257.8,374z M258.4,378.3c-0.9,1.3-2.6,1.7-3.9,0.8c-1.3-0.9-1.7-2.6-0.8-3.9c0.9-1.3,2.6-1.7,3.9-0.8
										C258.9,375.2,259.3,377,258.4,378.3z M257.8,374c-1.5-1-3.5-0.6-4.5,0.9c-1,1.5-0.6,3.5,0.9,4.5c1.5,1,3.5,0.6,4.5-0.9
										C259.8,377,259.3,375,257.8,374z M258.4,378.3c-0.9,1.3-2.6,1.7-3.9,0.8c-1.3-0.9-1.7-2.6-0.8-3.9c0.9-1.3,2.6-1.7,3.9-0.8
										C258.9,375.2,259.3,377,258.4,378.3z M259.8,371c-3.2-2.1-7.4-1.2-9.4,2c-2.1,3.2-1.2,7.4,2,9.4c3.2,2.1,7.4,1.2,9.4-2
										C263.8,377.3,262.9,373.1,259.8,371z M259.2,378.8c-1.1,1.7-3.4,2.2-5.2,1.1c-1.7-1.1-2.2-3.4-1.1-5.2
										c1.1-1.7,3.4-2.2,5.2-1.1C259.8,374.7,260.3,377,259.2,378.8z M258.8,378.5c1-1.5,0.6-3.5-0.9-4.5c-1.5-1-3.5-0.6-4.5,0.9
										c-1,1.5-0.6,3.5,0.9,4.5C255.8,380.4,257.8,380,258.8,378.5z M258.4,378.3c-0.9,1.3-2.6,1.7-3.9,0.8
										c-1.3-0.9-1.7-2.6-0.8-3.9c0.9-1.3,2.6-1.7,3.9-0.8C258.9,375.2,259.3,377,258.4,378.3z M257.8,374c-1.5-1-3.5-0.6-4.5,0.9
										c-1,1.5-0.6,3.5,0.9,4.5c1.5,1,3.5,0.6,4.5-0.9C259.8,377,259.3,375,257.8,374z M258.4,378.3c-0.9,1.3-2.6,1.7-3.9,0.8
										c-1.3-0.9-1.7-2.6-0.8-3.9c0.9-1.3,2.6-1.7,3.9-0.8C258.9,375.2,259.3,377,258.4,378.3z M257.8,374c-1.5-1-3.5-0.6-4.5,0.9
										c-1,1.5-0.6,3.5,0.9,4.5c1.5,1,3.5,0.6,4.5-0.9C259.8,377,259.3,375,257.8,374z M258.4,378.3c-0.9,1.3-2.6,1.7-3.9,0.8
										c-1.3-0.9-1.7-2.6-0.8-3.9c0.9-1.3,2.6-1.7,3.9-0.8C258.9,375.2,259.3,377,258.4,378.3z"/>
									<g>
										<polygon class="st8" points="253.6,382.9 251.4,381.5 250.5,383.1 252.5,384.4 									"/>
										<polygon class="st8" points="249.9,379.5 249.4,376.9 247.6,377.4 248.1,379.7 									"/>
										<polygon class="st8" points="249.7,374.4 251.2,372.2 249.5,371.3 248.3,373.3 									"/>
										<polygon class="st8" points="253.2,370.7 255.8,370.1 255.2,368.4 253,368.8 									"/>
										<polygon class="st8" points="258.3,370.5 260.5,371.9 261.4,370.3 259.4,369 									"/>
										<polygon class="st8" points="262,374 262.5,376.5 264.3,376 263.8,373.7 									"/>
										<polygon class="st8" points="262.1,379 260.7,381.2 262.3,382.1 263.6,380.2 									"/>
										<polygon class="st8" points="258.7,382.8 256.1,383.3 256.6,385.1 258.9,384.6 									"/>
									</g>
								</g>
							</g>
						</g>
					</g>
				</g>
				<g>
					<polygon class="st1" points="305.6,401.4 308.8,402 317.9,340.4 314.3,339.7 				"/>
					<g>
						<path class="st1" d="M277.7,391.6l4.7-41.2l31.8-10.8c0,0-8.7,62.4-8.7,61.7L277.7,391.6z"/>
						<path class="st7" d="M277.7,391.6l4.7-41.2l31.8-10.8c0,0-8.7,62.4-8.7,61.7L277.7,391.6z"/>
					</g>
				</g>
				<path class="st0" d="M200.6,352.1c-0.5-3.4-0.8-6.8-1-10.3c-0.1-1.7-0.1-3.4-0.2-5.2c0-1.7-0.1-3.4,0-5.2l0-0.5l0.4,0
					c6.3-0.3,12.6-0.8,19-1c6.3-0.3,12.6-0.6,19-0.8c-6.3,0.6-12.6,1.1-18.9,1.5c-6.3,0.5-12.6,0.8-18.9,1.3l0.5-0.5l0,5.1l0.1,5.2
					c0,1.7,0,3.4,0.1,5.2L200.6,352.1z"/>
				<path class="st0" d="M286.9,351.1c2-0.9,4-1.8,6-2.6c2-0.8,4.1-1.6,6.1-2.3c2.1-0.7,4.1-1.4,6.2-2c2.1-0.6,4.2-1.1,6.4-1.5
					l0.5-0.1l-0.1,0.5c-0.5,2.7-1,5.3-1.6,8c0.2-2.7,0.6-5.4,0.9-8.1l0.4,0.4c-2.1,0.5-4.2,1.1-6.3,1.7c-2.1,0.6-4.1,1.3-6.2,1.9
					L286.9,351.1z"/>
				<g>
					<polygon class="st2" points="214.4,328.1 214.9,338.4 215.4,348.7 216.2,369.3 216.8,389.9 217.1,400.3 217.2,410.6 
						216.7,400.3 216.2,390 215.4,369.4 214.8,348.7 214.6,338.4 				"/>
					<path class="st2" d="M211.5,334.3c0.2,0.9-0.3,1.9-1.3,2.2c-0.5,0.1-1.1,0.1-1.5-0.2c-0.5-0.3-0.8-0.8-0.9-1.3
						c-0.1-0.5,0-1.1,0.4-1.6c0.3-0.4,0.8-0.7,1.3-0.8C210.4,332.7,211.3,333.4,211.5,334.3z M211.5,334.3c-0.1-0.4-0.4-0.8-0.8-1.1
						c-0.4-0.2-0.9-0.2-1.2-0.1c-0.8,0.3-1.2,1.1-1,1.8c0.1,0.7,0.8,1.3,1.7,1.3c0.4,0,0.8-0.2,1.1-0.6
						C211.4,335.3,211.5,334.8,211.5,334.3z"/>
					<path class="st2" d="M212.2,346.7c0.2,0.9-0.3,1.9-1.3,2.2c-0.5,0.1-1.1,0.1-1.5-0.2c-0.5-0.3-0.8-0.8-0.9-1.3
						c-0.1-0.5,0-1.1,0.4-1.6c0.3-0.4,0.8-0.7,1.3-0.8C211.1,345,212,345.8,212.2,346.7z M212.2,346.7c-0.1-0.4-0.4-0.8-0.8-1.1
						c-0.4-0.2-0.9-0.2-1.2-0.1c-0.8,0.3-1.2,1.1-1,1.8c0.1,0.7,0.8,1.3,1.7,1.3c0.4,0,0.8-0.2,1.1-0.6
						C212.1,347.6,212.2,347.1,212.2,346.7z"/>
					<path class="st2" d="M212.6,359.8c0.2,0.9-0.3,1.9-1.3,2.2c-0.5,0.1-1.1,0.1-1.5-0.2c-0.5-0.3-0.8-0.8-0.9-1.3
						c-0.1-0.5,0-1.1,0.4-1.6c0.3-0.4,0.8-0.7,1.3-0.8C211.6,358.1,212.5,358.9,212.6,359.8z M212.6,359.8c-0.1-0.4-0.4-0.8-0.8-1.1
						c-0.4-0.2-0.9-0.2-1.2-0.1c-0.8,0.3-1.2,1.1-1,1.8c0.1,0.7,0.8,1.3,1.7,1.3c0.4,0,0.8-0.2,1.1-0.6
						C212.6,360.7,212.7,360.2,212.6,359.8z"/>
					<path class="st2" d="M213.1,372.9c0.2,0.9-0.3,1.9-1.3,2.2c-0.5,0.1-1.1,0.1-1.5-0.2c-0.5-0.3-0.8-0.8-0.9-1.3
						c-0.1-0.5,0-1.1,0.4-1.6c0.3-0.4,0.8-0.7,1.3-0.8C212,371.2,212.9,372,213.1,372.9z M213.1,372.9c-0.1-0.4-0.4-0.8-0.8-1.1
						c-0.4-0.2-0.9-0.2-1.2-0.1c-0.8,0.3-1.2,1.1-1,1.8c0.1,0.7,0.8,1.3,1.7,1.3c0.4,0,0.8-0.2,1.1-0.6
						C213,373.8,213.1,373.3,213.1,372.9z"/>
					<path class="st2" d="M213.5,386c0.2,0.9-0.3,1.9-1.3,2.2c-0.5,0.1-1.1,0.1-1.5-0.2c-0.5-0.3-0.8-0.8-0.9-1.3
						c-0.1-0.5,0-1.1,0.4-1.6c0.3-0.4,0.8-0.7,1.3-0.8C212.5,384.3,213.4,385.1,213.5,386z M213.5,386c-0.1-0.4-0.4-0.8-0.8-1.1
						c-0.4-0.2-0.9-0.2-1.2-0.1c-0.8,0.3-1.2,1.1-1,1.8c0.1,0.7,0.8,1.3,1.7,1.3c0.4,0,0.8-0.2,1.1-0.6
						C213.5,386.9,213.6,386.5,213.5,386z"/>
					<path class="st2" d="M214,399.1c0.2,0.9-0.3,1.9-1.3,2.2c-0.5,0.1-1.1,0.1-1.5-0.2c-0.5-0.3-0.8-0.8-0.9-1.3
						c-0.1-0.5,0-1.1,0.4-1.6c0.3-0.4,0.8-0.7,1.3-0.8C212.9,397.4,213.8,398.2,214,399.1z M214,399.1c-0.1-0.4-0.4-0.8-0.8-1.1
						c-0.4-0.2-0.9-0.2-1.2-0.1c-0.8,0.3-1.2,1.1-1,1.8c0.1,0.7,0.8,1.3,1.7,1.3c0.4,0,0.8-0.2,1.1-0.6
						C213.9,400,214,399.6,214,399.1z"/>
				</g>
			</g>
			<g>
				<rect x="170.9" y="426.1" transform="matrix(0.957 -0.29 0.29 0.957 -116.0263 75.1211)" class="st1" width="49" height="5.7"/>
				<rect x="170.9" y="426.1" transform="matrix(0.957 -0.29 0.29 0.957 -116.0263 75.1211)" class="st7" width="49" height="5.7"/>
				
					<rect x="191.3" y="424.7" transform="matrix(0.953 -0.3031 0.3031 0.953 -120.8945 79.0204)" class="st1" width="5.7" height="8.5"/>
				<g>
					<polygon class="st1" points="172.4,446.9 160.3,394.5 123.8,403.1 141.8,454.2 				"/>
					<g>
						<polygon class="st1" points="180.5,444.2 172.4,446.9 160.3,394.5 172,397.3 					"/>
						<polygon class="st5" points="180.5,444.2 172.4,446.9 160.3,394.5 172,397.3 					"/>
					</g>
				</g>
				<circle class="st1" cx="218.9" cy="421.9" r="6.2"/>
			</g>
			<g>
				
					<rect x="302.5" y="404.4" transform="matrix(0.292 -0.9564 0.9564 0.292 -193.9904 595.7405)" class="st1" width="5.7" height="49"/>
				
					<rect x="302.5" y="404.4" transform="matrix(0.292 -0.9564 0.9564 0.292 -193.9904 595.7405)" class="st7" width="5.7" height="49"/>
				
					<rect x="302.4" y="426" transform="matrix(0.3052 -0.9523 0.9523 0.3052 -195.3576 590.0469)" class="st1" width="8.5" height="5.7"/>
				<g>
					<polygon class="st1" points="328.4,446.8 340.6,394.5 377.1,403.2 359,454.2 				"/>
					<g>
						<polygon class="st1" points="320.3,444.1 328.4,446.8 340.6,394.5 328.9,397.2 					"/>
						<polygon class="st5" points="320.3,444.1 328.4,446.8 340.6,394.5 328.9,397.2 					"/>
					</g>
				</g>
				<path class="st1" d="M275.8,421.7c0,3.4,2.8,6.2,6.2,6.2c3.4,0,6.2-2.8,6.2-6.2c0-3.4-2.8-6.2-6.2-6.2
					C278.6,415.5,275.8,418.3,275.8,421.7z"/>
			</g>
			<g>
				<g>
					<path class="st1" d="M322.7,357.1c0.1-0.1,15.2-14.1,32.9-9.3c18.1,4.9,33.1,32.2,33.2,32.4l5-2.7c-0.7-1.2-16.3-29.7-36.8-35.2
						c-20.9-5.6-37.6,10-38.3,10.7L322.7,357.1z"/>
					<path class="st7" d="M322.7,357.1c0.1-0.1,15.2-14.1,32.9-9.3c18.1,4.9,33.1,32.2,33.2,32.4l5-2.7c-0.7-1.2-16.3-29.7-36.8-35.2
						c-20.9-5.6-37.6,10-38.3,10.7L322.7,357.1z"/>
				</g>
				<path class="st1" d="M382.1,407.7L393,402c-1-2-2.3-5.4-2.5-8.4c-0.2-4,1.3-5.4,3.1-6.3c3.8-2,6.1-1.2,7.6-0.3
					c2.2,1.3,4.4,3.9,6.2,7.4l10.8-5.7c-3-5.6-6.6-9.7-10.8-12.2c-4.2-2.5-11-4.5-19.6,0c-6.7,3.5-10.1,9.9-9.6,17.9
					C378.6,400.6,381.3,406.2,382.1,407.7z"/>
			</g>
			<g>
				<path class="st9" d="M324.9,338c2.4-1.6,4.8-3.2,7.2-4.7c2.4-1.5,4.9-3,7.3-4.4c2.5-1.4,4.9-2.9,7.4-4.2l3.8-2
					c1.3-0.7,2.5-1.3,3.8-2c-1.2,0.8-2.4,1.6-3.6,2.4l-3.6,2.3c-2.4,1.5-4.9,3-7.3,4.4c-2.5,1.4-4.9,2.9-7.4,4.2
					C330,335.4,327.5,336.8,324.9,338z"/>
				<path class="st9" d="M318.7,361.4c3.4,1.9,6.6,4.1,9.7,6.3c3.1,2.2,6.2,4.6,9.1,7.1c-3.4-1.9-6.6-4.1-9.7-6.3
					C324.7,366.3,321.6,364,318.7,361.4z"/>
				<path class="st9" d="M324.2,358.5c2.6,0.8,5.2,1.7,7.7,2.6c2.6,0.9,5.1,1.9,7.6,2.8c2.5,1,5,2,7.5,3.1l3.7,1.6
					c1.2,0.6,2.5,1.1,3.7,1.7c-1.3-0.4-2.6-0.8-3.9-1.2l-3.8-1.3c-2.6-0.9-5.1-1.9-7.6-2.8c-2.5-1-5-2-7.5-3.1
					C329.2,360.8,326.7,359.7,324.2,358.5z"/>
				<path class="st9" d="M331.6,340.2c2.5-0.6,5-1.2,7.5-1.7c2.5-0.5,5-1,7.6-1.4c2.5-0.4,5.1-0.9,7.6-1.2l3.8-0.5
					c1.3-0.1,2.5-0.3,3.8-0.4c-1.2,0.3-2.5,0.6-3.7,0.9l-3.8,0.8c-2.5,0.5-5,1-7.6,1.4c-2.5,0.4-5.1,0.9-7.6,1.2
					C336.7,339.6,334.2,340,331.6,340.2z"/>
			</g>
		</g>
	</g>
	<g id="Gears">
		<g>
			<g>
				<path class="st3" d="M339.2,322.5c1.4-5.9,4.4-12.4,10.3-14.9c4.1-1.6,9.2,0.4,10.8,4.5c1,2.4,1.7,5.9-0.6,7.8
					c-2,1.3-3.4-0.9-3.8-2.6c-1.7-7.9,0.7-18,7.5-22.9c7.2-4.9,17.2-2.3,22.9,3.8c1.5,1.5,2.8,3.1,3.9,4.9c-5.7-8.5-16.9-14.1-26.3-8
					c-6.4,4.7-8.6,14.4-7,21.9c0.3,1.1,0.7,2.4,1.8,2.3c1.6-0.4,1.7-2.6,1.6-4c-0.4-5.2-5.5-9-10.6-7.1
					C344,310.5,340.9,316.7,339.2,322.5L339.2,322.5z"/>
			</g>
			<g>
				<path class="st3" d="M150.9,370c4-7.5,15.1-10.7,21.2-3.9c2.9,3.1,4.6,7.3,4.4,11.6c-0.1,2.5-1.8,4.9-4.6,3.5
					c-2.2-1.2-1.7-4.2-1.1-6.2c1.4-4,4.2-7.4,7.6-9.9c9.4-6.9,21.7-2.7,25.7,8.1c0.8,1.9,1.4,3.9,1.6,5.9c-1.5-7.8-7-15.9-15.5-16.5
					c-8.1-0.9-15.8,5.3-18.5,12.7c-0.5,1.6-1,4.1,0.6,5.1c0.7,0.4,1.7,0.5,2.3-0.2c1.7-2.3,0.9-5.8,0-8.4
					C170.4,360.4,157.2,360.4,150.9,370L150.9,370z"/>
			</g>
			<g>
				<path class="st10" d="M133,140.2c-0.3-5.9-1.8-12.8-6.8-16.4c-4.5-3-10.3-0.6-12,4.4c-0.4,1.4-0.9,3.5,0.6,4.3
					c1,0.4,1.7-0.8,2.3-1.8c3.3-7,3.5-16.8-1.6-23c-7.6-8.2-19.9-5.4-27.4,1.5c1.5-1.5,3.1-2.7,4.9-3.8c7-4.6,17.3-4.7,23.2,1.8
					c5.4,6.4,5.4,16.7,1.8,24c-0.8,1.6-2.6,3.3-4.3,1.6c-1.8-2.4-0.3-5.6,1.2-7.7c2.6-3.6,8-4.4,11.6-1.8
					C131.6,127.1,133,134.1,133,140.2L133,140.2z"/>
			</g>
			<g>
				<path class="st11" d="M353.8,192.4c-5.8-1.1-12.8-1.2-17.5,2.8c-4,3.6-3,9.9,1.5,12.7c1.2,0.7,3.2,1.7,4.3,0.4
					c0.6-0.9-0.4-1.9-1.2-2.7c-6-4.8-15.5-7.3-22.7-3.8c-9.7,5.5-9.9,18.1-5,27c-1.1-1.8-1.9-3.7-2.5-5.7c-2.8-7.9-0.6-17.9,7.1-22.1
					c7.5-3.8,17.5-1.3,23.8,3.9c1.4,1.1,2.6,3.3,0.6,4.6c-2.7,1.2-5.6-1-7.2-3c-2.9-3.4-2.4-8.8,0.9-11.7
					C340.7,190.6,347.9,190.9,353.8,192.4L353.8,192.4z"/>
			</g>
			<g>
				<path class="st12" d="M291.9,127.7c-2.8-9.8,3.9-21.6,14.9-21c5,0.2,10,2.4,13.4,6.2c2,2.2,2.5,5.5-0.9,6.7
					c-2.8,0.8-4.9-2.2-6-4.4c-2.2-4.6-2.6-9.8-1.8-14.7c2.3-13.8,16.2-20.4,28.7-14.5c2.3,1,4.4,2.2,6.4,3.7
					c-4.1-2.7-8.7-4.7-13.6-5.2c-10-1.3-19.2,6.4-20.6,16.2c-0.8,5.8-0.2,12.5,3.7,17c0.8,0.8,1.9,1.3,2.9,1c0.9-0.3,1.9-1.1,1.9-2.2
					c-0.5-3.5-4.2-5.8-7.1-7.3C300.4,103,289.2,114.1,291.9,127.7L291.9,127.7z"/>
			</g>
			<g>
				<g>
					<g>
						<g>
							<path class="st3" d="M147.5,370.3c-2.2-0.7-4.6,0.5-5.3,2.8c-0.7,2.2,0.5,4.6,2.8,5.3c2.2,0.7,4.6-0.5,5.3-2.8
								C151,373.4,149.8,371,147.5,370.3z M149.8,375.4c-0.6,2-2.7,3.1-4.7,2.4c-2-0.6-3.1-2.7-2.4-4.7c0.6-2,2.7-3.1,4.7-2.4
								C149.3,371.4,150.4,373.5,149.8,375.4z M147.5,370.3c-2.2-0.7-4.6,0.5-5.3,2.8c-0.7,2.2,0.5,4.6,2.8,5.3
								c2.2,0.7,4.6-0.5,5.3-2.8C151,373.4,149.8,371,147.5,370.3z M149.8,375.4c-0.6,2-2.7,3.1-4.7,2.4c-2-0.6-3.1-2.7-2.4-4.7
								c0.6-2,2.7-3.1,4.7-2.4C149.3,371.4,150.4,373.5,149.8,375.4z M147.5,370.3c-2.2-0.7-4.6,0.5-5.3,2.8
								c-0.7,2.2,0.5,4.6,2.8,5.3c2.2,0.7,4.6-0.5,5.3-2.8C151,373.4,149.8,371,147.5,370.3z M149.8,375.4c-0.6,2-2.7,3.1-4.7,2.4
								c-2-0.6-3.1-2.7-2.4-4.7c0.6-2,2.7-3.1,4.7-2.4C149.3,371.4,150.4,373.5,149.8,375.4z M148.9,365.8c-4.7-1.5-9.8,1.1-11.2,5.9
								c-1.5,4.7,1.1,9.8,5.9,11.2c4.7,1.5,9.8-1.1,11.2-5.9C156.3,372.3,153.7,367.3,148.9,365.8z M150.9,375.8
								c-0.8,2.6-3.6,4-6.2,3.2c-2.6-0.8-4-3.6-3.2-6.2c0.8-2.6,3.6-4,6.2-3.2C150.3,370.4,151.7,373.2,150.9,375.8z M150.3,375.6
								c0.7-2.2-0.5-4.6-2.8-5.3c-2.2-0.7-4.6,0.5-5.3,2.8c-0.7,2.2,0.5,4.6,2.8,5.3C147.2,379.1,149.6,377.8,150.3,375.6z
								 M149.8,375.4c-0.6,2-2.7,3.1-4.7,2.4c-2-0.6-3.1-2.7-2.4-4.7c0.6-2,2.7-3.1,4.7-2.4C149.3,371.4,150.4,373.5,149.8,375.4z
								 M147.5,370.3c-2.2-0.7-4.6,0.5-5.3,2.8c-0.7,2.2,0.5,4.6,2.8,5.3c2.2,0.7,4.6-0.5,5.3-2.8C151,373.4,149.8,371,147.5,370.3z
								 M149.8,375.4c-0.6,2-2.7,3.1-4.7,2.4c-2-0.6-3.1-2.7-2.4-4.7c0.6-2,2.7-3.1,4.7-2.4C149.3,371.4,150.4,373.5,149.8,375.4z
								 M147.5,370.3c-2.2-0.7-4.6,0.5-5.3,2.8c-0.7,2.2,0.5,4.6,2.8,5.3c2.2,0.7,4.6-0.5,5.3-2.8C151,373.4,149.8,371,147.5,370.3z
								 M149.8,375.4c-0.6,2-2.7,3.1-4.7,2.4c-2-0.6-3.1-2.7-2.4-4.7c0.6-2,2.7-3.1,4.7-2.4C149.3,371.4,150.4,373.5,149.8,375.4z"/>
							<g>
								<polygon class="st3" points="145.3,383 142,382 141.5,384.4 144.4,385.3 							"/>
								<polygon class="st3" points="139.4,379.9 137.8,376.9 135.7,378.2 137.2,380.9 							"/>
								<polygon class="st3" points="137.4,373.6 138.4,370.3 136.1,369.8 135.1,372.7 							"/>
								<polygon class="st3" points="140.5,367.7 143.5,366.1 142.2,364 139.5,365.4 							"/>
								<polygon class="st3" points="146.8,365.7 150.1,366.7 150.7,364.3 147.7,363.4 							"/>
								<polygon class="st3" points="152.7,368.8 154.3,371.8 156.4,370.5 155,367.8 							"/>
								<polygon class="st3" points="154.7,375.1 153.7,378.4 156.1,379 157,376 							"/>
								<polygon class="st3" points="151.7,381 148.6,382.6 149.9,384.7 152.6,383.3 							"/>
							</g>
						</g>
					</g>
				</g>
			</g>
			<g>
				<g>
					<path class="st3" d="M409.3,320c4.5-6.1,3.2-14.7-2.8-19.2c-6.1-4.5-14.7-3.2-19.2,2.8c-4.5,6.1-3.2,14.7,2.8,19.2
						C396.2,327.4,404.8,326.1,409.3,320z M403.4,315.7c-2.1,2.8-6.1,3.4-8.9,1.3c-2.8-2.1-3.4-6.1-1.3-9c2.1-2.8,6.1-3.4,8.9-1.3
						C404.9,308.8,405.5,312.8,403.4,315.7z"/>
					<polygon class="st3" points="392.6,324 388.4,320.8 386.4,324 390.1,326.8 				"/>
					<polygon class="st3" points="385.6,316.6 384.8,311.4 381.2,312.2 381.9,316.8 				"/>
					<polygon class="st3" points="385.9,306.4 389,302.2 385.9,300.2 383.1,303.9 				"/>
					<polygon class="st3" points="393.3,299.4 398.5,298.6 397.7,295 393,295.7 				"/>
					<polygon class="st3" points="403.5,299.7 407.7,302.8 409.7,299.7 405.9,296.9 				"/>
					<polygon class="st3" points="410.5,307.1 411.2,312.3 414.9,311.5 414.2,306.8 				"/>
					<polygon class="st3" points="410.2,317.3 407,321.5 410.2,323.5 413,319.7 				"/>
					<polygon class="st3" points="402.8,324.3 397.6,325 398.4,328.7 403,328 				"/>
				</g>
				<path class="st3" d="M393.4,312.5l2.9,3.7l4.6-0.7l1.7-4.4l-2.9-3.7l-4.6,0.7L393.4,312.5z M398.9,310.6c0.7,0.5,0.8,1.4,0.3,2.1
					c-0.5,0.7-1.4,0.8-2.1,0.3c-0.7-0.5-0.8-1.4-0.3-2.1C397.3,310.3,398.2,310.1,398.9,310.6z"/>
			</g>
			<g>
				<g>
					<g>
						<g>
							<path class="st13" d="M351.9,86.6c-2-0.6-4,0.5-4.7,2.4c-0.6,2,0.5,4,2.4,4.7c2,0.6,4-0.5,4.7-2.4
								C355,89.3,353.9,87.2,351.9,86.6z M353.9,91.1c-0.5,1.7-2.4,2.7-4.1,2.1c-1.7-0.5-2.7-2.4-2.1-4.1c0.5-1.7,2.4-2.7,4.1-2.1
								C353.5,87.6,354.5,89.4,353.9,91.1z M351.9,86.6c-2-0.6-4,0.5-4.7,2.4c-0.6,2,0.5,4,2.4,4.7c2,0.6,4-0.5,4.7-2.4
								C355,89.3,353.9,87.2,351.9,86.6z M353.9,91.1c-0.5,1.7-2.4,2.7-4.1,2.1c-1.7-0.5-2.7-2.4-2.1-4.1c0.5-1.7,2.4-2.7,4.1-2.1
								C353.5,87.6,354.5,89.4,353.9,91.1z M351.9,86.6c-2-0.6-4,0.5-4.7,2.4c-0.6,2,0.5,4,2.4,4.7c2,0.6,4-0.5,4.7-2.4
								C355,89.3,353.9,87.2,351.9,86.6z M353.9,91.1c-0.5,1.7-2.4,2.7-4.1,2.1c-1.7-0.5-2.7-2.4-2.1-4.1c0.5-1.7,2.4-2.7,4.1-2.1
								C353.5,87.6,354.5,89.4,353.9,91.1z M353.2,82.7c-4.1-1.3-8.5,1-9.8,5.1c-1.3,4.1,1,8.5,5.1,9.8c4.1,1.3,8.5-1,9.8-5.1
								C359.6,88.4,357.3,84,353.2,82.7z M354.9,91.4c-0.7,2.3-3.1,3.5-5.4,2.8s-3.5-3.1-2.8-5.4c0.7-2.3,3.1-3.5,5.4-2.8
								C354.4,86.8,355.6,89.2,354.9,91.4z M354.4,91.3c0.6-2-0.5-4-2.4-4.7c-2-0.6-4,0.5-4.7,2.4c-0.6,2,0.5,4,2.4,4.7
								C351.7,94.3,353.8,93.2,354.4,91.3z M353.9,91.1c-0.5,1.7-2.4,2.7-4.1,2.1c-1.7-0.5-2.7-2.4-2.1-4.1c0.5-1.7,2.4-2.7,4.1-2.1
								C353.5,87.6,354.5,89.4,353.9,91.1z M351.9,86.6c-2-0.6-4,0.5-4.7,2.4c-0.6,2,0.5,4,2.4,4.7c2,0.6,4-0.5,4.7-2.4
								C355,89.3,353.9,87.2,351.9,86.6z M353.9,91.1c-0.5,1.7-2.4,2.7-4.1,2.1c-1.7-0.5-2.7-2.4-2.1-4.1c0.5-1.7,2.4-2.7,4.1-2.1
								C353.5,87.6,354.5,89.4,353.9,91.1z M351.9,86.6c-2-0.6-4,0.5-4.7,2.4c-0.6,2,0.5,4,2.4,4.7c2,0.6,4-0.5,4.7-2.4
								C355,89.3,353.9,87.2,351.9,86.6z M353.9,91.1c-0.5,1.7-2.4,2.7-4.1,2.1c-1.7-0.5-2.7-2.4-2.1-4.1c0.5-1.7,2.4-2.7,4.1-2.1
								C353.5,87.6,354.5,89.4,353.9,91.1z"/>
							<g>
								<polygon class="st13" points="350,97.8 347.1,96.9 346.6,99 349.2,99.8 							"/>
								<polygon class="st13" points="344.8,95.1 343.4,92.4 341.6,93.5 342.9,95.9 							"/>
								<polygon class="st13" points="343.1,89.5 344,86.6 341.9,86.2 341.1,88.7 							"/>
								<polygon class="st13" points="345.8,84.3 348.5,83 347.3,81.1 344.9,82.4 							"/>
								<polygon class="st13" points="351.3,82.6 354.2,83.5 354.7,81.4 352.1,80.6 							"/>
								<polygon class="st13" points="356.5,85.3 357.9,88 359.7,86.8 358.5,84.5 							"/>
								<polygon class="st13" points="358.3,90.9 357.4,93.7 359.4,94.2 360.2,91.7 							"/>
								<polygon class="st13" points="355.6,96 352.9,97.4 354,99.2 356.4,98 							"/>
							</g>
						</g>
					</g>
				</g>
			</g>
			<g>
				<g>
					<g>
						<g>
							<path class="st11" d="M313.7,229.5c-2-0.6-4.1,0.5-4.7,2.4c-0.6,2,0.5,4.1,2.4,4.7c2,0.6,4-0.5,4.7-2.4
								C316.8,232.2,315.7,230.1,313.7,229.5z M315.7,234c-0.5,1.7-2.4,2.7-4.1,2.1s-2.7-2.4-2.1-4.1c0.5-1.7,2.4-2.7,4.1-2.1
								C315.3,230.4,316.3,232.3,315.7,234z M313.7,229.5c-2-0.6-4.1,0.5-4.7,2.4c-0.6,2,0.5,4.1,2.4,4.7c2,0.6,4-0.5,4.7-2.4
								C316.8,232.2,315.7,230.1,313.7,229.5z M315.7,234c-0.5,1.7-2.4,2.7-4.1,2.1s-2.7-2.4-2.1-4.1c0.5-1.7,2.4-2.7,4.1-2.1
								C315.3,230.4,316.3,232.3,315.7,234z M313.7,229.5c-2-0.6-4.1,0.5-4.7,2.4c-0.6,2,0.5,4.1,2.4,4.7c2,0.6,4-0.5,4.7-2.4
								C316.8,232.2,315.7,230.1,313.7,229.5z M315.7,234c-0.5,1.7-2.4,2.7-4.1,2.1s-2.7-2.4-2.1-4.1c0.5-1.7,2.4-2.7,4.1-2.1
								C315.3,230.4,316.3,232.3,315.7,234z M315,225.5c-4.1-1.3-8.5,1-9.8,5.1c-1.3,4.1,1,8.5,5.1,9.8c4.1,1.3,8.5-1,9.8-5.1
								C321.4,231.2,319.1,226.8,315,225.5z M316.7,234.3c-0.7,2.3-3.1,3.5-5.4,2.8c-2.3-0.7-3.5-3.1-2.8-5.4
								c0.7-2.3,3.1-3.5,5.4-2.8C316.2,229.6,317.4,232,316.7,234.3z M316.2,234.1c0.6-2-0.5-4-2.4-4.7c-2-0.6-4.1,0.5-4.7,2.4
								c-0.6,2,0.5,4.1,2.4,4.7C313.5,237.2,315.5,236.1,316.2,234.1z M315.7,234c-0.5,1.7-2.4,2.7-4.1,2.1s-2.7-2.4-2.1-4.1
								c0.5-1.7,2.4-2.7,4.1-2.1C315.3,230.4,316.3,232.3,315.7,234z M313.7,229.5c-2-0.6-4.1,0.5-4.7,2.4c-0.6,2,0.5,4.1,2.4,4.7
								c2,0.6,4-0.5,4.7-2.4C316.8,232.2,315.7,230.1,313.7,229.5z M315.7,234c-0.5,1.7-2.4,2.7-4.1,2.1s-2.7-2.4-2.1-4.1
								c0.5-1.7,2.4-2.7,4.1-2.1C315.3,230.4,316.3,232.3,315.7,234z M313.7,229.5c-2-0.6-4.1,0.5-4.7,2.4c-0.6,2,0.5,4.1,2.4,4.7
								c2,0.6,4-0.5,4.7-2.4C316.8,232.2,315.7,230.1,313.7,229.5z M315.7,234c-0.5,1.7-2.4,2.7-4.1,2.1s-2.7-2.4-2.1-4.1
								c0.5-1.7,2.4-2.7,4.1-2.1C315.3,230.4,316.3,232.3,315.7,234z"/>
							<g>
								<polygon class="st11" points="311.8,240.6 308.9,239.7 308.4,241.8 311,242.6 							"/>
								<polygon class="st11" points="306.6,237.9 305.2,235.3 303.4,236.4 304.6,238.8 							"/>
								<polygon class="st11" points="304.9,232.4 305.8,229.5 303.7,229 302.9,231.6 							"/>
								<polygon class="st11" points="307.6,227.2 310.2,225.8 309.1,224 306.7,225.2 							"/>
								<polygon class="st11" points="313.1,225.5 316,226.4 316.5,224.3 313.9,223.5 							"/>
								<polygon class="st11" points="318.3,228.2 319.7,230.8 321.5,229.7 320.3,227.3 							"/>
								<polygon class="st11" points="320,233.7 319.1,236.6 321.2,237.1 322,234.5 							"/>
								<polygon class="st11" points="317.3,238.9 314.7,240.3 315.8,242.1 318.2,240.9 							"/>
							</g>
						</g>
					</g>
				</g>
			</g>
			<g>
				<g>
					<path class="st14" d="M95,117c1.5-6.3-2.3-12.7-8.7-14.3c-6.3-1.5-12.7,2.3-14.3,8.7c-1.5,6.3,2.3,12.7,8.7,14.3
						C87.1,127.2,93.5,123.3,95,117z M88.9,115.5c-0.7,3-3.7,4.8-6.7,4c-3-0.7-4.8-3.7-4-6.7c0.7-3,3.7-4.8,6.7-4
						C87.8,109.6,89.6,112.5,88.9,115.5z"/>
					<polygon class="st14" points="83.1,125.7 78.7,124.6 78.2,127.8 82.1,128.8 				"/>
					<polygon class="st14" points="75.1,122.2 72.7,118.3 70.1,120.2 72.2,123.6 				"/>
					<polygon class="st14" points="71.9,114 73,109.6 69.8,109.1 68.8,113 				"/>
					<polygon class="st14" points="75.4,106 79.3,103.6 77.4,101 74,103.1 				"/>
					<polygon class="st14" points="83.6,102.8 88,103.9 88.5,100.7 84.6,99.8 				"/>
					<polygon class="st14" points="91.6,106.3 94,110.2 96.6,108.3 94.5,104.9 				"/>
					<polygon class="st14" points="94.8,114.5 93.7,118.9 96.9,119.4 97.8,115.5 				"/>
					<polygon class="st14" points="91.3,122.5 87.4,124.9 89.3,127.5 92.7,125.4 				"/>
				</g>
				<path class="st14" d="M79.9,116.4l3.5,1.9l3.4-2.1l-0.1-4l-3.5-1.9l-3.4,2.1L79.9,116.4z M83.6,113c0.7,0.2,1.1,0.9,0.9,1.5
					c-0.2,0.7-0.9,1.1-1.5,0.9c-0.7-0.2-1.1-0.9-0.9-1.5C82.3,113.3,83,112.9,83.6,113z"/>
			</g>
		</g>
	</g>
	<g id="Speech_Bubble">
	</g>
	</svg>