<svg width="32" height="32" viewBox="0 0 32 32" fill="none" xmlns="http://www.w3.org/2000/svg">
<path d="M17 26C17.6922 26 18.3689 25.7947 18.9445 25.4101C19.5201 25.0256 19.9687 24.4789 20.2336 23.8394C20.4985 23.1999 20.5678 22.4961 20.4327 21.8172C20.2977 21.1383 19.9644 20.5146 19.4749 20.0251C18.9854 19.5356 18.3617 19.2023 17.6828 19.0673C17.0039 18.9322 16.3001 19.0015 15.6606 19.2664C15.0211 19.5313 14.4744 19.9799 14.0899 20.5555C13.7053 21.1311 13.5 21.8078 13.5 22.5C13.501 23.4279 13.8701 24.3176 14.5263 24.9737C15.1824 25.6299 16.0721 25.999 17 26ZM17 20C17.4945 20 17.9778 20.1466 18.3889 20.4213C18.8 20.696 19.1205 21.0865 19.3097 21.5433C19.4989 22.0001 19.5484 22.5028 19.452 22.9877C19.3555 23.4727 19.1174 23.9181 18.7678 24.2678C18.4181 24.6174 17.9727 24.8555 17.4877 24.952C17.0028 25.0484 16.5001 24.9989 16.0433 24.8097C15.5865 24.6205 15.196 24.3 14.9213 23.8889C14.6466 23.4778 14.5 22.9945 14.5 22.5C14.5008 21.8372 14.7644 21.2017 15.2331 20.7331C15.7017 20.2644 16.3372 20.0008 17 20Z" fill="#6A6D73"/>
<path d="M23.9585 24.3154L25.1169 24.0377C25.2261 24.0115 25.3234 23.9493 25.3929 23.861C25.4625 23.7728 25.5003 23.6638 25.5003 23.5515V21.4485C25.5003 21.3362 25.4625 21.2271 25.3929 21.1389C25.3234 21.0507 25.2261 20.9885 25.1169 20.9623L23.9586 20.6846C23.7718 20.6399 23.5983 20.5515 23.4523 20.4268C23.3062 20.3021 23.1918 20.1447 23.1182 19.9673C23.0447 19.7899 23.0142 19.5976 23.0293 19.4061C23.0443 19.2147 23.1045 19.0295 23.2048 18.8658L23.8313 17.8434C23.89 17.7477 23.9147 17.635 23.9015 17.5234C23.8883 17.4119 23.838 17.3081 23.7585 17.2286L22.2716 15.7418C22.1922 15.6624 22.0884 15.6121 21.9768 15.5989C21.8653 15.5857 21.7526 15.6104 21.6569 15.6691L20.6345 16.2955C20.4708 16.3959 20.2856 16.456 20.0942 16.471C19.9028 16.4861 19.7105 16.4556 19.5331 16.3821C19.3557 16.3086 19.1982 16.1941 19.0735 16.0481C18.9489 15.902 18.8605 15.7285 18.8157 15.5418L18.538 14.3834C18.5118 14.2742 18.4496 14.177 18.3614 14.1074C18.2731 14.0378 18.1641 14 18.0518 14H15.9489C15.8365 14 15.7275 14.0378 15.6392 14.1074C15.551 14.1769 15.4888 14.2742 15.4626 14.3834L15.1849 15.5417C15.1402 15.7285 15.0518 15.902 14.9271 16.048C14.8025 16.1941 14.645 16.3086 14.4676 16.3821C14.2902 16.4556 14.0979 16.4861 13.9064 16.471C13.715 16.456 13.5298 16.3958 13.3661 16.2955L12.3438 15.669L11.8213 16.5217L12.8436 17.1481C13.1419 17.3309 13.4792 17.4405 13.828 17.4679C14.1768 17.4954 14.5271 17.4398 14.8503 17.3059C15.1736 17.172 15.4605 16.9634 15.6876 16.6973C15.9148 16.4313 16.0758 16.1152 16.1573 15.775L16.3431 15H17.6575L17.8433 15.775C17.9249 16.1152 18.0858 16.4313 18.313 16.6973C18.5401 16.9634 18.8271 17.172 19.1503 17.3059C19.4735 17.4398 19.8238 17.4954 20.1726 17.468C20.5213 17.4406 20.8587 17.331 21.157 17.1482L21.8433 16.7277L22.7727 17.657L22.3522 18.3433C22.1694 18.6416 22.0598 18.9789 22.0324 19.3277C22.0049 19.6765 22.0605 20.0268 22.1944 20.35C22.3283 20.6733 22.5369 20.9602 22.803 21.1873C23.069 21.4145 23.3851 21.5755 23.7253 21.657L24.5003 21.8428V23.1572L23.7253 23.343C23.3851 23.4246 23.0691 23.5855 22.803 23.8127C22.5369 24.0398 22.3283 24.3267 22.1944 24.6499C22.0605 24.9732 22.0049 25.3235 22.0323 25.6722C22.0597 26.021 22.1693 26.3584 22.3521 26.6567L22.7726 27.343L21.8433 28.2724L21.157 27.8519C20.8587 27.6691 20.5214 27.5595 20.1726 27.5321C19.8238 27.5046 19.4735 27.5602 19.1503 27.6941C18.8271 27.828 18.5401 28.0366 18.313 28.3027C18.0858 28.5687 17.9248 28.8848 17.8433 29.225L17.6575 30H16.3431L16.1573 29.225C16.0757 28.8848 15.9148 28.5687 15.6876 28.3027C15.4605 28.0366 15.1736 27.828 14.8504 27.6941C14.5272 27.5602 14.1768 27.5046 13.8281 27.532C13.4793 27.5594 13.1419 27.669 12.8436 27.8518L11.8213 28.4783L12.3438 29.3309L13.3661 28.7045C13.5298 28.6041 13.715 28.544 13.9064 28.529C14.0979 28.5139 14.2901 28.5444 14.4675 28.6179C14.6449 28.6914 14.8024 28.8059 14.9271 28.9519C15.0518 29.098 15.1401 29.2715 15.1849 29.4582L15.4626 30.6166C15.4888 30.7258 15.551 30.8231 15.6392 30.8926C15.7275 30.9622 15.8365 31 15.9489 31H18.0518C18.1641 31 18.2732 30.9622 18.3614 30.8926C18.4496 30.8231 18.5118 30.7258 18.538 30.6166L18.8157 29.4583C18.8604 29.2715 18.9488 29.098 19.0735 28.952C19.1982 28.8059 19.3556 28.6915 19.533 28.6179C19.7104 28.5444 19.9027 28.5139 20.0942 28.529C20.2856 28.544 20.4708 28.6042 20.6345 28.7045L21.6569 29.331C21.7526 29.3897 21.8653 29.4144 21.9769 29.4012C22.0884 29.388 22.1922 29.3376 22.2717 29.2582L23.7585 27.7714C23.8379 27.6919 23.8882 27.5881 23.9014 27.4766C23.9146 27.365 23.8899 27.2523 23.8312 27.1566L23.2048 26.1342C23.1045 25.9705 23.0443 25.7853 23.0293 25.5939C23.0142 25.4025 23.0447 25.2102 23.1182 25.0328C23.1917 24.8554 23.3062 24.6979 23.4522 24.5732C23.5983 24.4486 23.7718 24.3602 23.9585 24.3154V24.3154Z" fill="#6A6D73"/>
<path d="M30.5 15H28.5V12.5C28.5 12.3674 28.4473 12.2402 28.3535 12.1465C28.2598 12.0527 28.1326 12 28 12H26C25.8674 12 25.7402 12.0527 25.6465 12.1465C25.5527 12.2402 25.5 12.3674 25.5 12.5V15H24V16H30V18H24.5V19H30V21H26.5V22H30V24H26.5V25H30V27H25V28H25.5V30.5C25.5 30.6326 25.5527 30.7598 25.6465 30.8535C25.7402 30.9473 25.8674 31 26 31H28C28.1326 31 28.2598 30.9473 28.3535 30.8535C28.4473 30.7598 28.5 30.6326 28.5 30.5V28H30.5C30.6326 28 30.7598 27.9473 30.8535 27.8535C30.9473 27.7598 31 27.6326 31 27.5V15.5C31 15.3674 30.9473 15.2402 30.8535 15.1465C30.7598 15.0527 30.6326 15 30.5 15ZM27.5 15H26.5V13H27.5V15ZM27.5 30H26.5V28H27.5V30Z" fill="#6A6D73"/>
<path d="M8.64258 15.3574L8.35742 16.3159C9.49212 16.6534 10 17.1537 10 17.4999C10 17.8104 9.60876 18.1772 8.97894 18.4572C8.19153 18.8071 7.13354 18.9999 6 18.9999C3.55823 18.9999 2 18.1115 2 17.4999C2 17.1537 2.50787 16.6534 3.64258 16.3159L3.35742 15.3574C1.85925 15.8031 1 16.584 1 17.4999V28.6428C1 29.3546 1.57788 29.985 2.62726 30.4181C3.53632 30.7933 4.73407 30.9999 6 30.9999C7.26593 30.9999 8.46368 30.7933 9.37274 30.4181C10.4221 29.985 11 29.3546 11 28.6428V17.4999C11 16.584 10.1407 15.8031 8.64258 15.3574ZM3 29.49C2.39229 29.2375 2 28.9055 2 28.6428V27.5359C2.31298 27.7381 2.64861 27.9028 3 28.0267V29.49ZM5.5 29.9877C4.99555 29.966 4.49379 29.9021 4 29.7967V28.3061C4.49443 28.4062 4.99599 28.4672 5.5 28.4884V29.9877ZM8 29.7967C7.50621 29.9021 7.00445 29.966 6.5 29.9877V28.4884C7.00401 28.4672 7.50557 28.4062 8 28.3061V29.7967ZM10 28.6428C10 28.9055 9.60771 29.2375 9 29.49V28.0267C9.35139 27.9028 9.68702 27.7381 10 27.5359V28.6428ZM10 25.9999C10 26.3104 9.60876 26.6772 8.97894 26.9572C8.19153 27.3071 7.13354 27.4999 6 27.4999C3.55823 27.4999 2 26.6115 2 25.9999V19.0359C2.89728 19.6296 4.32761 19.9999 6 19.9999C7.67239 19.9999 9.10272 19.6296 10 19.0359V25.9999Z" fill="#6A6D73"/>
<path d="M4 20.5H3V26H4V20.5Z" fill="#6A6D73"/>
<path d="M6.5 21H5.5V26.5H6.5V21Z" fill="#6A6D73"/>
<path d="M9 20.5H8V26H9V20.5Z" fill="#6A6D73"/>
<path d="M5.5 13.5C5.5 13.3674 5.55268 13.2402 5.64645 13.1464C5.74021 13.0527 5.86739 13 6 13C6.13261 13 6.25979 13.0527 6.35355 13.1464C6.44732 13.2402 6.5 13.3674 6.5 13.5V17.5H7.5V13.5C7.5 13.1022 7.34196 12.7206 7.06066 12.4393C6.77936 12.158 6.39782 12 6 12C5.60218 12 5.22064 12.158 4.93934 12.4393C4.65804 12.7206 4.5 13.1022 4.5 13.5V17.5H5.5V13.5Z" fill="#6A6D73"/>
<path d="M7 11H14.25L15.6 12.8C15.6466 12.8621 15.7069 12.9125 15.7764 12.9472C15.8458 12.9819 15.9224 13 16 13C16.0776 13 16.1542 12.9819 16.2236 12.9472C16.2931 12.9125 16.3534 12.8621 16.4 12.8L17.75 11H25C25.3977 10.9995 25.779 10.8414 26.0602 10.5602C26.3414 10.279 26.4995 9.89769 26.5 9.5V2.5C26.4995 2.10231 26.3414 1.72105 26.0602 1.43984C25.779 1.15864 25.3977 1.00045 25 1H7C6.60231 1.00045 6.22105 1.15864 5.93984 1.43984C5.65864 1.72105 5.50045 2.10231 5.5 2.5V9.5C5.50045 9.89769 5.65864 10.279 5.93984 10.5602C6.22105 10.8414 6.60231 10.9995 7 11ZM6.5 2.5C6.50015 2.36744 6.55288 2.24035 6.64661 2.14661C6.74035 2.05288 6.86744 2.00015 7 2H25C25.1326 2.00015 25.2597 2.05288 25.3534 2.14661C25.4471 2.24035 25.4998 2.36744 25.5 2.5V9.5C25.4998 9.63256 25.4471 9.75965 25.3534 9.85339C25.2597 9.94712 25.1326 9.99985 25 10H17.5C17.4224 10 17.3458 10.0181 17.2764 10.0528C17.2069 10.0875 17.1466 10.1379 17.1 10.2L16 11.6667L14.9 10.2C14.8534 10.1379 14.7931 10.0875 14.7236 10.0528C14.6542 10.0181 14.5776 10 14.5 10H7C6.86744 9.99985 6.74035 9.94712 6.64661 9.85339C6.55288 9.75965 6.50015 9.63256 6.5 9.5V2.5Z" fill="#6A6D73"/>
<path d="M11 9H13C13.7956 9 14.5587 8.68393 15.1213 8.12132C15.6839 7.55871 16 6.79565 16 6C16 5.20435 15.6839 4.44129 15.1213 3.87868C14.5587 3.31607 13.7956 3 13 3H11C10.2044 3 9.44129 3.31607 8.87868 3.87868C8.31607 4.44129 8 5.20435 8 6C8 6.79565 8.31607 7.55871 8.87868 8.12132C9.44129 8.68393 10.2044 9 11 9ZM14.9367 5.5H13.9575C13.8643 4.94862 13.6182 4.43444 13.2474 4.01585C13.6451 4.06604 14.0186 4.23426 14.3197 4.49882C14.6208 4.76337 14.8357 5.1121 14.9367 5.5ZM13.9575 6.5H14.9367C14.8357 6.8879 14.6208 7.23663 14.3197 7.50118C14.0186 7.76574 13.6451 7.93396 13.2474 7.98415C13.6182 7.56556 13.8643 7.05138 13.9575 6.5ZM11 4C11.3956 4 11.7822 4.1173 12.1111 4.33706C12.44 4.55682 12.6964 4.86918 12.8478 5.23463C12.9991 5.60009 13.0387 6.00222 12.9616 6.39018C12.8844 6.77814 12.6939 7.13451 12.4142 7.41421C12.1345 7.69392 11.7781 7.8844 11.3902 7.96157C11.0022 8.03874 10.6001 7.99913 10.2346 7.84776C9.86918 7.69638 9.55682 7.44004 9.33706 7.11114C9.1173 6.78224 9 6.39556 9 6C9.00061 5.46975 9.21151 4.9614 9.58646 4.58646C9.9614 4.21151 10.4698 4.00061 11 4Z" fill="#6A6D73"/>
<path d="M20.0001 6.20709L20.6465 6.85358C20.7403 6.94731 20.8675 6.99997 21.0001 6.99997C21.1327 6.99997 21.2598 6.94731 21.3536 6.85358L23.5001 4.70715V6H24.5001V3.5C24.5001 3.36739 24.4474 3.24022 24.3536 3.14645C24.2598 3.05269 24.1327 3.00001 24.0001 3H21.5001V4H22.7929L21.0001 5.79291L20.3536 5.14642C20.2598 5.05269 20.1327 5.00003 20.0001 5.00003C19.8675 5.00003 19.7403 5.05269 19.6465 5.14642L16.6465 8.14642L17.3536 8.85358L20.0001 6.20709Z" fill="#6A6D73"/>
</svg>
