<svg width="32" height="32" viewBox="0 0 32 32" fill="none" xmlns="http://www.w3.org/2000/svg">
<path d="M0.74975 5.18725H0.6875C0.307813 5.18725 0 4.87944 0 4.49975V0.6875C0 0.307813 0.307813 0 0.6875 0H4.49975C4.87944 0 5.18725 0.307813 5.18725 0.6875V0.74975C5.18725 3.19663 3.19663 5.18725 0.74975 5.18725ZM1.375 1.375V3.74813C2.563 3.50075 3.50075 2.563 3.74813 1.375H1.375Z" fill="#CC0041"/>
<path d="M4.49975 14.7175H0.6875C0.307813 14.7175 0 14.4096 0 14.03V10.2178C0 9.83809 0.307813 9.53027 0.6875 9.53027H0.74975C3.19656 9.53027 5.18725 11.521 5.18725 13.9678V14.03C5.18725 14.4097 4.87944 14.7175 4.49975 14.7175ZM1.375 13.3425H3.74813C3.50075 12.1545 2.563 11.2168 1.375 10.9694V13.3425Z" fill="#CC0041"/>
<path d="M23.5613 5.18725H23.499C21.0522 5.18725 19.0615 3.19656 19.0615 0.74975V0.6875C19.0615 0.307813 19.3693 0 19.749 0H23.5613C23.941 0 24.2488 0.307813 24.2488 0.6875V4.49975C24.2488 4.87944 23.941 5.18725 23.5613 5.18725ZM20.5006 1.375C20.748 2.563 21.6858 3.50075 22.8738 3.74813V1.375H20.5006Z" fill="#CC0041"/>
<path d="M23.5603 14.7175H19.748C19.3684 14.7175 19.0605 14.4097 19.0605 14.03V13.9678C19.0605 11.521 21.0512 9.53027 23.498 9.53027H23.5603C23.94 9.53027 24.2478 9.83809 24.2478 10.2178V14.03C24.2478 14.4098 23.94 14.7175 23.5603 14.7175ZM20.4997 13.3425H22.8728V10.9695C21.6848 11.2168 20.747 12.1546 20.4997 13.3425Z" fill="#CC0041"/>
<path d="M12.1248 10.9059C10.1692 10.9059 8.57812 9.31481 8.57812 7.35919C8.57812 5.40356 10.1692 3.8125 12.1248 3.8125C14.0804 3.8125 15.6715 5.40356 15.6715 7.35919C15.6715 9.31481 14.0804 10.9059 12.1248 10.9059ZM12.1248 5.1875C10.9274 5.1875 9.95312 6.16169 9.95312 7.35919C9.95312 8.55669 10.9274 9.53087 12.1248 9.53087C13.3222 9.53087 14.2965 8.55669 14.2965 7.35919C14.2965 6.16175 13.3222 5.1875 12.1248 5.1875Z" fill="#CC0041"/>
<path d="M28.1359 25.6466H24.959C24.5793 25.6466 24.2715 25.3388 24.2715 24.9591V21.7822C24.2715 21.4025 24.5793 21.0947 24.959 21.0947C25.3387 21.0947 25.6465 21.4025 25.6465 21.7822V24.2716H28.1359C28.5155 24.2716 28.8234 24.5794 28.8234 24.9591C28.8234 25.3388 28.5155 25.6466 28.1359 25.6466Z" fill="#CC0041"/>
<path d="M24.9587 17.9176C24.7191 17.9176 24.4821 17.9297 24.2485 17.9532V17.8426V14.0303V0.6875C24.2485 0.307813 23.9407 0 23.561 0H0.6875C0.307813 0 0 0.307813 0 0.6875V14.0303V17.8426V21.6548C0 22.0345 0.307813 22.3423 0.6875 22.3423H18.4219C18.0968 23.1516 17.9176 24.0346 17.9176 24.9587C17.9176 28.8413 21.0763 32 24.9587 32C28.8413 32 32 28.8413 32 24.9587C32 21.0762 28.8413 17.9176 24.9587 17.9176ZM1.375 14.7178H22.8735V17.1551H1.375V14.7178ZM1.375 1.375H22.8735V13.3428H1.375V1.375ZM1.375 20.9673V18.5301H22.0875C20.9034 19.061 19.8918 19.9099 19.1616 20.9673H1.375ZM24.9587 30.625C21.8344 30.625 19.2926 28.0831 19.2926 24.9587C19.2926 21.8344 21.8344 19.2925 24.9587 19.2925C28.0831 19.2925 30.625 21.8344 30.625 24.9587C30.625 28.0831 28.0831 30.625 24.9587 30.625Z" fill="#0120C6"/>
</svg>
