<svg width="78" height="20" viewBox="0 0 78 20" fill="none" xmlns="http://www.w3.org/2000/svg">
<g clip-path="url(#clip0_607_1096)">
<path fillRule="evenodd" clip-rule="evenodd" d="M74.6909 1.8501H75.9455L74.0364 4.57667C76.3858 5.46837 78.0263 7.81553 77.8074 10.4858C77.5581 13.5224 74.9111 15.8193 71.8322 15.8193H67.2446L68.792 13.6122H72.9815C73.3057 13.6122 73.6069 13.441 73.7691 13.1621L75.3466 10.4571C75.5087 10.1794 75.5087 9.83711 75.3466 9.55943L73.7691 6.8544C73.6069 6.57552 73.3069 6.40436 72.9815 6.40436H69.4283L70.355 5.08536L71.445 3.53775C72.2 2.44855 73.3517 1.8501 74.6909 1.8501Z" fill="#CC0041"/>
<path fillRule="evenodd" clip-rule="evenodd" d="M66.4494 9.01511L66.7881 9.59083C66.9466 9.85894 66.9466 10.1665 66.7881 10.4287L66.4494 11.0104C66.297 11.2725 66.0308 11.4293 65.715 11.4293H65.0424C64.7315 11.4293 64.4665 11.2725 64.3081 11.0104L63.9693 10.4287C63.8169 10.1665 63.8169 9.85894 63.9693 9.59083L64.3081 9.01511C64.4665 8.747 64.7315 8.59619 65.0424 8.59619H65.715C66.032 8.59619 66.297 8.747 66.4494 9.01511Z" fill="#CC0041"/>
<path fillRule="evenodd" clip-rule="evenodd" d="M66.822 13.6134L65.8397 15.0162L64.8174 16.4776C64.077 17.5357 62.86 18.1677 61.5594 18.1677H60.3049L62.3265 15.2843C60.2008 14.3124 58.76 12.1173 58.9221 9.62767C59.1229 6.5516 61.7845 4.19727 64.9009 4.19727H69.0711L67.5177 6.40438H63.7734C63.4443 6.40438 63.1406 6.57793 62.9773 6.85921L61.407 9.55346C61.2425 9.83474 61.2425 10.1818 61.407 10.4631L62.9773 13.1574C63.1419 13.4387 63.4455 13.6134 63.7746 13.6134H66.822Z" fill="#CC0041"/>
<path fillRule="evenodd" clip-rule="evenodd" d="M50.343 5.23486C51.387 5.44313 52.3452 5.95541 53.1073 6.70228C54.1054 7.69572 54.6765 9.02071 54.6765 10.4247C54.6765 11.8275 54.1054 13.1525 53.1073 14.1399C52.0766 15.1597 50.6974 15.7246 49.2469 15.7246H46.641C45.1904 15.7246 43.8052 15.1597 42.7805 14.1399C41.7824 13.1525 41.2114 11.8275 41.2114 10.4247V5.12475C41.2114 4.12413 42.0389 3.30544 43.0503 3.30544H43.9952V10.4247C43.9952 11.1452 44.277 11.8347 44.7961 12.3469C45.2884 12.8341 45.9454 13.113 46.641 13.113H49.2469C49.9425 13.113 50.5994 12.8341 51.0918 12.3469C51.6108 11.8335 51.8927 11.1452 51.8927 10.4247C51.8927 8.96924 50.7301 7.73522 49.2469 7.72924L47.1987 7.72325H45.0586L47.5737 4.15764C48.0274 3.3593 48.3952 2.75485 48.867 2.39099C49.4187 1.95532 49.957 1.83203 51.0204 1.83203H52.7674L50.343 5.23486Z" fill="#6A6D73"/>
<path fillRule="evenodd" clip-rule="evenodd" d="M19.5052 18.168H22.0397C22.6627 18.168 23.2083 17.8819 23.5628 17.3685L25.8735 13.9848C26.6877 13.0428 27.1801 11.822 27.1801 10.4898C27.1801 7.52743 24.7581 5.12402 21.7638 5.12402C18.7696 5.12402 16.3403 7.52743 16.3403 10.4898C16.3403 13.2307 18.4284 15.4977 21.113 15.8101L19.5052 18.168ZM21.7638 7.82067C23.2543 7.82067 24.4617 9.01639 24.4617 10.4898C24.4617 11.9644 23.2543 13.1601 21.7638 13.1601C20.2734 13.1601 19.066 11.9644 19.066 10.4898C19.0648 9.01639 20.2734 7.82067 21.7638 7.82067Z" fill="#6A6D73"/>
<path fillRule="evenodd" clip-rule="evenodd" d="M1.51514 10.4249C1.51514 11.8277 2.08616 13.1527 3.08424 14.1402C4.11499 15.1599 5.49415 15.7249 6.9447 15.7249H12.3803H15.0987V5.125H14.2192C13.2078 5.125 12.3803 5.94369 12.3803 6.94431V13.1144H6.9447C6.24907 13.1144 5.59215 12.8355 5.09976 12.3484C4.58076 11.8349 4.29888 11.1467 4.29888 10.4261V10.4202C4.29888 9.69243 4.58802 9.0042 5.09976 8.49073C5.59215 8.00957 6.24907 7.73068 6.9447 7.73068V7.43146C6.82614 6.47033 6.15712 5.98917 5.36954 5.89821C2.97294 5.63129 1.51514 8.39258 1.51514 10.419V10.4249Z" fill="#6A6D73"/>
<path fillRule="evenodd" clip-rule="evenodd" d="M34.4997 15.5561C35.1954 15.5561 35.8523 15.2772 36.3447 14.796C36.8564 14.2825 37.1456 13.5943 37.1456 12.8666V9.39792C37.1456 8.91078 37.3101 8.4368 37.6307 8.11124C37.9658 7.76653 38.3723 7.57861 38.884 7.57861H39.9281V12.8654C39.9281 14.8918 38.4703 17.6531 36.0737 17.3861C35.2861 17.2952 34.6159 16.814 34.4985 15.8529V15.5561H34.4997Z" fill="#6A6D73"/>
<path fillRule="evenodd" clip-rule="evenodd" d="M30.5866 5.125C31.9525 5.18365 33.2458 5.74261 34.2172 6.70373C35.2153 7.69717 35.7863 9.02216 35.7863 10.4261C35.7863 11.8289 35.2153 13.1539 34.2172 14.1414C33.1865 15.1611 31.8073 15.7261 30.3568 15.7261H26.1685L27.4811 13.8876C27.8356 13.3873 28.3679 13.1144 28.9849 13.1144H30.3568C31.0524 13.1144 31.7093 12.8355 32.2017 12.3484C32.7207 11.8349 33.0026 11.1467 33.0026 10.4261C33.0026 9.69841 32.7207 9.01019 32.2017 8.49671C31.7093 8.01555 31.0524 7.73068 30.3568 7.73068H28.934C28.934 7.73068 28.8808 7.67204 28.8167 7.52003C28.7695 7.40752 28.6885 7.12863 28.6836 6.92276C28.6788 6.68937 28.726 6.46913 28.7574 6.37338C28.8482 6.09689 29.0066 5.84913 29.2341 5.63249C29.6152 5.27461 30.0688 5.10585 30.5866 5.125Z" fill="#6A6D73"/>
<path fillRule="evenodd" clip-rule="evenodd" d="M72.4705 9.01511L72.8032 9.59083C72.9617 9.85894 72.9617 10.1665 72.8032 10.4287L72.4705 11.0104C72.312 11.2725 72.0471 11.4293 71.7362 11.4293H71.0587C70.7478 11.4293 70.4828 11.2725 70.3243 11.0104L69.9904 10.4287C69.832 10.1665 69.832 9.85894 69.9904 9.59083L70.3243 9.01511C70.4828 8.747 70.7478 8.59619 71.0587 8.59619H71.7362C72.0471 8.59619 72.312 8.747 72.4705 9.01511Z" fill="#CC0041"/>
<path fillRule="evenodd" clip-rule="evenodd" d="M10.7539 5.53549L11.0164 5.98313C11.193 6.29553 11.193 6.64503 11.0164 6.95742L10.7539 7.40507C10.57 7.71626 10.2615 7.89221 9.90096 7.89221H9.37591C9.01539 7.89221 8.69963 7.71626 8.523 7.40507L8.26048 6.95742C8.07659 6.64503 8.07659 6.29553 8.26048 5.98313L8.523 5.53549C8.70084 5.22309 9.01539 5.04834 9.37591 5.04834H9.90096C10.2615 5.04834 10.57 5.22309 10.7539 5.53549Z" fill="#6A6D73"/>
</g>
<defs>
<clipPath id="clip0_607_1096">
<rect width="77" height="19" fill="white" transform="translate(0.752441 0.5)"/>
</clipPath>
</defs>
</svg>
