<?xml version="1.0" encoding="utf-8"?>
<!-- Generator: Adobe Illustrator 26.5.0, SVG Export Plug-In . SVG Version: 6.00 Build 0)  -->
<svg version="1.1" id="Layer_1" xmlns="http://www.w3.org/2000/svg" xmlns:xlink="http://www.w3.org/1999/xlink" x="0px" y="0px"
	 viewBox="0 0 24 24" style="enable-background:new 0 0 24 24;" xml:space="preserve">
<style type="text/css">
	.st0{fill:#CC0041;}
	.st1{fill:#0120C6;}
</style>
<path class="st0" d="M4.3,9.7c-0.1,0-0.3,0-0.3-0.1L3,8.8C2.8,8.6,2.8,8.3,3,8.1c0.2-0.2,0.5-0.2,0.7,0l0.5,0.5l1.4-1.6
	c0.2-0.2,0.5-0.2,0.7,0c0.2,0.2,0.2,0.5,0,0.7l-1.8,2C4.6,9.7,4.4,9.7,4.3,9.7C4.3,9.7,4.3,9.7,4.3,9.7z"/>
<path class="st0" d="M12.6,9.7H8.5C8.2,9.7,8,9.5,8,9.2c0-0.3,0.2-0.5,0.5-0.5h4.1c0.3,0,0.5,0.2,0.5,0.5
	C13.1,9.5,12.9,9.7,12.6,9.7z"/>
<path class="st0" d="M12.6,12.7H3.3c-0.3,0-0.5-0.2-0.5-0.5c0-0.3,0.2-0.5,0.5-0.5h9.2c0.3,0,0.5,0.2,0.5,0.5
	C13.1,12.4,12.9,12.7,12.6,12.7z"/>
<path class="st0" d="M4.3,17.9c-0.1,0-0.3,0-0.3-0.1L3,17c-0.2-0.2-0.2-0.5,0-0.7c0.2-0.2,0.5-0.2,0.7,0l0.5,0.5L5.7,15
	c0.2-0.2,0.5-0.2,0.7,0c0.2,0.2,0.2,0.5,0,0.7l-1.8,2C4.6,17.8,4.4,17.9,4.3,17.9C4.3,17.9,4.3,17.9,4.3,17.9z"/>
<path class="st0" d="M12.8,17.9H8.5c-0.3,0-0.5-0.2-0.5-0.5c0-0.3,0.2-0.5,0.5-0.5h4.2c0.3,0,0.5,0.2,0.5,0.5
	C13.3,17.7,13,17.9,12.8,17.9z"/>
<path class="st0" d="M12.6,20.8H3.3c-0.3,0-0.5-0.2-0.5-0.5c0-0.3,0.2-0.5,0.5-0.5h9.2c0.3,0,0.5,0.2,0.5,0.5
	C13.1,20.6,12.9,20.8,12.6,20.8z"/>
<path class="st1" d="M22.4,0H8.8c0,0-0.2,0-0.4,0.1C8.3,0.1,8.1,0,8,0C7,0,6.2,0.7,5.9,1.6H5C4.6,1.6,4.2,2,4.2,2.4v0.1H1.5
	C0.7,2.6,0,3.2,0,4v18.5C0,23.3,0.7,24,1.5,24h13c0.7,0,1.3-0.5,1.4-1.2h6.7c0.1,0,0.1,0,0.2,0c0.7-0.1,1.3-0.8,1.3-1.5V1.5
	C24,0.7,23.3,0,22.4,0z M6.4,2.7c0.3,0,0.5-0.2,0.5-0.5c0-0.6,0.5-1.1,1.1-1.1c0.6,0,1.1,0.5,1.1,1.1c0,0.3,0.2,0.5,0.5,0.5h1.1v1.2
	H5.2V2.7H6.4z M14.9,22.5c0,0.2-0.2,0.4-0.4,0.4h-13c-0.2,0-0.4-0.2-0.4-0.4V4c0-0.2,0.2-0.4,0.4-0.4h2.7V4c0,0.5,0.4,0.9,0.9,0.9
	h5.7c0.5,0,0.9-0.4,0.9-0.9V3.6h2.7c0.2,0,0.4,0.2,0.4,0.4L14.9,22.5L14.9,22.5z M22.9,21.2c0,0.3-0.2,0.5-0.5,0.5c0,0,0,0,0,0h-6.6
	V4c0-0.8-0.7-1.5-1.5-1.5h-2.7V2.4c0-0.5-0.4-0.8-0.8-0.8H10C10,1.4,9.9,1.2,9.8,1h12.7c0.3,0,0.5,0.2,0.5,0.5V21.2z"/>
</svg>
