<?xml version="1.0" encoding="utf-8"?>
<!-- Generator: Adobe Illustrator 26.5.0, SVG Export Plug-In . SVG Version: 6.00 Build 0)  -->
<svg version="1.1" id="Capa_1" xmlns="http://www.w3.org/2000/svg" xmlns:xlink="http://www.w3.org/1999/xlink" x="0px" y="0px"
	 viewBox="0 0 489.8 489.8" style="enable-background:new 0 0 489.8 489.8;" xml:space="preserve">
<style type="text/css">
	.st0{fill:#0120C6;}
	.st1{fill:#CC0041;}
</style>
<g>
	<g>
		<path class="st0" d="M208.8,377.6c6.8,0,12.3-5.5,12.3-12.3s-5.5-12.3-12.3-12.3h-159c-13.9,0-25.3-11.3-25.3-25.3V102.4
			c0-2.3,0.5-4.5,1.1-6.6L199.7,247c2.3,2,5.2,3,8,3c2.9,0,5.7-1,8-3L391.4,94.5c1,2.5,1.6,5.1,1.6,7.9v170.3
			c0,6.8,5.5,12.3,12.3,12.3s12.3-5.5,12.3-12.3V102.4c0-25.3-20.6-45.9-45.9-45.9H45.9c-11.5,0-22,4.3-30,11.3
			c-0.2,0.2-0.4,0.4-0.7,0.6C5.9,76.8,0,88.9,0,102.4v225.5c0,27.4,22.3,49.8,49.8,49.8L208.8,377.6L208.8,377.6z M207.8,221.4
			L45.9,80.9h323.7L207.8,221.4z"/>
	</g>
</g>
<g>
	<g>
		<path class="st1" d="M426.2,342.4c1-1.9,1-4.2,0-6c-18.7-34.5-55.2-57.9-97.2-57.9s-78.5,23.4-97.2,57.9c-1,1.9-1,4.2,0,6
			c18.7,34.5,55.2,57.9,97.2,57.9S407.5,376.9,426.2,342.4z M329,386.1c-25.8,0-46.7-20.9-46.7-46.7c0-25.8,20.9-46.7,46.7-46.7
			s46.7,20.9,46.7,46.7S354.8,386.1,329,386.1z"/>
		<path d="M329,315.6c-2,0-3.9,0.2-5.7,0.7c1.9,2.2,3,5,3,8.1c0,6.8-5.5,12.4-12.4,12.4c-3.1,0-5.9-1.1-8.1-3
			c-0.4,1.8-0.7,3.7-0.7,5.7c0,13.1,10.7,23.8,23.8,23.8s23.8-10.7,23.8-23.8S342.1,315.6,329,315.6z"/>
	</g>
</g>
</svg>
