<svg width="30" height="30" viewBox="0 0 30 30" fill="none" xmlns="http://www.w3.org/2000/svg">
<path d="M14.1984 10.5253C15.8986 10.5253 17.2818 9.13904 17.2818 7.43495C17.1125 3.33509 11.2837 3.33626 11.115 7.43495C11.115 9.13898 12.4982 10.5253 14.1984 10.5253ZM14.1984 5.63616C15.188 5.63616 15.9931 6.44308 15.9931 7.43495C15.8946 9.82121 12.5019 9.8205 12.4037 7.43495C12.4037 6.44308 13.2088 5.63616 14.1984 5.63616Z" fill="#CC0041"/>
<path d="M17.6659 22.647H16.8976C16.8935 22.5773 16.9055 13.0736 16.8934 13.01C16.8691 12.7737 16.7106 12.5676 16.4948 12.4811L16.4949 12.483C16.4203 12.4526 16.3388 12.4356 16.2532 12.4356H10.9022C10.0482 12.4691 10.0468 13.693 10.9022 13.7272H11.6277V22.647H10.7309C10.3751 22.647 10.0866 22.9361 10.0866 23.2928C10.0866 23.6494 10.3751 23.9386 10.7309 23.9386H17.6659C18.5184 23.9057 18.5224 22.6817 17.6659 22.647ZM12.9164 13.7273H15.6088V22.647H12.9164V13.7273Z" fill="#CC0041"/>
<path d="M25.5894 30C25.3669 30 25.1598 29.8849 25.0421 29.6949C25.0421 29.6949 21.4461 23.8904 21.4391 23.8768C19.7021 20.8724 21.9526 16.9995 25.4195 17.0295C28.8703 16.9995 31.1235 20.842 29.4172 23.8456C29.4098 23.8618 26.1511 29.6708 26.1511 29.6708C26.0373 29.8739 25.8218 30.0001 25.5894 30ZM25.5619 28.0857C25.5619 28.0857 28.2597 23.2727 28.27 23.2548C28.5555 22.7574 28.7064 22.1906 28.7064 21.6155C28.7064 19.7989 27.2318 18.3211 25.4194 18.3211C23.6069 18.3211 22.1324 19.7989 22.1324 21.6155C22.1324 22.1926 22.2843 22.7614 22.5718 23.2602C22.5751 23.2657 25.5619 28.0857 25.5619 28.0857Z" fill="#CC0041"/>
<path d="M25.4194 23.3769C24.4499 23.3769 23.6612 22.5864 23.6612 21.6147C23.7578 19.277 27.0814 19.2778 27.1776 21.6147C27.1776 22.5864 26.3889 23.3769 25.4194 23.3769ZM25.4194 21.1443C25.1606 21.1443 24.95 21.3554 24.95 21.6148C24.9758 22.2389 25.8632 22.2387 25.8888 21.6148C25.8888 21.3553 25.6783 21.1443 25.4194 21.1443Z" fill="#CC0041"/>
<path d="M14.159 27.0875C-2.91147 26.3791 -2.90702 2.00024 14.159 1.29424C22.3554 1.18186 28.6754 9.2671 26.6751 17.2064C27.1019 17.3287 27.5032 17.5115 27.8695 17.7452C30.2348 8.89569 23.3182 -0.0921092 14.1589 0.00270936C6.55007 -0.154637 -0.155025 6.56427 0.00272879 14.191C-0.0394483 25.7507 13.2787 32.4975 22.5277 25.6375L21.845 24.5361C19.6315 26.2066 16.9865 27.0875 14.159 27.0875Z" fill="#0120C6"/>
</svg>
