<?xml version="1.0" encoding="utf-8"?>
<!-- Generator: Adobe Illustrator 26.5.0, SVG Export Plug-In . SVG Version: 6.00 Build 0)  -->
<svg version="1.1" id="Capa_1" xmlns="http://www.w3.org/2000/svg" xmlns:xlink="http://www.w3.org/1999/xlink" x="0px" y="0px"
	 viewBox="0 0 442 442" style="enable-background:new 0 0 442 442;" xml:space="preserve">
<style type="text/css">
	.st0{fill:#CC0041;}
</style>
<g>
	<g>
		<path class="st0" d="M221,341.3c-49.7,0-103.2-19.4-154.7-56.2C27.8,257.6,4,230.4,3.1,229.2c-4.1-4.7-4.1-11.7,0-16.4
			c1-1.1,24.8-28.4,63.3-55.9c51.5-36.8,105-56.2,154.7-56.2c49.7,0,103.2,19.4,154.7,56.2c38.5,27.5,62.3,54.7,63.3,55.9
			c4.1,4.7,4.1,11.7,0,16.4c-1,1.1-24.8,28.4-63.3,55.9C324.2,321.9,270.7,341.3,221,341.3z M29.6,221c9.6,9.8,27.7,27,51.7,44.1
			c32.8,23.4,83.7,51.2,139.7,51.2s106.9-27.9,139.7-51.2c23.9-17,42.1-34.3,51.7-44.1c-9.6-9.8-27.7-27-51.7-44.1
			c-32.8-23.4-83.7-51.2-139.7-51.2s-106.9,27.9-139.7,51.2C57.4,194,39.2,211.2,29.6,221z"/>
	</g>
	<g>
		<path class="st0" d="M221,298.5c-42.7,0-77.5-34.8-77.5-77.5s34.8-77.5,77.5-77.5c18.8,0,36.9,6.8,51,19.2
			c5.2,4.5,5.7,12.4,1.2,17.6s-12.4,5.7-17.6,1.2c-9.6-8.4-21.8-13-34.6-13c-28.9,0-52.5,23.6-52.5,52.5s23.6,52.5,52.5,52.5
			c28.9,0,52.5-23.6,52.5-52.5c0-6.9,5.6-12.5,12.5-12.5s12.5,5.6,12.5,12.5C298.5,263.8,263.8,298.5,221,298.5z"/>
	</g>
	<g>
		<path class="st0" d="M221,246c-13.8,0-25-11.2-25-25s11.2-25,25-25c13.8,0,25,11.2,25,25S234.8,246,221,246z"/>
	</g>
</g>
</svg>
