<svg width="25" height="24" viewBox="0 0 25 24" fill="none" xmlns="http://www.w3.org/2000/svg">
<g clip-path="url(#clip0_633_1976)">
<path d="M22.2331 16.214C22.0989 16.214 21.967 16.1616 21.8684 16.063L18.1264 12.321H16.3935V11.2898H18.34C18.4767 11.2898 18.6079 11.3441 18.7046 11.4408L21.7173 14.4536V11.8054C21.7173 11.5206 21.9482 11.2898 22.233 11.2898H23.4692V1.03125H9.12305V7.91236H8.0918V0.515625C8.0918 0.230859 8.32266 0 8.60742 0H23.9848C24.2696 0 24.5004 0.230859 24.5004 0.515625V11.8054C24.5004 12.0901 24.2696 12.321 23.9848 12.321H22.7486V15.6984C22.7486 15.9069 22.623 16.095 22.4303 16.1748C22.3665 16.2012 22.2995 16.214 22.2331 16.214Z" fill="#CC0041"/>
<path d="M8.6084 14.3183C8.32363 14.3183 8.09277 14.0874 8.09277 13.8026C8.09277 13.5179 8.32363 13.2861 8.6084 13.2861C8.89316 13.2861 9.12402 13.5161 9.12402 13.8009V13.8026C9.12402 14.0874 8.89316 14.3183 8.6084 14.3183Z" fill="#CC0041"/>
<path d="M12.501 14.3183C12.2162 14.3183 11.9854 14.0874 11.9854 13.8026C11.9854 13.5179 12.2162 13.2861 12.501 13.2861C12.7857 13.2861 13.0166 13.5161 13.0166 13.8009V13.8026C13.0166 14.0874 12.7857 14.3183 12.501 14.3183Z" fill="#CC0041"/>
<path d="M4.71484 14.3183C4.43008 14.3183 4.19922 14.0874 4.19922 13.8026C4.19922 13.5179 4.43008 13.2861 4.71484 13.2861C4.99961 13.2861 5.23047 13.5161 5.23047 13.8009V13.8026C5.23047 14.0874 4.99961 14.3183 4.71484 14.3183Z" fill="#CC0041"/>
<path d="M2.76734 23.9998C2.70092 23.9998 2.63394 23.9869 2.57014 23.9605C2.37748 23.8806 2.25186 23.6927 2.25186 23.4841V20.1067H1.01562C0.730859 20.1067 0.5 19.8758 0.5 19.5911V7.91211C0.5 7.62734 0.730859 7.39648 1.01562 7.39648H16.3931C16.6778 7.39648 16.9087 7.62734 16.9087 7.91211V19.5911C16.9087 19.8759 16.6778 20.1067 16.3931 20.1067H6.87411L3.13212 23.8487C3.03345 23.9473 2.90159 23.9998 2.76734 23.9998ZM1.53125 19.0755H2.76748C3.05225 19.0755 3.28311 19.3063 3.28311 19.5911V22.2393L6.29586 19.2265C6.39256 19.1299 6.52372 19.0755 6.66045 19.0755H15.8774V8.42773H1.53125V19.0755Z" fill="#0120C6"/>
</g>
<defs>
<clipPath id="clip0_633_1976">
<rect width="24" height="24" fill="white" transform="translate(0.5)"/>
</clipPath>
</defs>
</svg>
