<svg width="25" height="24" viewBox="0 0 25 24" fill="none" xmlns="http://www.w3.org/2000/svg">
<g clip-path="url(#clip0_633_6759)">
<path d="M17.3723 24C9.03169 23.9031 -1.41388 13.1906 0.830246 4.75612C1.28485 2.28342 5.66869 -1.98246 8.51912 1.04607C9.65243 2.24673 11.112 3.18175 11.0744 5.03839C11.0826 6.20966 10.5232 7.11525 9.67605 7.87378C8.7168 8.83308 8.62803 10.3589 9.46961 11.4229C10.5058 12.7343 11.7453 13.9737 13.0568 15.0102C14.1209 15.8517 15.6467 15.763 16.606 14.8037L16.9943 14.4155C17.6456 13.7642 18.5147 13.4054 19.4415 13.4054C21.2959 13.3666 22.2366 14.8302 23.4339 15.9607C26.4578 18.8368 22.2071 23.1783 19.7238 23.6496C18.9994 23.8836 18.2109 24 17.3723 24ZM6.15572 1.03056C4.42693 0.962694 2.12126 3.47176 1.84236 4.95558C0.0258391 11.8701 7.25711 19.8263 13.4782 22.1804C16.5068 23.2634 19.2844 23.4168 21.5712 21.4935C23.0957 20.1885 24.2723 18.2536 22.7048 16.6898C22.7048 16.6898 21.1596 15.1447 21.1596 15.1447C20.2604 14.2065 18.6223 14.2068 17.7233 15.1447C17.7233 15.1447 17.335 15.5329 17.335 15.5329C16.0059 16.8621 13.8916 16.9851 12.4172 15.819C11.7304 15.2758 11.0621 14.6803 10.4309 14.049C9.79931 13.4174 9.20378 12.7491 8.66084 12.0626C7.49477 10.5883 7.61779 8.47408 8.94696 7.14478L9.3352 6.75654C10.2733 5.85817 10.273 4.21875 9.3352 3.32029C9.33524 3.32029 7.78998 1.77507 7.78998 1.77507C7.29245 1.27749 6.75279 1.03056 6.15572 1.03056Z" fill="#0120C6"/>
<path d="M19.8162 9.55223C19.5783 9.55223 19.3645 9.3867 19.3126 9.14473C19.1029 8.16696 18.6183 7.27642 17.9112 6.5694C17.1935 5.85164 16.2886 5.364 15.2944 5.1592C15.0156 5.10174 14.8361 4.82912 14.8935 4.55027C14.951 4.27142 15.2236 4.09192 15.5024 4.14938C16.6946 4.39491 17.7796 4.97966 18.6402 5.8403C19.4881 6.68816 20.0692 7.756 20.3207 8.92853C20.3804 9.20687 20.2032 9.48099 19.9248 9.5407C19.8884 9.54848 19.852 9.55223 19.8162 9.55223Z" fill="#CC0041"/>
<path d="M22.7281 12.4487C22.6945 12.4487 22.6603 12.4454 22.6261 12.4385C22.347 12.3825 22.1661 12.1107 22.2221 11.8316C22.7591 9.15733 21.9282 6.40935 19.9995 4.48058C18.0673 2.54834 15.3147 1.7183 12.6364 2.2604C12.3573 2.31715 12.0854 2.13644 12.0289 1.85735C11.9724 1.57831 12.1529 1.3063 12.4319 1.24983C15.4499 0.638977 18.5514 1.57423 20.7286 3.75148C22.9018 5.9248 23.8381 9.02123 23.233 12.0345C23.1838 12.2794 22.9686 12.4487 22.7281 12.4487Z" fill="#CC0041"/>
</g>
<defs>
<clipPath id="clip0_633_6759">
<rect width="24" height="24" fill="white" transform="translate(0.5)"/>
</clipPath>
</defs>
</svg>
