<svg width="32" height="32" viewBox="0 0 32 32" fill="none" xmlns="http://www.w3.org/2000/svg">
<g clip-path="url(#clip0_634_178)">
<path d="M30.5497 26.0396C31.772 27.2603 31.772 29.2388 30.5497 30.4595C29.3275 31.6795 27.3437 31.6795 26.1213 30.4595L17.7471 21.3809L21.4386 17.6973L30.5497 26.0396Z" fill="#CC0041"/>
<path d="M19.5951 16.0088L21.4387 17.6975L17.7472 21.3811L16.0527 19.5444L19.5951 16.0088Z" fill="white"/>
<path d="M31.1729 4.45362L28.393 7.24976H26.6215L24.8913 5.46045V3.69238L27.6303 0.918213C27.0655 0.728272 26.4601 0.625 25.8307 0.625C21.972 0.625 19.2617 4.41236 20.4884 8.04664L15.1675 13.3579L15.1633 13.3535L6.85659 5.04419V3.27686L2.42875 0.625L0.657716 2.39258L3.31427 6.81177L5.08506 6.8125L13.3923 15.1216L13.396 15.1253L8.09338 20.4177C4.45884 19.1958 0.657227 21.8906 0.657227 25.7493C0.657227 26.3775 0.760456 26.9817 0.950769 27.5454L3.73061 24.7493H5.50214L7.29495 26.5386V28.3067L4.49333 31.0811C5.05816 31.271 5.66359 31.3743 6.29299 31.3743C10.1587 31.3743 12.8595 27.5798 11.6352 23.9524C14.2035 21.3892 21.4735 14.1333 24.0303 11.5815C24.5958 11.7717 25.2013 11.8748 25.8307 11.8748C28.9434 11.8748 31.4664 9.35669 31.4664 6.25C31.4664 5.62183 31.3632 5.01734 31.1729 4.45362Z" fill="white"/>
<path d="M21.7512 9.69727C21.4056 9.69727 21.125 9.97656 21.125 10.322C21.125 10.6672 21.4056 10.947 21.7512 10.947C22.0976 10.947 22.3774 10.6672 22.3774 10.322C22.3774 9.97656 22.0976 9.69727 21.7512 9.69727Z" fill="#0120C6"/>
<path d="M10.3733 21.0527C10.0269 21.0527 9.74707 21.3328 9.74707 21.6777C9.74707 22.0234 10.0269 22.3027 10.3733 22.3027C10.7189 22.3027 10.9995 22.0234 10.9995 21.6777C10.9995 21.3328 10.7189 21.0527 10.3733 21.0527Z" fill="#0120C6"/>
<path d="M31.3148 3.84503C31.1034 3.79596 30.8813 3.85968 30.7287 4.01349L28.1325 6.62506H26.8879L25.5178 5.20831V3.94879L28.0767 1.35675C28.2282 1.20343 28.2898 0.98297 28.2397 0.773253C28.1898 0.56378 28.0352 0.394835 27.8307 0.325987C27.1878 0.109679 26.5151 5.92949e-05 25.8309 5.92949e-05C23.7913 5.92949e-05 21.9383 0.949279 20.747 2.60431C19.632 4.15363 19.2883 6.05231 19.7808 7.86945L15.168 12.4732L7.48306 4.78571V3.27692C7.48306 3.05743 7.3676 2.85382 7.179 2.74103L2.75116 0.0891707C2.50459 -0.0585345 2.18927 -0.0197161 1.98624 0.183165L0.215203 1.9505C0.0121697 2.15338 -0.0267245 2.46808 0.121025 2.71417L2.77758 7.13336C2.89059 7.3216 3.09436 7.43659 3.31427 7.43683L4.82553 7.43732L12.5112 15.1248L7.91603 19.711C6.09534 19.2198 4.19196 19.5633 2.63888 20.6768C0.981592 21.8651 0.03125 23.7139 0.03125 25.7496C0.03125 26.4322 0.141084 27.1038 0.357816 27.7452C0.427043 27.9505 0.598031 28.1055 0.809381 28.1544C1.02098 28.2034 1.24284 28.1397 1.39573 27.9859L3.99162 25.3746H5.24309L6.66897 26.7977V28.0467L4.05253 30.6375C3.89842 30.7901 3.83458 31.0116 3.88375 31.2227C3.93267 31.4337 4.088 31.6043 4.29373 31.6734C4.93634 31.8897 5.60928 31.9993 6.29324 31.9993C8.33286 31.9993 10.1851 31.0506 11.3759 29.3966C12.4916 27.8465 12.8358 25.9471 12.3436 24.13L16.0342 20.4466L16.8796 21.3631L16.4916 21.7501C16.247 21.9942 16.247 22.39 16.4916 22.6341C16.7362 22.878 17.1325 22.878 17.3774 22.6341L17.7287 22.2835L25.6607 30.8826C25.6665 30.889 25.6726 30.8951 25.6788 30.9012C27.1465 32.366 29.5244 32.3665 30.9928 30.901C32.4571 29.4388 32.4571 27.0596 30.9928 25.5975C30.9865 25.5911 30.9799 25.585 30.9733 25.5789L22.3439 17.6776L22.6912 17.3309C22.9358 17.087 22.9358 16.6912 22.6912 16.4471C22.4466 16.2029 22.0503 16.2029 21.8055 16.4471L21.4202 16.8319L20.5002 15.9891L24.2086 12.2879C24.7358 12.4285 25.2798 12.4998 25.8309 12.4998C29.2839 12.4998 32.0929 9.69611 32.0929 6.25006C32.0929 5.5672 31.9831 4.89581 31.7663 4.25421C31.6971 4.04889 31.5261 3.89386 31.3148 3.84503ZM5.52856 6.37091C5.41114 6.25348 5.2519 6.19367 5.08556 6.19367L3.66921 6.19318L1.44661 2.48956L2.52611 1.41217L6.23061 3.63092V5.0445C6.23061 5.21002 6.29642 5.36871 6.41359 5.4859L14.2825 13.3572L13.3967 14.241L5.52856 6.37091ZM21.4574 18.5623L30.1161 26.4903C31.0834 27.4659 31.0804 29.0455 30.1071 30.0174C29.1315 30.991 27.5523 30.994 26.5728 30.026L18.6149 21.3988L21.4574 18.5623ZM20.5337 17.7164L17.7658 20.4783L16.9204 19.5618L19.6137 16.8736L20.5337 17.7164ZM25.8309 11.2498C25.2832 11.2498 24.7446 11.1622 24.2304 10.9893C24.0051 10.9139 23.7561 10.972 23.5878 11.1397C20.4483 14.273 13.6836 21.0242 11.1927 23.5106C11.0244 23.6785 10.9659 23.9271 11.042 24.1522C11.5626 25.6949 11.3135 27.3404 10.3585 28.6673C9.40625 29.9903 7.92435 30.7493 6.29324 30.7493C6.11002 30.7493 5.92778 30.7393 5.74725 30.72L7.73624 28.7503C7.85464 28.6331 7.92142 28.4735 7.92142 28.3067V26.5386C7.92142 26.3729 7.85537 26.2139 7.73795 26.0968L5.94514 24.3074C5.82773 24.1903 5.66848 24.1243 5.50239 24.1243H3.73086C3.56378 24.1243 3.4038 24.191 3.28614 24.3092L1.31281 26.2943C1.29324 26.1141 1.28345 25.9322 1.28345 25.7493C1.28345 24.1212 2.04373 22.6424 3.36956 21.692C4.69881 20.7388 6.34779 20.4901 7.89377 21.0098C8.11907 21.0858 8.36809 21.0274 8.53639 20.8594C8.57088 20.8253 20.9226 8.49738 20.9314 8.48859C21.0997 8.32062 21.158 8.07233 21.0821 7.84723C20.5613 6.30451 20.8099 4.65949 21.7641 3.33356C22.7172 2.00934 24.1993 1.25006 25.8307 1.25006C26.0195 1.25006 26.2071 1.26056 26.393 1.28107L24.4454 3.25397C24.3299 3.37091 24.2654 3.52838 24.2654 3.69244V5.46051C24.2654 5.62262 24.3282 5.77814 24.441 5.89459L26.1712 7.6839C26.2891 7.80597 26.4517 7.87482 26.6218 7.87482H28.3933C28.5601 7.87482 28.7201 7.80841 28.8378 7.69001L30.8111 5.70514C30.8307 5.88532 30.8404 6.0672 30.8404 6.25006C30.8404 9.0069 28.5931 11.2498 25.8309 11.2498Z" fill="#0120C6"/>
<path d="M19.5372 11.647L11.7009 19.468C11.4565 19.7119 11.4565 20.1077 11.7009 20.3518C11.9455 20.596 12.342 20.596 12.5866 20.3518L20.423 12.5308C20.6676 12.2869 20.6676 11.8911 20.423 11.647C20.1784 11.4028 19.7818 11.4028 19.5372 11.647Z" fill="#0120C6"/>
<path d="M27.4507 28.2504C27.6953 28.4938 28.0919 28.4938 28.3365 28.2489C28.5806 28.0046 28.5799 27.6088 28.335 27.3651L22.6904 21.7497C22.4456 21.506 22.0488 21.5067 21.8049 21.7511C21.5605 21.9958 21.5613 22.3913 21.8061 22.6349L27.4507 28.2504Z" fill="#0120C6"/>
</g>
<defs>
<clipPath id="clip0_634_178">
<rect width="32" height="32" fill="white"/>
</clipPath>
</defs>
</svg>
