<?xml version="1.0" encoding="utf-8"?>
<!-- Generator: Adobe Illustrator 26.5.0, SVG Export Plug-In . SVG Version: 6.00 Build 0)  -->
<svg version="1.1" id="Capa_1" xmlns="http://www.w3.org/2000/svg" xmlns:xlink="http://www.w3.org/1999/xlink" x="0px" y="0px"
	 viewBox="0 0 60 60" style="enable-background:new 0 0 60 60;" xml:space="preserve">
<style type="text/css">
	.st0{fill:#0120C6;}
	.st1{fill:#CC0041;}
</style>
<g>
	<path class="st0" d="M56.3,8H4.8c-2.3,0-4.2,1.9-4.2,4.2v35.6c0,2.3,1.9,4.2,4.2,4.2h51.6c2.3,0,4.2-1.9,4.2-4.2V12.2
		C60.5,9.9,58.6,8,56.3,8z M58.5,47.8c0,1.2-1,2.2-2.2,2.2H4.8c-1.2,0-2.2-1-2.2-2.2V12.2c0-1.2,1-2.2,2.2-2.2h51.6
		c1.2,0,2.2,1,2.2,2.2V47.8z"/>
	<path class="st1" d="M22.6,36.2L19,34.4V34c1.6-0.9,2.8-2.4,3.4-4.4c1-0.5,1.6-1.5,1.6-2.6v-1c0-0.9-0.4-1.8-1.2-2.3
		C22.2,19.9,19.6,18,15,18c-0.2,0-0.4,0-0.6,0c-1.2,0.1-2.4-0.2-3.2-0.7c-0.4-0.3-0.7-0.5-0.9-0.8c-0.4-0.6-1.4-0.6-1.8-0.1
		C8.2,16.6,8,17,8.1,17.3c0,0.4,0.1,0.8,0.2,1.3c0.2,1,0.2,1-0.1,1.6C8.1,20.4,8,20.7,7.8,21c-0.3,0.8-0.6,1.7-0.7,2.6
		C6.4,24.2,6,25.1,6,26v1c0,1.1,0.6,2.1,1.6,2.6c0.6,2,1.8,3.5,3.4,4.4v0.4l-3.8,1.9C5.9,37,5,38.4,5,40v1.3C5,42.1,5,44,15,44
		s10-1.9,10-2.7v-1.2C25,38.4,24.1,37,22.6,36.2z"/>
	<path class="st0" d="M30.5,23h10c0.6,0,1-0.4,1-1s-0.4-1-1-1h-10c-0.6,0-1,0.4-1,1S30,23,30.5,23z"/>
	<path class="st0" d="M44.5,23h1c0.6,0,1-0.4,1-1s-0.4-1-1-1h-1c-0.6,0-1,0.4-1,1S44,23,44.5,23z"/>
	<path class="st0" d="M31.5,38h-1c-0.6,0-1,0.4-1,1s0.4,1,1,1h1c0.6,0,1-0.4,1-1S32.1,38,31.5,38z"/>
	<path class="st0" d="M37.5,38h-2c-0.6,0-1,0.4-1,1s0.4,1,1,1h2c0.6,0,1-0.4,1-1S38.1,38,37.5,38z"/>
	<path class="st0" d="M42.5,38h-1c-0.6,0-1,0.4-1,1s0.4,1,1,1h1c0.6,0,1-0.4,1-1S43.1,38,42.5,38z"/>
	<path class="st0" d="M48.5,38h-2c-0.6,0-1,0.4-1,1s0.4,1,1,1h2c0.6,0,1-0.4,1-1S49.1,38,48.5,38z"/>
	<path class="st0" d="M51.8,38.3c-0.2,0.2-0.3,0.5-0.3,0.7s0.1,0.5,0.3,0.7c0.2,0.2,0.5,0.3,0.7,0.3s0.5-0.1,0.7-0.3
		c0.2-0.2,0.3-0.5,0.3-0.7s-0.1-0.5-0.3-0.7C52.9,37.9,52.2,37.9,51.8,38.3z"/>
	<path class="st0" d="M52.5,27h-22c-0.6,0-1,0.4-1,1s0.4,1,1,1h22c0.6,0,1-0.4,1-1S53.1,27,52.5,27z"/>
	<path class="st0" d="M52.5,33h-22c-0.6,0-1,0.4-1,1s0.4,1,1,1h22c0.6,0,1-0.4,1-1S53.1,33,52.5,33z"/>
</g>
</svg>
