<?xml version="1.0" encoding="utf-8"?>
<!-- Generator: Adobe Illustrator 26.5.0, SVG Export Plug-In . SVG Version: 6.00 Build 0)  -->
<svg version="1.1" id="Layer_1" xmlns="http://www.w3.org/2000/svg" xmlns:xlink="http://www.w3.org/1999/xlink" x="0px" y="0px"
	 viewBox="0 0 512 512" style="enable-background:new 0 0 512 512;" xml:space="preserve">
<style type="text/css">
	.st0{fill:#CC0041;}
	.st1{opacity:0.25;fill:#CC0041;}
	.st2{fill:#0120C6;}
</style>
<path class="st0" d="M126.5,262.8v-36.9c14.7,2.6,16.9,10.7,17.3,15.6c0.1,1.2,1.1,2.2,2.3,2.2h16.1c1.4,0,2.4-1.1,2.3-2.5
	c-1-20.2-14.9-33.3-38-36.2v-12.4c0-1.3-1-2.3-2.3-2.3H108c-1.3,0-2.3,1-2.3,2.3v12.4c-24.1,3-38.1,17-38.1,38.7s14,35.6,38.1,38.7
	v36.9c-14.7-2.6-16.9-10.7-17.3-15.6c-0.1-1.2-1.1-2.2-2.3-2.2H70c-1.4,0-2.4,1.1-2.3,2.5c1,20.2,14.9,33.3,38,36.2v12.4
	c0,1.3,1,2.3,2.3,2.3h16.1c1.3,0,2.3-1,2.3-2.3v-12.4c24.1-3,38.1-17,38.1-38.7C164.6,279.8,150.5,265.8,126.5,262.8z M105.7,261.3
	c-17.3-3-17.3-13.8-17.3-17.7c0-3.9,0-14.7,17.3-17.7C105.7,225.9,105.7,261.3,105.7,261.3z M126.5,319.2v-35.5
	c17.3,3,17.3,13.8,17.3,17.7C143.8,305.4,143.8,316.1,126.5,319.2z"/>
<rect x="235.7" y="260.5" class="st1" width="198.6" height="83.6"/>
<path class="st0" d="M354.7,215.4H231.8c-7.9,0-14.4-6.4-14.4-14.4s6.4-14.4,14.4-14.4h122.8c8,0,14.4,6.4,14.4,14.4
	S362.6,215.4,354.7,215.4z"/>
<rect x="434.3" y="41" class="st1" width="63.3" height="103.9"/>
<path class="st2" d="M497.6,159.3c8,0,14.4-6.4,14.4-14.4V41c0-7.9-6.4-14.4-14.4-14.4h-63.3l0,0l0,0c-8,0-14.4,6.4-14.4,14.4v88.6
	H14.4C6.4,129.6,0,136,0,144v257c0,7.9,6.4,14.4,14.4,14.4h233.3c7.9,0,14.4-6.4,14.4-14.4s-6.4-14.4-14.4-14.4H28.8V158.4h391.1
	v87.7H235.7c-7.9,0-14.4,6.4-14.4,14.4V344c0,7.9,6.4,14.4,14.4,14.4h184.2v28.2h-78.8c-8,0-14.4,6.4-14.4,14.4s6.4,14.4,14.4,14.4
	h78.8v25.3c0,3.9,1.6,7.7,4.5,10.4l31.7,30.2c2.8,2.7,6.4,4,9.9,4c3.6,0,7.2-1.3,9.9-4l31.7-30.2c2.8-2.7,4.5-6.5,4.5-10.4V214.9
	c0-7.9-6.4-14.4-14.4-14.4c-8,0-14.4,6.4-14.4,14.4v219.7l-17.3,16.5l-17.3-16.5V401c0,0,0,0,0,0c0,0,0,0,0,0v-57c0,0,0,0,0,0v-83.6
	v0V159.3L497.6,159.3L497.6,159.3L497.6,159.3z M483.2,55.4v74.2h-34.5V55.4H483.2z M250.1,329.7v-54.8h169.8v54.8H250.1z"/>
</svg>
