<svg width="25" height="24" viewBox="0 0 25 24" fill="none" xmlns="http://www.w3.org/2000/svg">
<path d="M12.4985 14.4618C10.0676 14.4618 8.08984 12.4841 8.08984 10.0532C8.08984 7.62223 10.0675 5.64453 12.4985 5.64453C14.9294 5.64453 16.9072 7.62223 16.9072 10.0532C16.9072 12.4841 14.9294 14.4618 12.4985 14.4618ZM12.4985 6.67583C10.6362 6.67583 9.12109 8.19092 9.12109 10.0532C9.12109 11.9155 10.6362 13.4306 12.4985 13.4306C14.3608 13.4306 15.8759 11.9155 15.8759 10.0532C15.8759 8.19092 14.3608 6.67583 12.4985 6.67583Z" fill="#6A6D73"/>
<path d="M19.3106 21.1245C18.252 18.3036 15.5155 16.4083 12.5014 16.4083C9.48719 16.4083 6.75077 18.3036 5.69209 21.1245L4.72656 20.7622C5.31409 19.1967 6.34984 17.8577 7.72183 16.8901C9.12536 15.9002 10.7781 15.377 12.5013 15.377C14.2246 15.377 15.8773 15.9002 17.2809 16.8901C18.6528 17.8577 19.6885 19.1967 20.2761 20.7622L19.3106 21.1245Z" fill="#6A6D73"/>
<path d="M12.5 24C5.771 24 0.5 18.729 0.5 12C0.5 5.27105 5.771 0 12.5 0C19.229 0 24.5 5.27105 24.5 12C24.5 18.729 19.229 24 12.5 24ZM12.5 1.03125C6.3493 1.03125 1.53125 5.8493 1.53125 12C1.53125 18.1507 6.3493 22.9688 12.5 22.9688C18.6507 22.9688 23.4688 18.1507 23.4688 12C23.4688 5.8493 18.6507 1.03125 12.5 1.03125Z" fill="#6A6D73"/>
</svg>
