<svg width="24" height="24" viewBox="0 0 24 24" fill="none" xmlns="http://www.w3.org/2000/svg">
<g clip-path="url(#clip0_671_12567)">
<path d="M14.8829 19.6633H4.8291C3.7694 19.6633 2.90723 18.8011 2.90723 17.7414V9.11719C2.90723 8.05748 3.7694 7.19531 4.8291 7.19531H14.8829C15.9426 7.19531 16.8048 8.05748 16.8048 9.11719V17.7414C16.8048 18.8011 15.9427 19.6633 14.8829 19.6633ZM4.8291 8.22656C4.33799 8.22656 3.93848 8.62608 3.93848 9.11719V17.7414C3.93848 18.2325 4.33799 18.632 4.8291 18.632H14.8829C15.3741 18.632 15.7736 18.2325 15.7736 17.7414V9.11719C15.7736 8.62608 15.3741 8.22656 14.8829 8.22656H4.8291Z" fill="#0120C6"/>
<path d="M19.9109 10.6518C19.0775 10.6518 18.3994 9.97378 18.3994 9.14034C18.3994 8.30695 19.0775 7.62891 19.9109 7.62891C20.7443 7.62891 21.4223 8.30695 21.4223 9.14034C21.4223 9.97378 20.7443 10.6518 19.9109 10.6518ZM19.9109 8.66016C19.6461 8.66016 19.4307 8.87559 19.4307 9.14034C19.4307 9.40514 19.6461 9.62058 19.9109 9.62058C20.1756 9.62058 20.3911 9.40514 20.3911 9.14034C20.3911 8.87555 20.1756 8.66016 19.9109 8.66016Z" fill="#CC0041"/>
<path d="M20.6249 13.2305H19.1953C18.9105 13.2305 18.6797 12.9996 18.6797 12.7148C18.6797 12.4301 18.9105 12.1992 19.1953 12.1992H20.6249C20.9097 12.1992 21.1405 12.4301 21.1405 12.7148C21.1405 12.9996 20.9097 13.2305 20.6249 13.2305Z" fill="#0120C6"/>
<path d="M20.6249 16.0898H19.1953C18.9105 16.0898 18.6797 15.859 18.6797 15.5742C18.6797 15.2895 18.9105 15.0586 19.1953 15.0586H20.6249C20.9097 15.0586 21.1405 15.2895 21.1405 15.5742C21.1405 15.859 20.9097 16.0898 20.6249 16.0898Z" fill="#0120C6"/>
<path d="M20.6249 18.9492H19.1953C18.9105 18.9492 18.6797 18.7184 18.6797 18.4336C18.6797 18.1488 18.9105 17.918 19.1953 17.918H20.6249C20.9097 17.918 21.1405 18.1488 21.1405 18.4336C21.1405 18.7184 20.9097 18.9492 20.6249 18.9492Z" fill="#0120C6"/>
<path d="M22.0781 4.33644H11.8056L15.2258 0.878235C15.426 0.675782 15.4242 0.349297 15.2218 0.149C15.0193 -0.0512028 14.6928 -0.0494215 14.4925 0.153032L10.5704 4.11884L6.64828 0.152985C6.44803 -0.0493747 6.12155 -0.0512497 5.91909 0.148953C5.71659 0.349203 5.71481 0.675688 5.91506 0.878188L9.33525 4.33639H1.92188C0.862172 4.33639 0 5.19856 0 6.25827V20.6485C0 21.7082 0.862172 22.5703 1.92188 22.5703H3.60722L3.05784 23.1197C2.85652 23.3211 2.85652 23.6476 3.05784 23.849C3.15853 23.9496 3.29048 24 3.42244 24C3.55439 24 3.68634 23.9496 3.78703 23.849L5.06559 22.5704H18.9819L20.2605 23.849C20.3612 23.9496 20.4931 24 20.6251 24C20.757 24 20.889 23.9496 20.9897 23.849C21.1911 23.6476 21.1911 23.3211 20.9897 23.1197L20.4403 22.5703H22.0781C23.1378 22.5703 24 21.7082 24 20.6485V6.25831C24 5.19856 23.1378 4.33644 22.0781 4.33644ZM22.9688 20.6485C22.9688 21.1396 22.5692 21.5391 22.0781 21.5391H1.92188C1.43077 21.5391 1.03125 21.1396 1.03125 20.6485V6.25831C1.03125 5.7672 1.43077 5.36769 1.92188 5.36769H22.0781C22.5692 5.36769 22.9688 5.7672 22.9688 6.25831V20.6485Z" fill="#0120C6"/>
</g>
<defs>
<clipPath id="clip0_671_12567">
<rect width="24" height="24" fill="white"/>
</clipPath>
</defs>
</svg>
