<svg width="24" height="25" viewBox="0 0 24 25" fill="none" xmlns="http://www.w3.org/2000/svg">
<path d="M12 3.1709C7.037 3.1709 3 7.2089 3 12.1709C3 17.1329 7.037 21.1709 12 21.1709C16.963 21.1709 21 17.1329 21 12.1709C21 7.2089 16.963 3.1709 12 3.1709ZM12 19.1709C8.141 19.1709 5 16.0309 5 12.1709C5 8.3109 8.141 5.1709 12 5.1709C15.859 5.1709 19 8.3109 19 12.1709C19 16.0309 15.859 19.1709 12 19.1709ZM12.707 12.1709L15.353 9.5249C15.4462 9.43088 15.4986 9.30382 15.4986 9.1714C15.4986 9.03898 15.4462 8.91192 15.353 8.8179C15.259 8.72465 15.1319 8.67233 14.9995 8.67233C14.8671 8.67233 14.74 8.72465 14.646 8.8179L12 11.4639L9.354 8.8169C9.2597 8.72582 9.1334 8.67542 9.0023 8.67656C8.8712 8.6777 8.74579 8.73029 8.65309 8.82299C8.56039 8.91569 8.5078 9.0411 8.50666 9.1722C8.50552 9.3033 8.55592 9.4296 8.647 9.5239L11.293 12.1709L8.647 14.8169C8.55311 14.9107 8.50032 15.0379 8.50022 15.1705C8.50013 15.3032 8.55275 15.4305 8.6465 15.5244C8.74025 15.6183 8.86747 15.6711 9.00015 15.6712C9.13283 15.6713 9.26011 15.6187 9.354 15.5249L12 12.8779L14.646 15.5239C14.6921 15.5717 14.7472 15.6099 14.8081 15.6362C14.8691 15.6625 14.9347 15.6763 15.0011 15.677C15.0675 15.6777 15.1333 15.6651 15.1948 15.6401C15.2563 15.615 15.3122 15.578 15.3592 15.5311C15.4062 15.4842 15.4434 15.4284 15.4686 15.367C15.4938 15.3056 15.5066 15.2398 15.5061 15.1734C15.5056 15.107 15.4919 15.0414 15.4658 14.9804C15.4397 14.9193 15.4017 14.8641 15.354 14.8179L12.707 12.1709Z" fill="#CC0041"/>
</svg>
