<svg width="40" height="40" viewBox="0 0 40 40" fill="none" xmlns="http://www.w3.org/2000/svg">
<circle cx="20" cy="20" r="20" fill="#0120C6" fill-opacity="0.8"/>
<g clip-path="url(#clip0_654_12822)">
<path d="M20 8.88867C17.7492 8.88867 15.918 10.7199 15.918 12.9707V19.9998C15.918 22.2507 17.7492 24.0819 20 24.0819C22.2509 24.0819 24.0821 22.2507 24.0821 19.9998V12.9707C24.0821 10.7199 22.2509 8.88867 20 8.88867ZM20 23.127C18.2757 23.127 16.8728 21.7241 16.8728 19.9998V15.2505H18.1977C18.4614 15.2505 18.6751 15.0367 18.6751 14.773C18.6751 14.5094 18.4614 14.2956 18.1977 14.2956H16.8728V12.9707C16.8728 11.2464 18.2757 9.84353 20 9.84353C21.7244 9.84353 23.1273 11.2464 23.1273 12.9707V14.2956H21.8024C21.5387 14.2956 21.325 14.5094 21.325 14.773C21.325 15.0367 21.5387 15.2505 21.8024 15.2505H23.1273V19.9998C23.1273 21.7241 21.7244 23.127 20 23.127Z" fill="white"/>
<path d="M27.2085 17.7207H12.7899C12.5263 17.7207 12.3125 17.9345 12.3125 18.1981V20.0004C12.3125 24.0785 15.5049 27.4244 19.5218 27.6719V30.1567H16.3946C16.1309 30.1567 15.9171 30.3704 15.9171 30.6341C15.9171 30.8978 16.1309 31.1115 16.3946 31.1115H23.6039C23.8675 31.1115 24.0813 30.8978 24.0813 30.6341C24.0813 30.3704 23.8675 30.1567 23.6039 30.1567H20.4766V27.6719C24.4935 27.4244 27.6859 24.0785 27.6859 20.0004V18.1981C27.6859 17.9344 27.4722 17.7207 27.2085 17.7207ZM26.7311 20.0004C26.7311 23.7124 23.7112 26.7322 19.9992 26.7322C16.2872 26.7322 13.2674 23.7124 13.2674 20.0004V18.6755H26.731V20.0004H26.7311Z" fill="white"/>
</g>
<defs>
<clipPath id="clip0_654_12822">
<rect width="22.2222" height="22.2222" fill="white" transform="translate(8.88867 8.88867)"/>
</clipPath>
</defs>
</svg>
