<?xml version="1.0" encoding="utf-8"?>
<!-- Generator: Adobe Illustrator 26.5.0, SVG Export Plug-In . SVG Version: 6.00 Build 0)  -->
<svg version="1.1" id="cash" xmlns="http://www.w3.org/2000/svg" xmlns:xlink="http://www.w3.org/1999/xlink" x="0px" y="0px"
	 viewBox="0 0 256 256" style="enable-background:new 0 0 256 256;" xml:space="preserve">
<style type="text/css">
	.st0{fill:#FFFFFF;}
	.st1{fill:#4CAF50;}
</style>
<path class="st0" d="M233.2,73H69.3c-8.9,0-16.1,7.2-16.1,16.1v7.6c0,0.3,0,0.5,0,0.8H45c-8.9,0-16.1,7.2-16.1,16.1v6.8h-7.5
	c-8.9,0-16.1,7.2-16.1,16.1V218c0,8.9,7.2,16.1,16.1,16.1h163.9c8.9,0,16.1-7.2,16.1-16.1v-6.8c0.1,0,0.1,0,0.2,0h7.3
	c8.9,0,16.1-7.2,16.1-16.1v-8.4c0.3,0,0.6,0,0.9,0h7.3c8.9,0,16.1-7.2,16.1-16.1V89.1C249.3,80.2,242.1,73,233.2,73z"/>
<g>
	<path class="st1" d="M208.9,107H45c-3.7,0-6.6,3-6.6,6.6v7.6h146c9.5,0,17.3,7.8,17.3,17.3v63.3h7.3c3.7,0,6.6-3,6.6-6.6v-81.5
		C215.5,110,212.6,107,208.9,107z"/>
</g>
<circle class="st1" cx="103.3" cy="177.4" r="24.6"/>
<path class="st1" d="M185.3,130H21.4c-3.7,0-6.6,3-6.6,6.6v81.5c0,3.7,3,6.6,6.6,6.6h163.9c3.7,0,6.6-3,6.6-6.6v-81.5
	C191.9,132.9,189,130,185.3,130z M152.9,211.5H51.5C51,197.8,41.1,186.6,28,184.2v-13.6c13.1-2.4,23-13.6,23.4-27.3h101.4
	c1.1,14.1,11.9,25.4,25.8,27.2v13.7C164.8,186.1,154,197.4,152.9,211.5z"/>
<g>
	<path class="st1" d="M233.2,82.5H69.3c-3.7,0-6.6,3-6.6,6.6v7.6h146c9.5,0,17.3,7.8,17.3,17.3v63.3h7.3c3.7,0,6.6-3,6.6-6.6V89.1
		C239.8,85.5,236.8,82.5,233.2,82.5z"/>
</g>
</svg>
