<?xml version="1.0" encoding="utf-8"?>
<!-- Generator: Adobe Illustrator 26.5.0, SVG Export Plug-In . SVG Version: 6.00 Build 0)  -->
<svg version="1.1" id="Layer_1" xmlns="http://www.w3.org/2000/svg" xmlns:xlink="http://www.w3.org/1999/xlink" x="0px" y="0px"
	 viewBox="0 0 512 512" style="enable-background:new 0 0 512 512;" xml:space="preserve">
<style type="text/css">
	.st0{fill:#0120C6;}
	.st1{fill:#CC0041;}
</style>
<g>
	<path class="st0" d="M410,512H18.8c-8.8,0-15.9-7.1-15.9-15.9V160.8c0-8.8,7.1-15.9,15.9-15.9s15.9,7.1,15.9,15.9v319.5H410
		c8.8,0,15.9,7.1,15.9,15.9S418.7,512,410,512z"/>
</g>
<g>
	
		<rect x="392.9" y="81.5" transform="matrix(0.5062 -0.8624 0.8624 0.5062 122.1227 436.5189)" class="st1" width="98.8" height="60.2"/>
	<path class="st1" d="M140.8,126.6h257.7l42.8-72.9l35,20.5c-5.2-33-34-58.4-68.4-58.4H85.4c38.1,0,69.3,31.2,69.3,69.3l0,0
		C154.7,100.7,149.5,115.1,140.8,126.6z"/>
</g>
<path class="st0" d="M508.6,80.3c-1.1-4.1-3.7-7.6-7.3-9.7l-10.9-6.4C480.8,27.1,446.7,0,407.8,0h-316c0,0-1.9,0-2.8,0
	C41.5,0,2.9,38.4,2.9,86c0,8.8,7.1,15.9,15.9,15.9S34.6,94.7,34.6,86c0-28.5,22-51.9,49.9-54.3c0.3,0,0.6,0,0.9,0
	c29.5,0,53.4,24,53.4,53.4c0,11.6-3.7,22.6-10.7,31.9c-3.6,4.8-4.2,11.2-1.5,16.6c2.7,5.4,8.2,8.8,14.2,8.8h230L249.1,349.9
	c-2.2,3.7-2.8,8.2-1.6,12.4l11.4,40c2,6.9,8.3,11.5,15.2,11.5c1.2,0,2.4-0.1,3.6-0.4l40.5-9.5c4.2-1,7.8-3.7,10-7.4l65.7-112v135.6
	c0,8.8,7.1,15.9,15.9,15.9c8.8,0,15.9-7.1,15.9-15.9V228.5c0-1.8-0.3-3.4-0.8-5c-0.9-4.1-3.5-7.9-7.4-10.2
	c-7.5-4.4-17.3-1.9-21.7,5.7l-91.4,155.7l-19.2,4.5l-5.4-18.9l117.1-199.4l38.3,22.5c2.5,1.4,5.2,2.2,8,2.2c1.3,0,2.7-0.2,4-0.5
	c4.1-1.1,7.6-3.7,9.7-7.3l50-85.2C509,88.7,509.6,84.4,508.6,80.3z M151.7,31.7h256.2c9.8,0,19.1,2.7,27.1,7.5
	c-0.1,0-0.1,0.1-0.2,0.1c-0.7,0.3-1.3,0.6-1.9,1c-0.1,0.1-0.2,0.1-0.3,0.2c-0.6,0.4-1.2,0.8-1.7,1.3c0,0-0.1,0.1-0.1,0.1
	c-0.5,0.5-1.1,1-1.5,1.6c-0.1,0.1-0.2,0.2-0.3,0.4c-0.5,0.6-0.9,1.2-1.3,1.9l-38.2,65H166.6c2.6-8.2,3.9-16.8,3.9-25.6
	C170.6,65,163.5,46.4,151.7,31.7z M437.6,147.8L413,133.3l34-57.8l24.6,14.4L437.6,147.8z"/>
<rect x="80" y="225" class="st1" width="213.3" height="26"/>
<rect x="80" y="275" class="st1" width="180" height="26"/>
<rect x="80" y="325" class="st1" width="154" height="26"/>
<rect x="80" y="375" class="st1" width="160" height="26"/>
<rect x="80" y="425" class="st1" width="213.3" height="26"/>
</svg>
