<svg width="128" height="61" viewBox="0 0 128 61" fill="none" xmlns="http://www.w3.org/2000/svg">
<path d="M84.1533 31.4637V16.8525" stroke="#333333" stroke-linecap="round" stroke-linejoin="round"/>
<path d="M84.1533 59.9999V34.5498" stroke="#333333" stroke-linecap="round" stroke-linejoin="round"/>
<path d="M69.624 55.376H84.1536" stroke="#333333" stroke-linecap="round" stroke-linejoin="round"/>
<path d="M81.4637 55.3764V27.689H72.3145V55.3764" stroke="#333333" stroke-linecap="round" stroke-linejoin="round"/>
<path d="M72.3145 37.019H81.4637" stroke="#333333" stroke-linecap="round" stroke-linejoin="round"/>
<path d="M72.3145 47.6289H81.4637" stroke="#333333" stroke-linecap="round" stroke-linejoin="round"/>
<path d="M76.897 27.689V55.3764" stroke="#333333" stroke-linecap="round" stroke-linejoin="round"/>
<path d="M73.6719 47.6287V27.0012C73.6724 26.2721 73.7562 25.5502 73.9186 24.8769C74.081 24.2036 74.3187 23.592 74.6182 23.077C74.9176 22.5621 75.273 22.1538 75.664 21.8756C76.0551 21.5974 76.474 21.4547 76.8971 21.4556C77.3201 21.4565 77.7389 21.601 78.1295 21.8808C78.5201 22.1607 78.8749 22.5705 79.1737 23.0867C79.4724 23.6029 79.7092 24.2155 79.8707 24.8895C80.0321 25.5635 80.1149 26.2857 80.1143 27.0149V47.6423" stroke="#333333" stroke-linecap="round" stroke-linejoin="round"/>
<path d="M76.897 27.689L79.3639 23.4517" stroke="#333333" stroke-linecap="round" stroke-linejoin="round"/>
<path d="M76.897 21.4419V27.6888" stroke="#333333" stroke-linecap="round" stroke-linejoin="round"/>
<path d="M76.8968 27.6889L74.4219 23.4229" stroke="#333333" stroke-linecap="round" stroke-linejoin="round"/>
<path d="M77.7344 49.6245H78.5092" stroke="#333333" stroke-linecap="round" stroke-linejoin="round"/>
<path d="M75.2598 49.6245H76.0267" stroke="#333333" stroke-linecap="round" stroke-linejoin="round"/>
<path d="M43.8535 46.0748V16.8525" stroke="#333333" stroke-linecap="round" stroke-linejoin="round"/>
<path d="M43.8535 59.9995V49.2124" stroke="#333333" stroke-linecap="round" stroke-linejoin="round"/>
<path d="M58.3831 55.376H43.8535" stroke="#333333" stroke-linecap="round" stroke-linejoin="round"/>
<path d="M46.5444 55.3764V27.689H55.6937V55.3764" stroke="#333333" stroke-linecap="round" stroke-linejoin="round"/>
<path d="M46.5444 37.019H55.6937" stroke="#333333" stroke-linecap="round" stroke-linejoin="round"/>
<path d="M46.5444 47.6289H55.6937" stroke="#333333" stroke-linecap="round" stroke-linejoin="round"/>
<path d="M51.1113 55.3764V27.689" stroke="#333333" stroke-linecap="round" stroke-linejoin="round"/>
<path d="M47.8936 47.6287V27.0012C47.893 26.2721 47.9758 25.5499 48.1372 24.8758C48.2986 24.2018 48.5355 23.5892 48.8342 23.073C49.133 22.5568 49.4878 22.147 49.8784 21.8672C50.269 21.5873 50.6878 21.4428 51.1108 21.4419C51.5339 21.441 51.9528 21.5837 52.3438 21.8619C52.7349 22.1402 53.0903 22.5484 53.3897 23.0634C53.6892 23.5783 53.9269 24.1899 54.0893 24.8632C54.2517 25.5366 54.3355 26.2584 54.336 26.9876V47.6287" stroke="#333333" stroke-linecap="round" stroke-linejoin="round"/>
<path d="M48.644 23.4517L51.111 27.689" stroke="#333333" stroke-linecap="round" stroke-linejoin="round"/>
<path d="M51.1109 27.6888L51.103 21.4419" stroke="#333333" stroke-linecap="round" stroke-linejoin="round"/>
<path d="M53.5862 23.4229L51.1113 27.6889" stroke="#333333" stroke-linecap="round" stroke-linejoin="round"/>
<path d="M49.498 49.6245H50.2729" stroke="#333333" stroke-linecap="round" stroke-linejoin="round"/>
<path d="M51.981 49.6245H52.7479" stroke="#333333" stroke-linecap="round" stroke-linejoin="round"/>
<path d="M59.7417 47.6282V26.822C59.7427 24.875 60.1925 23.0085 60.9919 21.6331C61.7913 20.2577 62.875 19.486 64.0045 19.4878C65.134 19.4896 66.2168 20.2648 67.0148 21.6428C67.8127 23.0207 68.2604 24.8887 68.2594 26.8356V47.6282" stroke="#333333" stroke-linecap="round" stroke-linejoin="round"/>
<path d="M64.0122 27.6887L67.2857 22.1294" stroke="#333333" stroke-linecap="round" stroke-linejoin="round"/>
<path d="M64.0201 19.4751L64.0122 27.6892" stroke="#333333" stroke-linecap="round" stroke-linejoin="round"/>
<path d="M64.0119 27.6887L60.7393 22.1021" stroke="#333333" stroke-linecap="round" stroke-linejoin="round"/>
<path d="M58.3838 59.9999V27.689H69.6241V59.9999" stroke="#333333" stroke-linecap="round" stroke-linejoin="round"/>
<path d="M58.3838 37.019H69.6241" stroke="#333333" stroke-linecap="round" stroke-linejoin="round"/>
<path d="M58.3838 47.6289H69.6241" stroke="#333333" stroke-linecap="round" stroke-linejoin="round"/>
<path d="M64.0122 27.689V59.9999" stroke="#333333" stroke-linecap="round" stroke-linejoin="round"/>
<path d="M64.8501 49.6245H65.6329" stroke="#333333" stroke-linecap="round" stroke-linejoin="round"/>
<path d="M62.375 49.6245H63.1498" stroke="#333333" stroke-linecap="round" stroke-linejoin="round"/>
<path d="M124.693 16.8525V58.3489C124.692 58.7865 124.591 59.2058 124.411 59.5151C124.232 59.8244 123.988 59.9986 123.734 59.9997H4.26479C4.01106 59.9982 3.76796 59.8239 3.58854 59.5146C3.40913 59.2053 3.30796 58.7863 3.30713 58.3489V16.8525" stroke="#333333" stroke-linecap="round" stroke-linejoin="round"/>
<path d="M64.0039 16.8526V1" stroke="#333333" stroke-linecap="round" stroke-linejoin="round"/>
<path d="M77.2405 16.8526L75.5879 1" stroke="#333333" stroke-linecap="round" stroke-linejoin="round"/>
<path d="M71.5796 1L72.4502 16.8526" stroke="#333333" stroke-linecap="round" stroke-linejoin="round"/>
<path d="M79.4434 1L81.551 16.8526" stroke="#333333" stroke-linecap="round" stroke-linejoin="round"/>
<path d="M83.292 1L86.4768 16.8526" stroke="#333333" stroke-linecap="round" stroke-linejoin="round"/>
<path d="M67.7725 1L68.0598 16.8526" stroke="#333333" stroke-linecap="round" stroke-linejoin="round"/>
<path d="M87.0996 1L91.2429 16.8526" stroke="#333333" stroke-linecap="round" stroke-linejoin="round"/>
<path d="M91.0591 1L96.0247 16.8526" stroke="#333333" stroke-linecap="round" stroke-linejoin="round"/>
<path d="M94.7861 1L100.48 16.8526" stroke="#333333" stroke-linecap="round" stroke-linejoin="round"/>
<path d="M110.216 8.41748L113.94 16.8526" stroke="#333333" stroke-linecap="round" stroke-linejoin="round"/>
<path d="M115.506 11.0767L118.179 16.8529" stroke="#333333" stroke-linecap="round" stroke-linejoin="round"/>
<path d="M99.752 3.1582L105.071 16.8525" stroke="#333333" stroke-linecap="round" stroke-linejoin="round"/>
<path d="M104.8 5.6958L109.429 16.8526" stroke="#333333" stroke-linecap="round" stroke-linejoin="round"/>
<path d="M120.083 13.3765L122.298 16.8526" stroke="#333333" stroke-linecap="round" stroke-linejoin="round"/>
<path d="M52.4201 1L50.7676 16.8526" stroke="#333333" stroke-linecap="round" stroke-linejoin="round"/>
<path d="M55.5576 16.8526L56.4282 1" stroke="#333333" stroke-linecap="round" stroke-linejoin="round"/>
<path d="M46.4565 16.8526L48.5642 1" stroke="#333333" stroke-linecap="round" stroke-linejoin="round"/>
<path d="M41.5312 16.8526L44.7161 1" stroke="#333333" stroke-linecap="round" stroke-linejoin="round"/>
<path d="M59.9482 16.8526L60.2355 1" stroke="#333333" stroke-linecap="round" stroke-linejoin="round"/>
<path d="M36.7651 16.8526L40.9084 1" stroke="#333333" stroke-linecap="round" stroke-linejoin="round"/>
<path d="M31.9834 16.8526L36.949 1" stroke="#333333" stroke-linecap="round" stroke-linejoin="round"/>
<path d="M27.5278 16.8526L33.2216 1" stroke="#333333" stroke-linecap="round" stroke-linejoin="round"/>
<path d="M14.0684 16.8524L17.8784 8.22217" stroke="#333333" stroke-linecap="round" stroke-linejoin="round"/>
<path d="M9.83008 16.8521L12.5654 10.9395" stroke="#333333" stroke-linecap="round" stroke-linejoin="round"/>
<path d="M22.9385 16.8528L28.3726 2.85693" stroke="#333333" stroke-linecap="round" stroke-linejoin="round"/>
<path d="M18.5791 16.8527L23.312 5.44482" stroke="#333333" stroke-linecap="round" stroke-linejoin="round"/>
<path d="M5.70996 16.8529L7.9854 13.2812" stroke="#333333" stroke-linecap="round" stroke-linejoin="round"/>
<path d="M10.5078 28.64V16.7915" stroke="#333333" stroke-linecap="round" stroke-linejoin="round"/>
<path d="M10.5078 59.9998V31.7803" stroke="#333333" stroke-linecap="round" stroke-linejoin="round"/>
<path d="M31.3125 48.1377H38.9762" stroke="#333333" stroke-linecap="round" stroke-linejoin="round"/>
<path d="M31.3125 36.9502H38.9762" stroke="#333333" stroke-linecap="round" stroke-linejoin="round"/>
<path d="M31.3125 59.9997V36.716C31.3259 34.9788 31.7354 33.3205 32.4524 32.0996C33.1695 30.8787 34.1365 30.1932 35.1444 30.1914C36.1523 30.1896 37.1201 30.8716 37.8386 32.09C38.5571 33.3084 38.9686 34.9652 38.9841 36.7024V59.9997" stroke="#333333" stroke-linecap="round" stroke-linejoin="round"/>
<path d="M37.9313 32.1758L35.1445 36.9507" stroke="#333333" stroke-linecap="round" stroke-linejoin="round"/>
<path d="M35.1445 30.1118V36.9508" stroke="#333333" stroke-linecap="round" stroke-linejoin="round"/>
<path d="M32.3584 32.1758L35.1443 36.9507" stroke="#333333" stroke-linecap="round" stroke-linejoin="round"/>
<path d="M35.1445 59.9992V36.9502" stroke="#333333" stroke-linecap="round" stroke-linejoin="round"/>
<path d="M33.5239 50.1606H34.2901" stroke="#333333" stroke-linecap="round" stroke-linejoin="round"/>
<path d="M36.0068 50.1606H36.7651" stroke="#333333" stroke-linecap="round" stroke-linejoin="round"/>
<path d="M17.3018 48.1382H24.9662" stroke="#333333" stroke-linecap="round" stroke-linejoin="round"/>
<path d="M17.3018 36.9502H24.9662" stroke="#333333" stroke-linecap="round" stroke-linejoin="round"/>
<path d="M17.3042 59.9997V36.716C17.3032 34.9623 17.7063 33.2796 18.425 32.0383C19.1437 30.7969 20.119 30.0985 21.1364 30.0967C22.1539 30.0949 23.13 30.7898 23.8502 32.0286C24.5704 33.2674 24.9755 34.9486 24.9766 36.7024V59.9997" stroke="#333333" stroke-linecap="round" stroke-linejoin="round"/>
<path d="M23.9118 32.1758L21.1338 36.9507" stroke="#333333" stroke-linecap="round" stroke-linejoin="round"/>
<path d="M21.1338 30.1118V36.9508" stroke="#333333" stroke-linecap="round" stroke-linejoin="round"/>
<path d="M18.3477 32.1758L21.1336 36.9507" stroke="#333333" stroke-linecap="round" stroke-linejoin="round"/>
<path d="M21.1338 59.9992V36.9502" stroke="#333333" stroke-linecap="round" stroke-linejoin="round"/>
<path d="M19.5127 50.1606H20.2796" stroke="#333333" stroke-linecap="round" stroke-linejoin="round"/>
<path d="M21.9951 50.1606H22.7541" stroke="#333333" stroke-linecap="round" stroke-linejoin="round"/>
<path d="M20.1689 24.3447H43.862" stroke="#333333" stroke-linecap="round" stroke-linejoin="round"/>
<path d="M10.5078 24.3447H18.348" stroke="#333333" stroke-linecap="round" stroke-linejoin="round"/>
<path d="M117.5 43.1253V16.8525" stroke="#333333" stroke-linecap="round" stroke-linejoin="round"/>
<path d="M117.5 59.9999V46.2646" stroke="#333333" stroke-linecap="round" stroke-linejoin="round"/>
<path d="M89.0312 48.1382H96.6949" stroke="#333333" stroke-linecap="round" stroke-linejoin="round"/>
<path d="M89.0312 36.9502H96.6949" stroke="#333333" stroke-linecap="round" stroke-linejoin="round"/>
<path d="M89.0312 59.9997V36.7024C89.0323 34.9486 89.4375 33.2674 90.1576 32.0286C90.8778 30.7898 91.854 30.0949 92.8714 30.0967C93.8888 30.0985 94.8642 30.7969 95.5828 32.0383C96.3015 33.2796 96.7047 34.9623 96.7036 36.716V59.9997" stroke="#333333" stroke-linecap="round" stroke-linejoin="round"/>
<path d="M92.8641 36.9507L90.0781 32.1758" stroke="#333333" stroke-linecap="round" stroke-linejoin="round"/>
<path d="M92.8638 36.9508V30.1118" stroke="#333333" stroke-linecap="round" stroke-linejoin="round"/>
<path d="M92.8638 36.9507L95.6497 32.1758" stroke="#333333" stroke-linecap="round" stroke-linejoin="round"/>
<path d="M92.8638 36.9502V59.9992" stroke="#333333" stroke-linecap="round" stroke-linejoin="round"/>
<path d="M93.7178 50.1606H94.4839" stroke="#333333" stroke-linecap="round" stroke-linejoin="round"/>
<path d="M91.2422 50.1606H92.0004" stroke="#333333" stroke-linecap="round" stroke-linejoin="round"/>
<path d="M103.042 48.1382H110.706" stroke="#333333" stroke-linecap="round" stroke-linejoin="round"/>
<path d="M103.042 36.9502H110.706" stroke="#333333" stroke-linecap="round" stroke-linejoin="round"/>
<path d="M103.042 59.9997V36.7024C103.043 34.9486 103.448 33.2674 104.168 32.0286C104.888 30.7898 105.864 30.0949 106.882 30.0967C107.899 30.0985 108.874 30.7969 109.593 32.0383C110.312 33.2796 110.715 34.9623 110.714 36.716V59.9997" stroke="#333333" stroke-linecap="round" stroke-linejoin="round"/>
<path d="M106.874 36.9507L104.096 32.1758" stroke="#333333" stroke-linecap="round" stroke-linejoin="round"/>
<path d="M106.874 36.9508V30.1118" stroke="#333333" stroke-linecap="round" stroke-linejoin="round"/>
<path d="M106.874 36.9507L109.66 32.1758" stroke="#333333" stroke-linecap="round" stroke-linejoin="round"/>
<path d="M106.874 36.9502V59.9992" stroke="#333333" stroke-linecap="round" stroke-linejoin="round"/>
<path d="M31.3125 42.5508H38.9762" stroke="#333333" stroke-linecap="round" stroke-linejoin="round"/>
<path d="M17.3018 42.5508H24.9662" stroke="#333333" stroke-linecap="round" stroke-linejoin="round"/>
<path d="M89.0312 42.5508H96.6949" stroke="#333333" stroke-linecap="round" stroke-linejoin="round"/>
<path d="M103.042 42.5508H110.706" stroke="#333333" stroke-linecap="round" stroke-linejoin="round"/>
<path d="M107.728 50.1606H108.494" stroke="#333333" stroke-linecap="round" stroke-linejoin="round"/>
<path d="M105.254 50.1606H106.012" stroke="#333333" stroke-linecap="round" stroke-linejoin="round"/>
<path d="M109.429 24.3447H84.1533" stroke="#333333" stroke-linecap="round" stroke-linejoin="round"/>
<path d="M117.5 24.3447H111.25" stroke="#333333" stroke-linecap="round" stroke-linejoin="round"/>
<path d="M95.4581 1L127 16.8526H1L32.0053 1H95.4581Z" stroke="#333333" stroke-linecap="round" stroke-linejoin="round"/>
<path d="M124.693 37.019H123.305" stroke="#333333" stroke-linecap="round" stroke-linejoin="round"/>
<path d="M123.305 38.708H121.917" stroke="#333333" stroke-linecap="round" stroke-linejoin="round"/>
<path d="M119.228 20.3423H117.5" stroke="#333333" stroke-linecap="round" stroke-linejoin="round"/>
<path d="M119.012 56.585H117.5" stroke="#333333" stroke-linecap="round" stroke-linejoin="round"/>
<path d="M120.346 54.7407H118.833" stroke="#333333" stroke-linecap="round" stroke-linejoin="round"/>
<path d="M3.30713 37.019H4.69535" stroke="#333333" stroke-linecap="round" stroke-linejoin="round"/>
<path d="M4.69531 38.708H6.08353" stroke="#333333" stroke-linecap="round" stroke-linejoin="round"/>
<path d="M8.77197 20.3423H10.4997" stroke="#333333" stroke-linecap="round" stroke-linejoin="round"/>
<path d="M8.9873 56.585H10.4998" stroke="#333333" stroke-linecap="round" stroke-linejoin="round"/>
<path d="M7.6543 54.7407H9.16756" stroke="#333333" stroke-linecap="round" stroke-linejoin="round"/>
</svg>
