<svg width="24" height="25" viewBox="0 0 24 25" fill="none" xmlns="http://www.w3.org/2000/svg">
<path d="M10.0765 14.4208L10.4304 14.7748L10.784 14.4204L15.0725 10.1219C15.0727 10.1217 15.0729 10.1215 15.0731 10.1213C15.1668 10.0285 15.2932 9.9765 15.425 9.9765C15.5571 9.9765 15.6838 10.0288 15.7775 10.1219L15.7779 10.1223C15.8248 10.1688 15.862 10.2241 15.8874 10.285C15.9127 10.3459 15.9258 10.4113 15.9258 10.4773C15.9258 10.5433 15.9127 10.6087 15.8874 10.6696C15.862 10.7305 15.8248 10.7858 15.7779 10.8323L15.7765 10.8337L10.7779 15.8323C10.7777 15.8325 10.7775 15.8327 10.7772 15.833C10.6842 15.9249 10.5588 15.9767 10.4279 15.9773L10.4271 15.9773C10.3613 15.9777 10.2961 15.9651 10.2352 15.9402C10.1746 15.9155 10.1195 15.8791 10.073 15.8332C10.0727 15.8329 10.0724 15.8326 10.0721 15.8323L7.72431 13.4745L7.71031 13.4604L7.69523 13.4475C7.64289 13.4027 7.60038 13.3475 7.57037 13.2855C7.54036 13.2235 7.52349 13.1559 7.52083 13.087C7.51817 13.0182 7.52978 12.9495 7.55491 12.8854C7.58005 12.8212 7.61818 12.7629 7.66691 12.7142C7.71563 12.6655 7.77391 12.6273 7.83807 12.6022C7.90223 12.5771 7.9709 12.5655 8.03976 12.5681C8.10862 12.5708 8.17619 12.5876 8.23822 12.6177C8.30025 12.6477 8.35541 12.6902 8.40023 12.7425L8.41279 12.7572L8.42645 12.7708L10.0765 14.4208ZM6.72209 5.07833C8.28435 4.03446 10.1211 3.47729 12 3.47729C13.2476 3.47729 14.4829 3.72302 15.6355 4.20044C16.7881 4.67786 17.8354 5.37762 18.7175 6.25978C19.5997 7.14194 20.2994 8.18921 20.7769 9.3418C21.2543 10.4944 21.5 11.7297 21.5 12.9773C21.5 14.8562 20.9428 16.6929 19.899 18.2552C18.8551 19.8175 17.3714 21.0351 15.6355 21.7542C13.8996 22.4732 11.9895 22.6613 10.1466 22.2948C8.30383 21.9282 6.61109 21.0234 5.28249 19.6948C3.95389 18.3662 3.0491 16.6735 2.68254 14.8307C2.31598 12.9878 2.50412 11.0777 3.22315 9.3418C3.94218 7.6059 5.15982 6.12221 6.72209 5.07833ZM7.27766 20.0448C8.67548 20.9788 10.3189 21.4773 12 21.4773C14.2543 21.4773 16.4164 20.5818 18.0104 18.9877C19.6045 17.3936 20.5 15.2316 20.5 12.9773C20.5 11.2962 20.0015 9.65277 19.0675 8.25495C18.1335 6.85713 16.806 5.76766 15.2528 5.12432C13.6996 4.48097 11.9906 4.31265 10.3417 4.64062C8.6929 4.96859 7.17834 5.77814 5.9896 6.96689C4.80085 8.15563 3.9913 9.67019 3.66333 11.319C3.33536 12.9679 3.50368 14.6769 4.14703 16.2301C4.79037 17.7833 5.87984 19.1108 7.27766 20.0448Z" stroke="#23A047"/>
</svg>
