<svg width="40" height="40" viewBox="0 0 40 40" fill="none" xmlns="http://www.w3.org/2000/svg">
<circle cx="20" cy="20" r="20" fill="#0120C6" fill-opacity="0.8"/>
<g clip-path="url(#clip0_654_12815)">
<path d="M20 25.8829C17.7492 25.8829 15.918 24.0517 15.918 21.8008C15.918 19.55 17.7492 17.7188 20 17.7188C22.2509 17.7188 24.0822 19.55 24.0822 21.8008C24.0822 24.0517 22.2509 25.8829 20 25.8829ZM20 18.6736C18.2757 18.6736 16.8728 20.0765 16.8728 21.8008C16.8728 23.5252 18.2757 24.928 20 24.928C21.7244 24.928 23.1273 23.5252 23.1273 21.8008C23.1273 20.0765 21.7244 18.6736 20 18.6736Z" fill="white"/>
<path d="M21.8028 15.0701H18.1981C17.9345 15.0701 17.7207 14.8563 17.7207 14.5927C17.7207 14.329 17.9345 14.1152 18.1981 14.1152H21.8028C22.0665 14.1152 22.2802 14.329 22.2802 14.5927C22.2802 14.8563 22.0665 15.0701 21.8028 15.0701Z" fill="white"/>
<path d="M30.6335 14.1145H29.4888V12.7895C29.4888 12.5259 29.2751 12.3121 29.0114 12.3121C28.7477 12.3121 28.534 12.5259 28.534 12.7895V14.1144H25.7019L24.0315 10.7737C23.9507 10.6119 23.7853 10.5098 23.6045 10.5098H16.3951C16.2143 10.5098 16.049 10.6119 15.9681 10.7737L14.2977 14.1144H9.3661C9.10243 14.1144 8.88867 14.3282 8.88867 14.5918V29.0104C8.88867 29.2741 9.10243 29.4878 9.3661 29.4878H30.6335C30.8971 29.4878 31.1109 29.2741 31.1109 29.0104V14.5919C31.1109 14.3282 30.8971 14.1145 30.6335 14.1145ZM30.156 28.533H9.84353V15.0693H14.5928C14.7737 15.0693 14.939 14.9671 15.0199 14.8054L16.6902 11.4647H23.3094L24.9797 14.8054C25.0606 14.9671 25.2259 15.0693 25.4068 15.0693H30.156V28.533Z" fill="white"/>
<path d="M27.2099 18.6764C26.9462 18.6764 26.7324 18.4626 26.7324 18.199C26.7324 17.9353 26.9462 17.7207 27.2099 17.7207C27.4735 17.7207 27.6873 17.9336 27.6873 18.1973V18.1989C27.6873 18.4626 27.4735 18.6764 27.2099 18.6764Z" fill="white"/>
</g>
<defs>
<clipPath id="clip0_654_12815">
<rect width="22.2222" height="22.2222" fill="white" transform="translate(8.88867 8.88867)"/>
</clipPath>
</defs>
</svg>
