<svg width="24" height="24" viewBox="0 0 24 24" fill="none" xmlns="http://www.w3.org/2000/svg">
<path d="M7.1593 3.43716L7.20901 3.43116L7.28615 3.42773L7.35044 3.43031L7.45844 3.44488L7.55358 3.47059L7.64873 3.50831L7.73272 3.55288L7.82187 3.61631L7.89215 3.67888L12.6064 8.39316C12.7602 8.54741 12.8494 8.75439 12.8561 8.97206C12.8627 9.18973 12.7863 9.40177 12.6422 9.56512C12.4982 9.72846 12.2974 9.83085 12.0806 9.85151C11.8638 9.87216 11.6473 9.80952 11.475 9.67631L11.3944 9.60516L8.1433 6.35488V19.7134C8.14305 19.9319 8.0594 20.142 7.90943 20.3009C7.75945 20.4598 7.55448 20.5554 7.33639 20.5682C7.11829 20.581 6.90354 20.51 6.73601 20.3698C6.56848 20.2296 6.46081 20.0307 6.43501 19.8137L6.42901 19.7134V6.35488L3.17787 9.60516C3.03027 9.75274 2.8339 9.8414 2.62559 9.8545C2.41729 9.86759 2.21136 9.80424 2.04644 9.67631L1.96587 9.60516C1.81829 9.45757 1.72963 9.2612 1.71653 9.05289C1.70344 8.84458 1.7668 8.63865 1.89472 8.47373L1.96587 8.39316L6.68015 3.67888C6.71007 3.64885 6.74216 3.62106 6.77615 3.59573L6.87044 3.53488L6.96815 3.48859L7.05815 3.45859L7.1593 3.43716ZM16.7147 3.42773C16.9247 3.42776 17.1273 3.50484 17.2842 3.64435C17.4411 3.78386 17.5413 3.97609 17.5659 4.18459L17.5719 4.28488V17.6434L20.823 14.3932L20.9036 14.322C21.0685 14.1942 21.2744 14.1309 21.4827 14.144C21.6909 14.1572 21.8872 14.2458 22.0348 14.3934C22.1823 14.5409 22.271 14.7373 22.2841 14.9455C22.2973 15.1538 22.234 15.3597 22.1062 15.5246L22.035 15.6052L17.3207 20.3195L17.283 20.3546L17.2247 20.4026L17.1304 20.4634L17.0327 20.5097L16.9427 20.5397L16.8424 20.5612L16.7653 20.5697H16.6642L16.6127 20.5646L16.515 20.5474L16.4216 20.5192L16.3522 20.49L16.2682 20.4454L16.1859 20.388C16.1588 20.3667 16.1331 20.3438 16.1087 20.3195L11.3944 15.6052L11.3233 15.5246C11.2067 15.3743 11.1434 15.1894 11.1434 14.9992C11.1434 14.8089 11.2067 14.6241 11.3233 14.4737L11.3944 14.3932L11.475 14.322C11.6253 14.2054 11.8102 14.1421 12.0004 14.1421C12.1907 14.1421 12.3755 14.2054 12.5259 14.322L12.6064 14.3932L15.8576 17.6434V4.28488L15.8636 4.18459C15.8881 3.97609 15.9884 3.78386 16.1453 3.64435C16.3022 3.50484 16.5048 3.42776 16.7147 3.42773Z" fill="#333333"/>
</svg>
