<?xml version="1.0" encoding="utf-8"?>
<!-- Generator: Adobe Illustrator 26.5.0, SVG Export Plug-In . SVG Version: 6.00 Build 0)  -->
<svg version="1.1" id="Layer_1" xmlns="http://www.w3.org/2000/svg" xmlns:xlink="http://www.w3.org/1999/xlink" x="0px" y="0px"
	 viewBox="0 0 19 19" style="enable-background:new 0 0 19 19;" xml:space="preserve">
<style type="text/css">
	.st0{fillRule:evenodd;clip-rule:evenodd;fill:#252626;}
	.st1{clip-path:url(#SVGID_00000147222353977592831760000000279452857360945815_);}
	.st2{clip-path:url(#SVGID_00000142882935219405458180000008591109614108791178_);}
</style>
<polygon class="st0" points="5,4.3 6.4,5.7 3.8,8.3 12,8.3 12,10.3 3.8,10.3 6.4,12.8 5,14.3 0,9.3 "/>
<g>
	<defs>
		<polygon id="SVGID_1_" points="5,4.3 6.4,5.7 3.8,8.3 12,8.3 12,10.3 3.8,10.3 6.4,12.8 5,14.3 0,9.3 		"/>
	</defs>
	<clipPath id="SVGID_00000066513053022110566900000015305160611220338829_">
		<use xlink:href="#SVGID_1_"  style="overflow:visible;opacity:0;"/>
	</clipPath>
	<g style="clip-path:url(#SVGID_00000066513053022110566900000015305160611220338829_);">
		<path class="st0" d="M3,0.2h1v-1H3V0.2L3,0.2z M3,2.2v1h1v-1H3L3,2.2z M-4,2.2v-1h-1v1H-4L-4,2.2z M-4,16.3h-1v1h1V16.3L-4,16.3z
			 M3,16.3h1v-1H3V16.3L3,16.3z M3,18.3v1h1v-1H3L3,18.3z M-5.4,17.7l-0.7,0.7l0,0L-5.4,17.7L-5.4,17.7z M-5.4,0.8l-0.7-0.7l0,0
			L-5.4,0.8L-5.4,0.8z M5,4.3l0.7-0.7L5,2.8L4.3,3.6L5,4.3L5,4.3z M6.4,5.7l0.7,0.7l0.7-0.7L7.1,5L6.4,5.7L6.4,5.7z M3.8,8.3
			L3.1,7.6L1.5,9.3h2.4V8.3L3.8,8.3z M12,8.3h1v-1h-1V8.3L12,8.3z M12,10.3v1h1v-1H12L12,10.3z M3.8,10.3v-1H1.5L3.1,11L3.8,10.3
			L3.8,10.3z M6.4,12.8l0.7,0.7l0.7-0.7l-0.7-0.7L6.4,12.8L6.4,12.8z M5,14.3L4.3,15L5,15.7L5.7,15L5,14.3L5,14.3z M0,9.3l-0.7-0.7
			l-0.7,0.7l0.7,0.7L0,9.3L0,9.3z M2,0.2h2v2H2V0.2L2,0.2z M3,1.3v2h-7v-2H3L3,1.3z M-5,2.2h2v14.1h-2V2.2L-5,2.2z M-4,17.3v-2h7v2
			H-4L-4,17.3z M2,16.3h2v2H2V16.3L2,16.3z M3,17.3v2h-7v-2H3L3,17.3z M-4,17.3v2c-0.8,0-1.5-0.3-2.1-0.9l1.4-1.4
			C-4.5,17.2-4.3,17.3-4,17.3L-4,17.3z M-4.7,17l-1.4,1.4C-6.7,17.8-7,17.1-7,16.3h2C-5,16.6-4.9,16.8-4.7,17L-4.7,17z M-5,16.3V2.2
			h-2v14.1H-5L-5,16.3z M-5,2.2h-2c0-0.8,0.3-1.5,0.9-2.1l1.4,1.4C-4.9,1.7-5,2-5,2.2L-5,2.2z M-4.7,1.5l-1.4-1.4
			C-5.6-0.4-4.8-0.8-4-0.8v2C-4.3,1.2-4.5,1.3-4.7,1.5L-4.7,1.5z M-4,1.2v-2h7v2H-4L-4,1.2z M4.3,4.9l1.4-1.4L7.1,5L5.7,6.4L4.3,4.9
			L4.3,4.9z M5.7,5l1.4,1.4L4.5,9L3.1,7.6L5.7,5L5.7,5z M3.8,9.3v-2H12v2H3.8L3.8,9.3z M11.1,8.3h2v2h-2V8.3L11.1,8.3z M12,9.3v2
			H3.8v-2H12L12,9.3z M3.1,11l1.4-1.4l2.6,2.6l-1.4,1.4L3.1,11L3.1,11z M5.7,12.2l1.4,1.4L5.7,15l-1.4-1.4L5.7,12.2L5.7,12.2z
			 M5.7,13.6L4.3,15l-5-5l1.4-1.4L5.7,13.6L5.7,13.6z M0.7,10l-1.4-1.4l5-5L5.7,5L0.7,10z"/>
	</g>
</g>
<path class="st0" d="M6.8,18.1v-2h7V2h-7V0h7c0.6,0,1,0.2,1.4,0.6C15.7,1,15.9,1.5,15.9,2v14.1c0,0.6-0.2,1-0.6,1.4
	c-0.4,0.4-0.9,0.6-1.4,0.6H6.8z"/>
<g>
	<defs>
		<path id="SVGID_00000062165773551897637830000015871741802830073251_" d="M6.8,18.1v-2h7V2h-7V0h7c0.6,0,1,0.2,1.4,0.6
			C15.7,1,15.9,1.5,15.9,2v14.1c0,0.6-0.2,1-0.6,1.4c-0.4,0.4-0.9,0.6-1.4,0.6H6.8z"/>
	</defs>
	<clipPath id="SVGID_00000028326590414301145550000000738193888156128419_">
		<use xlink:href="#SVGID_00000062165773551897637830000015871741802830073251_"  style="overflow:visible;opacity:0;"/>
	</clipPath>
	<g style="clip-path:url(#SVGID_00000028326590414301145550000000738193888156128419_);">
		<path class="st0" d="M6.8,18.1h-1v1h1V18.1L6.8,18.1z M6.8,16.1v-1h-1v1H6.8L6.8,16.1z M13.9,16.1v1h1v-1H13.9L13.9,16.1z M13.9,2
			h1V1h-1V2L13.9,2z M6.8,2h-1v1h1V2L6.8,2z M6.8,0v-1h-1v1H6.8L6.8,0z M15.3,0.6L16-0.1l0,0L15.3,0.6L15.3,0.6z M15.3,17.5l0.7,0.7
			l0,0L15.3,17.5L15.3,17.5z M4.8,14.1l-0.7,0.7l0.7,0.7l0.7-0.7L4.8,14.1L4.8,14.1z M3.4,12.6l-0.7-0.7l-0.7,0.7l0.7,0.7L3.4,12.6
			L3.4,12.6z M6,10l0.7,0.7l1.7-1.7H6V10L6,10z M-2.2,10h-1v1h1V10L-2.2,10z M-2.2,8V7h-1v1H-2.2L-2.2,8z M6,8v1h2.4L6.7,7.3L6,8
			L6,8z M3.4,5.5L2.7,4.8L2.1,5.5l0.7,0.7L3.4,5.5L3.4,5.5z M4.8,4l0.7-0.7L4.8,2.6L4.1,3.3L4.8,4L4.8,4z M9.8,9l0.7,0.7L11.2,9
			l-0.7-0.7L9.8,9L9.8,9z M7.8,18.1h-2v-2h2V18.1L7.8,18.1z M6.8,17.1v-2h7v2H6.8L6.8,17.1z M14.9,16.1h-2V2h2V16.1L14.9,16.1z
			 M13.9,1v2h-7V1H13.9L13.9,1z M7.8,2h-2V0h2V2L7.8,2z M6.8,1v-2h7v2H6.8L6.8,1z M13.9,1v-2c0.8,0,1.5,0.3,2.1,0.9l-1.4,1.4
			C14.4,1.1,14.2,1,13.9,1L13.9,1z M14.6,1.3L16-0.1c0.6,0.6,0.9,1.3,0.9,2.1h-2C14.9,1.7,14.8,1.5,14.6,1.3L14.6,1.3z M14.9,2v14.1
			h2V2H14.9L14.9,2z M14.9,16.1h2c0,0.8-0.3,1.5-0.9,2.1l-1.4-1.4C14.8,16.6,14.9,16.4,14.9,16.1L14.9,16.1z M14.6,16.8l1.4,1.4
			c-0.6,0.6-1.3,0.9-2.1,0.9v-2C14.2,17.1,14.4,17,14.6,16.8L14.6,16.8z M13.9,17.1v2h-7v-2H13.9L13.9,17.1z M5.5,13.4l-1.4,1.4
			l-1.4-1.5l1.4-1.4L5.5,13.4L5.5,13.4z M4.1,13.3l-1.4-1.4l2.6-2.6l1.4,1.4L4.1,13.3L4.1,13.3z M6,9.1v2h-8.2v-2H6L6,9.1z M-1.2,10
			h-2V8h2V10L-1.2,10z M-2.2,9V7H6v2H-2.2L-2.2,9z M6.7,7.3L5.3,8.7L2.7,6.2l1.4-1.4L6.7,7.3L6.7,7.3z M4.2,6.2L2.7,4.8l1.4-1.5
			l1.4,1.4L4.2,6.2L4.2,6.2z M4.1,4.7l1.4-1.4l5,5L9.1,9.7L4.1,4.7L4.1,4.7z M9.1,8.3l1.4,1.4l-5,5l-1.4-1.4L9.1,8.3z"/>
	</g>
</g>
</svg>
