<svg width="25" height="24" viewBox="0 0 25 24" fill="none" xmlns="http://www.w3.org/2000/svg">
<path opacity="0.997" d="M12.5013 0C5.87927 0 0.5 5.37927 0.5 12.0013C0.5 18.6233 5.87931 24.0025 12.5013 24.0025C19.1065 24.0025 24.473 18.6499 24.5001 12.051C24.5017 12.0345 24.5025 12.0179 24.5025 12.0013C24.5025 11.9835 24.5016 11.9657 24.4997 11.9479C24.4997 11.9474 24.4997 11.9469 24.4997 11.9463C24.4697 5.34988 19.1047 0 12.5013 0ZM12.5013 1.03459C18.5642 1.03459 23.468 5.93844 23.468 12.0013C23.468 18.0641 18.5642 22.968 12.5013 22.968C6.43839 22.968 1.53459 18.0642 1.53459 12.0013C1.53459 5.93848 6.43839 1.03459 12.5013 1.03459Z" fill="#0120C6"/>
<path d="M8.6672 7.6563C8.53231 7.65791 8.40339 7.71215 8.30792 7.80743C8.10583 8.00934 8.10565 8.3369 8.30761 8.53899C8.3077 8.53908 8.30784 8.53922 8.30792 8.53931L15.9639 16.1953C16.1659 16.3973 16.4934 16.3973 16.6954 16.1953C16.8975 15.9934 16.8977 15.6658 16.6957 15.4638C16.6956 15.4637 16.6955 15.4635 16.6954 15.4634L9.03945 7.80743C8.9408 7.70896 8.80658 7.65446 8.6672 7.6563Z" fill="#CC0041"/>
<path d="M16.3232 7.6563C16.1883 7.65791 16.0594 7.71215 15.9639 7.80743L8.30792 15.4634C8.10583 15.6654 8.10565 15.9929 8.30761 16.195C8.50961 16.397 8.8374 16.3973 9.0394 16.1953L16.6954 8.53931C16.8975 8.33739 16.8977 8.00983 16.6957 7.80774C16.5971 7.70927 16.4626 7.65446 16.3232 7.6563Z" fill="#CC0041"/>
</svg>
