<svg width="24" height="24" viewBox="0 0 24 24" fill="none" xmlns="http://www.w3.org/2000/svg">
<g clip-path="url(#clip0_323_4793)">
<path d="M3 7.125H6C6.20709 7.125 6.375 6.95709 6.375 6.75V5.625H5.625V6.375H3.375V4.125H4.5V3.375H3C2.79291 3.375 2.625 3.54291 2.625 3.75V6.75C2.625 6.95709 2.79291 7.125 3 7.125Z" fill="#CC0041"/>
<path d="M4.49951 5.09424L4.01465 4.60937L3.48438 5.13965L4.23438 5.88965C4.30762 5.96289 4.40356 5.99951 4.49951 5.99951C4.59546 5.99951 4.69141 5.96289 4.76465 5.88965L7.01465 3.63965L6.48438 3.10938L4.49951 5.09424Z" fill="#CC0041"/>
<path d="M5.625 11.25H3.375V9H4.5V8.25H3C2.79291 8.25 2.625 8.41791 2.625 8.625V11.625C2.625 11.8321 2.79291 12 3 12H6C6.20709 12 6.375 11.8321 6.375 11.625V10.5H5.625V11.25Z" fill="#CC0041"/>
<path d="M4.49951 9.96924L4.01465 9.48438L3.48438 10.0146L4.23438 10.7646C4.30762 10.8379 4.40356 10.8745 4.49951 10.8745C4.59546 10.8745 4.69141 10.8379 4.76465 10.7646L7.01465 8.51465L6.48438 7.98438L4.49951 9.96924Z" fill="#CC0041"/>
<path d="M6 13.125H3C2.79291 13.125 2.625 13.2929 2.625 13.5V16.5C2.625 16.7071 2.79291 16.875 3 16.875H6C6.20709 16.875 6.375 16.7071 6.375 16.5V13.5C6.375 13.2929 6.20709 13.125 6 13.125ZM5.625 16.125H3.375V13.875H5.625V16.125Z" fill="#CC0041"/>
<path d="M6 18H3C2.79291 18 2.625 18.1679 2.625 18.375V21.375C2.625 21.5821 2.79291 21.75 3 21.75H6C6.20709 21.75 6.375 21.5821 6.375 21.375V18.375C6.375 18.1679 6.20709 18 6 18ZM5.625 21H3.375V18.75H5.625V21Z" fill="#CC0041"/>
<path d="M21.6401 1.98486C21.4937 1.83838 21.2563 1.83838 21.1099 1.98486L18.75 4.34473L15.2651 0.859864C15.1948 0.789551 15.0994 0.75 15 0.75H1.125C0.917906 0.75 0.75 0.917906 0.75 1.125V22.875C0.75 23.0821 0.917906 23.25 1.125 23.25H18.75C18.9571 23.25 19.125 23.0821 19.125 22.875V8.03027L23.1401 4.01514C23.2866 3.86865 23.2866 3.63135 23.1401 3.48486L21.6401 1.98486ZM18.375 22.5H1.5V1.5H14.8447L17.8447 4.5H15.375V2.625H14.625V4.875C14.625 5.08209 14.7929 5.25 15 5.25H17.8447L9.10986 13.9849C9.06867 14.0261 9.03772 14.0762 9.01923 14.1313L8.26923 16.3813C8.22436 16.5161 8.25934 16.6648 8.35986 16.7651C8.43128 16.8367 8.52722 16.875 8.625 16.875C8.66473 16.875 8.70465 16.8688 8.74365 16.8558L10.9937 16.1058C11.0488 16.0873 11.0989 16.0563 11.1401 16.0151L18.375 8.78027V22.5ZM9.53888 14.9442L10.1808 15.5861L9.21789 15.9071L9.53888 14.9442ZM10.875 15.2197L9.90527 14.25L21.375 2.78027L22.3447 3.75L10.875 15.2197Z" fill="#0120C6"/>
<path d="M16.875 21H17.625V21.75H16.875V21Z" fill="#0120C6"/>
<path d="M15.375 21H16.125V21.75H15.375V21Z" fill="#0120C6"/>
<path d="M13.875 21H14.625V21.75H13.875V21Z" fill="#0120C6"/>
</g>
<defs>
<clipPath id="clip0_323_4793">
<rect width="24" height="24" fill="white"/>
</clipPath>
</defs>
</svg>
