<svg width="24" height="22" viewBox="0 0 24 22" fill="none" xmlns="http://www.w3.org/2000/svg">
<path d="M18.7191 6.65625H3.37481C1.51392 6.65625 0 5.16323 0 3.32812C0 1.49302 1.51392 0 3.37481 0H18.7191C19.0038 0 19.2347 0.230859 19.2347 0.515625V3.32812C19.2347 3.61289 19.0038 3.84375 18.7191 3.84375C18.4343 3.84375 18.2034 3.61289 18.2034 3.32812V1.03125H3.37481C2.08256 1.03125 1.03125 2.06161 1.03125 3.32812C1.03125 4.59464 2.08256 5.625 3.37481 5.625H18.7191C19.0038 5.625 19.2347 5.85586 19.2347 6.14062C19.2347 6.42539 19.0038 6.65625 18.7191 6.65625Z" fill="#0120C6"/>
<path d="M20.6254 6.65625H3.375C3.09023 6.65625 2.85938 6.42539 2.85938 6.14062V3.32812C2.85938 3.04336 3.09023 2.8125 3.375 2.8125H20.6254C20.9101 2.8125 21.141 3.04336 21.141 3.32812V6.14062C21.141 6.42539 20.9101 6.65625 20.6254 6.65625ZM3.89063 5.625H20.1097V3.84375H3.89063V5.625Z" fill="#CC0041"/>
<path d="M23.4844 10.7812H23.0469V6.14062C23.0469 5.85586 22.8161 5.625 22.5313 5.625H3.37481C2.08256 5.625 1.03125 4.59464 1.03125 3.32812C1.03125 3.04336 0.800391 2.8125 0.515625 2.8125C0.230859 2.8125 0 3.04336 0 3.32812V18.3281C0 20.1632 1.51392 21.6562 3.37481 21.6562H22.5313C22.8161 21.6562 23.0469 21.4254 23.0469 21.1406V16.5H23.4844C23.7691 16.5 24 16.2691 24 15.9844V11.2969C24 11.0121 23.7691 10.7812 23.4844 10.7812ZM22.9688 15.4688H19.1567C18.1486 15.4688 17.3286 14.6487 17.3286 13.6406C17.3286 12.6326 18.1486 11.8125 19.1567 11.8125H22.9688V15.4688ZM22.0157 10.7812H20.1877V6.65625H22.0157V10.7812ZM1.03125 18.3281V5.72077C1.63875 6.29958 2.46539 6.65625 3.37481 6.65625H19.1565V10.7812C17.5799 10.7813 16.2973 12.064 16.2973 13.6406C16.2973 15.2173 17.5799 16.4999 19.1565 16.5V20.625H3.37481C2.08256 20.625 1.03125 19.5946 1.03125 18.3281ZM22.0157 20.625H20.1877V16.5H22.0157V20.625Z" fill="#0120C6"/>
</svg>
