<?xml version="1.0" encoding="utf-8"?>
<!-- Generator: Adobe Illustrator 26.5.0, SVG Export Plug-In . SVG Version: 6.00 Build 0)  -->
<svg version="1.1" id="Layer_1" xmlns="http://www.w3.org/2000/svg" xmlns:xlink="http://www.w3.org/1999/xlink" x="0px" y="0px"
	 viewBox="0 0 512 512" style="enable-background:new 0 0 512 512;" xml:space="preserve">
<style type="text/css">
	.st0{fill:#CC0041;}
	.st1{fill:#0120C6;}
</style>
<g>
	<g>
		<path class="st0" d="M152.4,304.2c-2.9-4.8-9.2-6.4-14-3.5C94.2,327,62,370.8,50,420.6c-1.3,5.5,2.1,11,7.5,12.3
			c0.8,0.2,1.6,0.3,2.4,0.3c4.6,0,8.8-3.1,9.9-7.8c10.7-44.5,39.5-83.6,79-107.2C153.7,315.3,155.3,309,152.4,304.2z"/>
	</g>
</g>
<g>
	<g>
		<path class="st0" d="M236.8,273.6c-15,0-30,1.7-44.5,5.2c-5.5,1.3-8.9,6.8-7.6,12.3c1.1,4.7,5.3,7.8,9.9,7.8
			c0.8,0,1.6-0.1,2.4-0.3c13-3.1,26.4-4.6,39.8-4.6c5.6,0,10.2-4.6,10.2-10.2S242.4,273.6,236.8,273.6z"/>
	</g>
</g>
<g>
	<g>
		<path class="st1" d="M404.8,308.1c-1.7-1.8-3.4-3.6-5.1-5.3c-29.8-29.8-66.2-50.4-106-60.4c42-21,71-64.4,71-114.5
			C364.7,57.4,307.3,0,236.8,0S108.9,57.4,108.9,127.9c0,50.1,29,93.5,71,114.5c-39.8,10.1-76.2,30.7-106,60.4
			C30.4,346.3,6.5,404.1,6.5,465.6c0,5.6,4.6,10.2,10.2,10.2h309.1c18.7,22.1,46.7,36.2,77.8,36.2c56.2,0,102-45.7,102-102
			C505.5,354.3,460.5,308.8,404.8,308.1z M129.3,127.9c0-59.3,48.2-107.5,107.5-107.5s107.5,48.2,107.5,107.5
			s-48.2,107.5-107.5,107.5S129.3,187.1,129.3,127.9z M27.1,455.4c5.3-111,97.3-199.7,209.7-199.7c54.7,0,104.6,21,142,55.4
			c-44.3,11.1-77.2,51.2-77.2,98.9c0,16.3,3.9,31.7,10.7,45.4L27.1,455.4L27.1,455.4z M403.6,491.6c-45,0-81.6-36.6-81.6-81.6
			s36.6-81.6,81.6-81.6s81.6,36.6,81.6,81.6S448.5,491.6,403.6,491.6z"/>
	</g>
</g>
<g>
	<g>
		<path class="st0" d="M457,404.6l-32.9-32.9c-4-4-10.4-4-14.4,0c-4,4-4,10.4,0,14.4l15.6,15.6h-63.5c-5.6,0-10.2,4.6-10.2,10.2
			s4.6,10.2,10.2,10.2H425l-15.4,15.4c-4,4-4,10.4,0,14.4c2,2,4.6,3,7.2,3s5.2-1,7.2-3L457,419c1.9-1.9,3-4.5,3-7.2
			C460,409.1,458.9,406.5,457,404.6z"/>
	</g>
</g>
</svg>
