<svg width="24" height="24" viewBox="0 0 24 24" fill="none" xmlns="http://www.w3.org/2000/svg">
<g clip-path="url(#clip0_654_12757)">
<path d="M13.196 17.7417C13.0004 17.7417 12.8422 17.9001 12.8422 18.0955C12.8422 18.2909 13.0004 18.4492 13.196 18.4492H18.5557C18.8877 18.4492 19.1577 18.1792 19.1577 17.847V8.85028C19.1577 8.51831 18.8877 8.24805 18.5557 8.24805H5.3501C5.01813 8.24805 4.74805 8.51831 4.74805 8.85028V17.847C4.74805 18.1792 5.01813 18.4492 5.3501 18.4492H11.781C11.9763 18.4492 12.1347 18.2909 12.1347 18.0955C12.1347 17.9001 11.9763 17.7417 11.781 17.7417H5.45538V8.95557H18.4504V17.7417H13.196Z" fill="#CC0041"/>
<path d="M2.2619 5.96363C2.99231 5.96363 3.58668 5.36927 3.58668 4.63922C3.58668 3.90863 2.99231 3.31445 2.2619 3.31445C1.53168 3.31445 0.9375 3.90863 0.9375 4.63922C0.9375 5.36927 1.53168 5.96363 2.2619 5.96363ZM2.2619 4.02179C2.6023 4.02179 2.87915 4.29865 2.87915 4.63922C2.87915 4.97925 2.6023 5.25611 2.2619 5.25611C1.92188 5.25611 1.64502 4.97925 1.64502 4.63922C1.64502 4.29865 1.92188 4.02179 2.2619 4.02179Z" fill="#0120C6"/>
<path d="M21.644 2.10938C20.3707 2.10938 19.3345 3.14557 19.3345 4.41889V7.05818C19.0696 6.99409 19.0512 7.03309 16.7877 7.02174C16.5925 7.02174 16.4341 7.18031 16.4341 7.3755C16.4341 7.57069 16.5925 7.72926 16.7877 7.72926H19.0247C19.3871 7.72926 19.6769 8.02479 19.6769 8.38148V18.3159C19.6769 18.6751 19.3841 18.9681 19.0247 18.9681C16.2395 18.9681 8.17055 18.9681 4.8816 18.9681C4.52216 18.9681 4.22938 18.6751 4.22938 18.3159C4.22938 17.8122 4.22938 8.72572 4.22938 8.38148C4.22938 8.13429 4.36799 7.91841 4.57179 7.80745C4.84571 7.65858 4.37293 7.75837 15.3728 7.72926C15.5686 7.72926 15.7266 7.57069 15.7266 7.3755C15.7266 7.18031 15.5686 7.02174 15.3728 7.02174C4.29383 7.03456 4.84699 6.99153 4.57179 7.05818V4.41889C4.57179 3.14557 3.53559 2.10938 2.26227 2.10938C1.19495 2.10938 0.272462 2.83283 0.0186769 3.86847C-0.0274658 4.05854 0.0889896 4.25007 0.278504 4.29621C0.468202 4.34253 0.659547 4.22644 0.706239 4.03693C0.881838 3.31861 1.52179 2.81671 2.26227 2.81671C3.14558 2.81671 3.86427 3.53559 3.86427 4.41889V7.4806C3.71833 7.64521 3.61158 7.84498 3.55903 8.06562C3.43378 7.46449 2.90003 7.01148 2.26227 7.01148C1.53205 7.01148 0.937868 7.60585 0.937868 8.33607C0.937868 9.0663 1.53205 9.66066 2.26227 9.66066C2.84986 9.66066 3.34919 9.27577 3.52186 8.74513V11.6232C3.34919 11.0925 2.84986 10.7078 2.26227 10.7078C1.53205 10.7078 0.937868 11.302 0.937868 12.0322C0.937868 12.7627 1.53205 13.3568 2.26227 13.3568C2.84986 13.3568 3.34919 12.9721 3.52186 12.4413V15.3195C3.34919 14.7887 2.84986 14.404 2.26227 14.404C1.53205 14.404 0.937868 14.9982 0.937868 15.7284C0.937868 16.4588 1.53205 17.053 2.26227 17.053C2.84986 17.053 3.34919 16.6683 3.52186 16.1375V16.9386C2.57941 18.1353 0.660646 17.4601 0.660646 15.9496V5.36317C0.660646 5.16743 0.502076 5.0094 0.306885 5.0094C0.111145 5.0094 -0.046875 5.16743 -0.046875 5.36317V15.9496C-0.046875 17.1028 0.802553 18.0614 1.9087 18.2322V21.1632H1.01972C0.824343 21.1632 0.665956 21.3216 0.665956 21.5169C0.665956 21.7123 0.824343 21.8707 1.01972 21.8707H3.50501C3.70039 21.8707 3.85877 21.7123 3.85877 21.5169C3.85877 21.3216 3.70039 21.1632 3.50501 21.1632H2.61603V18.232C2.94617 18.1811 3.25342 18.0601 3.52186 17.8847V18.3159C3.52186 19.0652 4.13215 19.6754 4.8816 19.6754H7.02943V21.3582C7.02943 21.653 7.26894 21.893 7.56374 21.893H8.55416C8.84896 21.893 9.08846 21.653 9.08846 21.3582V19.6754H14.8178V21.3582C14.8178 21.653 15.0573 21.893 15.3521 21.893H16.3426C16.6374 21.893 16.8769 21.653 16.8769 21.3582V19.6754H19.0247C19.7741 19.6754 20.3844 19.0652 20.3844 18.3159V17.8847C20.6529 18.0601 20.9601 18.1811 21.2903 18.232V21.1632H20.4013C20.2059 21.1632 20.0475 21.3216 20.0475 21.5169C20.0475 21.7123 20.2059 21.8707 20.4013 21.8707H22.8866C23.082 21.8707 23.2403 21.7123 23.2403 21.5169C23.2403 21.3216 23.082 21.1632 22.8866 21.1632H21.9976V18.2322C23.1037 18.0614 23.9532 17.1028 23.9532 15.9496V4.41889C23.9532 3.14557 22.9175 2.10938 21.644 2.10938ZM2.26227 8.95314C1.92206 8.95314 1.64521 8.67628 1.64521 8.33607C1.64521 7.99586 1.92206 7.719 2.26227 7.719C2.60248 7.719 2.87934 7.99586 2.87934 8.33607C2.87934 8.67628 2.60248 8.95314 2.26227 8.95314ZM2.26227 12.6495C1.92206 12.6495 1.64521 12.3726 1.64521 12.0322C1.64521 11.692 1.92206 11.4152 2.26227 11.4152C2.60248 11.4152 2.87934 11.692 2.87934 12.0322C2.87934 12.3726 2.60248 12.6495 2.26227 12.6495ZM2.26227 16.3457C1.92206 16.3457 1.64521 16.0688 1.64521 15.7284C1.64521 15.3882 1.92206 15.1114 2.26227 15.1114C2.60248 15.1114 2.87934 15.3882 2.87934 15.7284C2.87934 16.0688 2.60248 16.3457 2.26227 16.3457ZM8.38112 21.1857H7.73677V19.6754H8.38112V21.1857ZM16.1695 21.1857H15.5252V19.6754H16.1695V21.1857ZM23.2457 15.9496C23.2457 17.4608 21.3265 18.135 20.3844 16.9386V16.1377C20.5571 16.6683 21.0564 17.053 21.644 17.053C22.3743 17.053 22.9684 16.4588 22.9684 15.7284C22.9684 14.9982 22.3743 14.404 21.644 14.404C21.0564 14.404 20.5573 14.7887 20.3844 15.3194V12.4415C20.5571 12.9721 21.0564 13.3568 21.644 13.3568C22.3743 13.3568 22.9684 12.7627 22.9684 12.0322C22.9684 11.302 22.3743 10.7078 21.644 10.7078C21.0564 10.7078 20.5573 11.0925 20.3844 11.6232V8.74513C20.5571 9.27595 21.0564 9.66066 21.644 9.66066C22.3743 9.66066 22.9684 9.06648 22.9684 8.33607C22.9684 7.60585 22.3743 7.01167 21.644 7.01167C21.0063 7.01167 20.4725 7.46449 20.3473 8.06562C20.2947 7.84498 20.188 7.64521 20.042 7.48078V4.41889C20.042 3.53559 20.7607 2.81671 21.6442 2.81671C22.5275 2.81671 23.2458 3.53559 23.2458 4.41889L23.2457 15.9496ZM21.027 15.7284C21.027 15.3882 21.3038 15.1114 21.644 15.1114C21.9842 15.1114 22.2611 15.3882 22.2611 15.7284C22.2611 16.0688 21.9842 16.3457 21.644 16.3457C21.3038 16.3457 21.027 16.0688 21.027 15.7284ZM21.027 12.0322C21.027 11.692 21.3038 11.4152 21.644 11.4152C21.9842 11.4152 22.2611 11.692 22.2611 12.0322C22.2611 12.3726 21.9842 12.6495 21.644 12.6495C21.3038 12.6495 21.027 12.3726 21.027 12.0322ZM21.027 8.33607C21.027 7.99586 21.3038 7.719 21.644 7.719C21.9842 7.719 22.2611 7.99586 22.2611 8.33607C22.2611 8.67628 21.9842 8.95314 21.644 8.95314C21.3038 8.95314 21.027 8.67628 21.027 8.33607Z" fill="#0120C6"/>
<path d="M21.6439 3.31445C20.9135 3.31445 20.3193 3.90863 20.3193 4.63904C20.3193 5.36927 20.9135 5.96344 21.6439 5.96344C22.3741 5.96344 22.9683 5.36927 22.9683 4.63904C22.9683 3.90863 22.3741 3.31445 21.6439 3.31445ZM21.6439 5.25611C21.3035 5.25611 21.0267 4.97925 21.0267 4.63904C21.0267 4.29865 21.3035 4.02197 21.6439 4.02197C21.9841 4.02197 22.261 4.29865 22.261 4.63904C22.261 4.97925 21.9841 5.25611 21.6439 5.25611Z" fill="#0120C6"/>
</g>
<defs>
<clipPath id="clip0_654_12757">
<rect width="24" height="24" fill="white"/>
</clipPath>
</defs>
</svg>
