<?xml version="1.0" encoding="utf-8"?>
<!-- Generator: Adobe Illustrator 26.5.0, SVG Export Plug-In . SVG Version: 6.00 Build 0)  -->
<svg version="1.1" id="Layer_1" xmlns="http://www.w3.org/2000/svg" xmlns:xlink="http://www.w3.org/1999/xlink" x="0px" y="0px"
	 viewBox="0 0 32 32" style="enable-background:new 0 0 32 32;" xml:space="preserve">
<style type="text/css">
	.st0{fill:#0120C6;}
	.st1{fill:#CC0041;}
</style>
<g id="_2._Briefcase">
	<path class="st0" d="M29,6h-3c-0.6,0-1,0.4-1,1s0.4,1,1,1h3c0.6,0,1,0.4,1,1v5.2c0,0.3-0.1,0.5-0.3,0.7l-2.8,2.8
		c-0.2,0.2-0.4,0.3-0.7,0.3H5.8c-0.3,0-0.5-0.1-0.7-0.3l-2.8-2.8C2.1,14.7,2,14.4,2,14.2V9c0-0.6,0.4-1,1-1h19c0.6,0,1-0.4,1-1V4
		c0-1.7-1.3-3-3-3h-8c-1.7,0-3,1.3-3,3v2H3C1.3,6,0,7.3,0,9v5.2c0,0.8,0.3,1.6,0.9,2.1l2.8,2.8C4.3,19.7,5,20,5.8,20h20.3
		c0.8,0,1.6-0.3,2.1-0.9l0.7-0.7V28c0,0.6-0.4,1-1,1H4c-0.6,0-1-0.4-1-1v-7c0-0.6-0.4-1-1-1s-1,0.4-1,1v7c0,1.7,1.3,3,3,3h24
		c1.7,0,3-1.3,3-3V16.4l0.1-0.1c0.6-0.6,0.9-1.3,0.9-2.1V9C32,7.3,30.7,6,29,6z M11,4c0-0.6,0.4-1,1-1h8c0.6,0,1,0.4,1,1v2H11V4z"/>
	<path class="st1" d="M8,16h2c0.6,0,1,0.4,1,1v4c0,0.6-0.4,1-1,1H8c-0.6,0-1-0.4-1-1v-4C7,16.4,7.4,16,8,16z"/>
	<path class="st1" d="M22,16h2c0.6,0,1,0.4,1,1v4c0,0.6-0.4,1-1,1h-2c-0.6,0-1-0.4-1-1v-4C21,16.4,21.4,16,22,16z"/>
</g>
</svg>
