<svg width="119" height="66" viewBox="0 0 119 66" fill="none" xmlns="http://www.w3.org/2000/svg">
<path d="M33.2443 44.6724L13.8979 65.0609" stroke="#333333" stroke-linecap="round" stroke-linejoin="round"/>
<path d="M85.603 44.6724L104.949 65.0609" stroke="#333333" stroke-linecap="round" stroke-linejoin="round"/>
<path d="M44.0112 21.0681C44.063 20.1521 44.1035 19.3526 44.1237 18.7724C44.2353 15.674 44.567 5.8827 44.567 5.8827L49.3522 5.05246L52.6416 1C52.6416 1 56.126 2.17576 59.4995 2.17576" stroke="#333333" stroke-linecap="round" stroke-linejoin="round"/>
<path d="M59.4992 36.806C55.0198 36.806 53.0839 41.0656 52.2546 43.3338C51.5265 45.3284 48.1417 60.6344 47.3384 64.292C47.2895 64.5134 47.1668 64.7116 46.9903 64.854C46.8139 64.9963 46.5942 65.0744 46.3676 65.0753H1.99976C1.04514 65.0753 0.635793 63.8615 1.39382 63.2837L43.35 31.2185C43.35 31.2185 43.7877 25.0443 44.011 21.0679" stroke="#333333" stroke-linecap="round" stroke-linejoin="round"/>
<path d="M52.6416 1C52.6416 1 52.7524 2.67423 52.6416 6.82623C52.5308 10.9782 51.9337 18.1671 49.9039 23.1453C48.0481 27.6979 43.3511 31.2219 43.3511 31.2219" stroke="#333333" stroke-linecap="round" stroke-linejoin="round"/>
<path d="M48.5407 21.479C48.2891 24.1 48.0415 26.4014 48.0415 26.4014" stroke="#333333" stroke-linecap="round" stroke-linejoin="round"/>
<path d="M49.3519 5.05225C49.3519 5.05225 49.2233 12.4159 49.0089 15.9044C48.9393 17.0373 48.8657 17.9581 48.7266 19.4762" stroke="#333333" stroke-linecap="round" stroke-linejoin="round"/>
<path d="M45.818 54.3076C44.2461 60.4098 43.0488 65.0748 43.0488 65.0748" stroke="#333333" stroke-linecap="round" stroke-linejoin="round"/>
<path d="M59.4991 19.27C59.4991 19.27 54.1678 22.7496 53.1007 26.4015C52.4592 28.5968 48.9627 42.0999 46.272 52.5386" stroke="#333333" stroke-linecap="round" stroke-linejoin="round"/>
<path d="M45.6989 7.73828L45.5889 10.6821" stroke="#333333" stroke-linecap="round" stroke-linejoin="round"/>
<path d="M46.9023 7.5293L46.7915 10.4732" stroke="#333333" stroke-linecap="round" stroke-linejoin="round"/>
<path d="M48.105 7.3208L47.9941 10.2655" stroke="#333333" stroke-linecap="round" stroke-linejoin="round"/>
<path d="M48.6729 34.9531L35.7549 65.0885" stroke="#333333" stroke-linecap="round" stroke-linejoin="round"/>
<path d="M43.8305 39.5742L28.4692 65.0882" stroke="#333333" stroke-linecap="round" stroke-linejoin="round"/>
<path d="M39.1663 41.8994L21.1831 65.0886" stroke="#333333" stroke-linecap="round" stroke-linejoin="round"/>
<path d="M26.446 47.3882L6.61182 65.0611" stroke="#333333" stroke-linecap="round" stroke-linejoin="round"/>
<path d="M57.9247 34.402C57.2144 32.9819 56.064 31.7317 54.5997 30.7736L54.5132 30.7129" stroke="#333333" stroke-linecap="round" stroke-linejoin="round"/>
<path d="M60.6692 34.4022C60.0495 31.8937 57.4461 29.7525 54.808 28.2361L54.6519 28.1406" stroke="#333333" stroke-linecap="round" stroke-linejoin="round"/>
<path d="M63.4394 34.4018C61.7252 31.1027 59.0983 27.9889 55.4215 25.9667L55.2144 25.8364" stroke="#333333" stroke-linecap="round" stroke-linejoin="round"/>
<path d="M65.4516 32.5037C63.7373 29.2038 60.9374 26.2268 57.3964 23.9926L57.1885 23.8623" stroke="#333333" stroke-linecap="round" stroke-linejoin="round"/>
<path d="M55.4046 34.4023C54.9046 33.6611 54.2524 33.0352 53.4913 32.5662L53.4307 32.5322" stroke="#333333" stroke-linecap="round" stroke-linejoin="round"/>
<path d="M60.6523 34.4018C61.4144 32.921 62.6352 31.6222 64.2022 30.6261L64.2977 30.5654" stroke="#333333" stroke-linecap="round" stroke-linejoin="round"/>
<path d="M57.916 34.4022C59.2962 31.9973 61.1884 29.8707 63.778 28.2361L63.9333 28.1406" stroke="#333333" stroke-linecap="round" stroke-linejoin="round"/>
<path d="M55.4053 34.4018C57.1195 31.1027 59.8815 28.2009 63.4232 25.9667L63.6312 25.8364" stroke="#333333" stroke-linecap="round" stroke-linejoin="round"/>
<path d="M53.4399 32.5322C55.1542 29.2322 57.9161 26.3313 61.4571 24.0963L61.665 23.9668" stroke="#333333" stroke-linecap="round" stroke-linejoin="round"/>
<path d="M63.4399 34.4018C63.9075 33.6921 64.6534 33.0051 65.4519 32.5034" stroke="#333333" stroke-linecap="round" stroke-linejoin="round"/>
<path d="M59.499 7.3208V7.75129" stroke="#333333" stroke-linecap="round" stroke-linejoin="round"/>
<path d="M59.499 4.37012V6.17301" stroke="#333333" stroke-linecap="round" stroke-linejoin="round"/>
<path d="M58.1377 7.3208V7.75129" stroke="#333333" stroke-linecap="round" stroke-linejoin="round"/>
<path d="M58.1377 4.37012V6.17301" stroke="#333333" stroke-linecap="round" stroke-linejoin="round"/>
<path d="M56.7764 7.3208V7.75129" stroke="#333333" stroke-linecap="round" stroke-linejoin="round"/>
<path d="M56.7764 4.37012V6.17301" stroke="#333333" stroke-linecap="round" stroke-linejoin="round"/>
<path d="M54.0522 7.3208V7.75129" stroke="#333333" stroke-linecap="round" stroke-linejoin="round"/>
<path d="M54.0522 4.37012V6.17301" stroke="#333333" stroke-linecap="round" stroke-linejoin="round"/>
<path d="M55.4136 7.3208V7.75129" stroke="#333333" stroke-linecap="round" stroke-linejoin="round"/>
<path d="M55.4136 4.37012V6.17301" stroke="#333333" stroke-linecap="round" stroke-linejoin="round"/>
<path d="M67.6554 46.7027C68.9498 51.977 71.0532 61.511 71.6656 64.2914C71.7144 64.5128 71.8372 64.711 72.0136 64.8534C72.1901 64.9958 72.4097 65.0738 72.6364 65.0747H117C117.955 65.0747 118.364 63.8609 117.606 63.2832L75.6539 31.2187C75.6539 31.2187 74.9914 21.87 74.8797 18.7724C74.7681 15.6748 74.4372 5.8827 74.4372 5.8827L69.652 5.05246L66.3667 1C66.3667 1 62.8823 2.17576 59.5088 2.17576" stroke="#333333" stroke-linecap="round" stroke-linejoin="round"/>
<path d="M59.5049 36.8062C63.9843 36.8062 65.9202 41.0658 66.7494 43.334C66.8417 43.5856 66.976 44.0477 67.141 44.6724" stroke="#333333" stroke-linecap="round" stroke-linejoin="round"/>
<path d="M66.3666 1C66.3666 1 66.2558 2.67423 66.3666 6.82623C66.4775 10.9782 67.0745 18.1671 69.1043 23.1453C70.9601 27.6979 75.6572 31.2219 75.6572 31.2219" stroke="#333333" stroke-linecap="round" stroke-linejoin="round"/>
<path d="M70.4634 21.479C70.715 24.1 70.9625 26.4014 70.9625 26.4014" stroke="#333333" stroke-linecap="round" stroke-linejoin="round"/>
<path d="M69.6523 5.05225C69.6523 5.05225 69.781 12.4159 69.9946 15.9044C70.056 16.8941 70.1564 18.1702 70.2777 19.4843" stroke="#333333" stroke-linecap="round" stroke-linejoin="round"/>
<path d="M69.2324 39.0063C72.1796 50.3545 75.9576 65.0747 75.9576 65.0747" stroke="#333333" stroke-linecap="round" stroke-linejoin="round"/>
<path d="M59.5049 19.27C59.5049 19.27 64.8362 22.7496 65.9032 26.4015C66.2786 27.6873 67.6337 32.8508 69.2323 39.0064" stroke="#333333" stroke-linecap="round" stroke-linejoin="round"/>
<path d="M73.3047 7.73828L73.4147 10.6821" stroke="#333333" stroke-linecap="round" stroke-linejoin="round"/>
<path d="M72.1021 7.5293L72.2129 10.4732" stroke="#333333" stroke-linecap="round" stroke-linejoin="round"/>
<path d="M70.8989 7.3208L71.0098 10.2655" stroke="#333333" stroke-linecap="round" stroke-linejoin="round"/>
<path d="M70.3311 34.9531L83.2491 65.0885" stroke="#333333" stroke-linecap="round" stroke-linejoin="round"/>
<path d="M75.1733 39.5742L90.5346 65.0882" stroke="#333333" stroke-linecap="round" stroke-linejoin="round"/>
<path d="M79.8369 41.8994L97.8201 65.0886" stroke="#333333" stroke-linecap="round" stroke-linejoin="round"/>
<path d="M92.5571 47.3882L112.391 65.0611" stroke="#333333" stroke-linecap="round" stroke-linejoin="round"/>
<path d="M60.8662 7.3208V7.75129" stroke="#333333" stroke-linecap="round" stroke-linejoin="round"/>
<path d="M60.8662 4.37012V6.17301" stroke="#333333" stroke-linecap="round" stroke-linejoin="round"/>
<path d="M62.2275 7.3208V7.75129" stroke="#333333" stroke-linecap="round" stroke-linejoin="round"/>
<path d="M62.2275 4.37012V6.17301" stroke="#333333" stroke-linecap="round" stroke-linejoin="round"/>
<path d="M64.9521 7.3208V7.75129" stroke="#333333" stroke-linecap="round" stroke-linejoin="round"/>
<path d="M64.9521 4.37012V6.17301" stroke="#333333" stroke-linecap="round" stroke-linejoin="round"/>
<path d="M63.5898 7.3208V7.75129" stroke="#333333" stroke-linecap="round" stroke-linejoin="round"/>
<path d="M63.5898 4.37012V6.17301" stroke="#333333" stroke-linecap="round" stroke-linejoin="round"/>
</svg>
