<svg width="88" height="87" viewBox="0 0 88 87" fill="none" xmlns="http://www.w3.org/2000/svg">
<path d="M35.2675 26.9927V28.7105L34.7192 29.592V31.3537L34.1719 32.2351V33.998L33.6235 34.8794L33.9405 77.2711" stroke="#333333" stroke-linecap="round" stroke-linejoin="round"/>
<path d="M28.0688 27.7783V28.7101L28.6161 29.5915V31.3533L29.1645 32.2347V33.9975L29.7117 34.8789L29.3937 77.2706" stroke="#333333" stroke-linecap="round" stroke-linejoin="round"/>
<path d="M21.6797 71.2744L21.7247 77.2709" stroke="#333333" stroke-linecap="round" stroke-linejoin="round"/>
<path d="M22.5214 32.3418V34.7301L21.9741 35.6115V37.3743L21.4258 38.2558L21.6796 71.2742" stroke="#333333" stroke-linecap="round" stroke-linejoin="round"/>
<path d="M15.8716 30.3242V32.0871L16.4189 32.9685V34.7302L16.9672 35.6117V37.3745L17.5145 38.2559L17.2157 77.2708" stroke="#333333" stroke-linecap="round" stroke-linejoin="round"/>
<path d="M52.5938 26.9927V28.7105L53.141 29.592V31.3537L53.6883 32.2351V33.998L54.2366 34.8794L53.9196 77.2711" stroke="#333333" stroke-linecap="round" stroke-linejoin="round"/>
<path d="M59.7904 27.7783V28.7101L59.2431 29.5915V31.3533L58.6947 32.2347V33.9975L58.1475 34.8789L58.4655 77.2706" stroke="#333333" stroke-linecap="round" stroke-linejoin="round"/>
<path d="M65.3384 32.3418V34.7301L65.8867 35.6115V37.3743L66.434 38.2558L66.1384 77.2706" stroke="#333333" stroke-linecap="round" stroke-linejoin="round"/>
<path d="M71.9892 30.3242V32.0871L71.4408 32.9685V34.7302L70.8936 35.6117V37.3745L70.3452 38.2559L70.6397 77.2708" stroke="#333333" stroke-linecap="round" stroke-linejoin="round"/>
<path d="M31.3162 20.7217C31.3162 20.7217 31.5604 15.9976 31.6375 14.6996C31.7146 13.4016 31.8432 12.745 32.5532 11.6923C33.2633 10.6395 35.6998 10.5881 35.6998 10.5881C35.6998 10.5881 35.5841 9.38322 36.2663 8.44611C36.5533 8.06271 36.9737 7.80092 37.4444 7.71249C37.4444 7.71249 38.3954 5.46342 39.4718 3.85695C40.5481 2.25047 43.8971 0.821777 43.8971 0.821777C43.8971 0.821777 37.7561 2.5889 35.2082 4.19966C32.6132 5.83934 29.3863 9.72808 29.3863 9.72808C29.3863 9.72808 27.7606 10.2122 26.9348 10.9062C26.0534 11.643 25.4665 13.0139 25.4665 13.0139C25.4665 13.0139 22.9701 13.4787 21.0123 14.103C19.2259 14.6739 16.3942 16.2996 16.1286 20.0138C15.8716 23.6112 15.8716 24.5666 15.8716 24.5666" stroke="#333333" stroke-linecap="round" stroke-linejoin="round"/>
<path d="M25.4668 13.0119L33.8858 10.8721" stroke="#333333" stroke-linecap="round" stroke-linejoin="round"/>
<path d="M29.3867 9.72811L37.4394 7.7168" stroke="#333333" stroke-linecap="round" stroke-linejoin="round"/>
<path d="M34.446 20.7188L31.3166 20.722L14.0845 25.023L15.8719 26.2536" stroke="#333333" stroke-linecap="round" stroke-linejoin="round"/>
<path d="M43.897 20.7124L36.9238 20.7178" stroke="#333333" stroke-linecap="round" stroke-linejoin="round"/>
<path d="M29.1646 33.9507L15.8716 30.7324" stroke="#333333" stroke-linecap="round" stroke-linejoin="round"/>
<path d="M43.8971 34.4722H33.877" stroke="#333333" stroke-linecap="round" stroke-linejoin="round"/>
<path d="M32.7729 30.1089V31.4241" stroke="#333333" stroke-linecap="round" stroke-linejoin="round"/>
<path d="M31.6099 32.7466V34.0607" stroke="#333333" stroke-linecap="round" stroke-linejoin="round"/>
<path d="M30.5322 30.1089V31.4241" stroke="#333333" stroke-linecap="round" stroke-linejoin="round"/>
<path d="M19.4692 36.2896V37.6047" stroke="#333333" stroke-linecap="round" stroke-linejoin="round"/>
<path d="M18.4668 33.1572V34.4724" stroke="#333333" stroke-linecap="round" stroke-linejoin="round"/>
<path d="M20.4492 33.7354V35.0494" stroke="#333333" stroke-linecap="round" stroke-linejoin="round"/>
<path d="M56.5432 20.7217C56.5432 20.7217 56.2991 15.9976 56.222 14.6996C56.1448 13.4016 56.0163 12.745 55.3063 11.6923C54.5962 10.6395 52.1586 10.5881 52.1586 10.5881C52.1586 10.5881 52.2743 9.38322 51.5921 8.44611C51.3051 8.06271 50.8847 7.80092 50.414 7.71249C50.414 7.71249 49.463 5.46342 48.3866 3.85695C47.3103 2.25047 43.9624 0.821777 43.9624 0.821777C43.9624 0.821777 50.1034 2.5889 52.6513 4.19966C55.2463 5.83934 58.4732 9.72808 58.4732 9.72808C58.4732 9.72808 60.1 10.2122 60.9257 10.9062C61.8061 11.643 62.394 13.0139 62.394 13.0139C62.394 13.0139 64.8905 13.4787 66.8472 14.103C68.6347 14.6739 71.4653 16.2996 71.7309 20.0138C71.9879 23.6112 71.9879 24.5666 71.9879 24.5666" stroke="#333333" stroke-linecap="round" stroke-linejoin="round"/>
<path d="M62.3942 13.0119L53.9741 10.8721" stroke="#333333" stroke-linecap="round" stroke-linejoin="round"/>
<path d="M58.4731 9.72811L50.4204 7.7168" stroke="#333333" stroke-linecap="round" stroke-linejoin="round"/>
<path d="M43.8975 20.7124L56.5436 20.722L73.7758 25.0231L71.9894 26.2537" stroke="#333333" stroke-linecap="round" stroke-linejoin="round"/>
<path d="M43.8971 26.9924H31.3162L15.8716 30.7323V26.2534" stroke="#333333" stroke-linecap="round" stroke-linejoin="round"/>
<path d="M43.8975 26.9924H56.5436L71.9894 30.7323V26.2534" stroke="#333333" stroke-linecap="round" stroke-linejoin="round"/>
<path d="M28.6164 31.1715L21.3369 29.4087" stroke="#333333" stroke-linecap="round" stroke-linejoin="round"/>
<path d="M43.897 31.8247H34.4263" stroke="#333333" stroke-linecap="round" stroke-linejoin="round"/>
<path d="M59.2432 31.1715L66.5226 29.4087" stroke="#333333" stroke-linecap="round" stroke-linejoin="round"/>
<path d="M51.123 31.8247H53.4332" stroke="#333333" stroke-linecap="round" stroke-linejoin="round"/>
<path d="M43.8975 31.8247H48.6698" stroke="#333333" stroke-linecap="round" stroke-linejoin="round"/>
<path d="M58.6948 33.9507L71.9879 30.7324" stroke="#333333" stroke-linecap="round" stroke-linejoin="round"/>
<path d="M43.8975 34.4722H53.984" stroke="#333333" stroke-linecap="round" stroke-linejoin="round"/>
<path d="M55.0869 30.1089V31.4241" stroke="#333333" stroke-linecap="round" stroke-linejoin="round"/>
<path d="M56.25 32.7466V34.0607" stroke="#333333" stroke-linecap="round" stroke-linejoin="round"/>
<path d="M57.3276 30.1089V31.4241" stroke="#333333" stroke-linecap="round" stroke-linejoin="round"/>
<path d="M68.3906 36.2896V37.6047" stroke="#333333" stroke-linecap="round" stroke-linejoin="round"/>
<path d="M69.3931 33.1572V34.4724" stroke="#333333" stroke-linecap="round" stroke-linejoin="round"/>
<path d="M67.4116 33.7354V35.0494" stroke="#333333" stroke-linecap="round" stroke-linejoin="round"/>
<path d="M10.2476 80.062V78.5958C10.2476 78.4217 10.2819 78.2494 10.3485 78.0886C10.4152 77.9278 10.5128 77.7817 10.636 77.6586C10.7591 77.5356 10.9053 77.438 11.0661 77.3715C11.227 77.305 11.3994 77.2709 11.5734 77.271H76.4226C76.5967 77.2709 76.769 77.305 76.9299 77.3715C77.0908 77.438 77.2369 77.5356 77.3601 77.6586C77.4832 77.7817 77.5809 77.9278 77.6475 78.0886C77.7142 78.2494 77.7485 78.4217 77.7485 78.5958V80.062" stroke="#333333" stroke-linecap="round" stroke-linejoin="round"/>
<path d="M74.6567 80.062H80.7303C81.0817 80.062 81.4186 80.2016 81.6671 80.45C81.9155 80.6985 82.0551 81.0355 82.0551 81.3868V82.853" stroke="#333333" stroke-linecap="round" stroke-linejoin="round"/>
<path d="M5.94141 82.853V81.3868C5.94141 81.0355 6.08098 80.6985 6.32943 80.45C6.57788 80.2016 6.91485 80.062 7.26621 80.062H72.2042" stroke="#333333" stroke-linecap="round" stroke-linejoin="round"/>
<path d="M15.0524 82.853H85.6709C85.8452 82.8525 86.018 82.8863 86.1792 82.9526C86.3404 83.019 86.487 83.1165 86.6105 83.2395C86.7339 83.3626 86.8319 83.5089 86.8987 83.6699C86.9656 83.8309 87 84.0035 87 84.1778V85.644H1V84.1778C1 83.8265 1.13958 83.4895 1.38803 83.2411C1.63648 82.9926 1.97345 82.853 2.32481 82.853H12.6159" stroke="#333333" stroke-linecap="round" stroke-linejoin="round"/>
<path d="M29.4593 68.6001H26.8601C26.686 68.6 26.5136 68.6341 26.3527 68.7006C26.1919 68.7672 26.0457 68.8647 25.9226 68.9877C25.7995 69.1108 25.7018 69.2569 25.6351 69.4177C25.5685 69.5785 25.5342 69.7508 25.5342 69.9249V77.2708" stroke="#333333" stroke-linecap="round" stroke-linejoin="round"/>
<path d="M53.9837 68.6001H33.876" stroke="#333333" stroke-linecap="round" stroke-linejoin="round"/>
<path d="M62.4617 77.2708V69.9249C62.4617 69.5735 62.3221 69.2366 62.0736 68.9881C61.8252 68.7397 61.4882 68.6001 61.1369 68.6001H58.4048" stroke="#333333" stroke-linecap="round" stroke-linejoin="round"/>
<path d="M50.4204 7.7168H37.439" stroke="#333333" stroke-linecap="round" stroke-linejoin="round"/>
<path d="M52.162 10.5884H35.6978" stroke="#333333" stroke-linecap="round" stroke-linejoin="round"/>
<path d="M49.3215 24.9586C49.3215 24.4809 49.1318 24.0227 48.7939 23.6848C48.4561 23.347 47.9979 23.1572 47.5201 23.1572C47.0424 23.1572 46.5842 23.347 46.2464 23.6848C45.9085 24.0227 45.7188 24.4809 45.7188 24.9586" stroke="#333333" stroke-linecap="round" stroke-linejoin="round"/>
<path d="M52.9247 24.9586C52.9247 24.722 52.878 24.4876 52.7874 24.269C52.6968 24.0504 52.5641 23.8518 52.3967 23.6845C52.2293 23.5172 52.0306 23.3845 51.8119 23.294C51.5932 23.2036 51.3588 23.1571 51.1222 23.1572C50.6444 23.1572 50.1862 23.347 49.8484 23.6848C49.5106 24.0227 49.3208 24.4809 49.3208 24.9586" stroke="#333333" stroke-linecap="round" stroke-linejoin="round"/>
<path d="M56.5276 24.9586C56.5276 24.4809 56.3378 24.0227 56 23.6848C55.6622 23.347 55.204 23.1572 54.7262 23.1572C54.2484 23.1572 53.7903 23.347 53.4524 23.6848C53.1146 24.0227 52.9248 24.4809 52.9248 24.9586" stroke="#333333" stroke-linecap="round" stroke-linejoin="round"/>
<path d="M45.7214 24.9586C45.7214 24.4809 45.5317 24.0227 45.1938 23.6848C44.856 23.347 44.3978 23.1572 43.92 23.1572C43.4423 23.1572 42.9841 23.347 42.6463 23.6848C42.3084 24.0227 42.1187 24.4809 42.1187 24.9586" stroke="#333333" stroke-linecap="round" stroke-linejoin="round"/>
<path d="M42.1184 24.9586C42.1184 24.4809 41.9286 24.0227 41.5908 23.6848C41.253 23.347 40.7948 23.1572 40.317 23.1572C39.8393 23.1572 39.3811 23.347 39.0432 23.6848C38.7054 24.0227 38.5156 24.4809 38.5156 24.9586" stroke="#333333" stroke-linecap="round" stroke-linejoin="round"/>
<path d="M38.5154 24.9586C38.5154 24.4809 38.3256 24.0227 37.9878 23.6848C37.6499 23.347 37.1918 23.1572 36.714 23.1572C36.2362 23.1572 35.778 23.347 35.4402 23.6848C35.1024 24.0227 34.9126 24.4809 34.9126 24.9586" stroke="#333333" stroke-linecap="round" stroke-linejoin="round"/>
<path d="M34.9129 24.9586C34.9129 24.4809 34.7232 24.0227 34.3853 23.6848C34.0475 23.347 33.5893 23.1572 33.1115 23.1572V23.1572C32.8749 23.1571 32.6405 23.2036 32.4219 23.294C32.2032 23.3845 32.0045 23.5172 31.8371 23.6845C31.6697 23.8518 31.5369 24.0504 31.4463 24.269C31.3557 24.4876 31.3091 24.722 31.3091 24.9586" stroke="#333333" stroke-linecap="round" stroke-linejoin="round"/>
<path d="M25.1336 26.516C25.1336 25.5725 24.4418 24.9984 23.5893 25.2308C22.7325 25.4654 22.0449 26.4218 22.0449 27.3653" stroke="#333333" stroke-linecap="round" stroke-linejoin="round"/>
<path d="M28.2214 25.6688C28.2214 24.7241 27.5307 24.1501 26.6771 24.3836C25.8203 24.6192 25.1338 25.5745 25.1338 26.518" stroke="#333333" stroke-linecap="round" stroke-linejoin="round"/>
<path d="M31.3089 24.8118C31.3089 23.8682 30.6171 23.2931 29.7646 23.5266C28.9078 23.7622 28.2202 24.7175 28.2202 25.6621" stroke="#333333" stroke-linecap="round" stroke-linejoin="round"/>
<path d="M22.0471 27.3685C22.0471 26.4239 21.3563 25.8498 20.5038 26.0833C19.647 26.3178 18.9595 27.2742 18.9595 28.2178" stroke="#333333" stroke-linecap="round" stroke-linejoin="round"/>
<path d="M18.9592 28.2196C18.9592 27.2761 18.2684 26.702 17.4149 26.9344C16.5581 27.17 15.8716 28.1264 15.8716 29.07" stroke="#333333" stroke-linecap="round" stroke-linejoin="round"/>
<path d="M62.7036 26.516C62.7036 25.5725 63.3944 24.9984 64.2469 25.2308C65.1037 25.4654 65.7913 26.4218 65.7913 27.3653" stroke="#333333" stroke-linecap="round" stroke-linejoin="round"/>
<path d="M59.6147 25.6688C59.6147 24.7241 60.3066 24.1501 61.1591 24.3836C62.0159 24.6192 62.7035 25.5745 62.7035 26.518" stroke="#333333" stroke-linecap="round" stroke-linejoin="round"/>
<path d="M56.5273 24.8118C56.5273 23.8682 57.2181 23.2931 58.0717 23.5266C58.9285 23.7622 59.615 24.7175 59.615 25.6621" stroke="#333333" stroke-linecap="round" stroke-linejoin="round"/>
<path d="M65.7944 27.3685C65.7944 26.4239 66.4852 25.8498 67.3388 26.0833C68.1956 26.3178 68.8821 27.2742 68.8821 28.2178" stroke="#333333" stroke-linecap="round" stroke-linejoin="round"/>
<path d="M68.8765 28.2196C68.8765 27.2761 69.5683 26.702 70.4208 26.9344C71.2776 27.17 71.9652 28.1264 71.9652 29.07" stroke="#333333" stroke-linecap="round" stroke-linejoin="round"/>
</svg>
