<?xml version="1.0" encoding="utf-8"?>
<!-- Generator: Adobe Illustrator 26.5.0, SVG Export Plug-In . SVG Version: 6.00 Build 0)  -->
<svg version="1.1" id="Layer_1" xmlns="http://www.w3.org/2000/svg" xmlns:xlink="http://www.w3.org/1999/xlink" x="0px" y="0px"
	 viewBox="0 0 612 792" style="enable-background:new 0 0 612 792;" xml:space="preserve">
<style type="text/css">
	.st0{opacity:0.2;fill:#070707;}
	.st1{fill:#D5B694;}
	.st2{fill:#62152E;}
	.st3{opacity:0.8;fill:#C49F8B;}
	.st4{fill:#F2F2F3;}
	.st5{fill:#312118;}
	.st6{opacity:0.15;fill:#2C1818;}
	.st7{fill:#FFFFFF;}
	.st8{fill:#BF946D;}
	.st9{fill:#AF2445;}
	.st10{fill:#5C696C;}
	.st11{fill:#F3F3F4;}
	.st12{fill:#162133;}
	.st13{fill:#2C1818;}
	.st14{opacity:0.1;fill:#070707;}
	.st15{fill:#070707;}
	.st16{opacity:0.2;}
	.st17{fill:#808080;}
	.st18{fill:#222B3B;}
	.st19{opacity:0.1;}
	.st20{opacity:0.29;}
	.st21{fill:none;stroke:#2C1818;stroke-miterlimit:10;}
	.st22{opacity:0.5;}
	.st23{opacity:0.44;}
</style>
<path class="st0" d="M52.4,744.3c9,8,17.3,11.3,22.7,12.8c8.4,2.4,16.2,2.3,23.9,2.3c3.7,0,12.9-0.2,24.7,0.3c3.2,0.1,6.3,0.3,9.7,2
	c6.1,3,8.8,8.6,9.9,10.5c3.4,5.8,12.3,12.3,37.2,14.5c114.8-0.3,229.7-0.6,344.5-0.9c1.7-0.4,7-1.7,10.8-6.5
	c6.1-7.7,3.2-17.3,2.9-18.1C376.7,755.6,214.6,749.9,52.4,744.3z"/>
<path class="st1" d="M193.7,313.7c1.1-5.1,2.7-13.6,4.1-18.8c2-7.9,3.2-21.7-0.8-48c-3.7-2.8-6-5.2-7.5-7c-1.1-1.3-1.7-2.1-3.1-3.6
	c-2.2-2.4-3.2-3-4.8-5.5c-3.1-5-3.7-9.6-4.6-17.9c-0.4-3.1-1-8.4-0.3-14.7c0.1-1.3,0.4-2.8,0.6-5.4c0.4-4.8,0.4-8.3,0.4-9.5
	c0-10.3,2.9-16.2,3.2-31.8c0.1-4.7-0.1-8.2,0.6-14.1c0.2-1.9,0.8-6.8,2.3-12.2c1.4-5.2,4.4-13.5,11.1-22.7c-1.9,0.2-3.2,0.8-4,1.3
	c-0.8,0.5-2.2,1.4-2.4,1.1c0,0,0-0.1,0-0.1c1.1-1.3,2.7-3.3,4.8-5.5c6.8-7.2,11.5-10.3,11-11.2c-0.3-0.6-2.5-0.4-11.3,3.2
	c1.4-2.9,3.3-6.2,5.6-9.5c3.9-5.5,8.7-12.4,17.1-17c8.4-4.6,16.6-4.7,23.9-4.8c4.1-0.1,4.3,0.3,16.1,1.1c14.6,1,14.2,0.5,20.1,1.1
	c8.8,1,20,2.2,31.1,9.1c3.9,2.4,9.6,6.7,15,14c-0.2,4.3-0.3,8.6-0.5,12.9c2.9,3.2,5.8,6.4,8.7,9.6c-0.6,0.5-1.4,1.3-2,2.6
	c-1,2.1-0.7,4-0.6,5c0.4,3.2-0.3,6.4-0.1,9.7c0.5,8.5-2.1,25.2-3.6,34.5c-1.1,7.2-2.5,15.9-5.2,27.3c-3.6,15.2-7.4,26.5-9,30.8
	c-3,8.4-6.8,18.3-12,29.1c-1.4,1.7-3.2,3.6-5.2,5.5c-3.8,3.5-7.6,5.9-10.8,7.6c0.4,7.3,0.8,13.7,1.1,19.2
	c0.9,12.8,2.1,25.8,5.7,31.6c0.3,0.5,2,3.1,3.8,6.9c0.6,1.1,1.5,3.1,2,4.4c1.3,3.7,0.7,7.6-1.2,13.3c-2.5,7.6-5.8,13.8-9.1,19.2
	c-3.8,6.3-5.8,9.6-9.5,13.6c-3.5,3.8-8.2,8.9-16.2,12.3c-8.5,3.6-16,3.2-17.7,3.1c-8.7-0.6-14.7-4.2-18.5-6.4
	c-9-5.4-13.9-12.3-18.2-18.4c-6.1-8.6-8.7-15.8-9.5-18.2c-1.2-3.5-2.5-7.5-2.7-12.8C191.6,323,192.3,319.8,193.7,313.7z"/>
<path class="st2" d="M180.7,158.3c-0.5,3-1.1,6-1.5,9.3c-0.7,5.2-1.4,10.7-1.8,16.5c-0.8,10.5-0.8,20.2-0.4,28.9
	c-0.5,0.2-1.4,0.5-2.3,1c-3.1,1.6-3.9,3.4-5.4,3.9c-4,1.5-9-1.6-12.9-3.9c-3.7-2.3-7.6-4.6-10-9.2c-0.7-1.4-1.2-2.8-1.6-6.8
	c-0.1-1.4-0.2-3.2-0.3-5.5c-0.5-11.5-0.7-17.3,0.8-22.2c2.2-6.7,5.8-10.8,7.4-12.6c2.9-3.2,6.2-6.8,11-7c2.7-0.1,4.9,0.9,6.3,1.8
	c0.2,0.2,0.5,0.3,0.7,0.4c1,0.6,1.9,1.2,2.9,1.7c1.2,0.7,2.7,1.5,4.8,2.6C179.4,157.7,180.2,158.1,180.7,158.3z"/>
<path class="st2" d="M346,193c-1.8,6.9-2.8,7.7-5.4,15.9c-1.2,3.6-1.8,5.9-2.4,7.7c-0.7,2-1.3,3.2-2.6,4.8c-2.1,2.6-4.5,4-7.1,5.5
	c-4.5,2.7-7.4,4.4-10.8,4c-6.4-0.7-10-8.2-10.4-9.2c6.2-21.2,11.6-36.7,14-41.5c0.6-1.3,1.8-3.4,2.7-4.8c3.4-5.8,4.4-6.7,5.6-7.4
	c0.6-0.3,2.7-1.4,5.4-1.1c2.8,0.3,4.5,2,5.5,2.9c1.7,1.6,2.5,3.2,4,6.5c1.3,2.7,2,4.1,2.4,5.8C347.6,185,347.4,187.8,346,193z"/>
<path class="st3" d="M192.1,150.2c-2.4-3.6-2.7-7.3-2.8-8.7c-0.7-11.3,9.8-21.1,11.7-23c12.8-12.6,34.7-18.6,41.1-11.5
	c1.7,1.9,2.2,6.2,3.2,14.7c0.6,5.6,1,8.6,0.4,12.8c-0.4,2.7-1.2,8.4-5.2,13.6c-5.6,7.4-14,9.2-18.7,10.2c-3,0.6-12.2,2.5-21.5-1.7
	C198,155.6,194.6,154,192.1,150.2z"/>
<path class="st3" d="M272.3,111.2c-3.4,2.1-4,6.4-4.9,13.4c-1.5,11.6-2.6,19.8,2.8,27.7c1,1.6,6.3,9,16.1,10.9
	c7.6,1.5,13.6-1.3,17-2.8c4.1-1.9,10.7-4.9,13.6-11.9c3-7.3,0.4-14.3-0.2-15.8c-3.5-8.7-11.7-12-28.1-18.8
	C277.5,109.5,274.3,109.9,272.3,111.2z"/>
<path class="st4" d="M200.9,147c-0.7-4.6,5.1-8.9,7.5-10.7c6-4.4,12.4-5,15.3-5.1c2.6,2,4.6,3.9,5.9,5.4c2.6,2.9,4.5,5.1,4.9,8.5
	c0.1,0.8,0.2,2-0.1,3.1c-1.5,5.2-11.3,7.9-19.2,6.9C214.6,155.1,201.9,153.4,200.9,147z"/>
<path class="st4" d="M273.4,152.8c-0.6-4.6,3.2-8.5,4.6-9.8c1.1-1.1,3.9-3.8,8.3-4.5c8-1.2,13.7,5.5,14.8,6.8c1.6,1.9,5,5.8,3.8,9.8
	c-0.8,2.8-3.5,4.2-5.8,5.4c-2.2,1.2-7.5,3.4-13.9,1.8C283.8,162,274.3,159.4,273.4,152.8z"/>
<path class="st5" d="M213.4,151.8c-0.2-0.2-1.9-2.7-1.1-5.8c0.8-3.1,3.6-5,6.2-5.4c0.5-0.1,4.5-0.7,7,2.4c2.4,2.9,1.3,6.4,1.2,6.6
	c-1,3.1-4,4.9-6.8,5.1C219.5,154.8,215.6,154.9,213.4,151.8z"/>
<path class="st5" d="M281.2,159.7c-0.1-0.2-1.7-2.4-1.2-5c0-0.2,0.1-0.3,0.1-0.4c0.6-2.6,2.8-5.3,6.1-5.9c2.5-0.4,5.1,0.5,6.8,2.4
	c0.2,0.2,2.8,3.3,1.6,6.9c-1.1,3.2-4.4,4.6-6.8,4.8C287.4,162.5,283.4,162.7,281.2,159.7z"/>
<path class="st6" d="M176.8,190.2c0.4,0,0.4,10.8,7.2,18.3c1,1.1,3.3,3.6,5.3,3c1.5-0.4,2.1-2.5,3-5.3c2.7-8.9,3.2-10.8,4.9-13.2
	c0,0,2.1-3,5.7-4.8c7.3-3.7,14.5,1.1,26.1,3.6c7.8,1.6,13.6,1.3,21.2,1c22.8-1,37.4-9.8,43.6-3.1c0.8,0.9,1.4,2,1.8,2.7
	c2,3.6,2.4,6.4,3.8,14.7c0.6,3.1,0.9,5.1,2,5.4c1.6,0.4,3.8-2.6,5.1-4.5c2.7-4,7.2-11.6,12.9-25.2c-4.5,17.4-8.2,28.5-10.3,34.4
	c-2.8,7.8-3.2,7.9-5.1,14c-2,6.5-2.5,9.5-5.3,13.8c-0.6,1-2.7,4.1-6.4,7.3c-3.6,3.2-7,4.9-9.4,6c-12.1,5.9-18.2,8.9-26.4,11.4
	c-11.3,3.5-17,5.2-22.6,4.1c-7.4-1.4-13.6-5.8-17.9-8.8c-3.1-2.2-5.2-4.1-9.4-8c-8.7-8-7.4-8.2-15.8-16.2c-6.3-6-10.7-9.4-12.9-16.5
	c-0.2-0.6-0.3-1-0.4-1.5c-1.2-5.8,0.6-7.9-0.3-21.8C177.1,197.4,176.5,190.2,176.8,190.2z"/>
<path class="st7" d="M213,206.3c2.8,0.8,6.7,1.9,11.5,2.8c13.6,2.5,24.3,1.6,32.4,0.9c8.1-0.7,18.9-2.4,31.3-6.2
	c-0.3,1.5-1,3.6-2.1,6c-3.2,6.6-8.2,10.1-11.9,12.8c-1.9,1.3-7.7,5.2-16.4,7.5c-5.4,1.4-12.4,3.2-20.9,0.9c-1.8-0.5-6.7-2-11.7-6
	C216.9,218.4,214,209.8,213,206.3z"/>
<path class="st8" d="M196.9,246.9c-2.1,1.1,1.7,16.4,11.4,29.7c5.1,7,10.8,14.9,20.8,17.9c18.4,5.4,35.6-10.6,36.9-11.9
	c-1.5,2.6-3.9,6.3-7.4,10.1c-7.7,8.5-14.9,11.5-14.5,12.2c0.4,0.8,11.3-2.5,20.6-10.9c3.5-3.2,5.9-6.3,7.5-8.7
	c0.5,6,1.9,15.2,6.5,25.5c4.7,10.4,10.9,17.6,15.1,21.9c0.3-1.5,0.6-3.5,0.5-5.7c0-2.6-0.4-4.8-0.9-6.5c-1.1-2.1-2.1-4.3-3.1-6.5
	c-8.5-19.4-9.8-38.5-8.8-54c-12.8,6.5-24,10-31.9,11.9c-10.9,2.6-15.5,2.3-19.5,1.3c-6.6-1.7-11-5.3-17.1-10.4
	C201.9,253.3,198.4,246.2,196.9,246.9z"/>
<path class="st9" d="M453.5,538.1c-1.1,15.5-2.1,67.8-3.4,140.4c-97.1-1.7-194.2-3.5-291.3-5.2c-18.9-0.3-37.7-0.7-56.6-1
	c0.1-4.6,0.2-9.2,0.4-13.9c0-1.6,0.1-3.1,0.1-4.7c0.4-13.9,0.8-27.7,1.2-41.5v-0.1c0.1-3.5,0.2-6.9,0.3-10.4
	c0.2-8.4,0.5-16.8,0.7-25.2c-2.1-1.3-5.1-3-8.9-4.5c-10.1-4-18.6-4-27.7-3.9c-0.6,0-1.4,0-2.2,0.1c-0.3,0-0.5,0-0.8,0
	c-4.7,0.2-12.3,0.8-21.4,2.8c-1,0.2-2.1,0.5-3.1,0.7c-11.8,3-17.8,4.5-21.7,9.7c-0.2,0.2-0.4,0.5-0.6,0.8c0,0,0,0-0.1,0.1
	c-0.9,1.3-2,2.6-3,2.4c-2.6-0.5-2.8-10-2.8-12.4c-0.1-3.5-0.1-6.8,0.6-10c0.3-1.6,0.9-3,1.7-4.5c0.5-0.8,1.6-2.6,2.9-5.5
	c0.8-1.8,1.3-3.4,1.6-4.4c1.3-6.3,3.2-14.6,5.5-24.5c2.6-11.1,4.8-19.6,6.5-26.3c1.4-5.3,2.8-10.8,7.1-26.8
	c8.2-30.4,10.2-37.1,11.8-42.3c0,0,4.5-14.9,12-31.4c0.4-1,0,0.1,5.2-9.4c0.9-1.6,2.1-3.9,4.7-6.2c1.1-0.9,1.9-1.5,2.3-1.8
	c3.3-2.1,17.1-10.8,36-22.5c0.2-0.8,0.7-1.9,1.5-3c1.2-1.6,2.5-2.3,3.1-2.7c12.9-7.7,15.9-10.5,22.5-11.4c1.5-0.2,2.9-0.3,5-0.9
	c4-1.1,6.6-2.9,8.2-4c3.8-2.5,8.4-4.8,17.6-9.4c4.9-2.5,6.1-2.8,8.7-4.6c3.4-2.3,4.4-3.7,7.2-5.2c3.1-1.6,6.4-2.2,9.4-2.2
	c-0.1,0.2-0.2,0.4-0.2,0.6c-1.3,3.6-2.8,9.2-2.2,15.8c0.2,2.1,0.9,8,7.6,19.6c6.2,10.7,9.9,17.1,17.5,23
	c4.3,3.4,14.8,11.4,29.1,10.6c6.4-0.4,11.7-2.4,16-4.7c3.7-2.1,6.7-4.4,8.8-6.2c0,0,0,0,0,0c0.3-0.2,0.6-0.5,0.9-0.7
	c7.3-6.1,10.9-12.7,15.6-21.1c1.1-1.9,2.4-5.2,4.5-11c0.7-2,1.6-4.3,2.6-7c0.5-1.3,1.2-3.3,1.2-5.9c0-0.4,0-0.9-0.1-1.3
	c0-0.3-0.1-0.7-0.1-1c-0.3-2.2-1.2-4-1.8-5.2c0.1-0.1,0.1-0.3,0.2-0.4v0c0,0,0-0.1,0.1-0.1c0.8-1.4,1.7-2.1,2.2-2.4
	c0.8-0.4,1.7-0.6,2.6-0.6c3.6,0.1,7.6,3.4,8.3,4c0.6,0.5,1.1,1,1.6,1.6c0,0,0,0,0,0.1c0.8,0.9,1.4,1.8,1.8,2.5
	c0,0.1,0.1,0.1,0.1,0.2c0,0,0.1,0,0.1,0.1c2,0.9,4,1.9,6.1,3.1c0,0,0,0,0.1,0c3.4,1.8,7,3.8,10.7,6.1c0.7,0.5,1.5,0.9,2.2,1.4
	c6.2,4,11.6,8,16.3,11.9c1.6-0.6,4.1-1.4,7.2-1.3c1.2,0,3.9,0.2,11.4,4.3c7.1,3.8,11.6,6.4,15,11.7c0.8,1.3,1.4,2.5,1.7,3.3
	c5.5,3.6,11,7.4,16.5,11.3c8.8,6.1,17.3,12.3,25.4,18.4c6.8,14.4,10.5,26.6,12.7,34.8c3.5,13.1,5.6,26.7,7.8,40.4
	c1.8,11.3,2.4,17.1,5,27.5c1.9,7.6,2.9,9.8,4,15.7C454.6,524.9,453.8,534.5,453.5,538.1z"/>
<path class="st10" d="M378.4,360.2c-0.5,2.9-1.4,7.7-2.3,13.7c-2.5,17.4-2.7,27.6-4.4,47.5c-1.1,12.3-1.9,18.7-2.6,25.2
	c-4,38.9-3.5,91.3-3.4,103.5c0.3,32.9,0.3,76.3-0.3,136.6c-88.3-1.7-176.6-3.4-264.9-5.1c0.9-11.8,1.8-23.5,2.6-35.3
	c0.2-2.8,0.4-5.5,0.6-8.3c6.8-3.3,11.9-7,15.3-9.8c5.3-4.3,11.4-9.4,15.3-17.9c2.3-4.9,3.1-9.1,3.4-11.5c3.5-22.3,2.6-57.9,2.6-62.2
	c-0.7-30.1,1.2-36.4,0.2-50.2c-0.2-2.8-0.5-5.9-1-9.5c-1-7.2-1.6-9.4-4.3-27.7c-3.5-23.7-3.6-28.4-5.1-37.1
	c-3.5-20.5-11.2-38.1-14.9-47.8c-1.2-3.1-2.2-5.6-3-7.4c-0.4-0.7-0.7-1.6-0.5-2.6c0.3-1.7,1.9-2.7,4-4.1c1.9-1.2,3.4-1.8,3.4-1.8
	c5.4-2.3,7-3.5,10-4.8c0.6-0.3,2.3-1,3.9-1.6c2-0.6,5.1-1.4,9.4-1.2c2.3,6.8,4.1,12.6,5.4,16.9c2.9,9.3,4.3,14,5.6,20
	c0.5,2.2,1.2,5.8,2.6,13c1.4,7.1,1.8,9.7,2,10.8c1.1,6.3,1.6,9.5,1.8,11.6c0.2,3.3,0.2,4.8,0.9,7.4c0.9,3,1.7,4.5,2.1,5.7
	c0.5,1.5,0.7,3.8-0.6,7.2c0.5,0.4,1.2,1.2,1.8,2.3c1.4,2.6,0.7,5.4,0.8,6.2c0.5,3.5,1.1,9.1,2,20.1c1.1,13,1.6,22.7,1.9,26.9
	c0.3,6.1,0.6,11.3,0.7,15.4c0.5,1.4,1,2.8,1.5,4.2c25.1,1.5,51.4,2.5,78.8,2.8c30.2,0.3,59.2-0.2,86.7-1.4
	c1.7-17.5,2.4-30.4,2.4-39.3c0,0-0.2-12.4,0.6-19.8c0.2-1.9,0.6-4.3,0.9-8.3c0.4-4.9,0.7-9.1,0.9-12c-0.5-1.2-1.7-4.6-0.6-8.8
	c0.8-2.8,2.3-4.7,3.1-5.7c0.1-0.8,0.2-2.2,0.3-4.1c0.3-5.9-0.1-10.3-0.1-11.1c-0.4-10.2-0.1-26.7,3.4-53.9c0.7-0.5,1.9-1.1,3.4-1.4
	c2.4-0.5,4.4,0.2,5.7,0.7c9,3.4,15.2,8.2,15.2,8.2C373.7,355.7,375.9,357.6,378.4,360.2z"/>
<path class="st11" d="M159.7,751.6c-14.3,1.5-26.3,1.8-35.4,1.8c-35.5-0.2-61.8-6.1-71.4-9.4c-0.4-0.1-2.6-0.9-5.2-1.8
	c-3.6-1.2-7.8-2.7-7.8-2.7s-1.2-1.2-2.6-2.9c-1.5-1.7-3.2-3.8-4.5-5.7c-2.9-4.3-3.9-8.4-4.7-12c-5.4-24.3-7.1-37.4-7.6-41.2
	c-0.1-0.8-0.1-1.1-0.1-1.1c-1.9-21.3-3.3-37.6-3.1-61.4c0.1-9.4,0.4-17.7,0.7-24.7c0.2-2.9,0.3-5.5,0.5-8c0,0,0,0,0,0c0,0,0,0,0.1,0
	c6.2-4,14.7-8.5,25.4-11.3c0.1,0,0.2-0.1,0.2-0.1c7.4-1.9,14.5-2.7,21.1-2.8c0.3,0,0.5,0,0.8,0c18,0,32.2,5.4,38.8,8.3
	c-0.7,4.9-1.1,9.6-1.4,13.8c-0.5,8.8-0.2,16.1,0.4,21.7v0.1c0.1,1.1,0.2,2.2,0.2,3.3c0.2,4.5,0.1,9-0.1,13.6c-0.1,3.1-0.2,6.2,0,9.3
	v0.1c0.1,1.9,0.2,3.8,0.4,5.7c0.2,1.4,0.7,5.7-1.7,9.6c0,0,0,0,0,0c-1.3,2.1-3,3.4-4.3,4.1c1.4,0.2,2.7,0.4,4.1,0.6
	c5.4,0.8,11,1.8,16.7,3c14.9,3.2,28,7.3,39.4,11.7v0.2c0.2,22.9,0.5,45.9,0.7,68.8C159.6,745.3,159.6,748.5,159.7,751.6z"/>
<path class="st12" d="M543.7,571.2v188.4c0,12.7-10.4,23-23,23h-338c-12.7,0-23-10.4-23-23V571.2c0-12.7,10.4-23,23-23h338
	C533.3,548.2,543.7,558.6,543.7,571.2z"/>
<path class="st5" d="M189.5,131.9c-1.1-0.6,1.9-7.5,4-11.6c1.7-3.3,2.6-5.1,4.4-7.2c3-3.4,6.1-4.8,11.8-7.3
	c2.7-1.2,7.5-2.6,17.2-5.5c3.1-0.9-0.9,0.3,11.3-2.3c3.1-0.7,4.9-1.1,6.1,0c2,1.7,0.9,5.8,0.7,6.4c-1,3.5-3.6,5.3-4.3,5.7
	c-2.4,1.5-4.6,1.6-6.6,1.8c-4.5,0.5-8.7,2.3-13.1,3.4c-13.9,3.6-15,3.8-17.3,5.3c-3.1,2-6.8,5-7.2,5.4
	C191.9,129.9,190.2,132.3,189.5,131.9z"/>
<path class="st5" d="M272.4,102.9c-2.4,1.2-2.7,6.7-0.7,10.4c1.3,2.4,3.3,3.6,3.8,3.9c2.2,1.3,4.3,1.4,5.2,1.5
	c5.6,0.4,11,2.2,17.8,4.5c5.6,1.9,8.4,2.8,11,5.3c3.3,3.2,5,4.8,5.8,7.1c0.3,0.9,1.1,3.1,3,4c0.3,0.1,0.9,0.4,1.3,0.1
	c0.8-0.5,0.2-2.7-0.2-3.8c-2.2-7.4-3.3-11-5.3-13.5c-2-2.5-3.9-3.7-6.9-5.7c-5.9-3.8-11.5-5.7-17.4-7.6c-6.5-2.1-7.3-1.7-9.3-3.3
	c-1-0.8-2.9-2.5-5.8-2.9C273.8,102.7,273.1,102.6,272.4,102.9z"/>
<path class="st5" d="M176.9,188.1c0.8-0.1,5.4,20.7,6,25.2c0.1,0.5,0.2,1.9,1.1,3.4c0.7,1.2,1.6,1.8,2,2.1
	c7.6,5.7,11.4,8.6,12.9,9.5c3.5,2,8.4,4.5,14.4,6.7c0.6-0.6,1.7-1.4,3.3-1.8c1.2-0.3,2.6-0.4,5.7,0.7c4.5,1.6,6.8,2.3,7.7,4.3
	c1.6,3.4-0.9,8.6-4.3,9.7c-0.9,0.3-2.2,0-4.7-0.6c-3.1-0.7-5.3-1.2-7.2-3c-1.3-1.1-2-2.3-2.4-3.1c-1.6-0.8-3.9-1.9-6.7-3.4
	c-6.5-3.4-11.6-6.2-17.2-10.5c-4.4-3.4-6.6-5.1-8-7.8c-1.9-3.5-1.6-6.2-1.8-13.6C177.3,194.2,176.5,188.2,176.9,188.1z"/>
<path class="st1" d="M319.2,258.3"/>
<path class="st10" d="M7.3,572.8"/>
<path class="st0" d="M163,443.3c0,0,0.1,1.2,0,1.2c-0.3,0-2.6-16.6-4.2-27.8c-4.4-30.5-8-47.7-7.7-47.8c0.5-0.1,7.7,26.2,11.9,57.1
	c0.5,3.5,3.2,23.7,5.8,40.7c2.2,14.8,1.8,10.4,2.1,13.2c1.2,10.6,0.4,14.6,3.4,18.1c3.2,3.9,8.5,4.4,11.1,4.7
	c30.2,2.9,45.2,4.3,62.2,3.2c49.7-3.2,77.3,10.8,84.4-2.3c0.7-1.3,0-0.6,1.3-8.5c3.6-22.3,9.3-29.5,6.2-43.2c-0.5-2.1-0.6-1.8-1-3.9
	c-3.1-14.6,2.2-27.9,3.4-27.7c0.2,0,0.4,0.5-0.4,17.7c-0.8,16-2.1,38.8-4.4,67.9c-0.2,0.5-0.6,1.1-1.1,1.8c-0.6,0.7-1.4,1.5-2.6,2.1
	c-1.7,0.9-3.3,0.9-4,1c-56.6,1-68.5,0.3-68.5,0.3c-15.1-0.9-8.8,0.3-40.9-0.6c-19.8-0.6-36.4-1.4-48.7-2.2c-1-0.8-1.9-1.5-2.9-2.3
	C163.2,453.5,162.7,443.3,163,443.3z"/>
<path class="st5" d="M353.5,121.7c-0.9,0.4-2.1-1.7-3.6-1.2c-0.4,0.1-1,0.5-2,2.7c-0.8,1.9-1.2,2.8-1.4,4.7c-0.3,2.2-1.1,6-3.8,13.1
	c-1.6,2.8-2.2,5.2-2.4,6.8c-0.1,1-0.2,2.3-1.2,3.7c-0.9,1.3-2,1.9-2.4,2.2c-2.8,1.8-2.3,7.2-3.4,11.9c-2.1,8.8-9.6,14-12.5,21.2
	c-0.1,0.2-0.4,1.1-1,2.3c-0.8,1.8-1.6,3.5-2.8,6.2c-1.8,3.8-2,3.9-2.1,3.9c-0.6-0.2,2.4-9.5,5.7-23.7c0.7-3.1,1.3-6,1.8-8.5
	c0.8-4.2,1.4-7.3,1.7-8.9c1.7-8.1,2.3-14.5,2.4-15.9c0.9-11,1.8-22,0.8-27.3c-0.1-0.6-0.5-2.6,0.4-4.5c0.6-1.3,1.7-2.2,2.4-2.7
	c-2.8-3.2-5.5-6.5-8.3-9.7c0-1.5,0.1-2.9,0.1-4.4c0-3.2,0-6.3,0-9.4c-3-3.7-8-8.9-15.3-13.2c-9.3-5.5-17.8-6.8-27.6-8.4
	c-8.7-1.4-5.9,0-27.6-2c-5.2-0.5-10-1-16.8-0.6c-4.2,0.2-7.4,0.5-10.9,1.3c-1.1,0.2-2.1,0.6-3.3,1c-8.2,2.9-13.3,8.1-16.5,11.4
	c-5.2,5.3-8.5,10.9-10.6,15.4c-0.3,0.7-0.6,1.4-0.9,2.1c1.5-0.7,3.2-1.3,5.1-1.9c0.9-0.2,1.8-0.5,2.7-0.7c1.5-0.3,2.8-0.5,4.1-0.6
	c-5.2,5.4-10.3,10.9-15.5,16.4c2.1-0.7,4.1-1.3,6.1-2c-1.2,1.2-2.8,3.1-4.4,5.6c-3.7,5.5-5,10.4-6.7,17.2c-2.3,9.2-2.8,16.5-3,19.3
	c-0.3,6.5,0.3,5.9,0,12.8c-0.2,4.1-0.5,5.4-2.4,19.2c-1.4,10.2-1.6,12.5-2.1,12.5c-0.9,0-1.2-8.7-3.1-21.6c-0.6-3.7-1.1-6.6-1.6-9.2
	c-0.7-3.7-1.5-6.9-2.5-11.5c-1.7-8.5-3.8-20.9-5.1-36.7c-2.1,1.2-3.3,1.6-3.6,1.2c-0.4-0.4,0.6-2.1,3-4.9c-2.1-0.1-4.2-0.2-6.3-0.2
	c-0.2-0.1-0.4-0.1-0.6-0.2c1.6-2.8,3.8-6,6.8-9.2c3.2-3.6,6.5-6.3,9.5-8.3c0,0,0,0,0,0c0.8-0.3,1.7-0.6,2.4-0.8
	c-0.3,0-0.7-0.1-1-0.1c0.5-0.3,0.9-0.6,1.4-0.9c-0.8,0.3-1.5,0.5-2.3,0.8c-1.6,0.3-3.2,0.8-4.9,1.3c-3.2,1-6,2.1-8.4,3.3
	c2.4-3,6-6.7,11.3-9.7c1.6-0.9,3.2-1.7,4.7-2.3c0.3-1.7,0.7-3.3,1.2-4.8c0.2-0.5,0.3-1,0.5-1.4c3.5-0.9,6.7-1.3,9.2-1.5
	c1.5-7.6,4.1-13.3,6.4-17.1c0.6-1.1,1.2-2,1.8-2.7c6.4-9.1,14.7-14.2,18.5-16.6c6.3-3.8,8.7-3.8,13.9-7.9c3.7-2.9,6.5-6.1,8.5-8.8
	c0.6-0.8,1.1-1.5,1.5-2.2c0.2-0.3,0.4-0.7,0.6-1c0.6,1.3,1.4,3.5,1.5,6.4c0.1,2.5-0.3,4.6-0.7,5.9c3.5-2.3,7.9-5.1,13.2-7.8
	c8.3-4.3,15.3-6.9,19.4-8.3c6.6-2.2,15.3-4.6,25.6-5.9c-3.1,2.3-6.1,4.6-9.2,6.9c2,0.1,5,0.4,8.4,1.3c3.1,0.8,5,1.6,6.6,2.3
	c1.4,0.2,3.1,0.3,5,0.5c2.2,0.2,5.2,0,8.9-1c1.7-0.5,3.6-1.2,5.7-2.1c1.4-0.7,3-1.5,4.5-2.4c-0.4,1.2-1.1,3-2,5
	c-0.6,1.3-3.4,7-9.2,13c-0.1,0.1-0.2,0.2-0.3,0.3c-1.3,1.4-3.2,3.1-5.5,4.9c2.9-0.4,4.8-0.9,5.9-1.3c0.5-0.2,1.9-0.6,2.8-0.9
	c1.2-0.4,1.8-0.6,2.1-0.7c1-0.3,2.3-0.9,3.9-1.9c-0.5,0.9-1.3,2.2-2.4,3.4c-0.2,0.3-1.2,1.4-2.3,2.4c-2.4,2.1-5.2,3.3-7.1,3.9
	c0.5,0.1,1,0.2,1.6,0.4c1.6,0.5,3.7,1.2,5.9,2.2c11.3,5.2,17,13.9,19.2,17.4c3,4.8,4,9.4,4.5,12c0.6,2.8,0.8,5.2,0.8,7
	c-0.6-0.7-1.3-1.4-1.9-2.1c-0.5-0.4-1.9-1.5-3.9-1.6c-1,0-1.8,0.2-2.3,0.4c1.5,2.9,3.5,6.1,6.1,9.5c2.6,3.4,5.1,6.1,7.4,8.4
	c0,0-1.2,1.2-2.1,1.8c-0.7,0.5-1.7,1-3.3,1.1c0.1,0.2,0.3,0.5,0.6,0.9c1.2,2.1,1.9,3.5,2.4,4.4c1.3,2.5,1.8,2.5,2.9,4.4
	c1.5,2.7,1.9,5,2.7,9.7C354.4,121,353.8,121.6,353.5,121.7z"/>
<path class="st13" d="M37.1,735.9c-1.1-2.5-0.1-4.8,1.1-9.8c2.1-9,0.5-8.2,2.3-15.6c2.1-8.3,5.4-14.5,7.9-19.2
	c1.1-2,2.9-5.3,5.5-9.2c4.6-6.8,8.6-12.8,15.8-18.3c4.1-3.2,11.3-8.7,22-10c4.6-0.6,8.5-0.2,11.1,0.2c0,1.6-0.1,3.1-0.1,4.7
	c-1.8-0.3-4.6-0.5-7.8,0c-5.2,0.9-10.3,3.6-22,16.6c-9,10.1-13.6,15.2-17.5,22.8c-2.2,4.2-6.3,12.4-7.9,24.1
	c-1.1,8.1-0.5,14.9,0.2,19.6C44.3,741.3,38.8,739.9,37.1,735.9z"/>
<path class="st11" d="M39,713.5c0.8,0.1-0.3,5.1,2.8,7.4c1.5,1.2,3.5,1.1,5,1c0.3,0.9,6.5,17.6,1.9,20.4c-2.9,1.8-9.6-2.3-12.6-7.7
	C30.7,725.1,37.7,713.3,39,713.5z"/>
<path class="st11" d="M71.2,691.2c-4.6,4.4-10,7.4-12.4,6.1c-2.2-1.2-2.5-6.3-2.1-9.2c0.2-1.8,0.7-3.2,1.1-4.1
	c-0.3-2.1-0.4-5.4,1.2-8.9c0.2-0.6,2.5-5.5,4.8-5.3c0.3,0,0.7,0.2,0.9,0.4c0.7-1.4,2.6-4.9,4.6-4.7c2.1,0.2,2.4,4.2,4.7,4.4
	c1.6,0.2,2.1-1.7,4-1.8c2.4-0.2,5.1,2.4,5.8,4.5C85.7,678,77.8,687.2,71.2,691.2z"/>
<path class="st11" d="M80.2,657.2c-0.2,1,0.6,1.4,2,3.9c1.5,2.7,1.5,3.9,2.3,4.1c0.3,0.1,1.4,0.2,3.3-2.5c-0.1-1-0.4-2.5-1.2-4.2
	c-0.9-2-1.4-3.2-2.6-3.5C82.6,654.6,80.5,655.8,80.2,657.2z"/>
<path class="st14" d="M83,750.8c-0.2-5,0.3-9,0.8-11.8c0,0,2.2-12,15.4-28.5c0.5-0.6,1.5-1.9,3.3-2.7c3-1.4,6.2-0.6,7.1-0.4
	c4.8,1.1,23.2,2.9,49.7,5.3c0,13.3,0,26.6,0,39.9C133.8,752,108.4,751.4,83,750.8z"/>
<path class="st15" d="M216.5,145c1.6-1.5,4.2-1.7,5.9-0.3c1.3,1.1,1.7,3,1.2,4.4c-0.9,2.6-4.8,4-7,2.3
	C215,150.1,214.7,146.8,216.5,145z"/>
<path class="st15" d="M284.4,152.9c1.6-1.6,4.3-1.7,5.9-0.3c1.3,1.1,1.7,3,1.2,4.5c-0.9,2.7-4.9,4-7,2.3
	C282.8,158,282.5,154.8,284.4,152.9z"/>
<path class="st7" d="M213.8,142c-0.5-0.7-1.1-1.4-0.9-2.1c0.3-1.1,2.2-1.7,3.4-1.2c1.8,0.9,1.7,4.7,0.6,5.2
	C216,144.4,214.4,142.8,213.8,142z"/>
<path class="st7" d="M214,142.8c0.6,0.2,0.9,2.1,0.3,2.5c-0.3,0.2-1.2-0.2-1.4-1C212.7,143.4,213.6,142.6,214,142.8z"/>
<path class="st7" d="M281.9,151.3c-0.5-0.7-1.1-1.4-0.9-2.1c0.3-1.1,2.2-1.7,3.4-1.2c1.8,0.9,1.7,4.7,0.6,5.3
	C284.2,153.7,282.5,152.1,281.9,151.3z"/>
<path class="st7" d="M282.1,152.1c0.6,0.2,0.9,2.2,0.3,2.5c-0.3,0.2-1.2-0.2-1.4-1C280.8,152.7,281.7,152,282.1,152.1z"/>
<g class="st16">
	<g>
		<path class="st17" d="M219.7,218c-0.6-1.3-1.2-2.6-1.7-3.9c-0.3-0.7-0.5-1.3-0.8-2c-0.1-0.3-0.2-0.7-0.4-1
			c-0.2-0.4-0.1-0.6-0.5-0.3c0.9-0.6,0.4-2.3-0.8-1.9c0.1,0.1,0.2,0.2,0.2,0.2c-0.5,0.3-1.1,0.6-1.6,0.9c0.8,0.3,1.6,0.7,2.4,1
			c-0.1-0.5-0.3-1-0.4-1.4c-1,1.4-0.7,3.2,0.4,4.4c0.5-0.5,1-1,1.5-1.5c-0.4-0.4,0.4-0.7,0.7-0.7c0.5-0.1,1.1,0.1,1.6,0.2
			c1.1,0.3,2.3,0.5,3.4,0.7c2.2,0.4,4.3,0.7,6.5,1c4.4,0.5,8.8,0.7,13.3,0.5c9-0.2,17.9-1.6,26.6-3.5c2.5-0.5,5.1-1.1,7.6-1.8
			c1.2-0.3,2.4-0.6,3.6-1c1.2-0.3,2.5-0.8,3.8-0.5c0.4,0.1,1-0.1,1.2-0.5c0.1-0.2,0.2-0.5,0.3-0.7c-0.6-0.1-1.3-0.2-1.9-0.3
			c0.1,0.3-6.3,0.6-6.8,0.6c-1.2,0-1.2,1.7,0,1.8c1.3,0.1,2.6,0.3,3.8,0.7c1.1,0.3,1,1.1,0.5,2c-0.3,0.5-0.6,1.1-0.9,1.6
			c-1.3,2.1-2.9,4-4.8,5.6c-4,3.4-8.8,5.8-13.8,7.7c-5.3,2-10.6,3.5-16.3,3.3c-5-0.1-10-0.8-14.7-2.6c-2.6-1-5.1-2.5-7.2-4.3
			c-2.2-2-3.9-4.3-5.8-6.5c-0.6-0.7-1.9,0.2-1.4,1c3,4.9,7.3,9,12.6,11.3c5.3,2.3,11.2,3,16.9,3c6.4-0.1,12.5-2,18.4-4.5
			c5.3-2.2,10.3-5.2,14.3-9.3c1-1.1,2-2.2,3-3.4c0.8-1.1,2-2.5,2.1-3.9c0.2-3-4.6-3.2-6.7-3.4c0,0.6,0,1.2,0,1.8
			c2.2-0.1,4.5,0.1,6.6-0.2c1.4-0.2,2.6-1.3,2.2-2.8c-0.2-0.8-1.5-1.1-1.9-0.3c-0.1,0.2-0.2,0.5-0.3,0.7c0.4-0.2,0.8-0.3,1.2-0.5
			c-2.2-0.6-4.6,0.3-6.7,0.9c-2.5,0.7-5,1.3-7.5,1.9c-5,1.2-10.1,2.2-15.3,2.8c-10.2,1.3-20.6,1.6-30.7-0.2
			c-1.4-0.2-2.8-0.5-4.1-0.8c-1.1-0.2-2.3-0.6-3.4-0.3c-1.8,0.5-2.7,2.7-1.3,4.1c0.9,0.9,2.3-0.5,1.5-1.5c-0.5-0.6-0.5-1.3-0.1-1.9
			c0.3-0.4,0.1-1.2-0.4-1.4c-0.8-0.4-1.6-0.7-2.4-1.1c-0.7-0.3-1.6,0-1.6,0.9c0,1.3,1.2,2.3,2.5,1.8c-0.3-0.6-0.5-1.3-0.8-1.9
			c-1.5,1-0.6,2.7,0.2,3.9c1.2,1.8,2.2,3.8,3.3,5.7C219.1,219.1,220,218.6,219.7,218L219.7,218z"/>
	</g>
</g>
<g>
	<g>
		<path class="st17" d="M217,215.2c6.5,2.4,13.6,3.8,20.5,3.7c0,0,0,0,0,0c-3.5-0.3-7-0.6-10.5-1.3c-3.4-0.7-6.7-1.6-10-2.8
			C216.9,214.8,216.8,215.1,217,215.2L217,215.2z"/>
	</g>
</g>
<path class="st5" d="M104.1,576.1c1.8,1.4,4.1,3.4,6.6,6.3c2.8,3.2,2.8,4.1,2.7,4.7c-0.4,2.1-4.1,3.5-9.1,3.9
	c-0.3-1.2-0.5-2.6-0.6-4C103.2,582.6,103.5,579,104.1,576.1z"/>
<path class="st5" d="M17.3,583c-0.7-0.3-2.3,0.7-2.3,2.3c0,1.3,1.1,2.4,2.5,2.3C17.7,586.4,18.2,583.4,17.3,583z"/>
<path class="st18" d="M407.5,782.7H182.7c-12.7,0-23-10.4-23-23V598.9c0.1-0.1,0.2-0.2,0.3-0.2c3.2,0,0.6,46.6,18.8,101.5
	c12.4,37.3,25.1,50.5,35.8,58c11.4,8,23.4,11.4,33.5,14.2c18.1,5.1,32.2,5.6,53.7,6c47.3,0.8,53.6-0.1,69.4,0.6
	C381,779.3,393.2,780.3,407.5,782.7z"/>
<path class="st18" d="M543.7,571.2v140.9c-1.9-18.8-5.6-46-15.4-75.5c-12.3-37.3-25-50.5-35.8-58c-11.5-8-23.4-11.4-33.5-14.2
	c-18.1-5.1-32.2-5.6-53.7-6c-47.3-0.8-53.6,0.1-69.4-0.6c-15.8-0.7-37.7-2.9-64.2-9.7h249.1C533.3,548.2,543.7,558.6,543.7,571.2z"
	/>
<g>
	<g>
		<path class="st7" d="M21,630.9c0.9,3.4,3.2,6.5,5.9,8.8c2.6,2.2,5.7,3.5,9.1,3c0.9-0.1,1.7-0.4,2.5-0.8c0.8-0.4,1.3-1,1.9-1.8
			c0.2-0.2-0.2-0.6-0.4-0.4c-1.4,1-3.3,1.7-5,1.7c-1.9,0.1-3.8-0.5-5.4-1.4c-1.7-1-3.1-2.4-4.4-3.9c-1.4-1.6-2.6-3.4-3.1-5.5
			C21.9,629.9,20.8,630.2,21,630.9L21,630.9z"/>
	</g>
</g>
<g>
	<g>
		<path class="st7" d="M53.6,738.4c-0.7-7.5-0.1-15.2,1.9-22.5c2-7.4,5.6-14.2,9.8-20.6c1.2-1.8,2.5-3.5,3.7-5.3
			c0.6-0.9,1.3-1.8,1.9-2.7c0.6-0.9,0.9-2,1.5-2.9c0.1-0.1-0.1-0.2-0.2-0.1c-0.6,0.8-1.5,1.3-2.1,2c-0.7,0.7-1.3,1.5-1.9,2.3
			c-1.2,1.5-2.3,3.1-3.4,4.7c-2.2,3.2-4.3,6.5-6.1,10c-3.5,6.9-5.8,14.4-6.7,22.1c-0.5,4.3-0.5,8.7,0,13
			C52,739.5,53.7,739.5,53.6,738.4L53.6,738.4z"/>
	</g>
</g>
<g>
	<g>
		<path class="st7" d="M77.1,680.5c0.8-0.8,1.6-1.5,2.4-2.3c0.4-0.4,0.8-0.7,1.2-1.1c0.4-0.4,0.8-0.8,1-1.3c0.1-0.2-0.1-0.4-0.3-0.3
			c-0.5,0.2-0.9,0.6-1.3,0.9c-0.4,0.4-0.8,0.8-1.2,1.2c-0.8,0.8-1.6,1.5-2.4,2.3C76.1,680.3,76.7,680.9,77.1,680.5L77.1,680.5z"/>
	</g>
</g>
<g class="st19">
	<g>
		<path class="st7" d="M167.1,574.9c-1.7-7.2,4.1-13.5,10.3-16c3.5-1.4,7.2-2,11-2.4c4-0.4,8.1-0.6,12.1-0.8
			c2.3-0.1,4.6-0.2,6.9-0.2c2.5,0,4.9,0.1,7.4-0.2c0.1,0,0.2-0.2,0-0.3c-2.1-0.4-4.3-0.4-6.4-0.5c-2.4-0.1-4.8-0.1-7.1-0.1
			c-4.5,0-9,0.1-13.5,0.6c-7.2,0.8-15.1,2.9-19.2,9.5c-1.9,3.1-2.9,6.9-2,10.5C166.6,575.4,167.1,575.3,167.1,574.9L167.1,574.9z"/>
	</g>
</g>
<g class="st19">
	<g>
		<path class="st7" d="M220.7,554.7C220.7,554.7,220.7,554.6,220.7,554.7C220.6,554.6,220.6,554.7,220.7,554.7L220.7,554.7z"/>
	</g>
</g>
<g class="st19">
	<g>
		<path class="st7" d="M221.5,555.1c0.8,0,1.6,0,2.4,0c0.8,0,1.6,0,2.4-0.2c0.2-0.1,0.2-0.4,0-0.5c-0.8-0.2-1.6-0.2-2.4-0.2
			c-0.8,0-1.6,0-2.4,0C220.9,554.1,220.9,555.1,221.5,555.1L221.5,555.1z"/>
	</g>
</g>
<g class="st19">
	<g>
		<path class="st7" d="M538.1,742.3c0.5,7.8,0.6,16.6-3.9,23.4c-2.2,3.3-5,5.4-8.8,6.6c-4,1.2-8.1,1.6-12.2,2.3
			c-0.2,0-0.1,0.2,0,0.3c4.3,0.4,9.1-0.6,13.3-1.9c3.6-1.1,6.8-2.8,9.1-5.8c2.3-3,3.5-6.7,4-10.4c0.3-2.3,0.3-4.6,0.1-6.9
			c-0.3-2.5-0.5-5-0.8-7.5C538.7,741.9,538.1,741.9,538.1,742.3L538.1,742.3z"/>
	</g>
</g>
<g class="st19">
	<g>
		<path class="st7" d="M505.9,774.3c0.1,0,0.1-0.1,0-0.1C505.8,774.2,505.8,774.3,505.9,774.3L505.9,774.3z"/>
	</g>
</g>
<g class="st19">
	<g>
		<path class="st7" d="M316.3,652.4c1.5-6.8,5.2-12.7,9.7-18c0.1-0.1-0.1-0.3-0.2-0.2c-1.4,1.1-2.8,2.2-3.8,3.6
			c-1.1,1.4-2.1,2.9-2.9,4.4c-1.7,3.1-3,6.4-3.7,9.9C315.2,652.8,316.2,653.1,316.3,652.4L316.3,652.4z"/>
	</g>
</g>
<g class="st19">
	<g>
		<path class="st7" d="M331.9,630.5c0.8-0.7,1.6-1.2,2.5-1.6c0.4-0.2,0.9-0.4,1.3-0.5c0.5-0.2,1-0.4,1.4-0.6
			c0.2-0.1,0.2-0.4-0.1-0.5c-0.5-0.1-1.1-0.1-1.6,0.1c-0.5,0.2-1.1,0.4-1.6,0.6c-1,0.5-1.9,1.1-2.8,1.8
			C330.6,630.2,331.4,630.9,331.9,630.5L331.9,630.5z"/>
	</g>
</g>
<path class="st0" d="M135.8,605.9c-9.4,20.6-26.4,29.9-31.7,32.5v-0.1c0-3.1,0-6.2,0-9.3c0-4.5,0-9,0.1-13.6c0-4.6,0-9.2,0.1-13.7
	c0-3.6,0-7.3,0-10.9c-0.2-0.2-0.5-0.3-0.7-0.5c-7.6-4.9-14.5-7.5-19.3-8.9c-23.2-6.8-43.6,0.1-52.1,3.1c-5.7,2-10.2,4.1-13.3,5.8
	c-0.3,0.1-0.6,0.1-0.8,0.1c0.2-2.9,0.3-5.5,0.5-8c-0.9,1.3-2,2.6-3,2.4c-2.6-0.5-2.8-10-2.8-12.4c-0.1-3.5-0.1-6.8,0.6-10
	c0.5-1.5,1.1-2.9,1.7-4.5c0.2,1.9,0.7,4.4,2.6,6.2c6.2,5.9,19.1-3.2,38.1-6.5c23.3-4.1,28.5,5.4,39.2-0.9c15.7-9.1,16.2-36,16.5-50
	c0.6-31.9-10.7-57.2-8.5-58c2.2-0.8,13,26.1,16.8,24.7c1.7-0.6,1.6-6.6,2.1-6.6c0.6,0-0.4,7.3,2.6,9c2,1.2,5.2-0.6,7.4-2.1
	c-0.6,4.3-1.3,10.5-1.7,17.9c-0.6,10.9-0.4,19,0,30c0.2,7.2,0.2,1.5,1.4,22.2c0.6,10.6,1,18.2,6.5,24c1.3,1.3,2.6,2.3,3.4,2.8
	C142.1,577.2,142.6,590.9,135.8,605.9z"/>
<path class="st0" d="M368.4,461.6c0,1.1,0,1.6,0.1,1.6c0.3,0,1.4-5.4,3.1-16.3c0.2-0.2,0.5-0.6,0.7-1.1c0.7-1.1,1.1-2.1,1.8-6.8
	c0.3-2,0.4-2.8,0-3.7c-0.3-0.7-0.7-1.2-1.1-1.5c0.4-0.1,1-0.3,1.5-0.9c0.8-0.8,0.7-1.8,0.9-3.8c0.3-3.5,1-4.2,0.4-5.9
	c-0.3-0.9-0.8-1.5-1.1-1.9c0-7.3,0.4-15.2,1.3-23.6c1.3-12.2,3.4-23.1,5.8-32.6c-1.1-1.6-2.3-3.3-3.4-4.9
	c-2.8,13.1-4.6,25.3-5.8,36.4c-1.8,16.7-0.4,14.5-2.1,34.6c-1.5,17.6-4,35.6,0,36.9c1.9,0.6,4.4-2.8,6.8-1.7c2.2,1,1.5,4.4,2.8,4.9
	c3.7,1.5,16.4-23.7,18.1-22.9c1.3,0.6-6.2,16.2-10.4,37.9c-5.6,28.6-0.9,43.5,0.9,48.4c2.3,6.3,5.1,11.1,7,14.1c-10,0-20,0-29.9,0
	C366.6,519.6,367.5,490.6,368.4,461.6z"/>
<path class="st14" d="M317.2,377.1c-11.7,16-24.5,33.5-47.8,44.6c-9.4,4.5-23.2,9.1-23.6,8.2c-0.1-0.3,1.9-1.4,3.8-2.7
	c7.2-4.9,14.7-15,13.2-20c-2.6-8.7-30.3,3.6-56.4-11.1c-2.6-1.5-31.2-18-32.8-41c-0.4-5.2,0.5-12.3-4.3-16.8
	c-5.7-5.4-15.4-3.1-15.6-5.1c-0.2-1.4,4.6-2.4,15.7-8c3.7-1.9,5.6-2.9,7.6-4.2c4.7-3,5.1-4.5,8.2-5.6c3.2-1.2,6.2-1.3,8.2-1.1
	c-1.4,3.4-2.9,8.7-2.2,15.8c0.2,2.1,0.9,8,7.6,19.6c6.2,10.7,9.9,17.1,17.5,23c4.3,3.4,14.8,11.4,29.1,10.6c6.4-0.4,11.7-2.4,16-4.7
	c0.5,0,1.1,0,1.6-0.1c1.3-0.2,3.4-2.2,7.1-6.1c0,0,0,0,0,0c0.5-0.5,1-1.1,1.6-1.6c7.8-8.1,11.8-15.9,19.4-31.1
	c0.2-0.4,0.4-0.9,0.6-1.3c1.4-2.8,3.2-6.7,3.2-11.5c0-0.4,0-0.9-0.1-1.3c0-0.3-0.1-0.7-0.1-1c-0.3-2.4-1-4.4-1.6-5.6v0
	c0,0,0-0.1,0.1-0.1c1.2-1.7,2.4-2.3,3.1-2.6c0.5-0.2,1.1-0.3,1.7-0.3c3.6-0.2,7.9,2.5,9.8,5.5c0,0,0,0,0,0.1
	c0.4,0.6,0.9,1.5,1.8,2.5c0.1,0.1,0.2,0.2,0.2,0.2c0.2,0.2,0.4,0.4,0.7,0.6c1.3,1,2.5,1.4,3,1.6c0.8,0.3,1.6,0.6,2.4,0.9
	c0,0,0,0,0.1,0c0.2,0.2,0.6,0.6,1.1,1c3.5,3.1,6.5,4.1,10.4,6.2c3.4,1.8,5.1,2.7,6,3.6C340.4,345.1,319.4,374.2,317.2,377.1z"/>
<g class="st20">
	<g>
		<path class="st15" d="M135.5,451.2c1.9,1.1,4.4,0.8,6.5,0.7c2.4-0.1,4.8-0.2,7.2-0.5c2.4-0.3,4.8-0.6,7.1-1.1c2-0.4,4.1-0.7,6-1.5
			c0.9-0.4,1.8-0.8,2.5-1.5c0.3-0.3,0.6-0.6,0.8-1c0.2-0.4,0-0.7,0.1-1.1c0-0.2-0.2-0.4-0.4-0.2c-0.1,0.2-0.4,0.3-0.6,0.5
			c-0.3,0.3-0.6,0.6-0.9,0.8c-0.6,0.5-1.2,0.8-1.9,1.1c-1.7,0.7-3.7,1-5.5,1.4c-4.4,0.9-8.8,1.4-13.3,1.6c-1.2,0.1-2.4,0.1-3.6,0.1
			c-1.2,0-2.4,0.1-3.5-0.5C135.4,449.7,134.8,450.8,135.5,451.2L135.5,451.2z"/>
	</g>
</g>
<g class="st20">
	<g>
		<path class="st15" d="M341.3,421.9c-1,2.2-0.1,4.4,1.8,5.8c2.2,1.7,5.2,1.7,7.9,2c3.1,0.3,6.2,0.5,9.3,0.8
			c1.5,0.1,3.1,0.3,4.6,0.4c1.3,0.1,2.7,0.1,3.9-0.4c1.2-0.5,2.1-1.5,2.6-2.6c0.3-0.6,0.4-1.2,0.6-1.9c0.1-0.3,0.1-0.6,0.1-0.9
			c0-0.3-0.2-0.5-0.2-0.9c0-0.2-0.2-0.2-0.3,0c-0.1,0.4-0.5,0.6-0.6,0.9c-0.2,0.5-0.4,1-0.6,1.5c-0.4,0.8-0.9,1.6-1.6,2.1
			c-1,0.7-2.2,0.6-3.4,0.6c-1.3-0.1-2.5-0.2-3.8-0.3c-2.7-0.2-5.5-0.5-8.2-0.8c-1.3-0.1-2.7-0.2-4-0.3c-1.2-0.1-2.4-0.2-3.5-0.5
			c-1.1-0.3-2.2-0.9-2.9-1.9c-0.6-0.9-1-2.1-0.6-3.1C342.5,421.7,341.5,421.3,341.3,421.9L341.3,421.9z"/>
	</g>
</g>
<g class="st20">
	<g>
		<path class="st15" d="M340.2,436c-0.5,2.3,0.4,4.6,2.4,5.8c1.1,0.7,2.4,0.9,3.6,1c1.4,0.2,2.8,0.3,4.2,0.4c3,0.3,6,0.5,9,0.7
			c1.5,0.1,3,0.1,4.4,0.2c1.3,0,2.7,0,4-0.6c1-0.5,1.7-1.4,2.2-2.5c0.2-0.5,0.4-1.1,0.5-1.6c0.1-0.6-0.1-1.2,0-1.9
			c0-0.1-0.2-0.2-0.2,0c-0.1,0.5-0.4,0.9-0.6,1.3c-0.2,0.4-0.4,0.8-0.6,1.3c-0.3,0.8-0.8,1.5-1.5,2c-1,0.6-2.2,0.6-3.3,0.5
			c-1.3-0.1-2.6-0.1-3.8-0.2c-2.6-0.1-5.2-0.4-7.8-0.6c-1.3-0.1-2.6-0.2-3.9-0.4c-1.1-0.1-2.3-0.2-3.4-0.4c-1.1-0.2-2.4-0.6-3.1-1.5
			c-0.7-0.9-1.1-2.1-0.9-3.2C341.3,435.6,340.3,435.3,340.2,436L340.2,436z"/>
	</g>
</g>
<g class="st20">
	<g>
		<path class="st15" d="M134.4,443.3c0.3,2.1,2.2,3.3,4.1,3.6c2.4,0.4,4.9,0.1,7.2,0c2.5-0.2,5-0.5,7.5-0.9c2.4-0.4,4.9-0.7,7.3-1.2
			c1.2-0.2,2.3-0.6,3.2-1.4c0.8-0.6,1.5-1.7,1.1-2.7c-0.1-0.3-0.4-0.3-0.6-0.1c-0.5,0.7-0.9,1.4-1.6,1.9c-0.8,0.5-1.8,0.7-2.7,0.9
			c-2.1,0.4-4.3,0.7-6.4,1c-4.3,0.6-8.6,1.1-12.9,1.1c-1.8,0-4.8-0.2-5.2-2.4C135.3,442.3,134.3,442.6,134.4,443.3L134.4,443.3z"/>
	</g>
</g>
<g class="st20">
	<g>
		<path class="st15" d="M131.9,430.6c0,2.2,1.8,3.7,3.8,4.1c1.2,0.2,2.4,0.2,3.6,0.2c1.3,0,2.7,0,4,0c2.6-0.1,5.3-0.3,7.9-0.7
			c2.5-0.3,5.1-0.6,7.5-1.5c1.1-0.4,2.2-1.1,3-2c0.7-0.8,1.5-2.2,0.9-3.2c-0.2-0.3-0.5-0.3-0.7-0.1c-0.6,0.6-0.8,1.4-1.4,2.1
			c-0.6,0.7-1.4,1.2-2.3,1.5c-2,0.8-4.3,1-6.4,1.3c-4.6,0.6-9.2,0.9-13.8,0.9c-1.1,0-2.3-0.1-3.3-0.5c-0.9-0.4-1.7-1.1-1.8-2.1
			C133,429.8,131.9,429.8,131.9,430.6L131.9,430.6z"/>
	</g>
</g>
<path class="st0" d="M338.2,216.6c-0.7,2-1.3,3.2-2.6,4.8c-2.1,2.6-4.5,4-7.1,5.5c-4.5,2.7-7.4,4.4-10.8,4c-6.4-0.7-10-8.2-10.4-9.2
	c4.8-13,9.6-25.9,14.4-38.8c0.2,7.1-0.8,12.6-1.9,16.4c-1.5,5.2-3.6,9.3-2.3,14.7c0.4,1.6,1,4.5,3.2,6c3.7,2.5,10.7,0.5,17.1-5.5
	C337.8,214.8,338,215.6,338.2,216.6z"/>
<path class="st0" d="M170.9,154.3c1.9,11.6,3.8,23.1,5.7,34.7c0.9-7.1,1.7-14.3,2.6-21.4c-0.7,5.2-1.4,10.7-1.8,16.5
	c-0.8,10.5-0.8,20.2-0.4,28.9c-0.5,0.2-1.4,0.5-2.3,1c-3.1,1.6-3.9,3.4-5.4,3.9c-4,1.5-9-1.6-12.9-3.9c-3.7-2.3-7.6-4.6-10-9.2
	c-0.7-1.4-1.2-2.8-1.6-6.8c2.5,0.2,3.2,3.4,9.1,6.4c1.3,0.7,9.3,4.7,13.2,1.7c2.2-1.7,2.3-4.8,2.4-8.7c0.3-18,0.4-27.1,0.4-27.5
	c-0.1-4.2,0-9.9,0.8-16.9C170.8,153.4,170.9,153.8,170.9,154.3z"/>
<path class="st0" d="M140.4,610.5c-3.8,8.2-13.1,23.4-37.1,35.8c0-0.1-0.1-0.1-0.1-0.2c0.2-2.8,0.4-5.5,0.6-8.3
	c6.8-3.3,11.9-7,15.3-9.8c5.3-4.3,11.4-9.4,15.3-17.9c2.3-4.9,3.1-9.1,3.4-11.5c3.5-22.3,2.6-57.9,2.6-62.2
	c-0.7-30.1,1.2-36.4,0.2-50.2c2.1,7.2,3.4,39.9,4,58.3C146.5,594,143.9,603,140.4,610.5z"/>
<g class="st20">
	<g>
		<path class="st15" d="M367.3,447.2c-0.5,6.5-1.1,12.9-1.5,19.4c-0.4,6.5-0.7,12.9-1,19.4c-0.7,12.9-0.9,25.9-0.9,38.8
			c0,7.3,0,14.6,0.2,21.9c0,1.3,2,1.3,2,0c-0.2-13-0.2-25.9,0-38.9c0.2-12.9,0.5-25.9,1.2-38.8c0.4-7.3,0.7-14.6,1.2-21.9
			C368.6,446.4,367.4,446.4,367.3,447.2L367.3,447.2z"/>
	</g>
</g>
<g class="st20">
	<g>
		<path class="st15" d="M375.9,360.2c-1.4,3.5-2.1,7.2-2.6,10.9c-0.5,3.9-1,7.8-1.5,11.7c-1,7.8-1.9,15.7-2.4,23.6
			c-0.1,2.2-0.3,4.4-0.4,6.6c0,1.2-0.1,2.3-0.1,3.5c0,1.1-0.2,2.3,0.1,3.4c0.2,0.7,1.2,0.7,1.4,0c0.3-0.9,0.2-1.9,0.2-2.9
			c0-1,0.1-2,0.1-3c0.1-2,0.2-3.9,0.3-5.9c0.3-3.9,0.6-7.9,1-11.8c0.8-7.9,1.9-15.7,2.9-23.5c0.5-4.1,1.1-8.2,2.6-12.1
			c0.2-0.5-0.2-1-0.6-1.1C376.5,359.5,376.1,359.8,375.9,360.2L375.9,360.2z"/>
	</g>
</g>
<g class="st20">
	<g>
		<path class="st15" d="M143,340.8c1.7,4.9,3.1,10,4.5,15c1.5,5.1,2.9,10.3,4.3,15.5c2.8,10.3,5.2,20.7,6.8,31.3
			c0.9,5.9,1.7,11.9,2,17.8c0.1,1.7,2.9,2.3,3.2,0.4c-1.3,0-1.7,0.3-1.3,0.9c0.1,0.3,0.2,0.5,0.4,0.8c0.2,0.5,0.4,1.1,0.6,1.7
			c0.3,1,0.6,1.9,0.7,3c0.2,1.8-0.2,3.6-1.5,4.8c-1.3,1.3,0.1,3.1,1.6,2.8c1.6-0.3,1.9,4.1,2,5.1c0.2,2-0.1,3.6-1.3,5.2
			c-0.8,1.1,0.7,2.5,1.8,1.8c3-1.7,3-5.6,2.6-8.6c-0.5-3.4-1.7-7.6-6-6.9c0.5,0.9,1.1,1.9,1.6,2.8c2.9-2.7,3.1-6.9,1.9-10.4
			c-0.5-1.6-1.2-4-2.6-5.1c-1.6-1.3-3.6-0.2-3.8,1.7c1.1,0,2.2,0,3.3,0c-0.4-5.4-0.8-10.8-1.6-16.1c-0.7-5.4-1.7-10.7-2.8-16
			c-2.2-10.5-4.9-20.8-7.8-31.2c-1.6-5.8-3.1-11.7-5.2-17.3C145.7,337.7,142.2,338.6,143,340.8L143,340.8z"/>
	</g>
</g>
<g class="st20">
	<g>
		<path class="st15" d="M140,341.9c2.4,4.5,4.3,9.3,5.7,14.3c1.4,5.1,2.4,10.4,3.5,15.6c2.3,10.7,4.5,21.4,6.8,32.1
			c0.6,3,1.3,6,1.9,9c0.5,2.5,1.3,5.2,0.2,7.7c-0.3,0.8,0.6,1.3,1.1,0.7c1.4-1.9,1-4.5,0.6-6.7c-0.5-2.7-1.1-5.4-1.7-8.1
			c-1.2-5.5-2.3-11-3.5-16.5c-1.2-5.5-2.4-10.9-3.5-16.4c-1.1-5.4-2.2-10.8-3.5-16.1c-1.4-5.7-3.6-11.3-6.3-16.5
			C141,340.1,139.5,340.9,140,341.9L140,341.9z"/>
	</g>
</g>
<g class="st20">
	<g>
		<path class="st15" d="M170,508.8c4.3,2.8,9.4,3.4,14.4,3.8c5.9,0.5,11.8,0.9,17.6,1.1c11.8,0.5,23.7,0.7,35.5,0.7
			c11.8,0,23.6-0.2,35.4-0.4c11.8-0.2,23.6-0.3,35.4-0.3c5.8,0,11.6,0.3,17.5,0.2c2.6,0,5.3-0.3,7.7-1.4c1.9-0.8,3.9-2.3,4.9-4.2
			c0.4-0.9,0.7-1.9,0.8-2.9c0.1-0.6-1-0.8-1.1-0.2c-1.2,4.9-6.5,6.6-11,6.8c-2.8,0.1-5.6,0-8.4-0.1c-2.8,0-5.7-0.1-8.5-0.1
			c-11.5-0.1-23,0.1-34.6,0.3c-11.5,0.2-22.9,0.4-34.4,0.4c-11.5,0.1-23,0-34.5-0.4c-5.7-0.2-11.4-0.5-17.1-0.9
			c-5.1-0.3-10.5-0.4-15.4-2.1c-1.2-0.4-2.3-0.9-3.4-1.6C170,507,169.3,508.3,170,508.8L170,508.8z"/>
	</g>
</g>
<g class="st20">
	<g>
		<path class="st15" d="M19.3,550.9C19.3,550.9,19.3,550.8,19.3,550.9C19.2,550.8,19.2,550.9,19.3,550.9L19.3,550.9z"/>
	</g>
</g>
<g class="st20">
	<g>
		<path class="st15" d="M19.7,583.2c11.1-6.6,23.9-10,36.7-11.2c13.4-1.2,27,0.1,39.9,3.8c3,0.9,6.3,1.7,7.9,4.6
			c1.2,2.3,1.2,5.3-0.3,7.5c0.6,0.1,1.1,0.1,1.7,0.2c-1.3-6.2-5.4-11.6-11-14.5c-1.6-0.9-3.3-1.4-5.1-1.4c-0.5,0-0.8,0.7-0.3,1
			c1.6,0.8,3.4,1.5,5,2.4c1.6,0.9,3.1,2.1,4.4,3.4c2.6,2.6,4.5,6,5.2,9.6c0.2,0.8,1.3,0.8,1.7,0.2c1.5-2.2,1.9-4.9,1.2-7.5
			c-0.8-2.9-2.8-4.9-5.5-6c-3.1-1.3-6.6-2.1-9.9-2.9c-3.4-0.8-6.9-1.4-10.4-1.9c-13.7-1.8-28-1.2-41.4,2.4
			c-7.2,1.9-14.2,4.8-20.5,8.9C18.1,582.4,18.8,583.7,19.7,583.2L19.7,583.2z"/>
	</g>
</g>
<path class="st0" d="M42.8,703.3c-6.5,13.9-8.3,24-5.5,33.2c-1.5-1.7-3.2-3.8-4.5-5.7c-2.9-4.3-3.9-8.4-4.7-12
	c-5.4-24.3-7.1-37.4-7.6-41.2c2,7.7,5.6,12.8,9.9,13.6c6.3,1.3,14.6-6.5,17.6-9.2c3.6-3.4,3.6-4.6,8.3-9.2
	c5.8-5.9,13.1-11.6,13.9-10.8C71.4,663.3,54.8,677.7,42.8,703.3z"/>
<path class="st0" d="M159.7,751.6c-14.3,1.5-26.3,1.8-35.4,1.8c-35.5-0.2-61.8-6.1-71.4-9.4c-0.4-0.1-2.6-0.9-5.2-1.8
	c0.1-1.1,0.2-2.1,0.2-2.6c0.5-8.4-2.3-14.3-1.4-14.7c0.8-0.4,3.2,4.6,5.9,8c8.5,10.6,24.9,11.1,57.5,11.9c4.4,0.1,9.4,0.2,16.2,0
	c13.7-0.4,25.1-1.8,33.3-3.1c0.1,0.2,0.1,0.3,0.2,0.5C159.6,745.3,159.6,748.5,159.7,751.6z"/>
<g class="st20">
	<g>
		<path class="st15" d="M113.6,353.5c-0.5,1.7-0.1,3.4,0.4,5.1c0.6,2,1,4,1.6,6c1.2,4,2.7,7.9,4,11.9c2.8,7.9,5.6,15.8,7.7,23.8
			c0.6,2.3,1.2,4.6,1.7,7s0.7,4.7,1.6,7c0.2,0.4,0.8,0.4,0.8-0.1c0.2-1.9-0.2-3.8-0.5-5.7c-0.4-2-0.8-4.1-1.3-6.1
			c-1-4-2.1-7.9-3.3-11.8c-2.5-7.8-5.4-15.5-8.1-23.3c-0.8-2.1-1.6-4.2-2.4-6.3c-0.8-2.2-2-4.9-1.3-7.3
			C114.6,353.1,113.7,352.9,113.6,353.5L113.6,353.5z"/>
	</g>
</g>
<g class="st20">
	<g>
		<path class="st15" d="M348.4,347.7c-1,3-1.9,6-2.5,9c-0.6,3-1.3,6-1.2,9c0,0.2,0.3,0.2,0.3,0c0.7-3,1.1-6,1.8-9
			c0.7-3,1.5-6,2.5-8.9C349.5,347.4,348.6,347.1,348.4,347.7L348.4,347.7z"/>
	</g>
</g>
<g>
	<g>
		<path class="st13" d="M175.8,86.1c-6.4,3.9-12.1,8.8-16.8,14.7c-1.3,1.7-2.6,3.4-3.7,5.2c-0.2,0.3,0.1,0.7,0.4,0.7
			c2.5,0.1,5,0.2,7.5,0.3c-0.1-0.2-0.2-0.5-0.3-0.7c-1.2,1.3-2.1,2.9-2.4,4.7c-0.1,0.3,0.2,0.6,0.5,0.4c0.9-0.5,1.8-0.8,2.9-0.8
			c-0.1-0.1-0.2-0.2-0.3-0.3c0.6,5.8,1.1,11.7,1.8,17.5c0.8,5.8,1.6,11.6,2.6,17.3c0.6,3.3,1,6.7,1.9,9.9c0.1,0.5,1.1,0.5,1-0.1
			c-0.4-2.9-1.1-5.7-1.6-8.6c-0.5-2.9-1-5.8-1.5-8.7c-0.9-5.8-1.8-11.6-2.5-17.5c-0.4-3.3-0.9-6.6-1.1-9.9c0-0.2-0.1-0.3-0.3-0.3
			c-1.1,0-2.2,0.3-3.2,0.8c0.2,0.1,0.3,0.3,0.5,0.4c0.3-1.7,1.1-3.1,2.3-4.3c0.3-0.3,0-0.7-0.3-0.7c-2.5-0.2-5-0.2-7.5-0.3
			c0.1,0.2,0.3,0.5,0.4,0.7c4.1-6.1,9.1-11.6,15-16c1.7-1.3,3.4-2.4,5.2-3.5C176.7,86.6,176.3,85.8,175.8,86.1L175.8,86.1z"/>
	</g>
</g>
<g>
	<g>
		<path class="st13" d="M175.6,79.6c-6.3,2.3-11.4,7-15.7,12c-0.4,0.4,0.1,1,0.6,0.8c2.6-1.2,5.3-2.3,8.1-3.2c1.3-0.4,2.7-0.9,4-1.3
			c1.4-0.4,2.8-0.6,4.2-1.1c0.4-0.2,0.4-0.9-0.1-0.9c-1.4,0.2-2.9,0.6-4.2,1c-1.4,0.4-2.9,0.8-4.3,1.3c-2.8,0.9-5.5,2-8.2,3.2
			c0.2,0.3,0.4,0.5,0.6,0.8c4.3-4.8,9.1-9.4,15.3-11.7C176.5,80.4,176.2,79.4,175.6,79.6L175.6,79.6z"/>
	</g>
</g>
<g>
	<g>
		<path class="st13" d="M216.2,63.9c-8.1,5.3-15,12.2-20.3,20.3c-1.5,2.3-2.9,4.7-4.1,7.2c-0.2,0.4,0.2,0.8,0.6,0.6
			c0.9-0.5,1.8-1,2.8-1.5c0.9-0.4,1.9-0.7,2.9-1c2-0.6,4.1-0.9,6.1-1.1c-0.1-0.1-0.1-0.2-0.2-0.4c-5.4,5.7-10.8,11.4-16.2,17.2
			c-0.2,0.2,0.1,0.6,0.3,0.4c2.1-1.3,4.3-2.3,6.7-2.8c-0.1-0.2-0.2-0.3-0.3-0.5c-4.6,5.6-7.9,12.1-10.1,18.9
			c-2.5,7.4-3.7,15.3-4,23.2c-0.1,4.6-0.2,9.3,0.1,13.9c0,0.2,0.2,0.2,0.2,0c0-4-0.1-8,0.1-12.1c0.2-4.1,0.6-8.1,1.2-12.1
			c1.1-7.3,3.1-14.5,6.4-21.1c1.8-3.6,3.9-7.1,6.5-10.2c0.2-0.2,0-0.5-0.3-0.5c-2.4,0.5-4.8,1.5-6.9,2.9c0.1,0.1,0.2,0.3,0.3,0.4
			c5.4-5.7,10.8-11.5,16.1-17.3c0.1-0.1,0-0.4-0.2-0.4c-2.1,0.2-4.2,0.5-6.2,1.1c-1,0.3-2,0.7-3,1c-1,0.3-2,0.7-3,1.2
			c0.2,0.2,0.4,0.4,0.6,0.6c2.2-4.3,4.7-8.4,7.6-12.1c3-3.7,6.3-7.1,10-10.1c2.1-1.7,4.3-3.3,6.6-4.8
			C217.3,64.4,216.8,63.5,216.2,63.9L216.2,63.9z"/>
	</g>
</g>
<g>
	<g>
		<path class="st13" d="M329.4,167.8c-0.6,0.8-1.1,1.6-1.5,2.4c-0.4,0.8-0.8,1.7-1,2.6c0,0.1,0.1,0.2,0.2,0.1
			c0.5-0.8,0.8-1.7,1.3-2.5c0.4-0.8,0.9-1.6,1.5-2.4C329.9,167.8,329.5,167.5,329.4,167.8L329.4,167.8z"/>
	</g>
</g>
<g>
	<g>
		<path class="st13" d="M323.9,158.8c1.4-7,2.5-14,3.1-21.1c0.3-3.6,0.5-7.1,0.6-10.7c0.1-3.4,0-6.9,0-10.3c0-2.8,0.1-6.3,2.6-8.1
			c0.2-0.1,0.3-0.4,0.2-0.6c-1.2-1.7-2.5-3.4-3.8-5c-0.7-0.8-1.4-1.6-2.2-2.4c-0.7-0.7-1.6-1.4-2.1-2.3c-0.5-0.9-0.3-2.2-0.3-3.2
			c0-1.2,0.1-2.3,0.1-3.5c0-1.2,0-2.3,0.1-3.5c0-1.2,0.1-2.3-0.1-3.5c-0.1-0.3-0.6-0.3-0.6,0c-0.3,1.2-0.2,2.4-0.3,3.6
			c0,1.2,0,2.3-0.1,3.5c0,1.2,0,2.5-0.1,3.7c0,1-0.1,2,0.3,3c0.4,0.9,1.1,1.5,1.7,2.2c0.8,0.8,1.5,1.6,2.3,2.4
			c1.5,1.7,3,3.5,4.3,5.4c0.1-0.2,0.1-0.4,0.2-0.6c-2.1,1.6-2.8,4.1-2.9,6.6c-0.1,1.4,0,2.8,0,4.3c0.1,1.9,0.1,3.7,0.1,5.6
			c0,3.7-0.2,7.3-0.4,11c-0.2,3.6-0.5,7.3-0.9,10.9c-0.5,4.2-1.2,8.3-2,12.5C323.4,159,323.9,159.1,323.9,158.8L323.9,158.8z"/>
	</g>
</g>
<g>
	<g>
		<path class="st13" d="M217.3,63.8c3.6-1.1,7.1-2.1,10.9-2.6c3.7-0.5,7.4-0.6,11.2-0.5c7.8,0.1,15.5,0.8,23.2,1.4
			c14.8,1.1,30.5,2,43.6,9.8c3.2,1.9,6.2,4.1,8.9,6.6c1.3,1.2,2.6,2.5,3.8,3.9c1.2,1.4,2.3,2.9,3.6,4.3c0.2,0.3,0.6-0.1,0.5-0.4
			c-0.8-1.5-1.8-2.7-2.9-4c-1.1-1.3-2.2-2.5-3.4-3.7c-2.4-2.3-5-4.4-7.8-6.3c-6-4-12.7-6.6-19.7-8.2c-7.7-1.7-15.7-2.3-23.5-3
			c-8-0.6-16-1.3-23.9-1.6c-7.4-0.2-15.1,0.2-22.2,2.6c-0.9,0.3-1.7,0.6-2.5,1C216.8,63.4,217,63.9,217.3,63.8L217.3,63.8z"/>
	</g>
</g>
<g>
	<g>
		<path class="st13" d="M189.9,128.3c2-4.5,4.2-8.8,6.8-13c1.3-2,2.9-3.6,4.9-4.9c1.9-1.2,4-2.3,6-3.3c8.4-4,17.5-6.2,26.6-8
			c2.2-0.4,4.4-1,6.6-1.2c1.9-0.2,4.3,0.1,4.7,2.3c0.2,1.1-0.1,2.2-0.5,3.2c-0.4,1-0.8,2-1.3,3c-0.5,1-1.1,1.9-1.9,2.6
			c-0.9,0.8-2,1.3-3.2,1.7c-2.3,0.8-4.8,1.4-7.2,1.9c-2.5,0.6-4.9,1.1-7.3,1.8c-4.9,1.3-9.8,2.7-14.6,4.2c-2.2,0.7-4.5,1.3-6.6,2.3
			c-1.9,0.9-3.6,2.2-5.2,3.6c-1.6,1.4-3,3-4.5,4.5c-0.7,0.8-1.5,1.5-2.3,2.3c-0.2,0.2-0.5,0.5-0.7,0.5c-0.4,0.1-0.6-0.3-0.5-0.7
			c0.1-0.6,0.2-1.2,0.4-1.7c0.3-1.1,0.8-2.2,1.4-3.2c0.1-0.2-0.2-0.4-0.4-0.2c-0.6,1-1.1,2-1.5,3.2c-0.2,0.6-0.3,1.1-0.4,1.7
			c-0.1,0.4-0.1,0.8,0.1,1.2c0.4,0.6,1.2,0.3,1.7-0.1c0.9-0.7,1.7-1.6,2.5-2.4c3.3-3.4,6.6-6.9,11.1-8.7c2.4-0.9,4.9-1.6,7.4-2.4
			c2.6-0.8,5.3-1.6,7.9-2.3c2.6-0.7,5.3-1.4,7.9-2.1c2.6-0.6,5.2-1.2,7.8-1.8c2.2-0.6,4.7-1.2,6.5-2.7c1.6-1.4,2.5-3.5,3.3-5.5
			c0.7-1.8,1.2-4.1-0.3-5.6c-1.3-1.2-3.3-1.2-4.9-0.9c-2.4,0.3-4.7,0.9-7.1,1.3c-2.4,0.5-4.9,1-7.3,1.6c-4.8,1.2-9.6,2.6-14.2,4.4
			c-2.2,0.9-4.4,1.9-6.5,3c-2.1,1.1-4.2,2.2-6,3.8c-1.8,1.6-3,3.8-4.2,5.9c-1.3,2.3-2.5,4.6-3.7,7c-0.6,1.2-1.1,2.4-1.6,3.5
			C189.4,128.3,189.8,128.5,189.9,128.3L189.9,128.3z"/>
	</g>
</g>
<g>
	<g>
		<path class="st13" d="M271.3,105.6c-1.5,3.2-0.8,7.1,1.4,9.7c1.3,1.6,3.1,2.5,5.1,3c2.3,0.6,4.8,0.9,7.1,1.4
			c4.7,1.1,9.4,2.3,14,3.8c4,1.3,8.1,3,11.3,5.8c1.7,1.5,3.1,3.4,4.3,5.3c0.6,1,1.2,2,1.9,3c0.5,0.8,1.1,1.8,2.1,2.2
			c0.7,0.3,1.4,0,1.6-0.7c0.2-0.9-0.2-2-0.4-2.9c-0.6-2.4-1.3-4.9-2.2-7.2c-0.8-2.2-1.8-4.4-2.9-6.5c-1.1-2-2.6-3.6-4.5-4.8
			c-2.1-1.3-4.4-2.4-6.7-3.5c-2.3-1.1-4.6-2.2-7-3.2c-4.6-1.9-9.4-3.3-14-5.1c-2.3-0.9-4.6-1.9-6.8-3.2c-0.8-0.5-1.7-1-2.7-0.6
			c-0.8,0.3-1.4,1-1.7,1.7c-0.4,1-0.3,2.1-0.1,3.2c0,0.2,0.4,0.2,0.4-0.1c-0.1-1.1-0.2-2.4,0.4-3.4c0.3-0.4,0.7-0.8,1.1-0.9
			c0.6-0.2,1.3,0.2,1.8,0.5c1.9,1.1,3.9,2.1,5.9,2.9c4.2,1.7,8.6,3,12.9,4.6c4.5,1.7,8.8,3.8,13.1,6c2,1,4.1,2,5.6,3.7
			c1.5,1.6,2.4,3.7,3.3,5.7c1,2.1,1.8,4.3,2.4,6.6c0.3,1.1,0.7,2.2,0.9,3.4c0.1,0.6,0.3,1.1,0.4,1.7c0.1,0.6,0.4,1.3-0.2,1.7
			c-1,0.6-2.2-1.5-2.7-2.2c-0.6-0.9-1.2-1.9-1.8-2.8c-1.1-1.7-2.2-3.4-3.7-4.8c-2.7-2.6-6.2-4.3-9.7-5.6c-3.9-1.5-8.1-2.5-12.1-3.6
			c-2.3-0.6-4.6-1.2-6.9-1.6c-2.2-0.4-4.4-0.7-6.5-1.6c-3.3-1.5-5.3-5.1-5-8.8c0.1-0.9,0.3-1.8,0.7-2.6
			C271.9,105.5,271.5,105.3,271.3,105.6L271.3,105.6z"/>
	</g>
</g>
<g>
	<g>
		<path class="st13" d="M214.2,207.3c2.2,0.9,4.4,1.7,6.7,2.2c2.3,0.6,4.6,0.9,6.9,1.2c4.8,0.5,9.6,0.6,14.3,0.5
			c9.8-0.3,19.7-1.2,29.3-3c2.7-0.5,5.4-1.1,8-1.8c1.3-0.3,2.7-0.7,4-1.1c1.3-0.4,2.7-0.7,3.9-1.4c0.3-0.2,0.2-0.8-0.2-0.7
			c-2.4,0.3-4.7,1.2-7,1.8c-2.3,0.6-4.7,1.1-7.1,1.6c-4.8,1-9.7,1.7-14.5,2.2c-4.9,0.5-9.7,0.8-14.6,1c-4.7,0.2-9.4,0.2-14.1-0.1
			c-2.6-0.2-5.2-0.6-7.7-1.1c-2.6-0.5-5.2-1.1-7.7-2.1C214,206.3,213.8,207.1,214.2,207.3L214.2,207.3z"/>
	</g>
</g>
<g>
	<g>
		<path class="st13" d="M213.2,209.5c1.3,2.9,2.6,5.7,4.4,8.3c1.7,2.5,3.7,4.9,6.1,6.9c5,4.3,11.1,6.5,17.6,6.9
			c3.4,0.2,6.8,0.1,10.2-0.4c3.5-0.4,7-1,10.4-2c6.3-1.8,11.8-5.5,16.5-10c0.6-0.6,1.3-1.3,1.9-1.9c0.6-0.6,1.1-1.4,1.8-2
			c1.4-1.2,2.6-2.6,3.7-4.1c0.9-1.2,1.5-2.6,1.9-4c0.2-0.6,0.3-1.1,0.5-1.7c0.1-0.2,0.1-0.4,0.2-0.6c0-0.1,0-0.1,0.1-0.2
			c0-0.2,0,0-0.1,0.1c-0.1,0.1-0.3,0.1-0.4,0.2c0,0,0,0,0,0c-0.1-0.1-0.3-0.1-0.4-0.2c-0.3-0.4-0.1-0.4-0.2,0
			c-0.1,0.3-0.1,0.6-0.2,0.9c-0.2,0.7-0.4,1.5-0.5,2.2c-0.2,0.7,0.8,0.9,1,0.3c0.3-0.8,0.6-1.6,0.8-2.4c0.1-0.4,0.4-1.1,0.2-1.5
			c-0.2-0.6-0.9-0.6-1.2-0.2c-0.1,0.2-0.2,0.5-0.3,0.8c-0.3,1.1-0.6,2.2-1.1,3.2c-0.6,1.5-1.6,2.6-2.6,3.9c-0.5,0.6-1,1.3-1.5,1.9
			c-0.2,0.3-0.4,0.5-0.6,0.8c-0.3,0.4-0.7,0.7-1.1,1.1c-1.2,1.2-2.4,2.5-3.7,3.7c-2.5,2.3-5.2,4.3-8.1,6c-3.2,1.8-6.7,2.9-10.3,3.6
			c-3.6,0.7-7.2,1.3-10.9,1.5c-7,0.4-14.2-0.6-20.1-4.5c-3-2-5.6-4.6-7.7-7.4c-2.3-2.9-4.3-6.1-5.9-9.4
			C213.4,209.1,213.1,209.3,213.2,209.5L213.2,209.5z"/>
	</g>
</g>
<g>
	<g>
		<path class="st13" d="M212.5,208.2c0.2,0.3,0.3,0.6,0.5,0.9c0.1,0.2,0.2,0.3,0.3,0.5c0,0.1,0.1,0.1,0.1,0.2
			c0.1,0.1,0.2,0.2,0.3,0.3c0,0-0.1-0.1-0.1-0.1c0.1,0.1,0.3,0.3,0.5,0.3c0.1,0,0.1,0,0.2-0.1c0-0.2,0-0.4,0-0.6c0,0.1,0,0.1,0,0.2
			c0-0.2-0.1-0.4-0.2-0.6c-0.1-0.2-0.2-0.3-0.3-0.5c-0.2-0.3-0.3-0.6-0.5-0.9c-0.1-0.2-0.4-0.3-0.6-0.1
			C212.5,207.8,212.4,208,212.5,208.2L212.5,208.2z"/>
	</g>
</g>
<g>
	<g>
		<path class="st13" d="M212.3,208.1c0.3,0.7,0.7,1.3,1,2c0.2,0.3,0.3,0.7,0.5,1c0.1,0.2,0.2,0.3,0.3,0.5c0.1,0.1,0.2,0.3,0.3,0.4
			c0.1,0,0.2,0,0.2-0.1c0-0.2-0.1-0.3-0.1-0.5c-0.1-0.2-0.1-0.4-0.2-0.5c-0.1-0.3-0.3-0.7-0.5-1c-0.3-0.7-0.7-1.4-1-2.1
			C212.5,207.6,212.1,207.8,212.3,208.1L212.3,208.1z"/>
	</g>
</g>
<g>
	<g>
		<path class="st13" d="M168.5,150.6c-6.8-2.4-12.7,3.1-16.9,7.6c-1.2,1.3-2.5,2.6-3.5,4.1c-1,1.3-1.7,2.8-2.3,4.4
			c-1.2,3.2-1.5,6.7-1.8,10.1c-0.6,7.6-0.4,15.3,0.7,22.8c0.2,1.7,0.5,3.5,1,5.1c0.5,1.5,1.4,2.8,2.5,3.9c1.3,1.2,2.8,2.2,4.2,3.3
			c1.5,1.1,3,2.3,4.6,3.4c2.9,2.2,6.2,4.4,10,3.9c3.4-0.5,6.3-3,8.5-5.5c0.5-0.6-0.3-1.4-0.9-0.9c-2.1,1.9-4.2,4.2-7.1,4.9
			c-3.2,0.8-6.1-0.8-8.6-2.6c-2.9-2-5.7-4.2-8.5-6.3c-1.2-0.9-2.5-2-3.2-3.4c-0.7-1.4-1.1-2.9-1.3-4.4c-1.2-7-1.6-14.2-1.2-21.3
			c0.2-3.3,0.4-6.7,1.1-9.9c0.7-3.3,2.1-6.1,4.3-8.7c1.2-1.4,2.5-2.7,3.8-4.1c1.2-1.2,2.5-2.5,4-3.4c2.9-2,6.6-3.2,10-1.9
			C168.9,152,169.2,150.8,168.5,150.6L168.5,150.6z"/>
	</g>
</g>
<g>
	<g>
		<path class="st13" d="M307.2,223.4c2.3,3.7,5.8,7.5,10.4,8.1c3.1,0.4,5.9-1.1,8.6-2.5c3.1-1.7,6-3.7,8.3-6.4
			c2.5-3,3.9-6.8,5.4-10.3c1.6-3.8,3.1-7.8,4.4-11.7c0.7-2,1.3-3.9,1.9-5.9c0.6-2,1.2-4,1.6-6.1c0.6-3.8-0.1-7.5-1.8-11
			c-0.8-1.8-1.8-3.4-2.8-5.1c-0.8-1.3-1.6-2.7-2.6-3.8c-1.9-2.1-5.3-3.1-8-2.7c-0.5,0.1-1.1,0.2-1.6,0.3c-0.5,0.1-0.4,0.9,0.1,0.9
			c2.7-0.2,5.7,0,7.9,1.8c0.9,0.7,1.5,1.6,2.1,2.6c1,1.5,1.9,3.1,2.8,4.7c1.7,3.2,3.1,6.6,2.8,10.2c-0.1,1.9-0.6,3.8-1.1,5.6
			c-0.5,1.9-1.1,3.8-1.7,5.7c-1.2,3.7-2.5,7.4-3.9,11c-0.7,1.9-1.5,3.7-2.3,5.6c-0.7,1.7-1.4,3.4-2.4,5c-1.7,2.9-4.3,5.2-7.1,6.9
			c-1.4,0.9-2.9,1.7-4.5,2.4c-1.3,0.6-2.6,1.3-4,1.5c-4.9,0.7-9-3.8-11.4-7.6C307.9,222.1,306.8,222.7,307.2,223.4L307.2,223.4z"/>
	</g>
</g>
<g>
	<g>
		<path class="st13" d="M179.7,157.8c-0.7,8.3-1.5,16.6-2.5,24.9c-0.3,2.3-0.8,4.8-0.7,7.1c0,0.2,0.2,0.2,0.3,0c0.6-1.9,0.8-4,1-6
			c0.2-2.1,0.5-4.2,0.7-6.3c0.5-4.2,0.9-8.4,1.3-12.5c0.2-2.4,0.4-4.8,0.6-7.1C180.5,157.4,179.8,157.4,179.7,157.8L179.7,157.8z"/>
	</g>
</g>
<path class="st8" d="M233.8,176.9c4.9-3,10-3.4,10.9-3.4c5.4-0.3,9.3,1.2,11.3,1.9c5.4,2.1,6.7,4.4,7.1,5.2c0.4,0.7,0.9,1.8,0.5,2.8
	c-0.4,1.1-1.9,1.9-6.8,2.4c-3.1,0.3-6.3,0.3-12.4-0.2c-5-0.5-7.7-0.9-10.5-2.6c-2.5-1.5-2.8-2.6-2.8-3.1
	C231.1,178.9,232,178,233.8,176.9z"/>
<g>
	<path class="st13" d="M241.3,181.4C241.3,181.3,241.3,181.3,241.3,181.4c0.1,0.1,0.2,0.2,0.3,0.3c0,0,0,0,0,0
		c0,0.1,0.1,0.3,0.1,0.4c0,0.1-0.1,0.2-0.1,0.2c-0.1,0.2-0.3,0.3-0.4,0.2c-0.2,0-0.1,0-0.1,0c0-0.3,0-0.6,0-1
		c-0.2,0.2-0.4,0.2-0.7,0.3c-0.3,0-0.4,0-0.7-0.1c0,0-0.1,0-0.1,0c0.1,0.1,0.1,0.1,0.1,0.2c0,0,0,0.1,0,0.1c0,0,0.1-0.1,0.1-0.1
		c0.1,0-0.2,0,0.1,0c0.1,0,0.1,0,0,0c0.1,0,0.1,0,0.2,0c0.1,0-0.2-0.1,0,0c0.1,0,0,0,0,0c0.1,0,0,0.1,0,0c0-0.1,0-0.2,0,0
		c0,0,0-0.1,0-0.1c0,0,0.1-0.1,0.1-0.1c-0.1,0,0.1,0,0.1,0c-0.1,0,0,0,0,0c-0.1,0-0.1,0,0,0c0,0,0,0,0.1,0c0,0,0.1,0.1,0.1,0.1
		c0,0,0,0,0,0.1c0,0.1,0,0.1,0,0c0,0,0,0,0,0c0,0,0,0,0,0c0,0,0,0.1-0.1,0.1c0.1,0,0-0.1,0,0c0,0-0.2-0.2,0,0
		c-0.1-0.1-0.1,0-0.1-0.1c0.5,0,1,0,1.4,0c-0.1-0.6-0.5-1.2-1-1.6c-0.6-0.5-1.4-0.6-2.1-0.6c-0.7,0-1.3,0-2,0.2
		c-0.4,0.1-0.7,0.2-1,0.4c-0.3,0.2-0.5,0.4-0.8,0.5c-0.4,0.3-0.6,0.8-0.3,1.2c0.3,0.4,0.8,0.5,1.2,0.3c0.7-0.3,1.4-0.6,2.1-0.7
		c0.4,0,0.8-0.1,1.1-0.1c-0.1,0,0.2,0.1,0.2,0c0,0,0.1,0,0.1,0.1c0,0,0,0,0,0c0,0-0.1-0.1-0.1-0.1c0-0.1,0-0.1,0,0
		c0.3-0.2,0.6-0.4,0.9-0.7c-0.2-0.1-0.4,0-0.7,0c-0.2,0-0.3,0-0.5,0c-0.4,0-0.8,0.2-1.1,0.4c-0.5,0.3-0.4,1,0.2,1.2
		c0.4,0.1,0.7,0.3,1.1,0.4c0.2,0.1,0.3,0.1,0.5,0.2c0.3,0.1,0.5,0,0.7,0c0.5-0.1,0.7-0.8,0.3-1.1c-0.2-0.2-0.4-0.3-0.6-0.4
		c-0.2-0.1-0.4-0.1-0.6-0.1c-0.4-0.1-0.8-0.2-1.2-0.2c0.2,0.4,0.3,0.8,0.5,1.1c0.2-0.2,0.5-0.3,0.8-0.3c-0.1,0-0.2-0.1-0.3-0.1
		c0.2,0.1,0.4,0.2,0.6,0.3c0.3,0.1,0.8-0.1,0.8-0.5c0.1-0.6-0.1-1-0.6-1.3c-0.4-0.2-1-0.3-1.5-0.3c-1.1,0-2.3,0.2-3.3,0.6
		c0.2,0.5,0.4,1.1,0.7,1.6c0.2-0.1,0.4-0.1,0.6-0.2c0.2-0.1,0.5-0.2,0.7-0.2c0.6-0.2,0.9-0.2,1.4-0.2c0.5,0,0.9,0,1.4,0.1
		c0.2,0.1,0.2,0.1,0.4,0.2c0.2,0.1,0.2,0.3,0.3,0.5c0.3,0.7,1.4,0.3,1.4-0.4c-0.1-1.3-1.8-2.2-2.6-0.9c-0.3,0.5-0.3,1.1,0,1.5
		c0.3,0.5,1,0.7,1.6,0.5c0.6-0.2,1-0.7,1-1.3c0-0.5-0.4-1-0.9-1.2c-0.5-0.2-1.1-0.3-1.6,0c-0.6,0.3-1.1,0.9-0.9,1.6
		c0.2,0.7,1.1,0.9,1.7,0.9c0.7,0,1.2-0.2,1.8-0.5c0.3-0.2,0.4-0.6,0.2-0.9c-0.3-0.6-0.9-1.1-1.6-0.7c-0.6,0.3-0.8,1.2-0.3,1.7
		c0.4,0.3,0.9,0.3,1.3-0.1C241.9,182.2,241.7,181.7,241.3,181.4L241.3,181.4z"/>
</g>
<g>
	<path class="st13" d="M255.5,183.9c0.2-0.2,0.3-0.3,0.5-0.4c0.2-0.1,0.4-0.1,0.5,0c-0.1-0.3-0.2-0.5-0.3-0.8
		c0.1-0.2-0.1,0.1-0.1,0.2c-0.1,0.2,0-0.2,0,0.1c0,0.1,0,0.1,0,0c0,0,0,0,0,0c-0.1,0-0.1,0.1-0.1,0.1c0.1-0.1,0,0-0.1,0
		c0.1-0.1,0,0-0.1,0c0.2-0.1,0,0-0.2,0c-0.2,0,0.1,0-0.1,0c0.2,0.3,0.5,0.6,0.7,0.9c0-0.1,0.1-0.2,0.1-0.4c0.1-0.2-0.1,0.1,0-0.1
		c0,0,0-0.1,0.1-0.1c-0.1,0.1,0.1-0.1,0.1-0.1c0,0-0.1,0.1-0.1,0.1c0,0,0.3,0,0,0c0.1,0-0.1,0,0,0c0.1,0-0.1-0.1-0.1-0.1
		c0,0-0.1-0.1-0.1-0.2c0-0.1,0-0.1,0-0.2c0,0,0,0,0,0c0.1,0,0.1,0,0,0c0,0,0,0,0,0c0,0,0,0,0,0c0.1,0-0.1,0-0.1,0
		c-0.1,0-0.3-0.1-0.4-0.1c0.2,0.2,0.4,0.4,0.6,0.6c0-0.1,0-0.2,0,0c0-0.1,0,0,0,0c0.1-0.2-0.1,0.1,0-0.1c0-0.1,0,0,0,0
		c0.1-0.1-0.1,0-0.1,0c0.1-0.1,0,0,0,0c-0.1,0-0.1-0.1,0,0c0,0-0.1,0-0.1-0.1c0,0,0,0,0,0c0,0,0,0,0-0.1c0,0.1,0,0.1,0,0
		c0-0.1,0-0.1,0-0.2c-0.1,0.1,0.1-0.1,0,0c-0.1,0.1,0.1-0.1,0,0c0.1,0,0.1-0.1,0.1,0c-0.1,0,0,0,0.1,0c-0.2,0,0.1,0,0,0
		c-0.1,0-0.1-0.1,0,0c0,0,0.2,0.2,0.1,0.1c0,0.1,0.1,0.3,0.1,0.4c0-0.1,0-0.1,0-0.2c0,0.1,0,0.1,0,0c0-0.1,0-0.1,0,0
		c0,0,0.1-0.1,0.1-0.1c-0.1,0.1-0.1,0.1,0,0c0.1-0.1,0.1-0.1,0,0c0.1,0,0.1-0.1,0,0c0,0,0.1,0,0.1,0c0.1,0,0,0,0,0c0,0,0.1,0,0.1,0
		c-0.1,0-0.1,0,0,0c0.1,0,0.1,0,0,0c0,0,0.1,0,0.1,0.1c-0.1-0.1-0.1-0.1,0,0c0.1,0.1,0.1,0.1,0,0c0,0,0.1,0.1,0.1,0.1
		c0.1-0.4,0.2-0.8,0.3-1.2c-0.1,0.1-0.2,0.1-0.3,0.2c0.1,0-0.1,0.1,0,0c0.1,0,0.1,0,0,0c0.1,0,0.1,0,0.2,0.1
		c0.1,0.1,0.1,0.3,0.1,0.4c0,0.1,0,0.1-0.1,0.2c-0.1,0.1-0.1,0.1,0,0c0,0-0.1,0-0.1,0c0,0,0.1,0,0.1,0c0.2-0.1,0.2,0,0.5-0.1
		c0.2,0,0.4,0,0.7,0c0,0,0.3,0,0.1,0c0.1,0,0.2,0,0.4,0.1c0.2,0,0.4,0.1,0.6,0.2c0,0,0.3,0.1,0.1,0.1c0.2,0.1,0.4,0.2,0.6,0.2
		c-0.1-0.5-0.1-1.1-0.2-1.6c-0.1,0-0.2,0.1-0.3,0.1c0.2,0,0.2-0.1,0.1-0.1c-0.1,0-0.2,0-0.3,0c-0.2,0-0.3,0-0.5,0
		c-0.4,0-0.8,0.1-1.2,0.2c-0.7,0.2-1.5,0.5-2.1,0.9c-0.6,0.4-0.3,1.2,0.3,1.3c0.8,0.1,1.5,0.1,2.3,0c0.4,0,0.8-0.1,1.2-0.1
		c0.5-0.1,0.8-0.2,1.1-0.7c0.1-0.3,0-0.5-0.2-0.7c-0.4-0.3-0.8-0.3-1.3-0.2c-0.3,0.1-0.6,0.1-0.9,0.1c-0.7,0.1-1.4,0.1-2.2,0.1
		c0.2,0.4,0.3,0.8,0.5,1.1c0.4-0.4,1-0.7,1.5-0.8c0.3-0.1,0.6-0.1,0.8-0.1c0.1,0,0.3,0,0.4,0c0.1,0,0.2,0,0.2,0.1c0.2,0-0.1-0.1,0,0
		c0.3,0.3,0.9,0.3,1.2,0c0.3-0.4,0.3-0.8,0-1.2c-0.3-0.3-0.8-0.4-1.1-0.5c-0.4-0.1-0.8-0.2-1.1-0.2c-0.7-0.1-1.4,0-2,0.2
		c-0.3,0.1-0.6,0.3-0.8,0.7c-0.2,0.5-0.2,1,0.2,1.4c0.6,0.7,1.6,0.5,2.3,0.1c0.4-0.3,0.5-0.8,0.3-1.2c-0.4-0.6-1.1-1.1-1.8-1
		c-0.8,0-1.5,0.6-1.8,1.3c-0.1,0.4-0.2,0.8,0,1.2c0.2,0.3,0.5,0.5,0.9,0.6c0.7,0.2,1.6-0.2,1.8-1c0.2-0.8-0.3-1.5-1.1-1.8
		c-0.8-0.2-1.5,0.2-1.8,0.9c-0.1,0.3-0.1,0.6,0,0.9c0.2,0.6,0.8,0.7,1.3,0.8c0.8,0.1,1.7-0.5,1.7-1.3c0-0.9-0.9-1.4-1.7-1.2
		c-0.8,0.2-1.2,1-1.4,1.7c-0.1,0.3,0.1,0.7,0.3,0.8c1.2,0.9,2.9-0.8,2.3-2c-0.1-0.3-0.5-0.4-0.8-0.3c-0.7,0.2-1.4,0.5-1.8,1
		C254.5,183.7,255.1,184.4,255.5,183.9L255.5,183.9z"/>
</g>
<g>
	<path class="st13" d="M232.4,181c-0.5-0.4-0.6-0.9-0.7-1.6c-0.1-0.6,0-1.4,0.2-2c0.6-1.4,1.9-2.5,3.1-3.4c0.3-0.2,0.4-0.5,0.3-0.9
		c-0.1-0.3-0.5-0.5-0.8-0.4c-0.8,0.3-1.7,0.7-2.4,1.3c-0.6,0.5-1,1.2-1.2,1.9c-0.3,0.7-0.4,1.5-0.4,2.3c0,0.7-0.1,1.8,0.5,2.3
		c0.2,0.1,0.4,0.1,0.5-0.1c0.4-0.5,0.2-1.4,0.2-2c0-0.7,0-1.3,0.2-2c0.2-0.6,0.4-1.1,0.9-1.5c0.6-0.5,1.4-0.7,2.1-0.9
		c-0.2-0.4-0.4-0.8-0.5-1.3c-1.7,1.1-3.3,2.3-4,4.3c-0.6,1.7-0.2,3.6,1.2,4.8c0.3,0.2,0.6,0.3,0.9,0
		C232.6,181.7,232.6,181.2,232.4,181L232.4,181z"/>
</g>
<g>
	<path class="st13" d="M262,185.3c2-0.6,3.4-2.4,3.6-4.4c0.1-1.1-0.1-2.1-0.7-3c-0.3-0.5-0.8-0.9-1.2-1.3c-0.4-0.5-0.8-0.9-1.3-1.3
		c-0.2-0.2-0.5,0-0.4,0.2c0.3,1,1.1,1.7,1.5,2.6c0.4,0.8,0.6,1.5,0.5,2.4c-0.1,1.4-1.1,2.8-2.5,3.2C260.5,184,261,185.6,262,185.3
		L262,185.3z"/>
</g>
<g>
	<path class="st13" d="M246.4,166.7c1-0.2,2-0.3,2.9-0.2c0.5,0.1,1,0.2,1.4,0.3c0.5,0.2,0.9,0.5,1.4,0.4c-0.1-0.3-0.2-0.6-0.3-1
		c-0.1,0-0.1,0.1-0.2,0.1c0.1,0,0.1,0,0.2,0c-1.2-0.3-2.5-0.3-3.7-0.2C247.6,166.4,247,166.5,246.4,166.7c-0.5,0.1-1.1,0.4-1.5,0.8
		c-0.1,0.1,0,0.3,0.1,0.3c0.5-0.2,1-0.5,1.5-0.7c0.5-0.2,1.1-0.3,1.7-0.4c1.2-0.2,2.4-0.1,3.5,0.3c-0.1,0-0.1-0.1-0.2-0.1
		c0,0.1,0.1,0.1,0.1,0.2c0.3,0.6,1.2,0.1,0.9-0.5c-0.3-0.5-1-0.7-1.5-0.9c-0.5-0.2-1.1-0.3-1.6-0.4c-1.1-0.2-2.3-0.1-3.4,0.2
		C245.2,165.7,245.6,166.9,246.4,166.7L246.4,166.7z"/>
</g>
<g>
	<g>
		<path class="st13" d="M196.1,248.8c0.5,4.2,1.3,8.4,1.7,12.6c0.4,4.2,0.6,8.5,0.7,12.8c0,8.6-0.7,17.2-2.3,25.6
			c-0.4,2.3-0.9,4.7-1.5,7c-0.3,1.1-0.6,2.3-0.9,3.4c-0.3,1.2-0.6,2.3-0.7,3.6c0,0.5,0.6,0.6,0.9,0.2c1.1-1.8,1.4-4,1.9-6
			c0.5-2.1,0.9-4.2,1.3-6.3c0.8-4.2,1.4-8.5,1.8-12.8c0.8-8.6,0.8-17.2,0-25.8c-0.2-2.4-0.5-4.8-0.8-7.1c-0.4-2.4-0.7-4.9-1.4-7.2
			C196.8,248.2,196.1,248.3,196.1,248.8L196.1,248.8z"/>
	</g>
</g>
<g>
	<g>
		<path class="st13" d="M281.4,261c0,4.3,0,8.6,0.2,12.9c0.2,4.2,0.6,8.5,1.1,12.7c0.9,7.6,2,15.5,4.5,22.8c0.7,1.9,1.4,3.8,2.3,5.6
			c0.9,1.8,1.9,3.8,3.5,5.1c0.4,0.3,0.9-0.1,0.7-0.5c-0.7-1.6-1.8-3.1-2.7-4.6c-0.9-1.6-1.6-3.3-2.2-5c-1.3-3.4-2.2-6.9-2.9-10.4
			c-1.6-8-2.5-16.1-3.1-24.3c-0.4-4.7-0.6-9.5-0.7-14.2C282.2,260.5,281.4,260.5,281.4,261L281.4,261z"/>
	</g>
</g>
<g>
	<g>
		<path class="st13" d="M69,385.7c1.2-2.6,3.5-4.4,5.8-6c2.7-1.8,5.5-3.5,8.3-5.3c5.7-3.6,11.4-7.1,17.2-10.5c2.9-1.7,5.8-3.5,8.8-5
			c1.2-0.6,2.2-1.4,2.7-2.7c0.2-0.6,0.4-1.3,0.7-1.9c0.4-0.6,1-1.1,1.6-1.5c5.2-3.7,10.9-6.9,16.7-9.5c1.4-0.7,2.9-1.3,4.4-1.9
			c1.5-0.6,3-0.8,4.6-1c2.9-0.4,5.5-1.4,8-2.8c4.7-2.7,9.5-5.3,14.3-7.9c2.8-1.5,5.7-2.9,8.5-4.3c1.7-0.8,3.4-1.6,5-2.5
			c1.4-0.8,2.7-1.7,3.9-2.7c1-0.8,2-1.7,3-2.4c2.2-1.5,4.6-2.5,7.2-3c1.3-0.2,2.6-0.3,3.9-0.3c0.9,0,0.9-1.3,0-1.3
			c-5.1-0.1-9.7,1.7-13.6,4.9c-1.4,1.1-2.5,2.1-4,3c-1.4,0.9-3,1.7-4.5,2.4c-2.5,1.2-5,2.5-7.4,3.7c-4.3,2.2-8.6,4.6-12.8,7
			c-2.6,1.5-5.1,3.1-8,4.1c-1.5,0.5-3.1,0.8-4.6,1c-1.6,0.2-3.1,0.6-4.6,1.2c-5.9,2.4-11.7,5.4-17.1,8.9c-1.3,0.8-2.7,1.7-3.9,2.6
			c-1.2,0.9-1.8,1.9-2.3,3.3c-0.2,0.7-0.4,1.3-1,1.8c-0.6,0.5-1.3,0.9-2,1.3c-1.5,0.8-2.9,1.7-4.4,2.5c-5.9,3.4-11.7,6.9-17.4,10.6
			c-2.9,1.8-5.7,3.7-8.5,5.6c-2.3,1.6-4.9,3.1-6.8,5.2c-0.9,1-1.7,2-2.2,3.2C68.4,385.7,68.9,386,69,385.7L69,385.7z"/>
	</g>
</g>
<g>
	<g>
		<path class="st13" d="M293.6,320.7c-0.8-2.3,1.7-4,3.7-4.1c1.4,0,2.7,0.4,3.9,1c1.1,0.5,2.3,1.1,3.4,1.7c1,0.6,2,1.3,2.7,2.2
			c0.7,0.9,1.3,2,2.1,2.9c1.6,1.7,4,2.5,6.1,3.5c9.3,4.5,18,10,26,16.4c1,0.8,1.9,1.6,2.9,2.4c0.9,0.7,1.9,1,3,0.5
			c1.1-0.5,2-1.2,3.2-1.3c1.3-0.1,2.5,0.1,3.7,0.5c4.9,1.4,9.6,3.7,13.9,6.3c2.2,1.3,4.3,2.7,6.3,4.3c1.9,1.5,3.4,3.2,4.2,5.5
			c0.4,1.1,0.9,2.1,1.8,3c0.8,0.8,1.9,1.4,2.8,2c2.3,1.5,4.7,3.1,7,4.6c9.3,6.2,18.4,12.6,27.5,19.1c1.1,0.8,2.2,1.6,3.4,2.4
			c0.6,0.4,1.1-0.5,0.6-1c-4.6-3.5-9.3-6.8-14.1-10.1c-4.7-3.3-9.3-6.5-14.1-9.7c-2.4-1.6-4.8-3.2-7.2-4.8c-1.2-0.8-2.3-1.5-3.5-2.3
			c-1-0.7-2-1.4-2.6-2.5c-0.6-1.1-0.9-2.3-1.5-3.4c-0.6-1-1.4-1.9-2.2-2.6c-1.8-1.7-3.9-3.1-5.9-4.4c-4.4-2.8-9.1-5.2-14.1-6.9
			c-2.3-0.8-4.9-1.7-7.3-1c-0.5,0.2-1,0.4-1.5,0.7c-0.5,0.3-1.1,0.7-1.7,0.7c-0.6,0-1.1-0.5-1.6-0.9c-0.5-0.4-1.1-0.9-1.6-1.3
			c-8.1-6.7-17-12.4-26.5-17c-1.1-0.6-2.3-1.1-3.4-1.6c-1.1-0.5-2.1-1.1-3-1.9c-0.9-0.9-1.4-2.1-2.2-3c-0.8-0.9-1.8-1.6-2.8-2.1
			c-1.1-0.6-2.3-1.1-3.5-1.6c-1.2-0.5-2.4-0.9-3.7-1c-2.1-0.2-4.3,0.7-5.2,2.7c-0.4,0.8-0.5,1.8-0.2,2.7
			C292.9,321.5,293.8,321.3,293.6,320.7L293.6,320.7z"/>
	</g>
</g>
<g>
	<g>
		<path class="st13" d="M421.7,393.6c3.4,4.3,5.1,9.6,6.9,14.6c1.9,5.5,3.7,11,5.3,16.6s3,11.2,4.2,16.9c1.1,5,2,10.1,3,15.1
			c1.9,10.1,3.9,20.2,5.3,30.4c1.4,9.7,2.1,19.4,3.7,29.1c0.7,4.7,1.7,9.4,2.2,14.1c0.6,5,0.9,10.1,0.8,15.2c0,0.9,0,1.8,0,2.7
			c0,0.8,1.2,0.8,1.2,0c0.4-4.8,0.1-9.7-0.3-14.5c-0.4-4.7-1.2-9.3-2-13.9c-0.8-4.9-1.7-9.8-2.2-14.7c-0.5-4.8-1-9.5-1.7-14.3
			c-1.4-10.5-3.2-20.8-5.3-31.2c-2.1-10.6-4-21.2-6.8-31.7c-1.5-5.6-3.2-11.3-5.1-16.8c-1.7-5.2-3.4-10.6-6.2-15.3
			c-0.6-1.1-1.4-2.1-2.1-3.1C422,392.2,421.2,393,421.7,393.6L421.7,393.6z"/>
	</g>
</g>
<g>
	<g>
		<path class="st13" d="M68.5,385.2c-8.2,10.8-13.1,23.9-17,36.8c-4.1,13.7-7.8,27.5-11.6,41.2c-3.8,13.9-7.5,27.8-11.1,41.7
			c-3.5,13.9-6.9,27.9-9.8,42c-0.4,1.7-0.6,3.5-1.5,5c-0.7,1.4-1.8,2.5-2.5,3.9c-0.6,1.4-0.9,2.9-1.2,4.4c-0.3,1.5-0.6,2.9-0.9,4.4
			c-1,5.7-1.6,11.8,0.4,17.4c0.5,1.3,1,2.5,1.8,3.7c0.3,0.5,1.1,0,0.8-0.5c-3.2-5.3-3.3-11.6-2.5-17.6c0.4-3,1-5.9,1.7-8.9
			c0.4-1.6,0.9-3.1,1.9-4.5c0.9-1.2,1.7-2.4,2.2-3.9c1.1-3.2,1.6-6.7,2.3-10c0.8-3.5,1.5-6.9,2.3-10.4c1.6-6.9,3.3-13.8,5-20.7
			c3.4-13.8,7.1-27.6,10.9-41.3c3.7-13.6,7.4-27.2,11.4-40.7c3.8-13.1,8.4-25.9,15.5-37.5c0.9-1.4,1.7-2.8,2.6-4.2
			C69.4,385.2,68.8,384.9,68.5,385.2L68.5,385.2z"/>
	</g>
</g>
<g>
	<g>
		<path class="st13" d="M123.1,495.5c-0.3,1.2-0.6,2.5-1,3.7c-0.1,0.2,0.2,0.3,0.3,0.1c0.4-1,0.6-2.1,1-3.2c0.3-1.1,0.7-2.1,1.1-3.1
			c0.4-1,0.8-2.1,1.2-3.1c0.4-1,0.9-2,1.2-3.1c0.1-0.2-0.2-0.3-0.3-0.1c-1.1,1.9-1.8,4.1-2.5,6.2c-0.4,1-0.7,2.1-1,3.2
			c-0.3,1.1-0.7,2.2-0.9,3.2c0.1,0,0.2,0,0.3,0c0.2-1.3,0.6-2.5,0.9-3.7C123.3,495.4,123.1,495.3,123.1,495.5L123.1,495.5z"/>
	</g>
</g>
<g>
	<g>
		<path class="st13" d="M70.6,386.9c3.2,2.2,5.4,5.5,7.6,8.7c2.3,3.2,4.4,6.5,6.5,9.8c4,6.6,7.7,13.5,10.7,20.6
			c1.8,4.1,3.3,8.3,4.7,12.5c0,0,0.1,0,0.1,0c-1.1-3.8-2.4-7.6-3.9-11.3c-1.4-3.6-2.9-7.3-4.6-10.8c-3.4-7.2-7.5-14.1-12.1-20.5
			c-2.5-3.5-5.1-7.2-8.7-9.7C70.6,385.8,70.2,386.6,70.6,386.9L70.6,386.9z"/>
	</g>
</g>
<g>
	<g>
		<path class="st13" d="M15.9,585.2c1.6-3,4.5-4.9,7.5-6.4c3.3-1.7,6.8-3,10.3-4.2c7.4-2.5,15-4.2,22.7-5.1
			c7.7-0.9,15.4-0.9,23.1-0.1c6.7,0.7,13.5,1.8,19.6,4.6c2.8,1.3,5.5,2.9,7.8,5c1.1,1,2.2,2.2,3,3.4c0.9,1.3,2.2,3.1,1.8,4.8
			c-0.2,0.8-0.7,1.6-1.5,1.8c-0.1,0-0.1,0.2,0,0.2c1.5,0.1,2.5-1.2,2.7-2.5c0.2-1.9-1-3.6-2-5.1c-1.9-2.6-4.3-4.8-7-6.5
			c-5.7-3.6-12.6-5.3-19.2-6.3c-8.1-1.2-16.2-1.4-24.4-0.8c-8.2,0.6-16.2,2.2-24,4.6c-3.8,1.2-7.6,2.6-11.3,4.2
			c-3.1,1.4-6.3,3.1-8.6,5.8c-0.5,0.6-1,1.3-1.4,2.1C14.9,585.3,15.6,585.7,15.9,585.2L15.9,585.2z"/>
	</g>
</g>
<g>
	<g>
		<path class="st13" d="M17.8,582.5c-0.6,9.8-1,19.6-1.2,29.5c-0.3,9.9-0.3,19.8,0.1,29.7c0.4,9.8,1.3,19.6,2.4,29.3
			c1.1,9.5,2.3,19,3.9,28.5c1.5,9,3.5,17.9,7.1,26.4c0.4,1,0.9,2,1.4,3.1c0.3,0.6,1.1,0.1,0.9-0.5c-3.7-8.3-5.9-17.3-7.5-26.2
			c-1.6-9.3-2.8-18.7-3.9-28.2c-1.1-9.7-1.9-19.4-2.4-29.2c-0.5-9.8-0.5-19.6-0.3-29.4c0.2-9.8,0.7-19.6,1.1-29.4
			c0-1.2,0-2.4,0.1-3.5C19.3,581.5,17.8,581.5,17.8,582.5L17.8,582.5z"/>
	</g>
</g>
<g>
	<g>
		<path class="st13" d="M103.8,578.2c-0.5,10-0.7,19.9-0.7,29.9c0,9.9,0.2,19.8,0.7,29.8c0.2,4.9,0.6,10.1-1.7,14.6
			c-0.2,0.5,0.5,0.9,0.7,0.4c2-3.9,2.3-8.4,2.2-12.7c-0.1-4.9-0.3-9.8-0.4-14.8c-0.2-10-0.3-20.1-0.1-30.1
			c0.1-5.7,0.2-11.4,0.4-17.1C104.9,577.5,103.8,577.5,103.8,578.2L103.8,578.2z"/>
	</g>
</g>
<g>
	<g>
		<path class="st13" d="M17.9,629.8c2.3,6.4,5.5,13.2,11.8,16.5c2.8,1.5,6.2,1.8,9.2,1c3.1-0.8,5.9-2.6,8.1-4.8
			c5-5.1,6.7-12.4,7.7-19.2c1.1-7.9,1.7-16,1.5-24c-0.1-8.1-1-16-2.5-23.9c-0.2-1-0.5-1.8-0.9-2.7c-0.1-0.3-0.5-0.1-0.5,0.1
			c0,1.9,0.4,3.8,0.6,5.7c0.3,1.9,0.5,3.8,0.8,5.7c0.4,3.8,0.7,7.7,0.9,11.6c0.3,7.6,0,15.3-0.8,22.9c-0.8,6.8-1.8,14-5.6,19.9
			c-3.3,5.1-9.4,9-15.6,7.5c-3.4-0.8-6.4-3-8.6-5.7c-2.6-3.1-4.2-7-5.7-10.7C18.3,629.4,17.8,629.5,17.9,629.8L17.9,629.8z"/>
	</g>
</g>
<g>
	<g>
		<path class="st13" d="M38.1,734c-0.4-7.6,0.6-15.2,2.7-22.5c2-7.3,5.1-14.4,8.7-21c3.5-6.3,7.5-12.4,12.2-17.9
			c4.7-5.4,10.3-10.2,16.7-13.6c6.4-3.4,13.6-5.5,20.9-5.3c0.9,0,1.8,0.1,2.7,0.2c0.9,0.1,0.9-1.3,0-1.4c-7.4-0.7-14.8,0.9-21.5,4
			c-6.7,3.1-12.7,7.6-17.7,13c-5,5.3-9.2,11.3-12.9,17.7c-3.9,6.7-7.2,13.9-9.6,21.3c-2.3,7.3-3.6,15-3.5,22.7c0,1,0.1,1.9,0.1,2.9
			C37,734.8,38.2,734.8,38.1,734L38.1,734z"/>
	</g>
</g>
<g>
	<g>
		<path class="st13" d="M30.5,727.3c0.6,1.7,1.4,3.3,2.5,4.8c0.5,0.7,1.1,1.4,1.7,2c0.3,0.3,0.6,0.7,1,1c0.3,0.3,0.7,0.6,1.1,0.7
			c0.3,0.1,0.6-0.3,0.4-0.6c-0.2-0.4-0.5-0.7-0.8-0.9c-0.3-0.3-0.6-0.6-0.9-0.9c-0.6-0.6-1.2-1.3-1.7-2c-1-1.4-1.9-2.9-2.5-4.4
			C31.1,726.6,30.3,726.8,30.5,727.3L30.5,727.3z"/>
	</g>
</g>
<g>
	<g>
		<path class="st13" d="M99.6,657.1c-6.8,1.2-12.7,4.6-18.1,8.8c-5.4,4.2-10.5,9-15,14.1C57,690.5,49.7,703,46.9,717
			c-0.8,3.9-1.2,7.9-1.2,11.9c0,4.2,0.5,8.4,2.1,12.2c0.3,0.8,1.6,0.4,1.2-0.3c-1.4-3.4-1.9-7-2-10.6c-0.1-3.6,0.2-7.1,0.7-10.6
			c1.1-6.9,3.4-13.6,6.6-19.9c6.2-12.1,15.4-22.5,25.9-31.1c5.7-4.7,12.2-9,19.6-10.4C100.6,658,100.3,656.9,99.6,657.1L99.6,657.1z
			"/>
	</g>
</g>
<g>
	<g>
		<path class="st13" d="M48.7,742.4c5.7,3.5,12.1,5.3,18.6,6.5c7.1,1.3,14.2,2.2,21.4,3c14.8,1.6,29.7,2.4,44.6,2.2
			c4.2,0,8.3-0.2,12.5-0.3c2-0.1,4.1-0.2,6.1-0.3c2.1-0.1,4.3-0.2,6.4-0.5c0.7-0.1,0.8-1.2,0-1.2c-3.7,0.1-7.4,0.4-11,0.6
			c-3.7,0.2-7.4,0.3-11.2,0.3c-7.4,0.1-14.7,0-22.1-0.3c-14.6-0.6-29.3-2-43.8-4.4c-7.2-1.2-14.6-2.9-20.9-6.7
			C48.6,741,48,742,48.7,742.4L48.7,742.4z"/>
	</g>
</g>
<g>
	<g>
		<path class="st13" d="M100.3,658.5c7.8,1,15.7,2.5,23.4,4.3c7.7,1.8,15.2,4,22.7,6.5c2.1,0.7,4.2,1.5,6.3,2.2c2,0.7,4,1.8,6.2,2.1
			c0.3,0,0.3-0.4,0.1-0.5c-1.6-1.2-3.5-1.7-5.3-2.4c-1.8-0.7-3.7-1.4-5.5-2c-3.8-1.3-7.6-2.5-11.4-3.6c-7.6-2.2-15.3-4-23.1-5.5
			c-4.4-0.8-8.8-1.5-13.3-2.1C99.7,657.5,99.8,658.4,100.3,658.5L100.3,658.5z"/>
	</g>
</g>
<g>
	<g>
		<path class="st13" d="M82.6,749.6c0.7-11.6,4.8-23.1,11.6-32.6c1.7-2.3,3.5-4.6,5.5-6.6c1.1-1.1,2.4-2,4-2.3
			c1.6-0.4,3.2-0.3,4.8-0.3c6.9,0.2,13.7,0.6,20.5,1.3c3.9,0.4,7.7,0.9,11.5,1.5c3.7,0.5,7.5,1.2,11.2,1.7c0.3,0,0.3-0.4,0.1-0.5
			c-1.7-0.5-3.5-0.9-5.2-1.2c-1.7-0.3-3.5-0.6-5.2-0.8c-3.4-0.5-6.9-1-10.3-1.3c-7-0.7-14.1-1.2-21.1-1.4c-3.1-0.1-6.4-0.3-9.1,1.5
			c-2.4,1.6-4.2,4.1-6,6.3c-3.6,4.7-6.6,9.8-8.8,15.3c-2.5,6.2-3.9,12.8-4.2,19.4C81.9,750,82.5,750,82.6,749.6L82.6,749.6z"/>
	</g>
</g>
<g>
	<g>
		<path class="st13" d="M22.7,549.2c1.9-0.8,3.8-1.5,5.8-2.2c1.9-0.7,3.8-1.3,5.7-1.8c1.9-0.5,3.8-1,5.7-1.4c2-0.4,3.9-0.9,5.9-1.2
			c2.3-0.3,4.7-0.5,7-0.7c0.1,0,0.1-0.1,0-0.1c-2,0.1-4.1,0.2-6.1,0.5c-2,0.2-4,0.4-6,0.7c-4,0.8-8,1.8-11.8,3.1
			c-2.2,0.7-4.3,1.7-6.4,2.6C22.2,549,22.5,549.4,22.7,549.2L22.7,549.2z"/>
	</g>
</g>
<g>
	<g>
		<path class="st13" d="M56.2,541.6c1.3-0.3,2.6-0.4,3.9-0.6c0.6-0.1,1.3-0.1,1.9-0.1c0.6,0,1.2,0,1.8-0.1c0.1,0,0.1-0.2,0-0.2
			c-0.6-0.1-1.3,0-2,0c-0.6,0-1.3,0.1-1.9,0.2c-1.3,0.1-2.6,0.3-3.9,0.6C56.1,541.4,56.1,541.6,56.2,541.6L56.2,541.6z"/>
	</g>
</g>
<g>
	<g>
		<path class="st13" d="M111.5,356.8c3.8,7.9,7.2,16,10.1,24.3c3.3,9.5,5.9,19.2,7.7,29.1c0.5,2.5,0.9,5.1,1.3,7.6
			c0.4,2.4,0.6,4.9,1.1,7.2c0.1,0.6,1,0.5,1-0.1c-0.1-2.1-0.5-4.3-0.8-6.4c-0.3-2.3-0.7-4.5-1.2-6.8c-0.9-4.9-2-9.7-3.3-14.5
			c-2.5-9.5-5.6-18.9-9.4-28c-1.8-4.3-3.7-8.6-5.8-12.8C112,355.8,111.2,356.2,111.5,356.8L111.5,356.8z"/>
	</g>
</g>
<g>
	<g>
		<path class="st13" d="M135.3,451.2c1.2,8.6,2.1,17.2,2.9,25.8c0.6,6.2,1,12.4,1.3,18.6c0.2,4.2,0.3,8.4,0.3,12.7
			c0.1,11.5,0.3,23,0.5,34.4c0.2,9.4,0.3,18.9-0.3,28.3c-0.3,4.6-0.7,9.3-1.2,13.9c-0.5,4.6-1,9.2-1.9,13.7
			c-0.8,4.2-2.1,8.3-4.3,11.9c-2,3.3-4.6,6.2-7.2,9c-2.3,2.5-4.5,5-7,7.3c-3.2,3-6.7,5.6-10.5,7.8c-1.5,0.9-3,1.7-4.5,2.5
			c-0.7,0.4-0.1,1.4,0.6,1c7.2-3.2,13.6-8.3,19-14.1c5.1-5.4,10.4-10.9,13.1-17.9c1.6-4.1,2.3-8.5,2.9-12.8
			c0.6-4.6,1.2-9.3,1.6-13.9c0.9-9.5,1.2-19.1,1-28.6c-0.1-13.4-0.5-26.8-0.7-40.2c-0.1-4.5-0.1-8.9-0.3-13.4
			c-0.6-13.2-1.7-26.5-3.7-39.6c-0.3-2.3-0.7-4.5-1.1-6.8C136,450.5,135.3,450.8,135.3,451.2L135.3,451.2z"/>
	</g>
</g>
<g>
	<g>
		<path class="st13" d="M604,528C604,528,604,527.9,604,528C603.9,527.9,603.9,528,604,528L604,528z"/>
	</g>
</g>
<g>
	<g>
		<path class="st13" d="M347,347.1c-1.1,9-1.8,18-2.3,27.1c-0.5,9.3-0.9,18.5-0.9,27.8c0,4.9,0.1,9.7,0.2,14.6c0,0.7,1,0.7,1,0
			c-0.3-8.8-0.2-17.7-0.1-26.5c0.1-9.4,0.7-18.7,1.5-28.1c0.4-5,0.9-10,1.4-14.9C347.8,346.6,347.1,346.7,347,347.1L347,347.1z"/>
	</g>
</g>
<g>
	<g>
		<path class="st13" d="M378,360.6c0.1,0,0.1-0.1,0-0.1C377.9,360.5,377.9,360.6,378,360.6L378,360.6z"/>
	</g>
</g>
<g>
	<g>
		<path class="st13" d="M377.6,361.5c-1.6,7.5-2.8,15.2-3.8,22.8c-1,8.2-1.8,16.3-2.1,24.6c-0.2,4.2-0.3,8.4-0.3,12.6
			c0,0.7,1.1,0.7,1.1,0c0-7.6,0.3-15.2,0.8-22.8c0.6-8.2,1.6-16.4,2.9-24.5c0.7-4.1,1.4-8.3,2.3-12.4
			C378.7,361.1,377.8,360.9,377.6,361.5L377.6,361.5z"/>
	</g>
</g>
<g>
	<g>
		<path class="st13" d="M368.3,444.7c-0.4,13.5-0.7,26.9-1.2,40.4c-0.4,13.5-0.9,27-1.3,40.5c-0.1,3.7-0.2,7.5-0.4,11.2
			c-0.1,1.9-0.1,3.8-0.2,5.7c0,0.9-0.1,1.8,0,2.7c0.1,1,0.3,2,0.4,3c0,0.1,0.2,0.2,0.2,0c0.1-0.8,0.3-1.6,0.5-2.4
			c0.2-0.9,0.2-1.7,0.2-2.6c0.1-1.6,0.1-3.3,0.2-4.9c0.1-3.4,0.2-6.8,0.3-10.2c0.2-6.7,0.4-13.5,0.6-20.2c0.4-13.5,0.7-27,1-40.5
			c0.2-7.6,0.4-15.2,0.5-22.7C369.2,444.2,368.3,444.2,368.3,444.7L368.3,444.7z"/>
	</g>
</g>
<g>
	<g>
		<path class="st13" d="M415.1,398.4c-4.8,12.9-9.4,25.8-13.6,38.9c-1.2,3.7-2.1,7.4-3.3,11.1c0,0,0,0,0,0c1.2-3.3,2.4-6.5,3.6-9.7
			c1.2-3.2,2.3-6.5,3.4-9.8c2.2-6.4,4.5-12.9,6.8-19.3c1.3-3.6,2.6-7.3,4-10.9C416.4,398,415.3,397.7,415.1,398.4L415.1,398.4z"/>
	</g>
</g>
<g>
	<g>
		<path class="st13" d="M390.7,465.4c-0.9,2.4-1.9,4.7-2.8,7.1c0,0.1,0.1,0.1,0.1,0c1-2.3,1.9-4.7,2.8-7.1
			C390.9,465.3,390.7,465.3,390.7,465.4L390.7,465.4z"/>
	</g>
</g>
<g>
	<g>
		<path class="st13" d="M286.7,369.9c0.1,0,0.1-0.1,0-0.1C286.7,369.8,286.7,369.9,286.7,369.9L286.7,369.9z"/>
	</g>
</g>
<g>
	<g>
		<path class="st13" d="M133.2,435.2c-0.2-1.4-0.3-2.7-0.3-4.1c0-0.6,0-1.3,0-1.9c0-0.6,0-1.3,0.2-1.9c0.4-0.9,1.8-1.4,2.6-1.8
			c1.1-0.5,2.4-0.8,3.6-1c2.6-0.5,5.3-0.8,8-1.1c2.8-0.3,5.5-0.5,8.3-0.8c1.2-0.1,2.5-0.3,3.7-0.3c1,0,1.9,0.2,2.3,1.2
			c0.4,1.1,0.5,2.5,0.7,3.6c0.1,0.6,0.2,1.3,0.3,1.9c0.1,0.5,0.3,1.3,0,1.8c-0.5,0.8-1.8,1.2-2.6,1.5c-1.2,0.4-2.4,0.8-3.6,1.1
			c-2.5,0.7-5,1.2-7.5,1.5c-2.9,0.4-5.8,0.6-8.7,0.8c-1.4,0.1-2.8,0.3-4.3,0.2c-1,0-2.4-0.5-2.4-1.7c0-1-1.3-1.1-1.6-0.2
			c-0.4,1.3,0.4,2.5,1.5,3.2c1.2,0.7,2.7,0.7,4.1,0.5c2.9-0.2,5.9-0.4,8.8-0.7c2.9-0.3,5.8-0.8,8.7-1.4c1.4-0.3,2.8-0.7,4.2-1.2
			c1.3-0.4,2.7-0.8,3.8-1.6c1.1-0.7,1.6-1.8,1.5-3.1c-0.2-1.5-0.4-3-0.6-4.5c-0.2-1.3-0.3-2.7-1.3-3.6c-0.9-0.9-2.3-1.1-3.5-1.1
			c-1.5,0-2.9,0.3-4.4,0.4c-1.6,0.2-3.2,0.3-4.8,0.5c-3.1,0.3-6.2,0.6-9.3,1c-1.6,0.3-3.3,0.6-4.8,1.1c-1.3,0.5-2.8,1.1-3.8,2.2
			c-1.1,1.2-0.9,3.1-0.9,4.7c0,1.8,0.3,3.5,0.6,5.3C131.9,436.6,133.4,436.2,133.2,435.2L133.2,435.2z"/>
	</g>
</g>
<g>
	<g>
		<path class="st13" d="M134.8,447.3c-0.2-1.3-0.3-2.6-0.3-4c0-0.6,0-1.3,0-1.9c0-0.5,0-1.2,0.3-1.7c0.7-0.8,2-1.3,3-1.6
			c1.2-0.4,2.4-0.6,3.7-0.9c2.6-0.5,5.3-0.7,7.9-0.9c2.6-0.2,5.3-0.5,7.9-0.7c1.2-0.1,2.4-0.3,3.7-0.3c0.9,0,1.9,0.2,2.3,1.1
			c0.4,1,0.5,2.3,0.6,3.4c0.1,0.6,0.2,1.2,0.3,1.9c0.1,0.5,0.2,1.1-0.1,1.5c-0.6,0.8-2,1.1-2.9,1.4c-1.2,0.4-2.4,0.7-3.6,1
			c-2.5,0.6-5,1-7.5,1.3c-2.8,0.3-5.7,0.6-8.6,0.8c-1.3,0.1-2.7,0.2-4.1,0.2c-0.9,0-2.4-0.3-2.4-1.5c0-1-1.3-1.1-1.6-0.2
			c-0.4,1.2,0.3,2.4,1.4,3c1.2,0.7,2.6,0.7,3.9,0.6c2.9-0.2,5.9-0.4,8.8-0.7c2.9-0.3,5.8-0.7,8.7-1.3c1.4-0.3,2.7-0.6,4.1-1
			c1.3-0.4,2.7-0.8,3.9-1.4c1.2-0.6,2-1.6,1.8-3c-0.1-1.4-0.4-2.9-0.7-4.3c-0.2-1.2-0.3-2.5-1.2-3.4c-0.9-0.9-2.2-1.1-3.4-1.1
			c-1.4,0-2.9,0.2-4.3,0.4c-1.5,0.1-3.1,0.3-4.6,0.4c-3.1,0.3-6.1,0.5-9.1,0.9c-1.6,0.2-3.2,0.5-4.8,0.9c-1.4,0.4-2.9,1-4,1.9
			c-1.2,1.1-1.2,2.8-1.2,4.3c0,1.8,0.3,3.5,0.6,5.2C133.5,448.7,135,448.3,134.8,447.3L134.8,447.3z"/>
	</g>
</g>
<g>
	<g>
		<path class="st13" d="M341,428.4c0.4-2.7,0.9-5.4,1.3-8.1c0.2-0.9,0.4-2,1.4-2.2c0.5-0.1,1.2,0,1.7,0c0.7,0,1.5,0.1,2.2,0.1
			c5.5,0.4,10.9,1.3,16.3,2.4c1.4,0.3,2.7,0.5,4,0.8c0.9,0.2,2,0.4,2.7,1c0.9,0.8,0.9,2,0.7,3c-0.2,1.3-0.5,2.6-0.7,3.8
			c-0.1,0.3-0.1,0.6-0.2,0.9c0,0.2,0,0.6-0.2,0.8c-0.3,0.4-1.3,0.4-1.8,0.4c-1.3,0.2-2.7,0.2-4,0.1c-2.7-0.1-5.5-0.5-8.2-0.8
			c-3.1-0.3-6.2-0.7-9.2-1.1c-2.1-0.3-4.9-0.5-6.1-2.4c-0.6-0.9-2.1-0.1-1.5,0.9c1.3,2,3.6,2.7,5.8,3c3,0.5,6,0.8,9.1,1.1
			c3.1,0.3,6.2,0.7,9.3,0.9c1.5,0.1,3,0.1,4.5,0c1.2-0.1,3-0.1,3.7-1.3c0.3-0.6,0.4-1.3,0.5-1.9c0.1-0.8,0.3-1.6,0.4-2.3
			c0.2-1.3,0.6-2.7,0.4-4c-0.4-2.8-3.1-3.5-5.4-4c-6-1.3-12.1-2.5-18.2-3c-1.7-0.2-3.4-0.3-5.2-0.3c-1.4,0-2.5,0.6-3.1,1.9
			c-0.6,1.3-0.7,2.9-0.9,4.3c-0.3,1.8-0.5,3.6-0.8,5.3C339.4,428.9,340.8,429.3,341,428.4L341,428.4z"/>
	</g>
</g>
<g>
	<g>
		<path class="st13" d="M340.7,440.7c0-1.4,0.2-2.8,0.4-4.1c0.2-1.1,0.3-2.5,0.9-3.4c0.6-0.8,1.6-1,2.5-1c1.2,0,2.5,0.1,3.7,0.2
			c5.5,0.4,11.1,0.9,16.6,1.3c1.3,0.1,2.7,0.1,4,0.3c0.5,0.1,0.9,0.2,1,0.7c0.1,0.6,0.1,1.2,0.1,1.7c0,1.4,0,2.7-0.1,4.1
			c0,1.1,0,2.4-0.9,3.3c-0.7,0.7-1.7,0.8-2.7,0.9c-1.2,0.1-2.5,0-3.7,0c-2.7,0-5.5-0.2-8.2-0.4c-3.1-0.2-6.1-0.5-9.1-0.9
			c-0.7-0.1-1.5-0.2-2.2-0.3c-0.5-0.1-1.1-0.2-1.4-0.7c-0.3-0.4-0.4-0.9-0.5-1.4c-0.1-0.6-0.2-1.1-0.4-1.7c-0.2-0.6-1-0.6-1.2,0
			c-0.8,2.4,0.3,5.1,2.9,5.6c1.5,0.3,3.1,0.5,4.7,0.6c1.5,0.2,3.1,0.3,4.6,0.5c3.1,0.2,6.2,0.3,9.3,0.3c1.6,0,3.1,0,4.7-0.1
			c1.1-0.1,2.3-0.2,3.3-0.7c2.5-1.2,2.3-4.5,2.4-6.9c0-1.4,0.2-2.9-0.1-4.2c-0.3-1.3-1.3-1.8-2.6-1.9c-6.2-0.6-12.5-0.9-18.8-1.3
			c-1.7-0.1-3.3-0.3-5-0.3c-1.2,0-2.6,0.1-3.5,0.9c-1.1,0.9-1.3,2.5-1.5,3.8c-0.3,1.7-0.5,3.5-0.5,5.2
			C339.3,441.5,340.6,441.5,340.7,440.7L340.7,440.7z"/>
	</g>
</g>
<g>
	<g>
		<path class="st13" d="M340.3,440c0.2-1.6,0.5-3.2,0.8-4.8c0.1-0.7,0.2-1.4,0.5-2.1c0.2-0.6,0.8-0.9,1.2-1.3
			c0.4-0.4,0.8-1.1,0.3-1.5c-0.5-0.3-1,0.3-1.4,0.6c-0.5,0.4-1,0.8-1.3,1.3c-0.3,0.6-0.5,1.4-0.6,2.1c-0.4,1.8-0.6,3.6-0.9,5.4
			C338.9,440.6,340.2,440.8,340.3,440L340.3,440z"/>
	</g>
</g>
<g>
	<g>
		<path class="st13" d="M340,427c0.1,0.1,0.1,0,0.1-0.1c0-0.1,0-0.3,0-0.4c0-0.3,0.1-0.6,0.1-0.9c0.1-0.6,0.2-1.2,0.2-1.7
			c0.1-1,0.3-2,0.5-3c0.5-1.8,1.6-3.1,3.4-3.7c0.6-0.2,0.5-1.1-0.2-1.1c-2.6,0-4.2,2.7-4.7,4.9c-0.3,1.4-0.5,2.8-0.6,4.2
			c-0.1,1.1-0.6,3.2,1.1,3.3C340.9,428.4,340.9,427.1,340,427L340,427z"/>
	</g>
</g>
<path class="st21" d="M531.7,782.7h-360c-6.6,0-12-5.4-12-12V560.2c0-6.6,5.4-12,12-12h360c6.6,0,12,5.4,12,12v210.5
	C543.7,777.3,538.3,782.7,531.7,782.7z"/>
<g>
	<g>
		<path class="st13" d="M377.5,547c0.6-9,1.1-18,1.4-27.1c0.3-9,0.4-18,0.3-27c0-2.5,0-5.1-0.1-7.6c0-1.3-0.1-2.6-0.2-3.9
			c-0.1-1.3-0.3-2.6-0.4-3.9c0-0.2-0.4-0.2-0.4,0c0,1.1-0.2,2.2-0.2,3.4c0,1.1,0,2.2,0,3.4c0,2.3,0,4.6,0.1,6.8c0,4.5,0,9,0,13.6
			c-0.1,9-0.4,18-0.7,27c-0.2,5.1-0.5,10.2-0.8,15.3C376.4,547.6,377.5,547.6,377.5,547L377.5,547z"/>
	</g>
</g>
<g>
	<g>
		<path class="st13" d="M380.1,490.2c0.6-2,1.5-4,2.6-5.8c0.5-0.9,1.1-1.7,1.8-2.5c0.6-0.8,1.4-1.6,1.9-2.5c0.1-0.2-0.1-0.4-0.3-0.3
			c-1,0.4-1.7,1.4-2.3,2.2c-0.7,0.9-1.3,1.8-1.9,2.7c-1.1,1.9-2,3.9-2.6,6C379,490.6,380,490.8,380.1,490.2L380.1,490.2z"/>
	</g>
</g>
<g>
	<g>
		<path class="st13" d="M358.3,541.8c0.2-3.9,0.5-7.8,0.7-11.6c0.1-1.9,0.2-3.8,0.3-5.7c0-1,0-2,0-3c0-1,0-2-0.1-3
			c0-0.1-0.1-0.1-0.1,0c-0.4,1.9-0.5,3.8-0.7,5.7c-0.2,1.9-0.2,3.9-0.3,5.8c-0.2,3.9-0.3,7.8-0.5,11.8
			C357.6,542.3,358.3,542.3,358.3,541.8L358.3,541.8z"/>
	</g>
</g>
<g>
	<g>
		<path class="st13" d="M179.8,328.4c0,2,0.1,4,0.5,6c0.4,1.9,0.8,4,1.7,5.8c0,0.1,0.2,0,0.2-0.1c-0.6-1.9-1.2-3.7-1.6-5.6
			c-0.4-2-0.5-4-0.5-6C180.1,328.2,179.9,328.2,179.8,328.4L179.8,328.4z"/>
	</g>
</g>
<g>
	<g>
		<path class="st13" d="M192.9,315.1c-4.5,11.9,0.1,25,5.8,35.6c5.7,10.5,13.2,20.6,23.6,26.9c5.2,3.2,10.9,5.4,17,6.2
			c5.9,0.8,11.9,0.1,17.4-2.1c11.4-4.4,19.9-13.7,26.2-24c3.4-5.5,6.3-11.3,8.9-17.1c2.6-5.8,4.6-12.3,3.3-18.7
			c-0.3-1.5-0.9-2.8-1.7-4.1c-0.2-0.3-0.8-0.1-0.7,0.3c0.9,2.9,1.5,5.9,1.4,8.9c-0.1,3.2-0.9,6.2-2,9.2c-1.1,3-2.5,5.9-3.9,8.8
			c-1.4,2.8-2.8,5.6-4.3,8.3c-5.8,10.3-13.3,20-24,25.5c-5.1,2.6-10.7,4.1-16.4,4c-5.9-0.1-11.8-1.7-17.1-4.3
			c-10.7-5.3-18.7-14.7-24.6-24.8c-5.9-10-11.4-22.2-9-34.1c0.3-1.5,0.7-2.9,1.2-4.3C194.2,314.8,193.1,314.5,192.9,315.1
			L192.9,315.1z"/>
	</g>
</g>
<g>
	<g>
		<path class="st13" d="M228.1,155.5c-3,2-6.5,3.4-10.1,3.9c-1.8,0.3-3.6,0.3-5.4,0.2c-0.9-0.1-1.8-0.2-2.7-0.3
			c-0.9-0.1-1.8-0.4-2.8-0.6c-0.1,0-0.1,0.1-0.1,0.1c1.6,0.8,3.6,1.1,5.4,1.3c1.8,0.2,3.7,0.1,5.5-0.2c3.8-0.5,7.3-2,10.4-4.2
			C228.5,155.7,228.3,155.4,228.1,155.5L228.1,155.5z"/>
	</g>
</g>
<g>
	<g>
		<path class="st13" d="M202.5,149.8c5.2,6.8,15.4,7.7,23,5c0.1,0,0.1-0.2-0.1-0.2c-4.4,0.6-8.8,1.3-13.2,0.4
			c-3.6-0.8-7.2-2.4-9.5-5.4C202.6,149.4,202.3,149.6,202.5,149.8L202.5,149.8z"/>
	</g>
</g>
<g>
	<g>
		<path class="st13" d="M275.1,157c2.1,3.1,5.5,5.4,9.1,6.3c4.2,1,9.1,0.6,13-1.4c0.1-0.1,0-0.2-0.1-0.2c-4.2,1-8.4,1.9-12.7,0.9
			c-3.6-0.8-7-2.7-9.1-5.9C275.3,156.6,275,156.8,275.1,157L275.1,157z"/>
	</g>
</g>
<g>
	<g>
		<path class="st13" d="M277.8,162.3c1.5,2.2,3.5,3.9,5.9,5.1c1.3,0.7,2.7,1.2,4,1.6c1.4,0.4,2.9,0.9,4.4,1c0.1,0,0.1-0.1,0-0.1
			c-1.3-0.5-2.7-0.8-4.1-1.3c-1.4-0.4-2.8-1-4.1-1.6c-2.3-1.2-4.4-2.8-5.9-4.9C277.9,161.9,277.6,162.1,277.8,162.3L277.8,162.3z"/>
	</g>
</g>
<g>
	<g>
		<path class="st13" d="M273.9,149c1.2-2.5,3.1-4.5,5.1-6.3c1-0.9,2.1-1.7,3.2-2.5c1.2-0.8,2.3-1.5,3.7-2c2.9-1,5.6,0.4,8.1,1.8
			c2.4,1.4,4.6,3,6.5,5c0.5,0.5,1,1.1,1.5,1.7c0.2,0.3,0.5,0.7,0.7,1c0.2,0.3,0.5,0.6,0.7,0.9c0.7,1.3,1.2,2.9,1.5,4.4
			c0,0.1,0.2,0.1,0.2,0c0-1.4-0.4-2.7-0.9-4c-0.3-0.7-0.5-1.4-0.8-2c-0.3-0.6-0.7-1.2-1.2-1.8c-1.8-2.4-4.1-4.3-6.7-5.9
			c-2.4-1.5-5.6-3.5-8.5-2.7c-2.9,0.8-5.1,2.9-7.3,4.7c-2.5,2.1-4.8,4.5-6.3,7.4C273.3,149.1,273.8,149.4,273.9,149L273.9,149z"/>
	</g>
</g>
<g>
	<g>
		<path class="st13" d="M200.9,145.3c1.1-2.5,2.6-4.7,4.6-6.6c2-1.8,4.1-3.5,6.5-4.7c2.4-1.2,5-2.1,7.6-2.5c1.5-0.2,3-0.3,4.5,0.1
			c1.5,0.3,2.7,1.1,3.7,2.2c1.2,1.3,2.3,2.6,3.3,4.1c0.5,0.7,0.9,1.5,1.3,2.3c0.4,0.8,0.7,1.5,1.3,2.2c0.1,0.1,0.2,0,0.2-0.1
			c-0.1-1.6-1.1-3.1-1.8-4.4c-0.8-1.4-1.7-2.9-2.7-4.1c-1-1.2-2.1-2.4-3.5-3.1c-1.5-0.7-3.1-0.9-4.8-0.7c-2.9,0.2-5.9,1.2-8.5,2.5
			c-2.5,1.2-5,2.9-6.9,4.9c-1.1,1.1-2,2.4-2.9,3.7c-0.9,1.3-1.7,2.7-2.3,4.2C200.4,145.3,200.8,145.5,200.9,145.3L200.9,145.3z"/>
	</g>
</g>
<g>
	<g>
		<path class="st13" d="M316.3,195.3c-5.1,13.6-9.9,27.2-14.5,40.9c-1,3.1-2.2,6.2-3.9,9c-1.6,2.7-3.8,4.9-6.3,6.8
			c-2.5,2-5.3,3.7-8.1,5.2c-3,1.7-6.1,3.2-9.2,4.7c-6.2,2.9-12.6,5.5-19.1,7.8c-6.3,2.2-13,4-19.8,3.5c-3.2-0.2-6.5-1-9.4-2.3
			c-2.8-1.3-5.4-3-7.8-4.9c-2.4-1.9-4.7-4.1-6.8-6.2c-2.5-2.5-4.9-5-7.4-7.5c-5.1-5.2-10.3-10.4-15.4-15.6c-1.3-1.3-2.6-2.6-3.9-3.9
			c-1.2-1.1-2.5-2.2-3.4-3.5c-1.9-2.5-1.3-5.7-1.5-8.6c-0.1-1.3-0.4-2.5-1-3.6c0,0-0.1,0,0,0c1.6,2.8,0.4,6,0.6,9
			c0.2,3.3,2.4,5.4,4.5,7.7c5.1,5.4,10.6,10.7,15.9,15.9c4.9,4.9,9.7,10,14.9,14.6c4.6,4.2,9.8,7.9,15.9,9.5
			c6.7,1.7,13.6,0.7,20.2-1.1c6.7-1.9,13.2-4.6,19.7-7.4c6.4-2.7,12.7-5.8,18.6-9.6c2.6-1.7,5.1-3.6,7.2-5.8c2.2-2.3,3.8-5.1,5.1-8
			c1.3-3.2,2.3-6.5,3.4-9.8c1.2-3.5,2.3-7.1,3.5-10.6c2.4-7,4.8-14.1,7.3-21.1c0.6-1.7,1.2-3.4,1.9-5.1
			C317.2,195,316.5,194.8,316.3,195.3L316.3,195.3z"/>
	</g>
</g>
<g>
	<g>
		<path class="st13" d="M177.3,192.9c-0.1,6.3-0.3,12.5-0.4,18.8c0,5.6,0.2,11.3,2.7,16.5c1.2,2.6,3.1,5,5.5,6.6
			c0.2,0.1,0.3-0.1,0.2-0.3c-1.6-2-3.1-4-4.2-6.3c-1.2-2.4-2-5-2.4-7.7c-0.4-2.8-0.5-5.6-0.5-8.4c0-3,0-5.9,0-8.9
			c0-3.4-0.1-6.8-0.1-10.2C178,192.4,177.3,192.4,177.3,192.9L177.3,192.9z"/>
	</g>
</g>
<g class="st19">
	<g>
		<path class="st13" d="M241.8,114.6c1.9,4.2,3,8.8,3.1,13.4c0.1,4.6-0.8,9.1-2.3,13.5c0,0.1,0.1,0.2,0.2,0.1
			c3.2-6.5,3.5-14.5,1.8-21.5c-0.5-2-1.2-4-2-5.9C242.3,113.7,241.5,114.1,241.8,114.6L241.8,114.6z"/>
	</g>
</g>
<g class="st19">
	<g>
		<path class="st13" d="M272.9,118.4c-0.8,3.3-1.7,6.7-2.2,10.1c-0.2,1.6-0.3,3.3-0.5,4.9c-0.2,1.7-0.4,3.4-0.5,5.2c0,0,0,0,0,0
			c0.2-1.8,0.4-3.5,0.7-5.3c0.1-0.8,0.3-1.6,0.4-2.4c0.1-0.8,0.4-1.6,0.5-2.5c0.6-3.3,1.1-6.6,1.9-9.9
			C273.3,118.3,272.9,118.1,272.9,118.4L272.9,118.4z"/>
	</g>
</g>
<g class="st22">
	<g>
		<path class="st13" d="M279.6,263.1c-3.9,6.5-7.7,13.1-12.1,19.3c-4.1,5.8-8.8,11.2-14.2,15.8c-3,2.6-6.3,4.8-9.7,6.8
			c0,0,0,0.1,0,0.1c3.1-1.6,5.9-3.7,8.6-5.8c2.7-2.2,5.2-4.6,7.6-7.1c2.4-2.6,4.6-5.3,6.8-8.1c2.3-3.1,4.6-6.2,6.7-9.4
			c2.4-3.7,4.7-7.4,7-11.2C280.4,263,279.8,262.7,279.6,263.1L279.6,263.1z"/>
	</g>
</g>
<g>
	<g>
		<path class="st13" d="M165.4,446.3c1.3,13.5,2.2,27,3,40.6c0.2,3.4,0.4,6.7,0.5,10.1c0.1,1.7,0.2,3.4,0.2,5c0,1.1-0.1,2.2,0.2,3.2
			c0.5,2.2,2.5,3.3,4.6,3.7c2.5,0.4,5,0.2,7.5,0.3c13.5,0.4,27,1.2,40.5,1.9c6.8,0.3,13.6,0.6,20.3,0.8c6.6,0.1,13.1,0.1,19.7,0.1
			c10.6,0,21.2,0,31.8,0c6.8,0,13.7,0,20.5,0c3.2,0,6.3,0,9.5,0c1.5,0,2.9,0.1,4.4,0c4.3-0.3,8.7-2,10-6.6c0.4-1.4,0.3-2.9,0.4-4.4
			c0-1.2,0.1-2.4,0.1-3.6c0.1-3.5,0.3-6.9,0.5-10.4c0.6-10.5,1.2-21.1,1.9-31.6c0.2-3.2,0.4-6.4,0.6-9.6c0-0.7-1.1-0.7-1.1,0
			c-0.8,11.4-1.5,22.8-2.2,34.3c-0.4,6.8-0.8,13.6-0.9,20.5c0,1.3,0,2.5-0.2,3.8c-0.5,2.5-2.1,4.3-4.4,5.3c-2.6,1.1-5.5,1-8.3,0.9
			c-2.3-0.1-4.7,0-7,0c-5.9,0-11.7,0-17.6,0c-9.4,0-18.9,0-28.3,0c-12.6,0-25.3,0.2-37.9-0.3c-13.3-0.5-26.5-1.4-39.8-2
			c-3.3-0.1-6.6-0.3-9.9-0.4c-2.8-0.1-5.6,0-8.5-0.1c-2.2-0.1-4.6-0.9-4.8-3.4c-0.1-1.2-0.1-2.5-0.1-3.7c-0.1-1.7-0.2-3.4-0.2-5
			c-0.7-13.2-1.7-26.4-2.9-39.6c-0.3-3.2-0.6-6.5-0.9-9.7C166.2,445.7,165.3,445.7,165.4,446.3L165.4,446.3z"/>
	</g>
</g>
<g>
	<g>
		<path class="st13" d="M142.2,340.7c3.5,10.3,6.6,20.8,9.3,31.3c2.7,10.5,4.9,21.2,6.7,31.9c1,6.1,1.7,12.2,2.5,18.3
			c0.1,0.7,1.2,0.7,1.1,0c-0.5-5.4-1.3-10.8-2.1-16.2c-0.8-5.4-1.8-10.8-2.9-16.2c-2.1-10.7-4.8-21.3-7.9-31.8
			c-1.7-5.9-3.7-11.7-5.8-17.5C142.9,339.9,142,340.1,142.2,340.7L142.2,340.7z"/>
	</g>
</g>
<g>
	<g>
		<path class="st13" d="M186.7,72.6c2-10.2,7.3-19.4,14.6-26.8c3.7-3.7,7.8-7,12.2-9.7c5-3.1,10.6-5.3,15.5-8.7
			c2.5-1.7,4.7-3.7,6.6-6.2c0.9-1.2,1.6-2.4,2.2-3.7c0.6-1.4,0.9-2.8,1.1-4.3c-0.4,0.1-0.8,0.1-1.2,0.2c0.9,2.3,1.7,4.6,2.1,7
			c0.4,2.4,0.2,4.7-0.8,7c-0.4,1,0.6,1.9,1.5,1.2c6-5.3,13-9.3,20.4-12.3c7.5-3.1,15.5-5.1,23.4-6.7c2.3-0.5,4.5-0.9,6.8-1.4
			c2.3-0.4,4.5-0.8,6.7-1.4c-0.2-0.4-0.5-0.8-0.7-1.2c-1.7,1.3-3.5,2.5-5.2,3.8c-1.7,1.2-3.4,2.6-5.1,3.7c-0.3,0.2-0.2,0.7,0.2,0.6
			c2.9-0.2,5.8,0.6,8.6,1.4c2.7,0.8,5.4,1.6,8.2,2c5.1,0.7,10.4,0.3,15.3-1.3c2.8-0.9,5.6-2.1,8-3.9c0.4-0.3,0.1-1-0.4-0.8
			c-4.6,2.5-9.4,4.3-14.7,4.9c-2.6,0.3-5.1,0.3-7.7,0c-2.7-0.3-5.4-1.1-8.1-1.8c-3.1-0.8-6.1-1.4-9.3-1.2c0.1,0.2,0.1,0.4,0.2,0.6
			c1.8-1.2,3.7-2.3,5.5-3.5c1.8-1.2,3.6-2.4,5.5-3.5c0.6-0.3,0.4-1.5-0.4-1.4c-4.1,0.5-8.2,1.4-12.2,2.3c-4.1,0.9-8.1,1.8-12.1,2.9
			c-7.9,2.2-15.7,4.9-22.8,8.9c-4,2.2-7.8,4.8-11.3,7.8c0.5,0.4,1,0.8,1.5,1.2c1.1-2.4,1-5,0.5-7.6c-0.4-2.7-1.4-5.2-2.4-7.7
			c-0.3-0.6-1.1-0.5-1.2,0.2c-0.3,2.6-1.6,5.1-3.2,7.2c-1.6,2.2-3.7,4.1-5.9,5.6c-4.8,3.4-10.3,5.6-15.3,8.7
			c-8.7,5.4-16.3,12.7-21.5,21.6c-2.9,5-4.9,10.4-5.8,16.1C186,72.9,186.6,73.1,186.7,72.6L186.7,72.6z"/>
	</g>
</g>
<g>
	<g>
		<path class="st13" d="M326.9,10.9c-2.1,8-6.7,15.2-12.9,20.5c-0.9,0.7-1.8,1.4-2.7,2.1c-0.9,0.6-2.1,1.1-2.6,2.1
			c-0.1,0.1,0,0.3,0.2,0.3c1,0,1.9-0.7,2.7-1.3c0.8-0.6,1.6-1.2,2.4-1.8c1.6-1.3,3.2-2.8,4.6-4.4c2.8-3.1,5.2-6.7,6.9-10.6
			c1-2.2,1.7-4.4,2.3-6.7C327.8,10.6,327,10.4,326.9,10.9L326.9,10.9z"/>
	</g>
</g>
<g>
	<g>
		<path class="st13" d="M311,35.9c5.1-0.7,9.9-2.6,14.2-5.4c-0.3-0.3-0.5-0.5-0.8-0.8c-2.6,4.6-6.9,8.3-11.9,10.2
			c-0.5,0.2-0.6,0.9,0,1.1c13.1,4.1,24.9,13.3,29.8,26.4c1.4,3.6,2.2,7.5,2.3,11.4c0.4-0.1,0.7-0.2,1.1-0.3c-2.4-4.5-8.6-3.5-12-6.7
			c-0.5-0.5-1.3,0.3-0.8,0.8c1.7,1.7,4.1,2.3,6.3,3c2.1,0.6,4.4,1.4,5.5,3.5c0.3,0.5,1.1,0.3,1.1-0.3c-0.2-7.1-2.6-14.1-6.5-20
			c-3.9-5.9-9.4-10.7-15.5-14.2c-3.5-2-7.1-3.5-10.9-4.7c0,0.4,0,0.7,0,1.1c5.3-2,9.8-5.7,12.6-10.7c0.3-0.5-0.3-1.1-0.8-0.8
			c-4.2,2.8-8.9,4.6-13.9,5.4C310,35,310.3,36,311,35.9L311,35.9z"/>
	</g>
</g>
<g>
	<g>
		<path class="st13" d="M333.8,164.6c0.8-2.3,1.6-4.7,2.3-7c0.4-1.1,0.7-2.3,1.1-3.4c0.2-0.5,0.8-0.8,1.2-1.2c0.4-0.4,1-0.8,1.3-1.3
			c0.2-0.5,0.4-1.1,0.5-1.6c0.2-0.6,0.3-1.2,0.5-1.7c0.4-1.1,0.7-2.2,1.1-3.3c0.6-2,1.3-4,1.9-6c1.7-5.2,3.3-10.5,4.9-15.8
			c0.1-0.5,0.3-1,0.4-1.6c0-0.1,0-0.1,0-0.2c0.1-0.4,0.1-0.6,0.7-0.5c1.3,0.3,2.5,0.9,3.8,1.3c0.3,0.1,0.7-0.2,0.7-0.5
			c-0.1-7.2-2.1-14.4-5.7-20.7c-1-1.8-2.2-3.5-3.5-5.1c-0.1,0.3-0.2,0.6-0.4,0.9c2.5-0.1,4.8-1.3,6.4-3.2c0.2-0.2,0.2-0.6-0.1-0.8
			c-6.3-3.5-8-11.3-12.3-16.6c-0.7-0.9-1.6-1.6-2.4-2.4c-0.4-0.3-0.8-0.7-1.2-1c-0.4-0.3-0.9-0.4-1.4-0.6c-0.1,0-0.3,0.1-0.2,0.2
			c0.2,0.3,0.4,0.8,0.6,1c0.4,0.4,0.8,0.7,1.2,1c0.8,0.6,1.5,1.3,2.2,2c1.2,1.3,2.1,3,3,4.5c1.8,3.1,3.3,6.3,5.6,9
			c1.2,1.5,2.7,2.7,4.4,3.7c0-0.3-0.1-0.5-0.1-0.8c-1.4,1.7-3.4,2.8-5.6,2.9c-0.3,0-0.7,0.4-0.4,0.8c5.5,7.2,8.7,16.1,8.9,25.2
			c0.2-0.2,0.4-0.3,0.7-0.5c-1.2-0.4-2.3-0.8-3.5-1.2c-0.8-0.3-1.7-0.3-2.1,0.6c-0.1,0.2-0.1,0.5-0.2,0.7c0-0.2,0,0,0,0.1
			c0,0.2-0.1,0.4-0.1,0.6c-0.5,1.7-1,3.4-1.5,5.2c-0.9,3.1-1.9,6.2-2.8,9.3c-0.6,2-1.2,4-1.9,6c-0.7,2.2-1.3,4.5-2.1,6.7
			c-0.1,0.3-0.3,0.7-0.4,1c-0.1,0.3-0.1,0.7-0.3,0.9c-0.3,0.6-1.1,1.1-1.6,1.5c-0.2,0.2-0.5,0.4-0.7,0.7c-0.2,0.2-0.2,0.5-0.3,0.8
			c-0.2,0.7-0.4,1.3-0.7,2c-0.9,2.7-1.8,5.5-2.7,8.2C332.5,165,333.5,165.2,333.8,164.6L333.8,164.6z"/>
	</g>
</g>
<g>
	<g>
		<path class="st13" d="M36.4,734.6c0.3,1.2,0.9,2.2,1.7,3.1c0.9,0.9,1.9,1.8,2.9,2.5c1.1,0.7,2.2,1.3,3.4,1.8
			c0.6,0.2,1.3,0.4,2,0.4c0.6,0,1.3,0.1,1.7-0.3c0.2-0.2,0.1-0.5-0.1-0.6c-0.5-0.2-1-0.1-1.6-0.1c-0.6,0-1.2-0.1-1.7-0.3
			c-1.2-0.3-2.2-1-3.2-1.8c-0.9-0.7-1.7-1.4-2.5-2.2c-0.8-0.8-1.6-1.7-2-2.7C37,734,36.3,734.1,36.4,734.6L36.4,734.6z"/>
	</g>
</g>
<g>
	<g>
		<path class="st13" d="M38.3,727.9c0.5,0.6,1,1.2,1.6,1.7c0.3,0.3,0.6,0.5,0.9,0.7c0.3,0.2,0.6,0.5,1,0.5c0,0,0.1-0.1,0-0.1
			c-0.1-0.1-0.3-0.2-0.4-0.3c-0.2-0.1-0.3-0.2-0.5-0.3c-0.3-0.2-0.6-0.5-0.9-0.7C39.4,728.9,38.9,728.3,38.3,727.9
			C38.3,727.7,38.2,727.8,38.3,727.9L38.3,727.9z"/>
	</g>
</g>
<g>
	<g>
		<path class="st13" d="M57.4,691.9c-0.7-3.2-0.2-6.7,1.2-9.6c1.6-3.2,4.2-5.5,6.7-8c0,0,0-0.1-0.1-0.1c-0.8,0.6-1.6,1.2-2.3,1.8
			c-0.7,0.6-1.4,1.2-2.1,1.9c-1.2,1.3-2.2,2.7-2.9,4.4c-1.4,3.1-1.8,6.5-1.2,9.9C56.9,692.5,57.5,692.3,57.4,691.9L57.4,691.9z"/>
	</g>
</g>
<g>
	<g>
		<path class="st13" d="M307.7,334.5c-0.7,4.3-1.8,8.4-3.5,12.4c-0.8,2-1.8,4-2.9,5.9c-0.5,0.9-1.1,1.9-1.7,2.8
			c-0.3,0.4-0.5,0.9-0.8,1.3c-0.3,0.4-0.6,0.8-0.8,1.3c0,0.1,0.1,0.1,0.1,0.1c0.4-0.3,0.6-0.7,0.9-1c0.3-0.5,0.6-1,1-1.4
			c0.6-0.9,1.1-1.8,1.7-2.8c1-1.8,2-3.7,2.8-5.7c1.7-4,3-8.3,3.8-12.7C308.3,334.3,307.8,334.2,307.7,334.5L307.7,334.5z"/>
	</g>
</g>
<g>
	<g>
		<path class="st13" d="M291.8,365.2c-0.4,0.5-0.9,1.1-1.3,1.6c-0.4,0.5-0.9,1-1.2,1.6c0,0,0,0.1,0.1,0.1c0.5-0.5,0.9-1,1.3-1.5
			c0.4-0.5,0.9-1,1.3-1.6C292.1,365.3,291.9,365.1,291.8,365.2L291.8,365.2z"/>
	</g>
</g>
<g>
	<g>
		<path class="st13" d="M299.1,399.5c-5.7,6.7-12.5,12.6-19.9,17.4c-2.1,1.3-4.2,2.6-6.4,3.8c-0.1,0.1,0,0.2,0.1,0.1
			c4-1.9,7.8-4.4,11.4-7c3.5-2.6,6.9-5.4,9.9-8.5c1.8-1.8,3.5-3.6,5.1-5.6C299.4,399.6,299.2,399.4,299.1,399.5L299.1,399.5z"/>
	</g>
</g>
<g>
	<g>
		<path class="st13" d="M278.5,206.7c1.7-0.1,3.9-0.5,5.1,1.1c1,1.3,0.8,3.4-0.2,4.6c-0.2,0.2,0.2,0.5,0.4,0.3c1-1.2,2-2.6,2.2-4.1
			c0.1-0.7,0.2-1.5-0.3-2c-0.5-0.5-1.2-0.7-1.9-0.7c0.1,0.3,0.2,0.5,0.3,0.8c0.5-0.4,1.2-0.6,1.8-0.5c0.4,0.1,0.2,0.4,0.1,0.7
			c-0.1,0.4-0.2,0.7-0.4,1.1c0.3,0,0.6,0.1,1,0.1c0-0.5-0.1-0.8,0-1.3c0.1-0.4,0.2-0.8,0.3-1.2c-0.2,0.1-0.4,0.2-0.6,0.3
			c0.2,0.1,0.3,0.2,0.3,0.4c0.3-0.1,0.6-0.2,0.9-0.2c-0.2-0.3-0.3-0.6-0.3-0.9c-0.2,0.2-0.4,0.3-0.6,0.5c0.3,0.1,0.2,0.4,0.1,0.6
			c-0.3,0.4,0.2,0.7,0.6,0.6c1-0.4,0.5-1.9-0.4-2.1c-0.3-0.1-0.6,0.1-0.6,0.5c0,0.5,0.1,1,0.4,1.4c0.2,0.4,0.9,0.3,0.9-0.2
			c-0.1-0.6-0.4-1.1-1.1-1.3c-0.2,0-0.5,0.1-0.6,0.3c-0.3,0.9-0.4,1.8-0.4,2.8c0,0.6,0.8,0.6,1,0.1c0.3-0.9,1.1-2.5-0.2-2.9
			c-1-0.4-2.2,0.1-3,0.8c-0.3,0.3-0.1,0.8,0.3,0.8c0.5,0,1.1,0.1,1.4,0.5c0.2,0.3,0.2,0.5,0.2,0.8c0,0.3-0.1,0.6-0.2,1
			c-0.1,0.6-0.3,1.2-0.6,1.8c-0.3,0.6-0.7,1.1-1.2,1.5c0.1,0.1,0.2,0.2,0.4,0.4c0.7-0.7,1.3-1.6,1.4-2.7c0.1-1-0.2-2-0.7-2.8
			c-0.6-0.8-1.4-1.4-2.3-1.5c-0.6-0.1-1.1-0.1-1.7,0c-0.7,0.1-1.3,0.1-2,0.1C278.1,206,278,206.7,278.5,206.7L278.5,206.7z"/>
	</g>
</g>
<g>
	<g>
		<path class="st13" d="M211.6,206.4c0.7,1.3,1.3,2.7,2,4c0.7,1.3,1.3,2.7,2,4c0.2-0.1,0.4-0.3,0.6-0.4c-0.8-0.9-1.1-2-1.3-3.2
			c-0.1-0.5-0.2-1.2,0.2-1.6c0.4-0.4,1.1-0.3,1.6-0.3c0.5,0,0.5-0.7,0.1-0.8c-1-0.3-2-0.4-3-0.3c-0.6,0.1-0.6,0.8,0,0.9
			c1.3,0.1,2.6,0.3,4,0.5c0.6,0.1,1.3,0.2,1.9,0.3c0.6,0.1,1.2,0.4,1.8,0.2c0.2-0.1,0.3-0.3,0.1-0.5c-0.5-0.4-1.1-0.4-1.7-0.5
			c-0.7-0.1-1.4-0.2-2.1-0.4c-1.3-0.2-2.7-0.4-4-0.6c0,0.3,0,0.6,0,0.9c0.9-0.1,1.9,0,2.8,0.3c0-0.3,0.1-0.6,0.1-0.8
			c-0.7,0-1.4,0-2,0.4c-0.6,0.5-0.7,1.2-0.6,1.9c0.2,1.5,0.6,3.1,1.7,4.1c0.3,0.3,0.7-0.1,0.6-0.4c-0.6-1.4-1.3-2.7-2-4
			c-0.7-1.3-1.4-2.6-2.2-3.9C212,205.8,211.5,206.1,211.6,206.4L211.6,206.4z"/>
	</g>
</g>
<g>
	<g>
		<path class="st13" d="M215.5,207.3c-0.7-0.3-1.4-0.7-2.1-1c-0.5-0.3-1.2-0.5-1.7,0c-0.4,0.4-0.4,1-0.3,1.5
			c0.2,0.7,0.4,1.4,0.7,2.1c0.5,1.3,1.2,2.5,2,3.7c0.4,0.6,0.8,1.2,1.2,1.7c0.4,0.5,0.7,1.2,1.3,1.6c0.1,0.1,0.2,0,0.2-0.1
			c-0.1-0.5-0.5-0.9-0.7-1.4c-0.3-0.5-0.6-1-0.9-1.5c-0.6-1-1-2.1-1.5-3.1c-0.5-1-0.9-2.1-1.1-3.2c0-0.1-0.1-0.4,0-0.5
			c-0.1,0,0.2,0.1,0.3,0.1c0.1,0.1,0.3,0.1,0.4,0.2c0.6,0.3,1.2,0.5,1.9,0.8C215.5,208.2,216,207.5,215.5,207.3L215.5,207.3z"/>
	</g>
</g>
<g>
	<g>
		<path class="st13" d="M284.5,204.7c0.4-0.2,0.8-0.4,1.2-0.6c0.4-0.1,0.8-0.2,1.1-0.4c0.3-0.2,0.6-0.4,0.6-0.8c0-0.1,0-0.3,0-0.4
			c0,0,0,0,0,0c0.1-0.1,0-0.1-0.2,0c0,0.1,0.3,0.3,0.4,0.4c1,1.1,1.2,2.7,1.3,4.1c0.3,0,0.6-0.1,0.9-0.1c-0.2-0.7-0.7-1.6-1.6-1.4
			c-0.4,0.1-0.6,0.4-0.8,0.7c-0.2,0.4-0.5,0.7-0.6,1.2c0,0.2,0.3,0.3,0.4,0.2c0.4-0.4,0.6-1,1-1.3c0.2-0.1,0.4,0,0.5,0.2
			c0.1,0.2,0.1,0.5,0.2,0.7c0.1,0.5,1,0.4,0.9-0.1c-0.1-1.7-0.5-3.6-1.7-4.9c-0.3-0.3-0.8-0.7-1.2-0.4c-0.2,0.1-0.3,0.3-0.3,0.5
			c-0.1,0.2,0,0.5,0,0.7c-0.1,0.1-0.2,0.2-0.3,0.2c-0.2,0.1-0.4,0.1-0.7,0.2c-0.5,0.2-0.9,0.4-1.4,0.7
			C283.7,204.3,284,205,284.5,204.7L284.5,204.7z"/>
	</g>
</g>
<g>
	<g>
		<path class="st13" d="M170.4,154.3c0.9,7.7,1.6,15.5,2.9,23.1c0.6,3.7,1.8,7.4,2.3,11.1c0.5,3.8,0.4,7.7,0.3,11.5
			c-0.2,4.4-0.4,8.7-0.6,13.1c0,0.6,1,0.6,1,0c0.2-3.9,0.3-7.9,0.4-11.8c0.2-3.8,0.5-7.6,0.2-11.5c-0.3-3.8-1.4-7.4-2.1-11.1
			c-0.7-3.8-1.1-7.7-1.6-11.6c-0.6-4.3-1.1-8.6-1.7-13C171.4,153.5,170.3,153.7,170.4,154.3L170.4,154.3z"/>
	</g>
</g>
<g>
	<g>
		<path class="st13" d="M332.6,166.3c-0.7,1.9-1.9,3.7-3.1,5.3c-1.3,1.7-2.6,3.3-3.8,5c-2.5,3.5-4.7,7.2-6.7,11.1
			c-0.5,1.1-1,2.2-1.5,3.3c-0.5,1.1-1,2.2-1,3.4c0,0.2,0.2,0.3,0.4,0.2c0.7-0.8,1.1-1.7,1.5-2.7c0.5-1,0.9-2,1.4-2.9
			c1-2,2-3.9,3.2-5.8c1.1-1.9,2.3-3.7,3.6-5.4c1.2-1.7,2.6-3.4,3.8-5.1c1.3-1.9,2.4-3.9,3.1-6.1C333.7,166,332.8,165.7,332.6,166.3
			L332.6,166.3z"/>
	</g>
</g>
<g>
	<g>
		<path class="st13" d="M325.9,143.4c-0.4,3.9-1,7.7-1.6,11.6c-0.6,3.7-1.3,7.4-2,11.1c-1.4,7.5-3.1,14.9-5,22.3c-0.5,2-1.1,4-1.7,6
			c-0.2,0.5-0.3,1.1-0.5,1.6c-0.1,0.5-0.2,0.9-0.2,1.4c-0.2,1.1-0.6,2.2-0.8,3.3c0,0.1,0.1,0.2,0.2,0.1c0.4-0.8,0.6-1.7,0.9-2.5
			c0.2-0.5,0.4-0.9,0.6-1.3c0.2-0.4,0.3-0.9,0.4-1.4c0.5-1.8,1.1-3.7,1.6-5.6c1-3.7,2-7.4,2.8-11.2c1.7-7.4,3.3-15,4.2-22.6
			c0.5-4.3,1-8.6,1.5-12.9C326.3,143.2,325.9,143.2,325.9,143.4L325.9,143.4z"/>
	</g>
</g>
<g>
	<g>
		<path class="st13" d="M57.9,576.9c0.5,2.3,0.9,4.7,1.1,7c0.3,2.3,0.3,4.6,0.5,7c0,0.1,0.2,0.1,0.2,0c0.3-2.4,0.2-4.7,0-7.1
			c-0.2-2.4-0.6-4.8-1.1-7.1C58.6,576.2,57.8,576.4,57.9,576.9L57.9,576.9z"/>
	</g>
</g>
<g>
	<g>
		<path class="st13" d="M114.8,572.4c0.9-3.6,1.3-7.7,0.4-11.4c0,0-0.1,0-0.1,0c0,1.9,0.2,3.7,0,5.6c-0.2,1.9-0.4,3.8-0.9,5.6
			C114.1,572.6,114.7,572.8,114.8,572.4L114.8,572.4z"/>
	</g>
</g>
<g>
	<g>
		<path class="st13" d="M194,243.4c1.2,2.6,2.1,5.5,2.8,8.2c0.7,2.8,1.1,5.7,1.2,8.6c0.4,0,0.7,0,1.1,0c-0.2-3.4,0.3-6.7,1.2-10
			c0.2-0.5-0.4-0.9-0.9-0.7c-0.4,0.2-0.7,0.5-0.9,0.9c0.3,0,0.7,0,1,0c-0.5-0.9-1-1.7-1.5-2.6c-0.4-0.8-0.8-1.8-1.5-2.5
			c-0.4-0.4-0.9,0-0.8,0.5c0.2,0.9,0.9,1.8,1.3,2.6c0.5,0.9,1,1.7,1.5,2.6c0.2,0.4,0.8,0.4,1,0c0.1-0.2,0.3-0.4,0.5-0.5
			c-0.3-0.2-0.6-0.4-0.9-0.7c-0.9,3.4-1.2,6.8-1.2,10.3c0,0.7,1.1,0.7,1.1,0c-0.1-3-0.4-6-1.1-8.9c-0.7-3-1.8-5.7-3.1-8.4
			C194.6,242.3,193.8,242.8,194,243.4L194,243.4z"/>
	</g>
</g>
<g>
	<g>
		<path class="st13" d="M282.8,259.6c0.1,0,0.1-0.1,0-0.1C282.7,259.5,282.7,259.6,282.8,259.6L282.8,259.6z"/>
	</g>
</g>
<g>
	<g>
		<path class="st13" d="M282.1,259.4c-1,3.8-1,7.9-0.6,11.7c0.1,0.6,1,0.6,1,0c-0.1-2.4,0.4-5.1-0.6-7.3c-0.4-0.9-1.1-1.7-2-2.2
			c-0.9-0.5-2-0.5-3-0.4c0.1,0.4,0.2,0.9,0.4,1.3c0.7-0.2,1.3-0.4,2-0.5c0.5-0.1,1.3-0.3,1.8,0c0.7,0.5,1.4-0.7,0.7-1.1
			c-0.7-0.5-1.5-0.4-2.2-0.3c-0.9,0.1-1.8,0.3-2.6,0.6c-0.9,0.2-0.5,1.4,0.4,1.3c1.6-0.2,3.1,1,3.6,2.4c0.3,0.9,0.4,1.9,0.5,2.9
			c0,1.1,0.1,2.1,0.2,3.2c0.3,0,0.7,0,1,0c-0.1-1.9,0-3.9,0.2-5.8c0.2-1.9,0.5-3.8,0.7-5.8C283.5,258.8,282.3,258.7,282.1,259.4
			L282.1,259.4z"/>
	</g>
</g>
<g>
	<g>
		<path class="st13" d="M290.8,316.5c0.8,2,1.2,4.3,1.5,6.4c0.3,2.2,0.4,4.4,0.2,6.6c-0.2,2.2-0.5,4.4-1.1,6.5
			c-0.3,1.1-0.7,2.1-1.1,3.1c-0.2,0.5-0.5,1.1-0.7,1.6c-0.2,0.5-0.3,1.1-0.5,1.6c-0.1,0.1,0.1,0.2,0.2,0.1c0.3-0.3,0.6-0.6,0.8-1
			c0.3-0.4,0.5-0.8,0.7-1.3c0.4-0.8,0.7-1.6,1-2.4c0.6-1.7,1.1-3.4,1.4-5.2c0.6-3.5,0.7-7,0.1-10.5c-0.3-2.1-1.1-3.9-1.8-5.8
			C291.3,315.9,290.6,316.1,290.8,316.5L290.8,316.5z"/>
	</g>
</g>
<g>
	<g>
		<path class="st13" d="M340.4,443.9c0,0.1,0,0.2,0,0.4c0,0,0,0.1,0,0.1c0,0,0,0,0,0c0,0.1,0,0.1,0,0.2c0,0.1,0,0.2,0,0.3
			c0,0.1,0,0.2,0,0.4c0,0.2,0.2,0.4,0.4,0.4c0.2,0,0.4-0.2,0.4-0.4c0-0.1,0-0.3,0-0.4c0-0.2,0-0.3,0-0.5c0-0.1,0-0.2-0.1-0.4
			c0-0.1,0-0.1-0.1-0.2c0-0.1-0.1-0.1-0.1-0.2c0,0,0,0,0,0c0,0,0,0-0.1-0.1c-0.1,0.2-0.1,0.3-0.2,0.5c0,0,0,0,0,0
			C340.5,444.1,340.4,444,340.4,443.9c0,0.2,0,0.3,0.1,0.5c0,0.1,0.1,0.3,0.2,0.3c0.1,0,0.1-0.2,0.1-0.3c0-0.1,0-0.3,0-0.4
			c0,0,0,0.1-0.1,0.1c0,0,0,0,0,0c0.1-0.1,0.1-0.3,0-0.4c-0.1-0.1-0.3-0.1-0.4,0c-0.1,0.1-0.1,0.3-0.2,0.5c0,0.1,0,0.3,0,0.4
			c0,0.2,0,0.3,0.1,0.4c0,0.1,0,0.3,0.1,0.4c0.2-0.1,0.5-0.1,0.7-0.2c0-0.1-0.1-0.2-0.1-0.3c0-0.1,0-0.1,0-0.2c0,0.1,0,0,0,0
			c0,0,0-0.1,0-0.1c0-0.1,0-0.1,0-0.2c0,0,0-0.1,0-0.1c0,0,0-0.1,0-0.1c0-0.1,0-0.2,0-0.4c0-0.1-0.1-0.3-0.2-0.2
			C340.5,443.6,340.4,443.8,340.4,443.9L340.4,443.9z"/>
	</g>
</g>
<g>
	<g>
		<path class="st13" d="M165.6,444.6c0.1,0.6,0.2,1.2,0.2,1.9c0.2,0,0.4-0.1,0.6-0.1c-0.2-0.5-0.3-1-0.6-1.4
			c-0.1-0.2-0.3-0.2-0.4-0.1c-0.2,0.1-0.3,0.2-0.2,0.4c0-0.1,0,0,0,0c0,0,0,0.1,0,0.1c0,0.1,0,0.1,0,0.2c0,0.1,0,0.3,0.1,0.4
			c0.1,0.2,0.2,0.6,0.5,0.6c0.3,0,0.1-0.5,0.1-0.7c0-0.1,0-0.1,0-0.2c0,0,0-0.1,0,0c0,0,0-0.1,0-0.1c0-0.1,0-0.1,0-0.2
			c0,0,0-0.1,0-0.1c0,0,0,0,0,0c0-0.1,0,0,0,0c-0.2,0-0.4-0.1-0.6-0.1c0.2,0.5,0.4,0.9,0.6,1.4c0.1,0.1,0.2,0.2,0.4,0.1
			c0.1,0,0.3-0.2,0.2-0.3c-0.1-0.7-0.2-1.4-0.3-2c0-0.1-0.2-0.2-0.3-0.2C165.6,444.3,165.5,444.4,165.6,444.6L165.6,444.6z"/>
	</g>
</g>
<g>
	<g>
		<path class="st13" d="M135.1,448.9c-0.1,0.3-0.1,0.6-0.1,0.9c0,0.3,0.1,0.6,0.2,0.9c0,0.3,0.1,0.5,0.1,0.8
			c0.1,0.3,0.2,0.7,0.6,0.7c-0.1,0-0.1,0-0.2,0c0,0,0,0,0,0c0.2,0.1,0.4,0,0.4-0.2c0,0,0,0,0,0c0,0.1,0,0.1,0,0.2
			c0.2-0.2,0-0.5-0.1-0.8c-0.1-0.2-0.1-0.5-0.2-0.7c-0.1-0.3-0.1-0.5-0.2-0.8c0-0.2-0.1-0.4,0-0.6c0.1-0.2-0.1-0.4-0.2-0.4
			C135.4,448.7,135.2,448.7,135.1,448.9L135.1,448.9z"/>
	</g>
</g>
<g>
	<g>
		<path class="st13" d="M113.3,586.3c0.8-4.8,1.6-9.6,2.4-14.4c0.7-4.6,1.9-9.3,1.1-14c-0.2-1.1-0.5-2.2-0.9-3.2
			c-0.4-1-0.9-2.1-1.7-2.8c-0.4-0.3-0.8,0.1-0.6,0.5c0.4,0.9,1,1.6,1.4,2.5c0.4,0.9,0.7,1.9,0.8,2.8c0.4,2.2,0.3,4.4,0.1,6.6
			c-0.5,4.7-1.5,9.3-2.2,13.9c-0.4,2.6-0.9,5.2-1.3,7.8C112.2,586.7,113.1,586.9,113.3,586.3L113.3,586.3z"/>
	</g>
</g>
<g>
	<g>
		<path class="st13" d="M116.3,554.1c0.7-10.9,1.6-21.7,3.1-32.5c0.8-5.4,1.7-10.8,2.6-16.2c0.8-4.8,0.9-9.6,0-14.5
			c-0.9-5.2-2.7-10.3-6.1-14.4c-0.1-0.1-0.1,0-0.1,0.1c2,4.3,3.9,8.6,4.9,13.2c1,4.8,1.1,9.7,0.4,14.5c-0.8,5.3-1.8,10.5-2.5,15.8
			c-0.7,5.3-1.3,10.5-1.8,15.8c-0.6,6-1,12-1.2,18.1C115.6,554.5,116.3,554.5,116.3,554.1L116.3,554.1z"/>
	</g>
</g>
<g class="st23">
	<path class="st7" d="M371,646.7c-0.6,0.5-1.1,0.9-1.7,1.4c-1.3,1.1-2.4,2.4-3.1,3.9c-0.6,1.3-1,2.7-1.1,4.1
		c-0.1,1.8,0.1,3.5,0.8,5.1c0.5,1.2,1.2,2.3,2.1,3.2c1.2,1.4,2.7,2.4,4.4,3.2c0,0,0,0,0.1,0c-0.1,0.3-0.2,0.6-0.4,1
		c-1,2.6-2.3,5.1-4,7.3c-0.8,1-1.6,2-2.6,2.9c-1,0.9-2,1.8-3.2,2.4c-0.8,0.4-1.6,0.6-2.5,0.6c-0.7,0-1.4-0.2-2.1-0.4
		c-1.2-0.4-2.4-0.8-3.5-1.3c-1-0.4-2-0.5-3-0.6c-1.6-0.1-3.1,0.3-4.5,0.8c-0.8,0.3-1.5,0.6-2.3,0.9c-0.6,0.2-1.3,0.3-1.9,0.4
		c-1.8,0.2-3.4-0.3-4.8-1.4c-1.3-0.9-2.3-2-3.3-3.2c-1.3-1.6-2.3-3.4-3.3-5.2c-1.2-2.4-2.2-4.8-2.9-7.4c-0.4-1.5-0.7-3.1-0.8-4.7
		c-0.1-1-0.1-2-0.1-3.1c0-2.5,0.5-4.9,1.5-7.2c0.7-1.5,1.6-2.8,2.7-4c1.9-2,4.3-3.3,7.1-3.8c1.3-0.2,2.5-0.3,3.8-0.3
		c1.5,0.1,2.9,0.4,4.2,1c0.7,0.3,1.4,0.6,2.2,0.9c1.1,0.4,2.2,0.4,3.3,0c1-0.3,1.9-0.7,2.8-1c1.2-0.4,2.4-0.7,3.7-0.8
		c0.8-0.1,1.6-0.1,2.4-0.1c3.2,0.1,6,1.2,8.4,3.4C370,645.4,370.5,646,371,646.7z"/>
	<path class="st7" d="M360.4,629.4c0.2,2.1,0,4.1-0.9,6c-1.1,2.4-2.8,4.3-5.1,5.6c-1.3,0.7-2.6,1.1-4.1,1.2c-0.2,0-0.4,0-0.6,0
		c0,0-0.1,0-0.1,0c0-0.2-0.1-0.5-0.1-0.7c-0.2-2.7,0.6-5,2.2-7c1.1-1.5,2.5-2.7,4.1-3.6c1.3-0.7,2.7-1.1,4.1-1.3c0.1,0,0.1,0,0.2,0
		C360.2,629.4,360.3,629.4,360.4,629.4z"/>
</g>
</svg>
