<svg width="70" height="70" viewBox="0 0 70 70" fill="none" xmlns="http://www.w3.org/2000/svg">
<path d="M44.1023 41.8814C44.1023 41.8814 37.764 34.2406 44.5689 42.2314C51.3739 50.2221 56.8189 45.3814 56.8189 45.3814C56.8189 45.3814 56.8189 29.7089 56.8189 18.198C56.8189 6.68724 49.7023 6.29804 49.7023 6.29804L51.9189 5.71471C43.1039 2.07318 40.0791 8.44576 39.3764 10.4136C39.2542 10.7557 39.2023 10.9647 39.2023 10.9647C39.2023 10.9647 38.571 13.8315 39.7273 14.9314" fill="#11acdf"/>
<path d="M35.1182 12.9482C43.2046 12.9482 49.7599 19.5035 49.7599 27.5899V30.6232C49.7599 38.7096 43.2046 45.2649 35.1182 45.2649C27.0319 45.2649 20.4766 38.7096 20.4766 30.6232V27.5899C20.4766 19.5035 27.0319 12.9482 35.1182 12.9482Z" fill="#11acdf"/>
<path d="M15.6347 68.633C15.6347 68.633 14.7303 56.3299 26.3097 55.1817H31.5013V52.79C31.5013 52.79 35.1533 54.3587 38.8513 52.965L38.968 55.1817H45.0347C45.0347 55.1817 55.4233 55.5897 54.9513 68.7497L15.6347 68.633Z" fill="#FFEBF9"/>
<path fillRule="evenodd" clip-rule="evenodd" d="M54.8602 69.1232H15.9614H15.207L15.3953 65.9062C15.763 59.6251 20.7119 54.8315 26.3752 54.8315H30.2695C30.0168 55.0405 29.8317 55.2572 29.6986 55.4732H26.719C21.2608 55.4732 16.491 60.0872 16.1367 66.1332L16.0059 68.3649H54.7574L54.6849 66.1332C54.3305 60.0872 49.5608 55.4732 44.1025 55.4732H41.1205C41.0065 55.2588 40.8443 55.0421 40.6179 54.8315H44.4118C50.0751 54.8315 55.024 59.6251 55.3916 65.9062L55.58 69.1232H54.8602ZM39.464 55.4732H39.2603V54.8315H39.4867C39.4732 54.9983 39.4645 55.2085 39.464 55.4732ZM31.2594 54.8315H31.5019V55.4732H31.2923C31.2892 55.2007 31.2767 54.9916 31.2594 54.8315Z" fill="#11acdf"/>
<path d="M37.2189 63.7568C37.4444 63.7568 37.6272 63.9397 37.6272 64.1652C37.6272 64.3907 37.4444 64.5735 37.2189 64.5735C36.9934 64.5735 36.8105 64.3907 36.8105 64.1652C36.8105 63.9397 36.9934 63.7568 37.2189 63.7568Z" fill="#11acdf"/>
<path d="M37.2189 66.4399C37.4444 66.4399 37.6272 66.6228 37.6272 66.8483C37.6272 67.0738 37.4444 67.2566 37.2189 67.2566C36.9934 67.2566 36.8105 67.0738 36.8105 66.8483C36.8105 66.6228 36.9934 66.4399 37.2189 66.4399Z" fill="#11acdf"/>
<path fillRule="evenodd" clip-rule="evenodd" d="M41.9436 58.2731L38.9686 62.7064C38.1593 60.198 35.8186 61.1314 35.8186 61.1314V68.54C35.8186 68.7332 35.6358 68.8898 35.4103 68.8898C35.1848 68.8898 35.002 68.7332 35.002 68.54V61.1313C34.983 61.1238 32.661 60.2083 31.8558 62.7064L28.8841 58.2731C28.8841 58.2731 27.7345 55.3505 31.2149 54.0731C31.2149 52.7985 31.2149 52.7314 31.2149 52.7314H31.873C31.873 52.7314 31.873 55.1683 31.873 56.9538C31.9575 57.6807 32.4579 59.7517 35.4103 60.4314C38.3659 59.7517 38.8669 57.6807 38.9515 56.9538C38.9515 55.1683 38.9515 52.7314 38.9515 52.7314H39.6103C39.6103 52.7314 39.6103 52.7985 39.6103 54.0731C43.0944 55.3505 41.9436 58.2731 41.9436 58.2731ZM31.8213 58.6656C31.6627 58.4859 31.4342 58.0398 31.4342 58.0398C31.4342 58.0398 31.2149 57.3097 31.2149 56.9898C31.2149 56.5924 31.2149 56.0708 31.2149 55.5102C31.1652 54.8429 31.0401 54.8314 31.0401 54.8314C28.4432 56.1105 29.5833 58.0981 29.5833 58.0981L31.7393 61.4814C32.5812 60.0549 33.4874 60.3148 33.4874 60.3148C32.6873 59.907 32.1626 59.2741 31.8213 58.6656ZM39.7853 54.8314C39.7853 54.8314 39.66 54.8429 39.6103 55.5102C39.6103 56.0708 39.6103 56.5924 39.6103 56.9898C39.6103 57.3097 39.3907 58.0398 39.3907 58.0398C39.3907 58.0398 39.162 58.4859 39.0032 58.6656C38.6615 59.2741 38.1362 59.907 37.3353 60.3148C37.3353 60.3148 38.2425 60.0549 39.0853 61.4814L41.2436 58.0981C41.2436 58.0981 42.3849 56.1105 39.7853 54.8314Z" fill="#11acdf"/>
<path d="M35.4394 15.9233C42.6961 15.9233 48.4239 22.7048 48.2376 30.8528L48.0397 39.5127C47.8642 47.189 42.2248 53.2567 35.4394 53.2567C28.6539 53.2567 23.0145 47.189 22.8391 39.5127L22.6411 30.8528C22.4549 22.7048 28.1826 15.9233 35.4394 15.9233Z" fill="#FFEBF9"/>
<path fillRule="evenodd" clip-rule="evenodd" d="M48.8207 30.5843L48.6133 39.596C48.4294 47.5841 42.5203 53.8983 35.4102 53.8983C28.3002 53.8983 22.391 47.5841 22.2072 39.596L21.9997 30.5843C21.8046 22.1053 27.8063 15.0483 35.4102 15.0483C43.0141 15.0483 49.0158 22.1053 48.8207 30.5843ZM35.3811 15.9817C28.2235 15.9817 22.5741 22.7101 22.7578 30.7945L22.953 39.3868C23.1261 47.003 28.6884 53.0233 35.3811 53.0233C42.0738 53.0233 47.6361 47.003 47.8091 39.3868L48.0044 30.7945C48.1881 22.7101 42.5386 15.9817 35.3811 15.9817Z" fill="#11acdf"/>
<path d="M41.7099 44.7515C40.6496 45.6721 38.2547 46.5481 35.4682 46.5481C32.6817 46.5481 30.2868 45.6721 29.2265 44.7515C29.2265 44.7515 29.118 44.453 29.2772 44.2938C29.4393 44.1317 29.6932 44.167 29.6932 44.167C30.7524 45.0883 32.6806 45.8481 35.4682 45.8481C38.2558 45.8481 40.184 45.0883 41.2432 44.167C41.2432 44.167 41.5023 44.0708 41.6281 44.1966C41.8705 44.439 41.7099 44.7515 41.7099 44.7515Z" fill="#11acdf"/>
<path d="M33.5439 47.9482H37.2773V48.5316H33.5439V47.9482Z" fill="#11acdf"/>
<path d="M21.9858 31.8986C21.9842 31.8986 21.8425 31.7856 21.5751 31.7014C21.4415 31.6593 21.2754 31.6248 21.086 31.6163C21.0387 31.6141 20.9901 31.6136 20.9403 31.6151C20.8905 31.6165 20.8395 31.6198 20.7878 31.6253C20.6842 31.6364 20.5773 31.6563 20.4697 31.6872C20.0389 31.811 19.5994 32.112 19.3413 32.7334C19.2117 33.044 19.1263 33.4348 19.1037 33.9237C19.098 34.046 19.0963 34.1743 19.0988 34.3091C19.1012 34.4439 19.1079 34.5851 19.1191 34.733C19.1415 35.0288 19.1818 35.3514 19.2419 35.703C19.2406 35.7026 19.1858 36.7653 19.5657 37.9863C19.9229 39.1801 20.7805 40.6467 22.364 41.0657C22.1818 38.0334 22.1762 34.9442 21.9858 31.8986Z" fill="#FFEBF9"/>
<path d="M22.1658 32.0207C22.1658 32.0207 19.4073 31.166 19.5044 34.0019C19.5044 34.0019 19.9151 38.114 20.0934 38.493C20.0934 38.493 21.1768 40.8872 22.9647 40.9933C24.7121 41.097 22.9647 40.9933 22.9647 40.9933L22.9864 41.765C22.9864 41.765 19.8439 41.3621 19.237 37.7408L18.7579 34.451C18.7579 34.451 18.386 30.0972 21.994 31.2042C25.5089 32.2826 21.994 31.2042 21.994 31.2042L22.1658 32.0207Z" fill="#11acdf"/>
<path d="M21.2552 37.7336C21.2552 37.7336 21.1008 37.8503 20.9682 37.8503C20.8356 37.8503 20.6831 37.7336 20.6831 37.7336L20.3984 34.8649C20.3984 34.8649 20.7912 33.4521 22.4579 34.1987L22.4973 35.019C22.4973 35.019 21.035 34.5004 21.0653 35.1462C21.0944 35.7678 21.2552 37.7336 21.2552 37.7336Z" fill="#11acdf"/>
<path d="M48.9199 31.9052C48.9215 31.9053 49.0637 31.7923 49.3323 31.7081C49.4666 31.6662 49.6334 31.6316 49.8236 31.6231C49.8711 31.621 49.9199 31.6205 49.97 31.6219C50.02 31.6233 50.0711 31.6266 50.1231 31.6322C50.2271 31.6432 50.3345 31.6631 50.4426 31.694C50.8753 31.8177 51.3167 32.1185 51.5759 32.7394C51.7061 33.0499 51.7919 33.4404 51.8146 33.929C51.8203 34.0512 51.822 34.1794 51.8195 34.3141C51.817 34.4488 51.8103 34.5899 51.7991 34.7377C51.7767 35.0333 51.7361 35.3557 51.6758 35.707C51.6771 35.7067 51.7321 36.7686 51.3505 37.9888C50.9918 39.1818 50.1304 40.6474 48.54 41.0661C48.7229 38.0359 48.7286 34.9488 48.9199 31.9052Z" fill="#FFEBF9"/>
<path d="M48.6009 32.0274C48.6009 32.0274 51.3715 31.1732 51.274 34.0072C51.274 34.0072 50.8615 38.1165 50.6824 38.4952C50.6824 38.4952 49.5943 40.8878 47.7986 40.9939C46.0435 41.0975 47.7986 40.9939 47.7986 40.9939L47.7768 41.7651C47.7768 41.7651 50.933 41.3624 51.5426 37.7435L52.0237 34.4559C52.0237 34.4559 52.3973 30.1051 48.7735 31.2114C45.2432 32.2891 48.7735 31.2114 48.7735 31.2114L48.6009 32.0274Z" fill="#11acdf"/>
<path d="M49.5151 37.7365C49.5151 37.7365 49.6702 37.853 49.8034 37.853C49.9366 37.853 50.0897 37.7365 50.0897 37.7365L50.3757 34.8697C50.3757 34.8697 49.9812 33.4578 48.3071 34.2039L48.2676 35.0237C48.2676 35.0237 49.7363 34.5054 49.7059 35.1508C49.6767 35.7719 49.5151 37.7365 49.5151 37.7365Z" fill="#11acdf"/>
<path fillRule="evenodd" clip-rule="evenodd" d="M36.4894 37.5063C36.5574 37.5063 36.6255 37.5063 36.6935 37.5063C37.1157 38.0796 37.2874 38.9605 37.5102 39.723C37.5793 39.9593 37.5123 40.3726 37.4519 40.5397C37.2307 41.1516 36.5362 41.1406 35.9644 41.4147C35.8108 41.4883 35.6966 41.6154 35.4977 41.648C35.3681 41.5338 35.2115 41.5114 35.1477 41.3272C34.9902 41.1102 35.1932 40.9748 35.3519 40.8897C35.6398 40.7352 36.5288 40.583 36.6352 40.3063C36.7669 40.1565 36.6793 39.7061 36.6352 39.548C36.5222 39.143 36.468 38.8049 36.3144 38.4397C36.2124 38.1971 36.0333 37.9413 36.1394 37.6522C36.2273 37.6144 36.4174 37.5715 36.4894 37.5063Z" fill="#11acdf"/>
<path d="M28.4104 33.0146H29.2271C29.6781 33.0146 30.0438 33.3803 30.0438 33.8313C30.0438 34.2823 29.6781 34.648 29.2271 34.648H28.4104C27.9594 34.648 27.5938 34.2823 27.5938 33.8313C27.5938 33.3803 27.9594 33.0146 28.4104 33.0146Z" fill="#11acdf"/>
<path d="M41.7102 33.0146H42.5269C42.9779 33.0146 43.3436 33.3803 43.3436 33.8313C43.3436 34.2823 42.9779 34.648 42.5269 34.648H41.7102C41.2592 34.648 40.8936 34.2823 40.8936 33.8313C40.8936 33.3803 41.2592 33.0146 41.7102 33.0146Z" fill="#11acdf"/>
<path d="M42.4681 36.8647C43.2735 36.8647 43.9264 37.5177 43.9264 38.3231C43.9264 39.1285 43.2735 39.7814 42.4681 39.7814C41.6627 39.7814 41.0098 39.1285 41.0098 38.3231C41.0098 37.5177 41.6627 36.8647 42.4681 36.8647Z" fill="#D60764"/>
<path d="M28.3519 36.8647C29.1573 36.8647 29.8102 37.5177 29.8102 38.3231C29.8102 39.1285 29.1573 39.7814 28.3519 39.7814C27.5465 39.7814 26.8936 39.1285 26.8936 38.3231C26.8936 37.5177 27.5465 36.8647 28.3519 36.8647Z" fill="#D60764"/>
<path d="M38.5547 30.4352L38.8926 30.8644L39.1022 31.1304C39.1022 31.1304 42.8142 29.0807 45.3906 31.4455L45.6653 31.5802C45.6653 31.5802 45.0306 28.1518 39.4745 30.1572C39.1813 30.2367 38.8755 30.3284 38.5547 30.4352Z" fill="#11acdf"/>
<path d="M32.1292 30.4377L31.7913 30.866L31.5816 31.1315C31.5816 31.1315 27.8697 29.086 25.2932 31.446L25.0186 31.5803C25.0186 31.5803 25.6533 28.1591 31.2094 30.1602C31.5025 30.2396 31.8084 30.3312 32.1292 30.4377Z" fill="#11acdf"/>
<path fillRule="evenodd" clip-rule="evenodd" d="M35.4099 22.8335V9.91652C35.4488 9.91622 35.4876 9.91504 35.5266 9.91504C43.7096 9.91504 50.3432 16.5487 50.3432 24.7317V29.4936C50.3403 29.6596 50.3401 29.8224 50.3432 29.9817C50.3432 29.9817 36.5827 26.2602 35.4099 22.8335ZM20.4766 29.9817C20.4797 29.8224 20.4795 29.6596 20.4766 29.4936V24.7317C20.4766 16.5487 27.1102 9.91504 35.2932 9.91504C35.3322 9.91504 35.371 9.91622 35.4099 9.91652V22.8335C34.2371 26.2602 20.4766 29.9817 20.4766 29.9817Z" fill="#11acdf"/>
</svg>
