<?xml version="1.0" encoding="utf-8"?>
<!-- Generator: Adobe Illustrator 26.5.0, SVG Export Plug-In . SVG Version: 6.00 Build 0)  -->
<svg version="1.1" id="Layer_1" xmlns="http://www.w3.org/2000/svg" xmlns:xlink="http://www.w3.org/1999/xlink" x="0px" y="0px"
	 viewBox="0 0 512 512" style="enable-background:new 0 0 512 512;" xml:space="preserve">
<style type="text/css">
	.st0{fill:#E6AF78;}
	.st1{fill:#FF6464;}
	.st2{fill:#D5DCEC;}
	.st3{fill:#D29B6E;}
	.st4{fill:#F0C087;}
	.st5{fill:#5A4146;}
	.st6{fill:#D2555A;}
	.st7{fill:#E4EAF6;}
</style>
<path class="st0" d="M332.4,352.2v-46.6H177.6v46.6c0,8-5.5,14.9-13.3,16.7L58,394c-15.5,3.7-26.5,17.5-26.5,33.5v75.9
	c0,4.7,3.8,8.6,8.6,8.6H470c4.7,0,8.6-3.8,8.6-8.6v-75.9c0-16-11-29.8-26.5-33.5l-106.4-25C337.9,367.1,332.4,360.2,332.4,352.2z"/>
<path class="st1" d="M452,394l-106.4-25c-1.6-0.4-3.1-1-4.5-1.8L255,417.4l-82.8-52.7c-2.1,2-4.8,3.5-7.8,4.2L58,394
	c-15.5,3.7-26.5,17.5-26.5,33.5v75.9c0,4.7,3.8,8.6,8.6,8.6H470c4.7,0,8.6-3.8,8.6-8.6v-75.9C478.6,411.5,467.6,397.6,452,394z"/>
<path class="st2" d="M330.7,373.3L255,417.4l-76.4-48.6c5.6,37.2,37.6,65.8,76.4,65.8C292.2,434.6,323.3,408.3,330.7,373.3z"/>
<path class="st3" d="M177.6,352.2c0,5.8-2.9,11-7.4,14.1c102,51.1,162.2-50,162.2-50v-10.7H177.6V352.2z"/>
<path class="st4" d="M143.2,103.6l7.5,164.8c0.7,15.4,8.3,29.7,20.6,38.9l35.6,26.7c8.9,6.7,19.8,10.3,31,10.3h34.4
	c11.2,0,22-3.6,31-10.3l35.6-26.7c12.3-9.2,19.9-23.5,20.6-38.9l7.5-164.8H143.2z"/>
<path class="st0" d="M143.2,103.6l7.5,164.8c0.7,15.4,8.3,29.7,20.6,38.9l35.6,26.7c8.9,6.7,19.8,10.3,31,10.3H255
	c-25.8-8.6-43-77.4-43-77.4v-93.8c0-6.5,4.9-11.8,11.4-12.4c48.2-4.7,102.6-16.8,143.4-45.3v-11.8L143.2,103.6L143.2,103.6z"/>
<path class="st5" d="M126,95v8.6l8.6,94.6h17.2l17.2-51.6c0,0,111.8,0,172-34.4l17.2,86h17.2l8.6-94.6V95c0-47.5-38.5-86-86-86h-86
	C164.5,9,126,47.5,126,95z"/>
<path class="st4" d="M383.4,211.7l-9.7,38.8c-1.1,4.6-5.3,7.8-10,7.8l0,0c-5.2,0-9.6-3.9-10.3-9.1l-5-39.7c-1.3-10.6,7-20,17.7-20h0
	C377.7,189.6,386.2,200.4,383.4,211.7z"/>
<path class="st0" d="M126.6,211.7l9.7,38.8c1.1,4.6,5.3,7.8,10,7.8l0,0c5.2,0,9.6-3.9,10.3-9.1l5-39.7c1.3-10.6-7-20-17.7-20h0
	C132.2,189.6,123.8,200.4,126.6,211.7z"/>
<g>
	<path class="st6" d="M94.6,456.2l-55.7-50c-4.7,5.9-7.4,13.3-7.4,21.3v75.9c0,4.7,3.8,8.6,8.6,8.6h68.8v-23.8
		C108.8,476,103.6,464.4,94.6,456.2z"/>
	<path class="st6" d="M415.4,456.2l55.7-50c4.7,5.9,7.4,13.3,7.4,21.3v75.9c0,4.7-3.8,8.6-8.6,8.6h-68.8v-23.8
		C401.2,476,406.4,464.4,415.4,456.2z"/>
	<path class="st6" d="M255,451.8c47.9,0,87.5-35.9,93.7-82.2l-3-0.7c-1.6-0.4-3.1-1-4.5-1.8l-10.5,6.1c-7.4,35-38.5,61.4-75.7,61.4
		c-38.7,0-70.8-28.6-76.4-65.8l-6.4-4.1c-2.1,2-4.8,3.5-7.8,4.2l-3,0.7C167.4,415.9,207.1,451.8,255,451.8z"/>
</g>
<g>
	<path class="st7" d="M176.4,346.7l78.6,70.7c0,0-22,11.1-49.2,33.5c-5.6,4.6-14.1,2.7-17.1-3.9l-36.9-81.2l11.7-17.5
		C166.4,343.9,172.5,343.2,176.4,346.7z"/>
	<path class="st7" d="M333.6,346.7L255,417.4c0,0,22,11.1,49.2,33.5c5.6,4.6,14.1,2.7,17.1-3.9l36.9-81.2l-11.7-17.5
		C343.6,343.9,337.5,343.2,333.6,346.7z"/>
</g>
</svg>
